# Blender 5.1.0
# www.blender.org
mtllib balcony_wall.mtl
o balcony-wall-col
v -0.050032 -0.544932 0.399987
v -0.037531 -0.544932 0.399987
v -0.050032 0.455068 0.399987
v 0.049968 -0.544932 0.399987
v 0.049968 0.455068 0.399987
v 0.049968 0.455068 0.399987
v 0.049968 -0.544932 0.399987
v 0.049968 0.455068 0.499987
v 0.049968 -0.544932 0.499987
v 0.049968 -0.544932 -0.400013
v -0.037531 -0.544932 -0.400013
v 0.049968 0.455068 -0.400013
v -0.050032 -0.544932 -0.400013
v -0.050032 0.455068 -0.400013
v 0.049968 -0.544932 -0.400013
v 0.049968 -0.544932 -0.500013
v -0.037531 -0.544932 -0.400013
v -0.050032 -0.544932 -0.500013
v -0.050032 -0.544932 -0.400013
v 0.049968 0.455068 -0.500013
v 0.049968 0.455068 -0.400013
v -0.050032 0.455068 -0.500013
v -0.050032 0.455068 -0.400013
v 0.049968 -0.544932 0.499987
v 0.049968 -0.544932 0.399987
v -0.050032 -0.544932 0.499987
v -0.037531 -0.544932 0.399987
v -0.050032 -0.544932 0.399987
v 0.049968 0.455068 0.399987
v 0.049968 0.455068 0.499987
v -0.050032 0.455068 0.399987
v -0.050032 0.455068 0.499987
v -0.050032 -0.544932 0.399987
v -0.050032 0.455068 0.399987
v -0.050032 -0.544932 0.499987
v -0.050032 0.455068 0.499987
v -0.050032 -0.544932 -0.500013
v -0.050032 0.455068 -0.500013
v -0.050032 -0.544932 -0.400013
v -0.050032 0.455068 -0.400013
v -0.050032 -0.544932 -0.500013
v 0.049968 -0.544932 -0.500013
v -0.050032 0.455068 -0.500013
v 0.049968 0.455068 -0.500013
v 0.049968 0.455068 -0.500013
v 0.049968 -0.544932 -0.500013
v 0.049968 0.455068 -0.400013
v 0.049968 -0.544932 -0.400013
v 0.049968 -0.544932 0.499987
v -0.050032 -0.544932 0.499987
v 0.049968 0.455068 0.499987
v -0.050032 0.455068 0.499987
v -0.025032 0.455068 0.099987
v -0.025032 0.455068 0.205397
v -0.025032 0.230068 0.174987
v -0.025032 0.309125 0.254044
v -0.025032 0.155068 0.399987
v -0.025032 0.260478 0.399987
v -0.025032 0.155068 -0.400013
v -0.025032 0.260478 -0.400013
v -0.025032 0.230068 -0.175013
v -0.025032 0.309125 -0.254070
v -0.025032 0.455068 -0.205422
v -0.025032 0.455068 -0.100013
v 0.024968 0.260478 -0.400013
v 0.024968 0.155068 -0.400013
v 0.024968 0.309125 -0.254070
v 0.024968 0.230068 -0.175013
v 0.024968 0.455068 -0.205422
v 0.024968 0.455068 -0.100013
v 0.024968 0.455068 -0.205422
v 0.024968 0.455068 -0.100013
v -0.025032 0.455068 -0.205422
v -0.025032 0.455068 -0.100013
v -0.025032 0.309125 -0.254070
v 0.024968 0.309125 -0.254070
v -0.025032 0.455068 -0.205422
v 0.024968 0.455068 -0.205422
v 0.024968 0.260478 -0.400013
v 0.024968 0.309125 -0.254070
v -0.025032 0.260478 -0.400013
v -0.025032 0.309125 -0.254070
v 0.024968 0.230068 -0.175013
v 0.024968 0.155068 -0.400013
v -0.025032 0.230068 -0.175013
v -0.025032 0.155068 -0.400013
v 0.024968 0.230068 -0.175013
v -0.025032 0.230068 -0.175013
v 0.024968 0.455068 -0.100013
v -0.025032 0.455068 -0.100013
v 0.024968 0.455068 0.099987
v 0.024968 0.230068 0.174987
v 0.024968 0.455068 0.205397
v 0.024968 0.309125 0.254044
v 0.024968 0.155068 0.399987
v 0.024968 0.260478 0.399987
v 0.024968 0.309125 0.254044
v 0.024968 0.260478 0.399987
v -0.025032 0.309125 0.254044
v -0.025032 0.260478 0.399987
v 0.024968 0.309125 0.254044
v -0.025032 0.309125 0.254044
v 0.024968 0.455068 0.205397
v -0.025032 0.455068 0.205397
v 0.024968 0.455068 0.099987
v 0.024968 0.455068 0.205397
v -0.025032 0.455068 0.099987
v -0.025032 0.455068 0.205397
v -0.025032 0.230068 0.174987
v 0.024968 0.230068 0.174987
v -0.025032 0.455068 0.099987
v 0.024968 0.455068 0.099987
v 0.024968 0.155068 0.399987
v 0.024968 0.230068 0.174987
v -0.025032 0.155068 0.399987
v -0.025032 0.230068 0.174987
vn -0.0000 -0.0000 -1.0000
vn 1.0000 -0.0000 -0.0000
vn -0.0000 -0.0000 1.0000
vn -0.0000 -1.0000 -0.0000
vn -0.0000 1.0000 -0.0000
vn -1.0000 -0.0000 -0.0000
vn -0.0000 0.3162 -0.9487
vn -0.0000 0.7071 -0.7071
vn -0.0000 0.9487 -0.3162
vn -0.0000 -0.7071 0.7071
vn -0.0000 -0.9487 0.3162
vn -0.0000 -0.3162 0.9487
vn -0.0002 -0.7071 0.7071
vn -0.0000 0.7071 0.7071
vn -0.0000 0.9487 0.3162
vn -0.0000 0.3162 0.9487
vn -0.0000 -0.3162 -0.9487
vn -0.0000 -0.7071 -0.7071
vn 0.0002 -0.7071 -0.7071
vn -0.0000 -0.9487 -0.3162
vt 0.593750 0.225000
vt 0.593750 0.025000
vt 0.593750 0.175000
vt 0.593750 0.122295
vt 0.593750 0.154727
s 0
usemtl colormap.001
f 3/1/1 2/2/1 1/2/1
f 2/2/1 3/1/1 4/2/1
f 4/2/1 3/1/1 5/1/1
f 8/1/2 7/2/2 6/1/2
f 7/2/2 8/1/2 9/2/2
f 12/1/3 11/2/3 10/2/3
f 11/2/3 12/1/3 13/2/3
f 13/2/3 12/1/3 14/1/3
f 17/2/4 16/2/4 15/2/4
f 16/2/4 17/2/4 18/2/4
f 18/2/4 17/2/4 19/2/4
f 22/1/5 21/1/5 20/1/5
f 21/1/5 22/1/5 23/1/5
f 26/2/4 25/2/4 24/2/4
f 25/2/4 26/2/4 27/2/4
f 27/2/4 26/2/4 28/2/4
f 31/1/5 30/1/5 29/1/5
f 30/1/5 31/1/5 32/1/5
f 35/2/6 34/1/6 33/2/6
f 34/1/6 35/2/6 36/1/6
f 39/2/6 38/1/6 37/2/6
f 38/1/6 39/2/6 40/1/6
f 43/1/1 42/2/1 41/2/1
f 42/2/1 43/1/1 44/1/1
f 47/1/2 46/2/2 45/1/2
f 46/2/2 47/1/2 48/2/2
f 51/1/3 50/2/3 49/2/3
f 50/2/3 51/1/3 52/1/3
f 55/3/6 54/2/6 53/2/6
f 54/2/6 55/3/6 56/4/6
f 56/4/6 55/3/6 57/1/6
f 56/4/6 57/1/6 58/5/6
f 61/3/6 60/5/6 59/1/6
f 60/5/6 61/3/6 62/4/6
f 62/4/6 61/3/6 63/2/6
f 63/2/6 61/3/6 64/2/6
f 67/4/2 66/1/2 65/5/2
f 66/1/2 67/4/2 68/3/2
f 68/3/2 67/4/2 69/2/2
f 68/3/2 69/2/2 70/2/2
f 73/2/5 72/2/5 71/2/5
f 72/2/5 73/2/5 74/2/5
s 1
f 77/2/7 76/4/8 75/4/8
f 76/4/8 77/2/7 78/2/7
f 81/5/9 80/4/8 79/5/9
f 80/4/8 81/5/9 82/4/8
f 85/3/10 84/1/11 83/3/10
f 84/1/11 85/3/10 86/1/11
f 89/2/12 88/3/10 87/3/13
f 88/3/10 89/2/12 90/2/12
s 0
f 93/2/2 92/3/2 91/2/2
f 92/3/2 93/2/2 94/4/2
f 92/3/2 94/4/2 95/1/2
f 95/1/2 94/4/2 96/5/2
s 1
f 99/4/14 98/5/15 97/4/14
f 98/5/15 99/4/14 100/5/15
f 103/2/16 102/4/14 101/4/14
f 102/4/14 103/2/16 104/2/16
s 0
f 107/2/5 106/2/5 105/2/5
f 106/2/5 107/2/5 108/2/5
s 1
f 111/2/17 110/3/18 109/3/19
f 110/3/18 111/2/17 112/2/17
f 115/1/20 114/3/18 113/1/20
f 114/3/18 115/1/20 116/3/18
