# Blender 5.1.0
# www.blender.org
mtllib chimney_top.mtl
o chimney-top-col
v -0.085948 0.053097 -0.170012
v 0.085961 0.053097 -0.170012
v -0.085948 0.303097 -0.170012
v 0.085961 0.303097 -0.170012
v 0.085961 0.053097 0.169988
v -0.085948 0.053097 0.169988
v 0.085961 0.303097 0.169988
v -0.085948 0.303097 0.169988
v -0.125948 0.053097 0.129988
v -0.125948 0.303097 0.129988
v -0.085948 0.053097 0.169988
v -0.085948 0.303097 0.169988
v 0.125961 0.053097 0.129988
v 0.085961 0.053097 0.169988
v 0.125961 0.303097 0.129988
v 0.085961 0.303097 0.169988
v 0.125961 0.303097 -0.130011
v 0.125961 0.303097 0.129988
v 0.085961 0.303097 -0.170012
v 0.085961 0.303097 -0.113443
v 0.069392 0.303097 -0.130011
v 0.085961 0.303097 0.113420
v 0.085961 0.303097 0.169988
v 0.069392 0.303097 0.129988
v -0.085948 0.303097 -0.170012
v -0.069379 0.303097 -0.130011
v -0.085948 0.303097 -0.113443
v -0.085948 0.303097 0.169988
v -0.125948 0.303097 -0.130011
v -0.069379 0.303097 0.129988
v -0.085948 0.303097 0.113420
v -0.125948 0.303097 0.129988
v 0.085961 0.053097 -0.170012
v 0.125961 0.053097 -0.130011
v 0.085961 0.303097 -0.170012
v 0.125961 0.303097 -0.130011
v -0.125948 0.053097 -0.130011
v -0.125948 0.303097 -0.130011
v -0.125948 0.053097 0.129988
v -0.125948 0.303097 0.129988
v 0.069392 0.153097 -0.130011
v -0.069379 0.153097 -0.130011
v 0.069392 0.303097 -0.130011
v -0.069379 0.303097 -0.130011
v -0.069379 0.303097 -0.130011
v -0.069379 0.153097 -0.130011
v -0.085948 0.303097 -0.113443
v -0.085948 0.153097 -0.113443
v -0.085948 0.303097 -0.113443
v -0.085948 0.153097 -0.113443
v -0.085948 0.303097 0.113420
v -0.085948 0.153097 0.113420
v -0.085948 0.303097 0.113420
v -0.085948 0.153097 0.113420
v -0.069379 0.303097 0.129988
v -0.069379 0.153097 0.129988
v 0.125961 0.053097 0.129988
v 0.125961 0.053097 -0.130011
v 0.085961 0.053097 0.169988
v 0.085961 0.053097 -0.170012
v -0.085948 0.053097 0.169988
v -0.085948 0.053097 -0.170012
v -0.125948 0.053097 0.129988
v -0.125948 0.053097 -0.130011
v 0.125961 0.303097 -0.130011
v 0.125961 0.053097 -0.130011
v 0.125961 0.303097 0.129988
v 0.125961 0.053097 0.129988
v 0.085961 0.153097 0.113420
v 0.085961 0.303097 0.113420
v 0.069392 0.153097 0.129988
v 0.069392 0.303097 0.129988
v -0.085948 0.053097 -0.170012
v -0.085948 0.303097 -0.170012
v -0.125948 0.053097 -0.130011
v -0.125948 0.303097 -0.130011
v -0.069379 0.153097 0.129988
v 0.069392 0.153097 0.129988
v -0.069379 0.303097 0.129988
v 0.069392 0.303097 0.129988
v 0.069392 0.153097 -0.130011
v 0.069392 0.303097 -0.130011
v 0.085961 0.153097 -0.113443
v 0.085961 0.303097 -0.113443
v 0.085961 0.153097 -0.113443
v 0.085961 0.303097 -0.113443
v 0.085961 0.153097 0.113420
v 0.085961 0.303097 0.113420
v 0.085961 0.153097 -0.113443
v 0.085961 0.153097 0.113420
v 0.069392 0.153097 -0.130011
v 0.069392 0.153097 0.129988
v -0.069379 0.153097 -0.130011
v -0.069379 0.153097 0.129988
v -0.085948 0.153097 -0.113443
v -0.085948 0.153097 0.113420
v 0.085961 -0.321903 0.129988
v -0.085948 -0.321903 0.129988
v 0.085961 0.053097 0.129988
v -0.069379 0.053097 0.129988
v -0.085948 0.053097 0.129988
v 0.069392 0.053097 0.129988
v 0.085961 0.053097 -0.130011
v 0.085961 -0.321903 -0.130011
v 0.085961 0.053097 -0.113443
v 0.085961 -0.321903 0.129988
v 0.085961 0.053097 0.113420
v 0.085961 0.053097 0.129988
v -0.085948 -0.321903 -0.130011
v -0.085948 0.053097 -0.130011
v -0.085948 -0.321903 0.129988
v -0.085948 0.053097 -0.113443
v -0.085948 0.053097 0.113420
v -0.085948 0.053097 0.129988
v -0.085948 -0.321903 -0.130011
v 0.085961 -0.321903 -0.130011
v -0.085948 0.053097 -0.130011
v 0.085961 0.053097 -0.130011
v -0.069379 0.053097 -0.130011
v 0.069392 0.053097 -0.130011
v 0.085961 -0.321903 0.129988
v 0.085961 -0.321903 -0.130011
v -0.085948 -0.321903 0.129988
v -0.085948 -0.321903 -0.130011
vn -0.3827 -0.0000 -0.9239
vn 0.3827 -0.0000 -0.9239
vn 0.3827 -0.0000 0.9239
vn -0.3827 -0.0000 0.9239
vn -0.9239 -0.0000 0.3827
vn -0.9239 0.0001 0.3827
vn -0.3827 -0.0001 0.9239
vn 0.9239 -0.0001 0.3827
vn 0.3827 0.0001 0.9239
vn 0.9239 -0.0000 0.3827
vn -0.0000 1.0000 -0.0000
vn 0.3827 -0.0001 -0.9239
vn 0.9239 0.0001 -0.3827
vn 0.9239 -0.0000 -0.3827
vn -0.9239 -0.0000 -0.3827
vn -0.0000 -1.0000 -0.0000
vn -0.3827 0.0001 -0.9239
vn -0.9239 -0.0001 -0.3827
vn -0.0000 -0.0000 1.0000
vn 1.0000 -0.0000 -0.0000
vn -1.0000 -0.0000 -0.0000
vn -0.0000 -0.0000 -1.0000
vt 0.218750 0.425000
vt 0.218750 0.325000
vt 0.218750 0.365000
vt 0.968750 0.175000
vt 0.968750 0.075000
s 1
usemtl colormap.008
f 3/1/1 2/2/2 1/2/1
f 2/2/2 3/1/1 4/1/2
f 7/1/3 6/2/4 5/2/3
f 6/2/4 7/1/3 8/1/4
f 11/2/4 10/1/5 9/2/6
f 10/1/5 11/2/4 12/1/7
f 15/1/8 14/2/9 13/2/10
f 14/2/9 15/1/8 16/1/3
s 0
f 19/1/11 18/1/11 17/1/11
f 18/1/11 19/1/11 20/1/11
f 20/1/11 19/1/11 21/1/11
f 22/1/11 18/1/11 20/1/11
f 18/1/11 22/1/11 23/1/11
f 23/1/11 22/1/11 24/1/11
f 21/1/11 19/1/11 25/1/11
f 21/1/11 25/1/11 26/1/11
f 26/1/11 25/1/11 27/1/11
f 23/1/11 24/1/11 28/1/11
f 27/1/11 25/1/11 29/1/11
f 28/1/11 24/1/11 30/1/11
f 27/1/11 29/1/11 31/1/11
f 28/1/11 30/1/11 31/1/11
f 31/1/11 29/1/11 28/1/11
f 28/1/11 29/1/11 32/1/11
s 1
f 35/1/12 34/2/13 33/2/2
f 34/2/13 35/1/12 36/1/14
f 39/2/5 38/1/15 37/2/15
f 38/1/15 39/2/5 40/1/5
f 43/1/4 42/3/3 41/3/4
f 42/3/3 43/1/4 44/1/3
f 47/1/10 46/3/3 45/1/3
f 46/3/3 47/1/10 48/3/10
f 51/1/14 50/3/10 49/1/10
f 50/3/10 51/1/14 52/3/14
f 55/1/2 54/3/14 53/1/14
f 54/3/14 55/1/2 56/3/2
s 0
f 59/2/16 58/2/16 57/2/16
f 58/2/16 59/2/16 60/2/16
f 60/2/16 59/2/16 61/2/16
f 60/2/16 61/2/16 62/2/16
f 62/2/16 61/2/16 63/2/16
f 62/2/16 63/2/16 64/2/16
s 1
f 67/1/10 66/2/14 65/1/14
f 66/2/14 67/1/10 68/2/10
f 71/3/1 70/1/15 69/3/15
f 70/1/15 71/3/1 72/1/1
f 75/2/15 74/1/1 73/2/17
f 74/1/1 75/2/15 76/1/18
f 79/1/2 78/3/1 77/3/2
f 78/3/1 79/1/2 80/1/1
f 83/3/5 82/1/4 81/3/4
f 82/1/4 83/3/5 84/1/5
f 87/3/15 86/1/5 85/3/5
f 86/1/5 87/3/15 88/1/15
s 0
f 91/3/11 90/3/11 89/3/11
f 90/3/11 91/3/11 92/3/11
f 92/3/11 91/3/11 93/3/11
f 92/3/11 93/3/11 94/3/11
f 94/3/11 93/3/11 95/3/11
f 94/3/11 95/3/11 96/3/11
f 99/4/19 98/5/19 97/5/19
f 98/5/19 99/4/19 100/4/19
f 98/5/19 100/4/19 101/4/19
s 1
f 100/4/19 99/4/19 102/4/19
s 0
f 105/4/20 104/5/20 103/4/20
f 104/5/20 105/4/20 106/5/20
f 106/5/20 105/4/20 107/4/20
f 106/5/20 107/4/20 108/4/20
f 111/5/21 110/4/21 109/5/21
f 110/4/21 111/5/21 112/4/21
f 112/4/21 111/5/21 113/4/21
f 113/4/21 111/5/21 114/4/21
f 117/4/22 116/5/22 115/5/22
f 116/5/22 117/4/22 118/4/22
s 1
f 118/4/20 117/4/19 119/4/19
f 118/4/20 119/4/19 120/4/19
s 0
f 123/5/16 122/5/16 121/5/16
f 122/5/16 123/5/16 124/5/16
