# Blender 5.1.0
# www.blender.org
mtllib fence_curved.mtl
o fence-curved-col
v 0.179746 -0.040000 -0.126713
v 0.206262 -0.040000 -0.153229
v 0.193239 -0.040000 -0.111327
v 0.222990 -0.040000 -0.134155
v 0.225488 -0.040000 -0.063064
v 0.251160 -0.040000 -0.011005
v 0.257964 -0.040000 -0.081814
v 0.269818 -0.040000 0.043960
v 0.281142 -0.040000 0.100890
v 0.285806 -0.040000 -0.025355
v 0.284939 -0.040000 0.158811
v 0.284939 -0.040000 0.583811
v 0.306041 -0.040000 0.034255
v 0.318322 -0.040000 0.095995
v 0.322439 -0.040000 0.583811
v 0.322439 -0.040000 0.158811
v 0.153229 -0.040000 -0.206262
v 0.126713 -0.040000 -0.179746
v 0.134155 -0.040000 -0.222990
v 0.081814 -0.040000 -0.257964
v 0.111327 -0.040000 -0.193239
v 0.063064 -0.040000 -0.225488
v 0.025355 -0.040000 -0.285806
v 0.011005 -0.040000 -0.251160
v -0.034255 -0.040000 -0.306041
v -0.043960 -0.040000 -0.269818
v -0.095995 -0.040000 -0.318322
v -0.100890 -0.040000 -0.281142
v -0.158811 -0.040000 -0.322439
v -0.158811 -0.040000 -0.284939
v -0.583811 -0.040000 -0.284939
v -0.583811 -0.040000 -0.322439
v 0.284939 0.115000 0.158811
v 0.284939 0.115000 0.583811
v 0.284939 0.040000 0.158811
v 0.284939 0.040000 0.583811
v 0.341189 0.190000 0.583811
v 0.341189 0.190000 0.658811
v 0.266189 0.190000 0.583811
v 0.266189 0.190000 0.658811
v 0.341189 0.190000 0.583811
v 0.341189 -0.190000 0.583811
v 0.341189 0.190000 0.658811
v 0.341189 -0.190000 0.658811
v 0.341189 -0.190000 0.658811
v 0.341189 -0.190000 0.583811
v 0.266189 -0.190000 0.658811
v 0.266189 -0.190000 0.583811
v 0.341189 -0.190000 0.658811
v 0.266189 -0.190000 0.658811
v 0.341189 0.190000 0.658811
v 0.266189 0.190000 0.658811
v 0.284939 -0.115000 0.158811
v 0.284939 -0.040000 0.158811
v 0.284939 -0.115000 0.583811
v 0.284939 -0.040000 0.583811
v 0.322439 0.040000 0.583811
v 0.322439 0.040000 0.158811
v 0.284939 0.040000 0.583811
v 0.318322 0.040000 0.095995
v 0.306041 0.040000 0.034255
v 0.285806 0.040000 -0.025355
v 0.284939 0.040000 0.158811
v 0.281142 0.040000 0.100890
v 0.257964 0.040000 -0.081814
v 0.269818 0.040000 0.043960
v 0.251160 0.040000 -0.011005
v 0.222990 0.040000 -0.134155
v 0.225488 0.040000 -0.063064
v 0.193239 0.040000 -0.111327
v 0.206262 0.040000 -0.153229
v 0.179746 0.040000 -0.126713
v 0.179746 0.115000 -0.126713
v 0.206262 0.115000 -0.153229
v 0.193239 0.115000 -0.111327
v 0.222990 0.115000 -0.134155
v 0.225488 0.115000 -0.063064
v 0.251160 0.115000 -0.011005
v 0.257964 0.115000 -0.081814
v 0.269818 0.115000 0.043960
v 0.281142 0.115000 0.100890
v 0.285806 0.115000 -0.025355
v 0.284939 0.115000 0.158811
v 0.284939 0.115000 0.583811
v 0.306041 0.115000 0.034255
v 0.318322 0.115000 0.095995
v 0.322439 0.115000 0.583811
v 0.322439 0.115000 0.158811
v 0.322439 -0.115000 0.583811
v 0.322439 -0.115000 0.158811
v 0.284939 -0.115000 0.583811
v 0.318322 -0.115000 0.095995
v 0.306041 -0.115000 0.034255
v 0.285806 -0.115000 -0.025355
v 0.284939 -0.115000 0.158811
v 0.281142 -0.115000 0.100890
v 0.257964 -0.115000 -0.081814
v 0.269818 -0.115000 0.043960
v 0.251160 -0.115000 -0.011005
v 0.222990 -0.115000 -0.134155
v 0.225488 -0.115000 -0.063064
v 0.193239 -0.115000 -0.111327
v 0.206262 -0.115000 -0.153229
v 0.179746 -0.115000 -0.126713
v 0.322439 0.115000 0.158811
v 0.322439 0.040000 0.158811
v 0.322439 0.115000 0.583811
v 0.322439 0.040000 0.583811
v 0.266189 -0.190000 0.583811
v 0.266189 0.190000 0.583811
v 0.266189 -0.190000 0.658811
v 0.266189 0.190000 0.658811
v 0.322439 -0.040000 0.158811
v 0.322439 -0.115000 0.158811
v 0.322439 -0.040000 0.583811
v 0.322439 -0.115000 0.583811
v 0.168226 -0.190000 -0.115193
v 0.115193 -0.190000 -0.168226
v 0.168226 0.190000 -0.115193
v 0.115193 0.190000 -0.168226
v 0.168226 -0.190000 -0.221259
v 0.221259 -0.190000 -0.168226
v 0.168226 0.190000 -0.221259
v 0.221259 0.190000 -0.168226
v 0.221259 0.190000 -0.168226
v 0.168226 0.190000 -0.115193
v 0.168226 0.190000 -0.221259
v 0.115193 0.190000 -0.168226
v 0.221259 -0.190000 -0.168226
v 0.168226 -0.190000 -0.221259
v 0.168226 -0.190000 -0.115193
v 0.115193 -0.190000 -0.168226
v 0.153229 -0.115000 -0.206262
v 0.153229 -0.040000 -0.206262
v 0.134155 -0.115000 -0.222990
v 0.134155 -0.040000 -0.222990
v 0.153229 -0.115000 -0.206262
v 0.134155 -0.115000 -0.222990
v 0.126713 -0.115000 -0.179746
v 0.081814 -0.115000 -0.257964
v 0.111327 -0.115000 -0.193239
v 0.063064 -0.115000 -0.225488
v 0.025355 -0.115000 -0.285806
v 0.011005 -0.115000 -0.251160
v -0.034255 -0.115000 -0.306041
v -0.043960 -0.115000 -0.269818
v -0.095995 -0.115000 -0.318322
v -0.100890 -0.115000 -0.281142
v -0.158811 -0.115000 -0.322439
v -0.158811 -0.115000 -0.284939
v -0.583811 -0.115000 -0.284939
v -0.583811 -0.115000 -0.322439
v -0.158811 0.040000 -0.322439
v -0.095995 0.040000 -0.318322
v -0.158811 0.115000 -0.322439
v -0.095995 0.115000 -0.318322
v 0.306041 -0.040000 0.034255
v 0.306041 -0.115000 0.034255
v 0.318322 -0.040000 0.095995
v 0.318322 -0.115000 0.095995
v -0.034255 0.040000 -0.306041
v 0.025355 0.040000 -0.285806
v -0.034255 0.115000 -0.306041
v 0.025355 0.115000 -0.285806
v 0.081814 0.040000 -0.257964
v 0.134155 0.040000 -0.222990
v 0.081814 0.115000 -0.257964
v 0.134155 0.115000 -0.222990
v 0.285806 0.115000 -0.025355
v 0.285806 0.040000 -0.025355
v 0.306041 0.115000 0.034255
v 0.306041 0.040000 0.034255
v -0.100890 -0.115000 -0.281142
v -0.158811 -0.115000 -0.284939
v -0.100890 -0.040000 -0.281142
v -0.158811 -0.040000 -0.284939
v -0.034255 -0.115000 -0.306041
v 0.025355 -0.115000 -0.285806
v -0.034255 -0.040000 -0.306041
v 0.025355 -0.040000 -0.285806
v 0.126713 0.040000 -0.179746
v 0.111327 0.040000 -0.193239
v 0.126713 0.115000 -0.179746
v 0.111327 0.115000 -0.193239
v 0.063064 0.040000 -0.225488
v 0.011005 0.040000 -0.251160
v 0.063064 0.115000 -0.225488
v 0.011005 0.115000 -0.251160
v 0.281142 -0.115000 0.100890
v 0.281142 -0.040000 0.100890
v 0.284939 -0.115000 0.158811
v 0.284939 -0.040000 0.158811
v -0.095995 -0.115000 -0.318322
v -0.034255 -0.115000 -0.306041
v -0.095995 -0.040000 -0.318322
v -0.034255 -0.040000 -0.306041
v 0.081814 -0.115000 -0.257964
v 0.134155 -0.115000 -0.222990
v 0.081814 -0.040000 -0.257964
v 0.134155 -0.040000 -0.222990
v 0.318322 -0.040000 0.095995
v 0.318322 -0.115000 0.095995
v 0.322439 -0.040000 0.158811
v 0.322439 -0.115000 0.158811
v 0.153229 0.115000 -0.206262
v 0.126713 0.115000 -0.179746
v 0.134155 0.115000 -0.222990
v 0.081814 0.115000 -0.257964
v 0.111327 0.115000 -0.193239
v 0.063064 0.115000 -0.225488
v 0.025355 0.115000 -0.285806
v 0.011005 0.115000 -0.251160
v -0.034255 0.115000 -0.306041
v -0.043960 0.115000 -0.269818
v -0.095995 0.115000 -0.318322
v -0.100890 0.115000 -0.281142
v -0.158811 0.115000 -0.322439
v -0.158811 0.115000 -0.284939
v -0.583811 0.115000 -0.284939
v -0.583811 0.115000 -0.322439
v 0.025355 0.040000 -0.285806
v 0.081814 0.040000 -0.257964
v 0.025355 0.115000 -0.285806
v 0.081814 0.115000 -0.257964
v 0.269818 0.040000 0.043960
v 0.269818 0.115000 0.043960
v 0.281142 0.040000 0.100890
v 0.281142 0.115000 0.100890
v 0.225488 0.040000 -0.063064
v 0.225488 0.115000 -0.063064
v 0.251160 0.040000 -0.011005
v 0.251160 0.115000 -0.011005
v 0.257964 -0.040000 -0.081814
v 0.257964 -0.115000 -0.081814
v 0.285806 -0.040000 -0.025355
v 0.285806 -0.115000 -0.025355
v 0.306041 0.115000 0.034255
v 0.306041 0.040000 0.034255
v 0.318322 0.115000 0.095995
v 0.318322 0.040000 0.095995
v 0.222990 0.115000 -0.134155
v 0.222990 0.040000 -0.134155
v 0.257964 0.115000 -0.081814
v 0.257964 0.040000 -0.081814
v 0.225488 -0.115000 -0.063064
v 0.225488 -0.040000 -0.063064
v 0.251160 -0.115000 -0.011005
v 0.251160 -0.040000 -0.011005
v 0.222990 -0.040000 -0.134155
v 0.222990 -0.115000 -0.134155
v 0.257964 -0.040000 -0.081814
v 0.257964 -0.115000 -0.081814
v -0.158811 -0.115000 -0.322439
v -0.095995 -0.115000 -0.318322
v -0.158811 -0.040000 -0.322439
v -0.095995 -0.040000 -0.318322
v 0.251160 -0.115000 -0.011005
v 0.251160 -0.040000 -0.011005
v 0.269818 -0.115000 0.043960
v 0.269818 -0.040000 0.043960
v 0.153229 0.040000 -0.206262
v 0.134155 0.040000 -0.222990
v 0.126713 0.040000 -0.179746
v 0.081814 0.040000 -0.257964
v 0.111327 0.040000 -0.193239
v 0.063064 0.040000 -0.225488
v 0.025355 0.040000 -0.285806
v 0.011005 0.040000 -0.251160
v -0.034255 0.040000 -0.306041
v -0.043960 0.040000 -0.269818
v -0.095995 0.040000 -0.318322
v -0.100890 0.040000 -0.281142
v -0.158811 0.040000 -0.322439
v -0.158811 0.040000 -0.284939
v -0.583811 0.040000 -0.284939
v -0.583811 0.040000 -0.322439
v 0.251160 0.040000 -0.011005
v 0.251160 0.115000 -0.011005
v 0.269818 0.040000 0.043960
v 0.269818 0.115000 0.043960
v -0.158811 0.040000 -0.322439
v -0.158811 0.115000 -0.322439
v -0.583811 0.040000 -0.322439
v -0.583811 0.115000 -0.322439
v 0.025355 -0.115000 -0.285806
v 0.081814 -0.115000 -0.257964
v 0.025355 -0.040000 -0.285806
v 0.081814 -0.040000 -0.257964
v 0.063064 -0.115000 -0.225488
v 0.011005 -0.115000 -0.251160
v 0.063064 -0.040000 -0.225488
v 0.011005 -0.040000 -0.251160
v 0.111327 -0.115000 -0.193239
v 0.063064 -0.115000 -0.225488
v 0.111327 -0.040000 -0.193239
v 0.063064 -0.040000 -0.225488
v 0.318322 0.115000 0.095995
v 0.318322 0.040000 0.095995
v 0.322439 0.115000 0.158811
v 0.322439 0.040000 0.158811
v 0.011005 -0.115000 -0.251160
v -0.043960 -0.115000 -0.269818
v 0.011005 -0.040000 -0.251160
v -0.043960 -0.040000 -0.269818
v 0.193239 0.040000 -0.111327
v 0.193239 0.115000 -0.111327
v 0.225488 0.040000 -0.063064
v 0.225488 0.115000 -0.063064
v 0.111327 0.040000 -0.193239
v 0.063064 0.040000 -0.225488
v 0.111327 0.115000 -0.193239
v 0.063064 0.115000 -0.225488
v -0.095995 0.040000 -0.318322
v -0.034255 0.040000 -0.306041
v -0.095995 0.115000 -0.318322
v -0.034255 0.115000 -0.306041
v -0.658811 -0.190000 -0.341189
v -0.658811 0.190000 -0.341189
v -0.658811 -0.190000 -0.266189
v -0.658811 0.190000 -0.266189
v 0.193239 -0.115000 -0.111327
v 0.193239 -0.040000 -0.111327
v 0.225488 -0.115000 -0.063064
v 0.225488 -0.040000 -0.063064
v -0.100890 0.040000 -0.281142
v -0.158811 0.040000 -0.284939
v -0.100890 0.115000 -0.281142
v -0.158811 0.115000 -0.284939
v 0.206262 0.115000 -0.153229
v 0.206262 0.040000 -0.153229
v 0.222990 0.115000 -0.134155
v 0.222990 0.040000 -0.134155
v -0.658811 -0.190000 -0.341189
v -0.583811 -0.190000 -0.341189
v -0.658811 0.190000 -0.341189
v -0.583811 0.190000 -0.341189
v 0.281142 0.040000 0.100890
v 0.281142 0.115000 0.100890
v 0.284939 0.040000 0.158811
v 0.284939 0.115000 0.158811
v -0.583811 -0.190000 -0.266189
v -0.658811 -0.190000 -0.266189
v -0.583811 0.190000 -0.266189
v -0.658811 0.190000 -0.266189
v 0.269818 -0.115000 0.043960
v 0.269818 -0.040000 0.043960
v 0.281142 -0.115000 0.100890
v 0.281142 -0.040000 0.100890
v -0.583811 0.190000 -0.266189
v -0.658811 0.190000 -0.266189
v -0.583811 0.190000 -0.341189
v -0.658811 0.190000 -0.341189
v 0.257964 0.115000 -0.081814
v 0.257964 0.040000 -0.081814
v 0.285806 0.115000 -0.025355
v 0.285806 0.040000 -0.025355
v -0.583811 -0.190000 -0.266189
v -0.583811 -0.190000 -0.341189
v -0.658811 -0.190000 -0.266189
v -0.658811 -0.190000 -0.341189
v -0.158811 0.040000 -0.284939
v -0.583811 0.040000 -0.284939
v -0.158811 0.115000 -0.284939
v -0.583811 0.115000 -0.284939
v -0.043960 -0.115000 -0.269818
v -0.100890 -0.115000 -0.281142
v -0.043960 -0.040000 -0.269818
v -0.100890 -0.040000 -0.281142
v -0.043960 0.040000 -0.269818
v -0.100890 0.040000 -0.281142
v -0.043960 0.115000 -0.269818
v -0.100890 0.115000 -0.281142
v 0.011005 0.040000 -0.251160
v -0.043960 0.040000 -0.269818
v 0.011005 0.115000 -0.251160
v -0.043960 0.115000 -0.269818
v 0.285806 -0.040000 -0.025355
v 0.285806 -0.115000 -0.025355
v 0.306041 -0.040000 0.034255
v 0.306041 -0.115000 0.034255
v 0.126713 -0.115000 -0.179746
v 0.111327 -0.115000 -0.193239
v 0.126713 -0.040000 -0.179746
v 0.111327 -0.040000 -0.193239
v 0.179746 0.040000 -0.126713
v 0.179746 0.115000 -0.126713
v 0.193239 0.040000 -0.111327
v 0.193239 0.115000 -0.111327
v -0.158811 -0.115000 -0.284939
v -0.583811 -0.115000 -0.284939
v -0.158811 -0.040000 -0.284939
v -0.583811 -0.040000 -0.284939
v -0.158811 -0.115000 -0.322439
v -0.158811 -0.040000 -0.322439
v -0.583811 -0.115000 -0.322439
v -0.583811 -0.040000 -0.322439
v 0.179746 -0.115000 -0.126713
v 0.179746 -0.040000 -0.126713
v 0.193239 -0.115000 -0.111327
v 0.193239 -0.040000 -0.111327
v 0.206262 -0.040000 -0.153229
v 0.206262 -0.115000 -0.153229
v 0.222990 -0.040000 -0.134155
v 0.222990 -0.115000 -0.134155
v 0.153229 0.040000 -0.206262
v 0.153229 0.115000 -0.206262
v 0.134155 0.040000 -0.222990
v 0.134155 0.115000 -0.222990
v -0.583811 0.115000 -0.284939
v -0.583811 0.190000 -0.266189
v -0.583811 0.115000 -0.322439
v -0.583811 0.040000 -0.284939
v -0.583811 0.190000 -0.341189
v -0.583811 -0.190000 -0.341189
v -0.583811 -0.115000 -0.322439
v -0.583811 0.040000 -0.322439
v -0.583811 -0.190000 -0.266189
v -0.583811 -0.040000 -0.322439
v -0.583811 -0.115000 -0.284939
v -0.583811 -0.040000 -0.284939
v 0.179746 0.115000 -0.126713
v 0.168226 0.190000 -0.115193
v 0.206262 0.115000 -0.153229
v 0.179746 0.040000 -0.126713
v 0.221259 0.190000 -0.168226
v 0.221259 -0.190000 -0.168226
v 0.206262 -0.115000 -0.153229
v 0.206262 0.040000 -0.153229
v 0.168226 -0.190000 -0.115193
v 0.206262 -0.040000 -0.153229
v 0.179746 -0.115000 -0.126713
v 0.179746 -0.040000 -0.126713
v 0.126713 -0.115000 -0.179746
v 0.115193 -0.190000 -0.168226
v 0.153229 -0.115000 -0.206262
v 0.126713 -0.040000 -0.179746
v 0.168226 -0.190000 -0.221259
v 0.168226 0.190000 -0.221259
v 0.153229 0.115000 -0.206262
v 0.153229 -0.040000 -0.206262
v 0.115193 0.190000 -0.168226
v 0.153229 0.040000 -0.206262
v 0.126713 0.115000 -0.179746
v 0.126713 0.040000 -0.179746
v 0.284939 0.115000 0.583811
v 0.266189 0.190000 0.583811
v 0.284939 0.040000 0.583811
v 0.322439 0.115000 0.583811
v 0.341189 0.190000 0.583811
v 0.322439 0.040000 0.583811
v 0.322439 -0.040000 0.583811
v 0.284939 -0.040000 0.583811
v 0.322439 -0.115000 0.583811
v 0.341189 -0.190000 0.583811
v 0.284939 -0.115000 0.583811
v 0.266189 -0.190000 0.583811
vn -0.0000 1.0000 -0.0000
vn -0.9995 -0.0000 0.0327
vn -1.0000 -0.0000 -0.0000
vn 1.0000 -0.0000 -0.0000
vn -0.0000 -1.0000 -0.0000
vn -0.0000 -0.0000 1.0000
vn 0.9995 -0.0000 -0.0327
vn -0.7071 -0.0000 0.7071
vn 0.7071 -0.0000 -0.7071
vn 0.6088 -0.0000 -0.7933
vn 0.6593 -0.0000 -0.7518
vn 0.0328 -0.0000 -0.9995
vn 0.1305 -0.0000 -0.9914
vn 0.9914 -0.0000 -0.1305
vn 0.9659 -0.0000 -0.2588
vn 0.2588 -0.0000 -0.9659
vn 0.3827 -0.0000 -0.9239
vn 0.5000 -0.0000 -0.8660
vn 0.6088 -0.0000 -0.7934
vn 0.6087 -0.0000 -0.7934
vn 0.9239 -0.0000 -0.3827
vn -0.1305 -0.0000 0.9914
vn -0.0327 -0.0000 0.9995
vn -0.6593 -0.0000 0.7518
vn -0.6088 -0.0000 0.7933
vn -0.5000 -0.0000 0.8660
vn -0.3827 -0.0000 0.9239
vn -0.9914 -0.0000 0.1305
vn 0.9995 -0.0000 -0.0328
vn -0.9659 -0.0000 0.2588
vn -0.9239 -0.0000 0.3827
vn -0.8660 -0.0000 0.5000
vn 0.8660 -0.0000 -0.5000
vn 0.7934 -0.0000 -0.6087
vn -0.0000 -0.0000 -1.0000
vn 0.0327 -0.0000 -0.9995
vn -0.6088 -0.0000 0.7934
vn -0.2588 -0.0000 0.9659
vn -0.7934 -0.0000 0.6088
vn 0.7933 -0.0000 -0.6088
vn 0.7518 -0.0000 -0.6593
vn -0.7933 -0.0000 0.6088
vn -0.7518 -0.0000 0.6593
vn -0.0000 -0.0000 -0.0000
vn 0.7071 -0.0000 0.7071
vn -0.7071 -0.0000 -0.7071
vn 0.2706 0.2706 0.9239
vt 0.593750 0.103947
vt 0.593750 0.146053
vt 0.593750 0.185526
vt 0.593750 0.225000
vt 0.593750 0.025000
vt 0.593750 0.064474
s 0
usemtl colormap.011
f 3/1/1 2/1/1 1/1/1
f 3/1/1 4/1/1 2/1/1
f 5/1/1 4/1/1 3/1/1
f 6/1/1 4/1/1 5/1/1
f 6/1/1 7/1/1 4/1/1
f 8/1/1 7/1/1 6/1/1
f 9/1/1 7/1/1 8/1/1
f 9/1/1 10/1/1 7/1/1
f 10/1/1 9/1/1 11/1/1
f 12/1/1 10/1/1 11/1/1
f 12/1/1 13/1/1 10/1/1
f 12/1/1 14/1/1 13/1/1
f 15/1/1 14/1/1 12/1/1
f 14/1/1 15/1/1 16/1/1
f 19/1/1 18/1/1 17/1/1
f 18/1/1 19/1/1 20/1/1
f 18/1/1 20/1/1 21/1/1
f 21/1/1 20/1/1 22/1/1
f 22/1/1 20/1/1 23/1/1
f 22/1/1 23/1/1 24/1/1
f 24/1/1 23/1/1 25/1/1
f 24/1/1 25/1/1 26/1/1
f 26/1/1 25/1/1 27/1/1
f 26/1/1 27/1/1 28/1/1
f 28/1/1 27/1/1 29/1/1
f 28/1/1 29/1/1 30/1/1
f 30/1/1 29/1/1 31/1/1
f 31/1/1 29/1/1 32/1/1
s 1
f 35/2/2 34/3/3 33/3/2
f 34/3/3 35/2/2 36/2/3
s 0
f 39/4/1 38/4/1 37/4/1
f 38/4/1 39/4/1 40/4/1
f 43/4/4 42/5/4 41/4/4
f 42/5/4 43/4/4 44/5/4
f 47/5/5 46/5/5 45/5/5
f 46/5/5 47/5/5 48/5/5
f 51/4/6 50/5/6 49/5/6
f 50/5/6 51/4/6 52/4/6
s 1
f 55/6/3 54/1/2 53/6/2
f 54/1/2 55/6/3 56/1/3
s 0
f 59/2/5 58/2/5 57/2/5
f 58/2/5 59/2/5 60/2/5
f 60/2/5 59/2/5 61/2/5
f 61/2/5 59/2/5 62/2/5
f 62/2/5 59/2/5 63/2/5
f 62/2/5 63/2/5 64/2/5
f 62/2/5 64/2/5 65/2/5
f 65/2/5 64/2/5 66/2/5
f 65/2/5 66/2/5 67/2/5
f 65/2/5 67/2/5 68/2/5
f 68/2/5 67/2/5 69/2/5
f 68/2/5 69/2/5 70/2/5
f 68/2/5 70/2/5 71/2/5
f 71/2/5 70/2/5 72/2/5
f 75/3/1 74/3/1 73/3/1
f 75/3/1 76/3/1 74/3/1
f 77/3/1 76/3/1 75/3/1
f 78/3/1 76/3/1 77/3/1
f 78/3/1 79/3/1 76/3/1
f 80/3/1 79/3/1 78/3/1
f 81/3/1 79/3/1 80/3/1
f 81/3/1 82/3/1 79/3/1
f 82/3/1 81/3/1 83/3/1
f 84/3/1 82/3/1 83/3/1
f 84/3/1 85/3/1 82/3/1
f 84/3/1 86/3/1 85/3/1
f 87/3/1 86/3/1 84/3/1
f 86/3/1 87/3/1 88/3/1
f 91/6/5 90/6/5 89/6/5
f 90/6/5 91/6/5 92/6/5
f 92/6/5 91/6/5 93/6/5
f 93/6/5 91/6/5 94/6/5
f 94/6/5 91/6/5 95/6/5
f 94/6/5 95/6/5 96/6/5
f 94/6/5 96/6/5 97/6/5
f 97/6/5 96/6/5 98/6/5
f 97/6/5 98/6/5 99/6/5
f 97/6/5 99/6/5 100/6/5
f 100/6/5 99/6/5 101/6/5
f 100/6/5 101/6/5 102/6/5
f 100/6/5 102/6/5 103/6/5
f 103/6/5 102/6/5 104/6/5
s 1
f 107/3/4 106/2/7 105/3/7
f 106/2/7 107/3/4 108/2/4
s 0
f 111/5/3 110/4/3 109/5/3
f 110/4/3 111/5/3 112/4/3
s 1
f 115/1/4 114/6/7 113/1/7
f 114/6/7 115/1/4 116/6/4
f 119/4/8 118/5/8 117/5/8
f 118/5/8 119/4/8 120/4/8
f 123/4/9 122/5/9 121/5/9
f 122/5/9 123/4/9 124/4/9
s 0
f 127/4/1 126/4/1 125/4/1
f 126/4/1 127/4/1 128/4/1
f 131/5/5 130/5/5 129/5/5
f 130/5/5 131/5/5 132/5/5
s 1
f 135/6/10 134/1/11 133/6/11
f 134/1/11 135/6/10 136/1/10
s 0
f 139/6/5 138/6/5 137/6/5
f 138/6/5 139/6/5 140/6/5
f 140/6/5 139/6/5 141/6/5
f 140/6/5 141/6/5 142/6/5
f 140/6/5 142/6/5 143/6/5
f 143/6/5 142/6/5 144/6/5
f 143/6/5 144/6/5 145/6/5
f 145/6/5 144/6/5 146/6/5
f 145/6/5 146/6/5 147/6/5
f 147/6/5 146/6/5 148/6/5
f 147/6/5 148/6/5 149/6/5
f 149/6/5 148/6/5 150/6/5
f 149/6/5 150/6/5 151/6/5
f 149/6/5 151/6/5 152/6/5
s 1
f 155/3/12 154/2/13 153/2/12
f 154/2/13 155/3/12 156/3/13
f 159/1/14 158/6/15 157/1/15
f 158/6/15 159/1/14 160/6/14
f 163/3/16 162/2/17 161/2/16
f 162/2/17 163/3/16 164/3/17
f 167/3/18 166/2/19 165/2/18
f 166/2/19 167/3/18 168/3/20
f 171/3/15 170/2/21 169/3/21
f 170/2/21 171/3/15 172/2/15
f 175/1/22 174/6/23 173/6/22
f 174/6/23 175/1/22 176/1/23
f 179/1/16 178/6/17 177/6/16
f 178/6/17 179/1/16 180/1/17
f 183/3/24 182/2/25 181/2/24
f 182/2/25 183/3/24 184/3/25
f 187/3/26 186/2/27 185/2/26
f 186/2/27 187/3/26 188/3/27
f 191/6/2 190/1/28 189/6/28
f 190/1/28 191/6/2 192/1/2
f 195/1/13 194/6/16 193/6/13
f 194/6/16 195/1/13 196/1/16
f 199/1/18 198/6/20 197/6/18
f 198/6/20 199/1/18 200/1/20
f 203/1/29 202/6/14 201/1/14
f 202/6/14 203/1/29 204/6/7
s 0
f 207/3/1 206/3/1 205/3/1
f 206/3/1 207/3/1 208/3/1
f 206/3/1 208/3/1 209/3/1
f 209/3/1 208/3/1 210/3/1
f 210/3/1 208/3/1 211/3/1
f 210/3/1 211/3/1 212/3/1
f 212/3/1 211/3/1 213/3/1
f 212/3/1 213/3/1 214/3/1
f 214/3/1 213/3/1 215/3/1
f 214/3/1 215/3/1 216/3/1
f 216/3/1 215/3/1 217/3/1
f 216/3/1 217/3/1 218/3/1
f 218/3/1 217/3/1 219/3/1
f 219/3/1 217/3/1 220/3/1
s 1
f 223/3/17 222/2/18 221/2/17
f 222/2/18 223/3/17 224/3/18
f 227/2/28 226/3/30 225/2/30
f 226/3/30 227/2/28 228/3/28
f 231/2/31 230/3/32 229/2/32
f 230/3/32 231/2/31 232/3/31
f 235/1/21 234/6/33 233/1/33
f 234/6/33 235/1/21 236/6/21
f 239/3/14 238/2/15 237/3/15
f 238/2/15 239/3/14 240/2/14
f 243/3/33 242/2/34 241/3/34
f 242/2/34 243/3/33 244/2/33
f 247/6/31 246/1/32 245/6/32
f 246/1/32 247/6/31 248/1/31
f 251/1/33 250/6/34 249/1/34
f 250/6/34 251/1/33 252/6/33
f 255/1/12 254/6/13 253/6/12
f 254/6/13 255/1/12 256/1/13
f 259/6/30 258/1/31 257/6/31
f 258/1/31 259/6/30 260/1/30
s 0
f 263/2/5 262/2/5 261/2/5
f 262/2/5 263/2/5 264/2/5
f 264/2/5 263/2/5 265/2/5
f 264/2/5 265/2/5 266/2/5
f 264/2/5 266/2/5 267/2/5
f 267/2/5 266/2/5 268/2/5
f 267/2/5 268/2/5 269/2/5
f 269/2/5 268/2/5 270/2/5
f 269/2/5 270/2/5 271/2/5
f 271/2/5 270/2/5 272/2/5
f 271/2/5 272/2/5 273/2/5
f 273/2/5 272/2/5 274/2/5
f 273/2/5 274/2/5 275/2/5
f 273/2/5 275/2/5 276/2/5
s 1
f 279/2/30 278/3/31 277/2/31
f 278/3/31 279/2/30 280/3/30
f 283/2/35 282/3/36 281/2/36
f 282/3/36 283/2/35 284/3/35
f 287/1/17 286/6/18 285/6/17
f 286/6/18 287/1/17 288/1/18
f 291/1/26 290/6/27 289/6/26
f 290/6/27 291/1/26 292/1/27
f 295/1/37 294/6/26 293/6/37
f 294/6/26 295/1/37 296/1/26
f 299/3/29 298/2/14 297/3/14
f 298/2/14 299/3/29 300/2/29
f 303/1/27 302/6/38 301/6/27
f 302/6/38 303/1/27 304/1/38
f 307/2/32 306/3/39 305/2/39
f 306/3/39 307/2/32 308/3/32
f 311/3/37 310/2/26 309/2/37
f 310/2/26 311/3/37 312/3/26
f 315/3/13 314/2/16 313/2/13
f 314/2/16 315/3/13 316/3/16
s 0
f 319/5/3 318/4/3 317/5/3
f 318/4/3 319/5/3 320/4/3
s 1
f 323/6/32 322/1/39 321/6/39
f 322/1/39 323/6/32 324/1/32
f 327/3/22 326/2/23 325/2/22
f 326/2/23 327/3/22 328/3/23
f 331/3/40 330/2/41 329/3/41
f 330/2/41 331/3/40 332/2/40
s 0
f 335/4/35 334/5/35 333/5/35
f 334/5/35 335/4/35 336/4/35
s 1
f 339/2/2 338/3/28 337/2/28
f 338/3/28 339/2/2 340/3/2
s 0
f 343/4/6 342/5/6 341/5/6
f 342/5/6 343/4/6 344/4/6
s 1
f 347/6/28 346/1/30 345/6/30
f 346/1/30 347/6/28 348/1/28
s 0
f 351/4/1 350/4/1 349/4/1
f 350/4/1 351/4/1 352/4/1
s 1
f 355/3/21 354/2/33 353/3/33
f 354/2/33 355/3/21 356/2/21
s 0
f 359/5/5 358/5/5 357/5/5
f 358/5/5 359/5/5 360/5/5
s 1
f 363/3/23 362/2/6 361/2/23
f 362/2/6 363/3/23 364/3/6
f 367/1/38 366/6/22 365/6/38
f 366/6/22 367/1/38 368/1/22
f 371/3/38 370/2/22 369/2/38
f 370/2/22 371/3/38 372/3/22
f 375/3/27 374/2/38 373/2/27
f 374/2/38 375/3/27 376/3/38
f 379/1/15 378/6/21 377/1/21
f 378/6/21 379/1/15 380/6/15
f 383/1/24 382/6/25 381/6/24
f 382/6/25 383/1/24 384/1/25
f 387/2/42 386/3/43 385/2/43
f 386/3/43 387/2/42 388/3/42
f 391/1/23 390/6/6 389/6/23
f 390/6/6 391/1/23 392/1/6
f 395/6/35 394/1/36 393/6/36
f 394/1/36 395/6/35 396/1/35
f 399/6/42 398/1/43 397/6/43
f 398/1/43 399/6/42 400/1/42
f 403/1/40 402/6/41 401/1/41
f 402/6/41 403/1/40 404/6/40
f 407/2/10 406/3/11 405/2/11
f 406/3/11 407/2/10 408/3/10
s 0
f 411/3/4 410/4/4 409/3/4
f 409/3/4 410/4/4 412/2/4
f 411/3/4 413/4/4 410/4/4
f 413/4/4 411/3/4 414/5/4
f 415/6/4 414/5/4 411/3/4
s 1
f 415/6/5 411/3/44 416/2/44
s 0
f 414/5/4 415/6/4 417/5/4
s 1
f 415/6/5 416/2/44 418/1/3
s 0
f 412/2/4 418/1/4 416/2/4
f 417/5/4 415/6/4 419/6/4
f 417/5/4 419/6/4 410/4/4
f 418/1/4 412/2/4 420/1/4
f 412/2/4 410/4/4 420/1/4
f 420/1/4 410/4/4 419/6/4
f 423/3/45 422/4/45 421/3/45
f 421/3/45 422/4/45 424/2/45
f 423/3/45 425/4/45 422/4/45
f 425/4/45 423/3/45 426/5/45
f 427/6/45 426/5/45 423/3/45
s 1
f 427/6/5 423/3/46 428/2/46
s 0
f 426/5/45 427/6/45 429/5/45
s 1
f 427/6/5 428/2/46 430/1/47
s 0
f 424/2/45 430/1/45 428/2/45
f 429/5/45 427/6/45 431/6/45
f 429/5/45 431/6/45 422/4/45
f 430/1/45 424/2/45 432/1/45
f 424/2/45 422/4/45 432/1/45
f 432/1/45 422/4/45 431/6/45
f 435/6/46 434/5/46 433/6/46
f 433/6/46 434/5/46 436/1/46
s 1
f 435/6/46 437/5/46 434/5/46
f 437/5/46 435/6/46 438/4/46
s 0
f 439/3/46 438/4/46 435/6/46
s 1
f 439/3/1 435/6/45 440/1/45
s 0
f 438/4/46 439/3/46 441/4/46
s 1
f 439/3/1 440/1/45 442/2/44
s 0
f 436/1/46 442/2/46 440/1/46
f 441/4/46 439/3/46 443/3/46
f 441/4/46 443/3/46 434/5/46
f 442/2/46 436/1/46 444/2/46
f 436/1/46 434/5/46 444/2/46
f 444/2/46 434/5/46 443/3/46
f 447/2/35 446/4/35 445/3/35
f 445/3/35 446/4/35 448/3/35
f 449/4/35 448/3/35 446/4/35
f 449/4/35 450/2/35 448/3/35
f 450/2/35 451/1/35 447/2/35
f 449/4/35 451/1/35 450/2/35
f 452/1/35 447/2/35 451/1/35
f 452/1/35 446/4/35 447/2/35
f 449/4/35 453/6/35 451/1/35
f 454/5/35 453/6/35 449/4/35
f 455/6/35 446/4/35 452/1/35
f 453/6/35 454/5/35 455/6/35
f 455/6/35 456/5/35 446/4/35
f 456/5/35 455/6/35 454/5/35
