# Blender 5.1.0
# www.blender.org
mtllib fountain_edge.mtl
o fountain-edge-col
v -0.500000 -0.197901 -0.341831
v 0.500000 -0.197901 -0.341831
v -0.500000 0.082099 -0.341831
v 0.500000 0.082099 -0.341831
v 0.500000 0.082099 -0.341831
v 0.500000 0.082099 -0.116831
v -0.500000 0.082099 -0.341831
v -0.500000 0.082099 -0.116831
v 0.500000 -0.197901 -1.041831
v 0.500000 -0.197901 -0.341831
v -0.500000 -0.197901 -1.041831
v -0.500000 -0.197901 -0.341831
v 0.500000 -0.057901 -0.041831
v -0.500000 -0.057901 -0.041831
v 0.500000 0.032099 -0.041831
v -0.500000 0.032099 -0.041831
v -0.500000 -0.197901 -0.341831
v -0.500000 0.082099 -0.341831
v -0.500000 -0.197901 -0.041831
v -0.500000 -0.141901 -0.071831
v -0.500000 -0.141901 -0.041831
v -0.500000 0.082099 -0.116831
v -0.500000 -0.085901 -0.071831
v -0.500000 0.032099 -0.041831
v -0.500000 -0.057901 -0.041831
v 0.500000 0.082099 -0.116831
v 0.500000 0.032099 -0.041831
v -0.500000 0.082099 -0.116831
v -0.500000 0.032099 -0.041831
v 0.500000 -0.197901 -0.041831
v -0.500000 -0.197901 -0.041831
v 0.500000 -0.141901 -0.041831
v -0.500000 -0.141901 -0.041831
v 0.500000 -0.057901 -0.041831
v 0.500000 0.032099 -0.041831
v 0.500000 -0.085901 -0.071831
v 0.500000 0.082099 -0.116831
v 0.500000 -0.141901 -0.071831
v 0.500000 -0.197901 -0.341831
v 0.500000 0.082099 -0.341831
v 0.500000 -0.197901 -0.041831
v 0.500000 -0.141901 -0.041831
v 0.500000 -0.197901 -0.341831
v -0.500000 -0.197901 -0.341831
v 0.500000 -0.197901 -0.041831
v -0.500000 -0.197901 -0.041831
v 0.500000 -0.141901 -0.071831
v -0.500000 -0.141901 -0.071831
v 0.500000 -0.085901 -0.071831
v -0.500000 -0.085901 -0.071831
v 0.500000 -0.085901 -0.071831
v -0.500000 -0.085901 -0.071831
v 0.500000 -0.057901 -0.041831
v -0.500000 -0.057901 -0.041831
v 0.500000 -0.141901 -0.071831
v 0.500000 -0.141901 -0.041831
v -0.500000 -0.141901 -0.071831
v -0.500000 -0.141901 -0.041831
vn -0.0000 -0.0000 -1.0000
vn -0.0000 1.0000 -0.0000
vn -0.0000 -0.0000 1.0000
vn -1.0000 -0.0000 -0.0000
vn -0.0000 0.8321 0.5547
vn 1.0000 -0.0000 -0.0000
vn -0.0000 -1.0000 -0.0000
vn -0.0000 -0.3985 0.9172
vn -0.0000 0.7071 0.7071
vn -0.0000 -0.7311 0.6823
vn -0.0000 -0.3986 0.9171
vt 0.218750 0.475000
vt 0.218750 0.275000
vt 0.218750 0.439286
vt 0.218750 0.375000
vt 0.218750 0.315000
vt 0.218750 0.355000
vt 0.968750 0.105000
vt 0.968750 0.065000
vt 0.968750 0.125000
s 0
usemtl colormap.019
f 3/1/1 2/2/1 1/2/1
f 2/2/1 3/1/1 4/1/1
f 7/1/2 6/1/2 5/1/2
f 6/1/2 7/1/2 8/1/2
f 11/2/2 10/2/2 9/2/2
f 10/2/2 11/2/2 12/2/2
f 15/3/3 14/4/3 13/4/3
f 14/4/3 15/3/3 16/3/3
f 19/2/4 18/1/4 17/2/4
f 18/1/4 19/2/4 20/5/4
f 20/5/4 19/2/4 21/5/4
f 18/1/4 20/5/4 22/1/4
f 23/6/4 22/1/4 20/5/4
f 22/1/4 23/6/4 24/3/4
f 24/3/4 23/6/4 25/4/4
f 28/1/5 27/3/5 26/1/5
f 27/3/5 28/1/5 29/3/5
f 32/5/3 31/2/3 30/2/3
f 31/2/3 32/5/3 33/5/3
f 36/6/6 35/3/6 34/4/6
f 35/3/6 36/6/6 37/1/6
f 38/5/6 37/1/6 36/6/6
f 39/2/6 37/1/6 38/5/6
f 37/1/6 39/2/6 40/1/6
f 39/2/6 38/5/6 41/2/6
f 41/2/6 38/5/6 42/5/6
f 45/2/7 44/2/7 43/2/7
f 44/2/7 45/2/7 46/2/7
s 1
f 49/7/8 48/8/9 47/8/9
f 48/8/9 49/7/8 50/7/8
f 53/9/10 52/7/11 51/7/11
f 52/7/11 53/9/10 54/9/10
f 57/8/9 56/8/2 55/8/9
f 56/8/2 57/8/9 58/8/2
o (%ignore).005-col
v 0.500000 -0.057901 -1.041831
v 0.500000 -0.057901 -0.341831
v -0.500000 -0.057901 -1.041831
v -0.500000 -0.057901 -0.341831
vn -0.0000 1.0000 -0.0000
vt 19.685040 -13.779528
vt -19.685040 13.779528
vt -19.685040 -13.779528
vt 19.685040 13.779528
s 0
usemtl Water.005
f 61/10/12 60/11/12 59/12/12
f 60/11/12 61/10/12 62/13/12
