# Blender 5.1.0
# www.blender.org
mtllib fountain_center.mtl
o fountain-center-col
v 0.500000 0.000000 -0.500000
v 0.500000 0.000000 0.500000
v -0.500000 0.000000 -0.500000
v -0.500000 0.000000 0.500000
vn -0.0000 1.0000 -0.0000
vt 0.218750 0.275000
s 0
usemtl colormap.014
f 3/1/1 2/1/1 1/1/1
f 2/1/1 3/1/1 4/1/1
o (%ignore)-col
v 0.500000 0.140000 -0.500000
v 0.500000 0.140000 0.500000
v -0.500000 0.140000 -0.500000
v -0.500000 0.140000 0.500000
vn -0.0000 1.0000 -0.0000
vt 19.685040 -19.685040
vt -19.685040 19.685040
vt -19.685040 -19.685040
vt 19.685040 19.685040
s 0
usemtl Water
f 7/2/2 6/3/2 5/4/2
f 6/3/2 7/2/2 8/5/2
