# Blender 5.1.0
# www.blender.org
mtllib hedge_large.mtl
o hedge-large-col
v -0.200007 -0.269640 -0.499780
v -0.200007 -0.119640 -0.499780
v -0.200007 -0.269640 0.500220
v -0.200007 -0.119640 0.500220
v -0.200007 -0.269640 -0.499780
v 0.199993 -0.269640 -0.499780
v -0.200007 -0.119640 -0.499780
v 0.199993 -0.119640 -0.499780
v 0.149993 -0.069640 -0.499780
v -0.150007 -0.069640 -0.499780
v 0.199993 -0.269640 0.500220
v -0.200007 -0.269640 0.500220
v 0.199993 -0.119640 0.500220
v -0.200007 -0.119640 0.500220
v 0.149993 -0.069640 0.500220
v -0.150007 -0.069640 0.500220
v 0.149993 -0.069640 -0.499780
v 0.199993 -0.119640 -0.499780
v 0.149993 -0.069640 0.500220
v 0.199993 -0.119640 0.500220
v 0.199993 -0.269640 -0.499780
v 0.199993 -0.269640 0.500220
v 0.199993 -0.119640 -0.499780
v 0.199993 -0.119640 0.500220
v -0.150007 -0.069640 -0.499780
v -0.150007 -0.069640 0.500220
v -0.200007 -0.119640 -0.499780
v -0.200007 -0.119640 0.500220
v 0.199993 -0.269640 0.500220
v 0.199993 -0.269640 -0.499780
v -0.200007 -0.269640 0.500220
v -0.200007 -0.269640 -0.499780
v 0.149993 -0.069640 -0.499780
v 0.149993 -0.069640 0.500220
v -0.150007 -0.069640 -0.499780
v -0.150007 -0.069640 0.500220
v 0.124993 0.305360 -0.499780
v 0.124993 0.280360 -0.249780
v 0.049993 0.330360 -0.499780
v 0.049993 0.305360 -0.249780
v 0.049993 0.330360 -0.499780
v 0.049993 0.305360 -0.249780
v -0.050007 0.330360 -0.499780
v -0.050007 0.305360 -0.249780
v -0.150007 0.230360 -0.499780
v -0.125007 0.305360 -0.499780
v -0.150007 0.205360 -0.249780
v -0.125007 0.280360 -0.249780
v 0.124993 0.305360 -0.499780
v 0.149993 0.230360 -0.499780
v 0.124993 0.280360 -0.249780
v 0.149993 0.205360 -0.249780
v -0.050007 0.305360 0.250220
v -0.050007 0.330360 0.500220
v -0.125007 0.280360 0.250220
v -0.125007 0.305360 0.500220
v 0.149993 -0.019640 -0.499780
v 0.149993 -0.019640 0.500220
v 0.149993 0.230360 -0.499780
v 0.149993 0.205360 -0.249780
v 0.149993 0.230360 0.000220
v 0.149993 0.205360 0.250220
v 0.149993 0.230360 0.500220
v -0.150007 0.230360 0.000220
v -0.125007 0.305360 0.000220
v -0.150007 0.205360 0.250220
v -0.125007 0.280360 0.250220
v -0.050007 0.305360 -0.249780
v -0.050007 0.330360 0.000220
v -0.125007 0.280360 -0.249780
v -0.125007 0.305360 0.000220
v 0.049993 0.330360 0.000220
v 0.049993 0.305360 0.250220
v -0.050007 0.330360 0.000220
v -0.050007 0.305360 0.250220
v 0.124993 0.305360 0.000220
v 0.124993 0.280360 0.250220
v 0.049993 0.330360 0.000220
v 0.049993 0.305360 0.250220
v 0.124993 0.305360 0.000220
v 0.149993 0.230360 0.000220
v 0.124993 0.280360 0.250220
v 0.149993 0.205360 0.250220
v -0.150007 0.205360 -0.249780
v -0.125007 0.280360 -0.249780
v -0.150007 0.230360 0.000220
v -0.125007 0.305360 0.000220
v 0.049993 0.305360 -0.249780
v 0.049993 0.330360 0.000220
v -0.050007 0.305360 -0.249780
v -0.050007 0.330360 0.000220
v 0.124993 0.280360 -0.249780
v 0.149993 0.205360 -0.249780
v 0.124993 0.305360 0.000220
v 0.149993 0.230360 0.000220
v -0.050007 0.330360 -0.499780
v -0.050007 0.305360 -0.249780
v -0.125007 0.305360 -0.499780
v -0.125007 0.280360 -0.249780
v 0.124993 0.280360 -0.249780
v 0.124993 0.305360 0.000220
v 0.049993 0.305360 -0.249780
v 0.049993 0.330360 0.000220
v 0.124993 0.280360 0.250220
v 0.149993 0.205360 0.250220
v 0.124993 0.305360 0.500220
v 0.149993 0.230360 0.500220
v 0.049993 0.305360 0.250220
v 0.049993 0.330360 0.500220
v -0.050007 0.305360 0.250220
v -0.050007 0.330360 0.500220
v 0.124993 0.280360 0.250220
v 0.124993 0.305360 0.500220
v 0.049993 0.305360 0.250220
v 0.049993 0.330360 0.500220
v -0.150007 0.205360 0.250220
v -0.125007 0.280360 0.250220
v -0.150007 0.230360 0.500220
v -0.125007 0.305360 0.500220
v -0.050007 0.330360 0.000220
v -0.050007 0.305360 0.250220
v -0.125007 0.305360 0.000220
v -0.125007 0.280360 0.250220
v -0.150007 -0.019640 -0.499780
v -0.150007 0.230360 -0.499780
v -0.150007 -0.019640 0.500220
v -0.150007 0.205360 -0.249780
v -0.150007 0.230360 0.000220
v -0.150007 0.205360 0.250220
v -0.150007 0.230360 0.500220
v -0.100007 -0.069640 0.500220
v -0.100007 -0.069640 -0.499780
v -0.150007 -0.019640 0.500220
v -0.150007 -0.019640 -0.499780
v 0.149993 -0.019640 0.500220
v 0.149993 -0.019640 -0.499780
v 0.099993 -0.069640 0.500220
v 0.099993 -0.069640 -0.499780
v 0.099993 -0.069640 0.500220
v -0.100007 -0.069640 0.500220
v 0.149993 -0.019640 0.500220
v -0.150007 -0.019640 0.500220
v 0.149993 0.230360 0.500220
v -0.150007 0.230360 0.500220
v 0.124993 0.305360 0.500220
v -0.125007 0.305360 0.500220
v 0.049993 0.330360 0.500220
v -0.050007 0.330360 0.500220
v -0.100007 -0.069640 -0.499780
v 0.099993 -0.069640 -0.499780
v -0.150007 -0.019640 -0.499780
v 0.149993 -0.019640 -0.499780
v -0.150007 0.230360 -0.499780
v 0.149993 0.230360 -0.499780
v -0.125007 0.305360 -0.499780
v 0.124993 0.305360 -0.499780
v -0.050007 0.330360 -0.499780
v 0.049993 0.330360 -0.499780
vn -1.0000 -0.0000 -0.0000
vn -0.9239 0.3827 -0.0000
vn -0.0000 -0.0000 -1.0000
vn -0.0000 -0.0000 1.0000
vn 0.7071 0.7071 -0.0000
vn 0.9239 0.3827 -0.0000
vn 1.0000 -0.0000 -0.0000
vn -0.7071 0.7071 -0.0000
vn -0.0000 -1.0000 -0.0000
vn -0.0000 1.0000 -0.0000
vn 0.1579 0.9826 0.0983
vn 0.7216 0.6924 -0.0000
vn 0.6914 0.7189 0.0719
vn 0.1619 0.9868 -0.0000
vn -0.1578 0.9826 0.0983
vn 0.1618 0.9868 -0.0000
vn 0.1578 0.9826 0.0983
vn -0.1618 0.9868 -0.0000
vn -0.9487 0.3162 -0.0000
vn -0.6914 0.7189 0.0719
vn -0.9482 0.3161 0.0316
vn -0.7216 0.6923 -0.0000
vn 0.7216 0.6923 -0.0000
vn 0.9482 0.3161 0.0316
vn 0.9487 0.3162 -0.0000
vn -0.7216 0.6924 -0.0000
vn -0.1579 0.9826 -0.0983
vn -0.1619 0.9868 -0.0000
vn -0.6914 0.7189 -0.0719
vn 0.9239 -0.3827 -0.0000
vn -0.6932 0.7207 -0.0000
vn -0.1586 0.9873 -0.0000
vn -0.6932 0.7208 -0.0000
vn 0.1586 0.9873 -0.0000
vn 0.6932 0.7208 -0.0000
vn 0.6932 0.7207 -0.0000
vn -0.1579 0.9826 0.0983
vn -0.7215 0.6924 -0.0000
vn 0.7215 0.6924 -0.0000
vn 0.6914 0.7189 -0.0719
vn 0.9482 0.3161 -0.0316
vn 0.1578 0.9826 -0.0983
vn -0.1578 0.9826 -0.0983
vn 0.1579 0.9826 -0.0983
vn -0.9482 0.3161 -0.0316
vn -0.9239 -0.3827 -0.0000
vn -0.7071 -0.7071 -0.0000
vn 0.7071 -0.7071 -0.0000
vt 0.218750 0.275000
vt 0.218750 0.425000
vt 0.218750 0.475000
vt 0.468750 0.225000
vt 0.468750 0.200000
vt 0.468750 0.212500
vt 0.468750 0.162500
vt 0.468750 0.175000
vt 0.468750 0.050000
vt 0.468750 0.025000
s 1
usemtl colormap.028
f 3/1/1 2/2/2 1/1/1
f 2/2/2 3/1/1 4/2/2
s 0
f 7/2/3 6/1/3 5/1/3
f 6/1/3 7/2/3 8/2/3
f 8/2/3 7/2/3 9/3/3
f 9/3/3 7/2/3 10/3/3
f 13/2/4 12/1/4 11/1/4
f 12/1/4 13/2/4 14/2/4
f 14/2/4 13/2/4 15/3/4
f 14/2/4 15/3/4 16/3/4
s 1
f 19/3/5 18/2/6 17/3/5
f 18/2/6 19/3/5 20/2/6
f 23/2/6 22/1/7 21/1/7
f 22/1/7 23/2/6 24/2/6
f 27/2/2 26/3/8 25/3/8
f 26/3/8 27/2/2 28/2/2
s 0
f 31/1/9 30/1/9 29/1/9
f 30/1/9 31/1/9 32/1/9
f 35/3/10 34/3/10 33/3/10
f 34/3/10 35/3/10 36/3/10
s 1
f 39/4/11 38/5/12 37/6/13
f 38/5/12 39/4/11 40/6/14
f 43/4/15 42/6/16 41/4/17
f 42/6/16 43/4/15 44/6/18
f 47/7/19 46/6/20 45/8/21
f 46/6/20 47/7/19 48/5/22
f 51/5/23 50/8/24 49/6/13
f 50/8/24 51/5/23 52/7/25
f 55/5/26 54/4/27 53/6/28
f 54/4/27 55/5/26 56/6/29
f 59/8/7 58/9/30 57/9/30
f 58/9/30 59/8/7 60/7/7
f 58/9/30 60/7/7 61/8/7
f 58/9/30 61/8/7 62/7/7
f 58/9/30 62/7/7 63/8/7
f 66/7/19 65/6/31 64/8/19
f 65/6/31 66/7/19 67/5/22
f 70/5/26 69/4/32 68/6/28
f 69/4/32 70/5/26 71/6/33
f 74/4/32 73/6/16 72/4/34
f 73/6/16 74/4/32 75/6/18
f 78/4/34 77/5/12 76/6/35
f 77/5/12 78/4/34 79/6/14
f 82/5/23 81/8/25 80/6/36
f 81/8/25 82/5/23 83/7/25
f 86/8/19 85/5/22 84/7/19
f 85/5/22 86/8/19 87/6/31
f 90/6/18 89/4/34 88/6/16
f 89/4/34 90/6/18 91/4/32
f 94/6/36 93/7/25 92/5/23
f 93/7/25 94/6/36 95/8/25
f 98/6/20 97/6/28 96/4/37
f 97/6/28 98/6/20 99/5/38
f 102/6/14 101/6/35 100/5/39
f 101/6/35 102/6/14 103/4/34
f 106/6/40 105/7/25 104/5/23
f 105/7/25 106/6/40 107/8/41
f 110/6/18 109/4/42 108/6/16
f 109/4/42 110/6/18 111/4/43
f 114/6/14 113/6/40 112/5/39
f 113/6/40 114/6/14 115/4/44
f 118/8/45 117/5/22 116/7/19
f 117/5/22 118/8/45 119/6/29
f 122/6/33 121/6/28 120/4/32
f 121/6/28 122/6/33 123/5/38
f 126/9/46 125/8/1 124/9/46
f 125/8/1 126/9/46 127/7/1
f 127/7/1 126/9/46 128/8/1
f 128/8/1 126/9/46 129/7/1
f 129/7/1 126/9/46 130/8/1
f 133/9/46 132/10/47 131/10/47
f 132/10/47 133/9/46 134/9/46
f 137/10/48 136/9/30 135/9/30
f 136/9/30 137/10/48 138/10/48
s 0
f 141/9/4 140/10/4 139/10/4
f 140/10/4 141/9/4 142/9/4
f 142/9/4 141/9/4 143/8/4
f 142/9/4 143/8/4 144/8/4
f 144/8/4 143/8/4 145/6/4
f 144/8/4 145/6/4 146/6/4
f 146/6/4 145/6/4 147/4/4
f 146/6/4 147/4/4 148/4/4
f 151/9/3 150/10/3 149/10/3
f 150/10/3 151/9/3 152/9/3
f 152/9/3 151/9/3 153/8/3
f 152/9/3 153/8/3 154/8/3
f 154/8/3 153/8/3 155/6/3
f 154/8/3 155/6/3 156/6/3
f 156/6/3 155/6/3 157/4/3
f 156/6/3 157/4/3 158/4/3
