# Blender 5.1.0
# www.blender.org
mtllib hedge.mtl
o hedge-col
v -0.125000 -0.093895 -0.499728
v -0.125000 0.006105 -0.499728
v -0.125000 -0.093895 0.500272
v -0.125000 0.006105 0.500272
v 0.125000 0.006105 -0.499728
v 0.125000 -0.093895 -0.499728
v 0.125000 0.006105 0.500272
v 0.125000 -0.093895 0.500272
v 0.125000 -0.093895 0.500272
v -0.125000 -0.093895 0.500272
v 0.125000 0.006105 0.500272
v -0.125000 0.006105 0.500272
v -0.125000 -0.093895 -0.499728
v 0.125000 -0.093895 -0.499728
v -0.125000 0.006105 -0.499728
v 0.125000 0.006105 -0.499728
v 0.125000 0.006105 -0.499728
v 0.125000 0.006105 0.500272
v -0.125000 0.006105 -0.499728
v -0.125000 0.006105 0.500272
v 0.125000 -0.093895 0.500272
v 0.125000 -0.093895 -0.499728
v -0.125000 -0.093895 0.500272
v -0.125000 -0.093895 -0.499728
v 0.032500 0.131105 0.250272
v 0.062500 0.101105 0.250272
v 0.032500 0.156105 0.500272
v 0.062500 0.126105 0.500272
v -0.062500 0.101105 0.250272
v -0.032500 0.131105 0.250272
v -0.062500 0.126105 0.500272
v -0.032500 0.156105 0.500272
v 0.062500 0.126105 -0.499728
v 0.062500 0.006105 -0.499728
v 0.062500 0.101105 -0.249728
v 0.062500 0.006105 0.500272
v 0.062500 0.126105 0.000272
v 0.062500 0.101105 0.250272
v 0.062500 0.126105 0.500272
v 0.032500 0.156105 -0.499728
v 0.032500 0.131105 -0.249728
v -0.032500 0.156105 -0.499728
v -0.032500 0.131105 -0.249728
v -0.062500 0.006105 -0.499728
v 0.062500 0.006105 -0.499728
v -0.062500 0.126105 -0.499728
v 0.062500 0.126105 -0.499728
v -0.032500 0.156105 -0.499728
v 0.032500 0.156105 -0.499728
v 0.062500 0.006105 0.500272
v -0.062500 0.006105 0.500272
v 0.062500 0.126105 0.500272
v -0.062500 0.126105 0.500272
v 0.032500 0.156105 0.500272
v -0.032500 0.156105 0.500272
v -0.062500 0.006105 -0.499728
v -0.062500 0.126105 -0.499728
v -0.062500 0.006105 0.500272
v -0.062500 0.101105 -0.249728
v -0.062500 0.126105 0.000272
v -0.062500 0.101105 0.250272
v -0.062500 0.126105 0.500272
v 0.032500 0.131105 -0.249728
v 0.062500 0.101105 -0.249728
v 0.032500 0.156105 0.000272
v 0.062500 0.126105 0.000272
v -0.062500 0.101105 -0.249728
v -0.032500 0.131105 -0.249728
v -0.062500 0.126105 0.000272
v -0.032500 0.156105 0.000272
v 0.032500 0.156105 0.000272
v 0.032500 0.131105 0.250272
v -0.032500 0.156105 0.000272
v -0.032500 0.131105 0.250272
v 0.032500 0.156105 0.000272
v 0.062500 0.126105 0.000272
v 0.032500 0.131105 0.250272
v 0.062500 0.101105 0.250272
v 0.032500 0.131105 0.250272
v 0.032500 0.156105 0.500272
v -0.032500 0.131105 0.250272
v -0.032500 0.156105 0.500272
v -0.062500 0.126105 0.000272
v -0.032500 0.156105 0.000272
v -0.062500 0.101105 0.250272
v -0.032500 0.131105 0.250272
v -0.062500 0.126105 -0.499728
v -0.032500 0.156105 -0.499728
v -0.062500 0.101105 -0.249728
v -0.032500 0.131105 -0.249728
v 0.032500 0.131105 -0.249728
v 0.032500 0.156105 0.000272
v -0.032500 0.131105 -0.249728
v -0.032500 0.156105 0.000272
v 0.032500 0.156105 -0.499728
v 0.062500 0.126105 -0.499728
v 0.032500 0.131105 -0.249728
v 0.062500 0.101105 -0.249728
vn -1.0000 -0.0000 -0.0000
vn 1.0000 -0.0000 -0.0000
vn -0.0000 -0.0000 1.0000
vn -0.0000 -0.0000 -1.0000
vn -0.0000 1.0000 -0.0000
vn -0.0000 -1.0000 -0.0000
vn 0.3728 0.9233 -0.0923
vn 0.9323 0.3616 -0.0000
vn 0.3916 0.9202 -0.0000
vn 0.9144 0.4027 -0.0403
vn -0.9144 0.4027 -0.0403
vn -0.3916 0.9202 -0.0000
vn -0.9323 0.3616 -0.0000
vn -0.3728 0.9233 -0.0923
vn 0.9145 0.4027 0.0403
vn 0.9152 0.4030 -0.0000
vn 0.9145 0.4027 -0.0403
vn -0.3728 0.9233 0.0924
vn 0.3915 0.9202 -0.0000
vn 0.3728 0.9233 0.0924
vn -0.3915 0.9202 -0.0000
vn -0.9145 0.4027 0.0403
vn -0.9152 0.4030 -0.0000
vn -0.9145 0.4027 -0.0403
vn 0.3744 0.9273 -0.0000
vn 0.9152 0.4031 -0.0000
vn -0.9152 0.4031 -0.0000
vn -0.3744 0.9273 -0.0000
vn -0.3743 0.9273 -0.0000
vn 0.3743 0.9273 -0.0000
vn 0.3728 0.9233 -0.0924
vn -0.3728 0.9233 -0.0924
vn -0.3728 0.9233 0.0923
vn -0.9144 0.4027 0.0403
vn 0.9144 0.4027 0.0403
vn 0.3728 0.9233 0.0923
vt 0.218750 0.275000
vt 0.218750 0.475000
vt 0.468750 0.225000
vt 0.468750 0.151667
vt 0.468750 0.191667
vt 0.468750 0.185000
vt 0.468750 0.025000
s 0
usemtl colormap.029
f 3/1/1 2/2/1 1/1/1
f 2/2/1 3/1/1 4/2/1
f 7/2/2 6/1/2 5/2/2
f 6/1/2 7/2/2 8/1/2
f 11/2/3 10/1/3 9/1/3
f 10/1/3 11/2/3 12/2/3
f 15/2/4 14/1/4 13/1/4
f 14/1/4 15/2/4 16/2/4
f 19/2/5 18/2/5 17/2/5
f 18/2/5 19/2/5 20/2/5
f 23/1/6 22/1/6 21/1/6
f 22/1/6 23/1/6 24/1/6
s 1
f 27/3/7 26/4/8 25/5/9
f 26/4/8 27/3/7 28/6/10
f 31/6/11 30/5/12 29/4/13
f 30/5/12 31/6/11 32/3/14
f 35/4/8 34/7/2 33/6/15
f 34/7/2 35/4/8 36/7/2
f 36/7/2 35/4/8 37/6/16
f 36/7/2 37/6/16 38/4/8
f 36/7/2 38/4/8 39/6/17
f 42/3/18 41/5/19 40/3/20
f 41/5/19 42/3/18 43/5/21
s 0
f 46/6/4 45/7/4 44/7/4
f 45/7/4 46/6/4 47/6/4
f 47/6/4 46/6/4 48/3/4
f 47/6/4 48/3/4 49/3/4
f 52/6/3 51/7/3 50/7/3
f 51/7/3 52/6/3 53/6/3
f 53/6/3 52/6/3 54/3/3
f 53/6/3 54/3/3 55/3/3
s 1
f 58/7/1 57/6/22 56/7/1
f 57/6/22 58/7/1 59/4/13
f 59/4/13 58/7/1 60/6/23
f 60/6/23 58/7/1 61/4/13
f 61/4/13 58/7/1 62/6/24
f 65/3/25 64/4/8 63/5/9
f 64/4/8 65/3/25 66/6/26
f 69/6/27 68/5/12 67/4/13
f 68/5/12 69/6/27 70/3/28
f 73/3/29 72/5/19 71/3/30
f 72/5/19 73/3/29 74/5/21
f 77/5/9 76/6/26 75/3/25
f 76/6/26 77/5/9 78/4/8
f 81/5/21 80/3/31 79/5/19
f 80/3/31 81/5/21 82/3/32
f 85/4/13 84/3/28 83/6/27
f 84/3/28 85/4/13 86/5/12
f 89/4/13 88/3/33 87/6/34
f 88/3/33 89/4/13 90/5/12
f 93/5/21 92/3/30 91/5/19
f 92/3/30 93/5/21 94/3/29
f 97/5/9 96/6/35 95/3/36
f 96/6/35 97/5/9 98/4/8
