# Blender 5.1.0
# www.blender.org
mtllib hedge_gate.mtl
o hedge-gate-col
v -0.125011 -0.090544 -0.500000
v 0.124989 -0.090544 -0.500000
v -0.125011 0.009456 -0.500000
v 0.124989 0.009456 -0.500000
v 0.062489 -0.090544 -0.200000
v -0.062511 -0.090544 -0.200000
v 0.062489 0.009456 -0.200000
v -0.062511 0.009456 -0.200000
v -0.125011 -0.090544 -0.500000
v -0.125011 0.009456 -0.500000
v -0.125011 -0.090544 -0.262500
v -0.125011 0.009456 -0.262500
v 0.124989 0.009456 -0.500000
v 0.124989 -0.090544 -0.500000
v 0.124989 0.009456 -0.262500
v 0.124989 -0.090544 -0.262500
v 0.124989 -0.090544 -0.262500
v 0.124989 -0.090544 -0.500000
v 0.062489 -0.090544 -0.200000
v -0.125011 -0.090544 -0.500000
v -0.062511 -0.090544 -0.200000
v -0.125011 -0.090544 -0.262500
v -0.125011 -0.090544 0.262500
v -0.125011 0.009456 0.262500
v -0.125011 -0.090544 0.500000
v -0.125011 0.009456 0.500000
v 0.124989 0.009456 0.262500
v 0.124989 -0.090544 0.262500
v 0.124989 0.009456 0.500000
v 0.124989 -0.090544 0.500000
v 0.124989 -0.090544 0.500000
v -0.125011 -0.090544 0.500000
v 0.124989 0.009456 0.500000
v -0.125011 0.009456 0.500000
v -0.062511 -0.090544 0.200000
v 0.062489 -0.090544 0.200000
v -0.062511 0.009456 0.200000
v 0.062489 0.009456 0.200000
v 0.124989 -0.090544 0.500000
v 0.124989 -0.090544 0.262500
v -0.125011 -0.090544 0.500000
v 0.062489 -0.090544 0.200000
v -0.062511 -0.090544 0.200000
v -0.125011 -0.090544 0.262500
v 0.124989 0.009456 -0.500000
v 0.124989 0.009456 -0.262500
v -0.125011 0.009456 -0.500000
v 0.062489 0.009456 -0.200000
v -0.062511 0.009456 -0.200000
v -0.125011 0.009456 -0.262500
v 0.124989 0.009456 0.262500
v 0.124989 0.009456 0.500000
v 0.062489 0.009456 0.200000
v -0.125011 0.009456 0.500000
v -0.062511 0.009456 0.200000
v -0.125011 0.009456 0.262500
v -0.125011 -0.090544 -0.262500
v -0.125011 0.009456 -0.262500
v -0.062511 -0.090544 -0.200000
v -0.062511 0.009456 -0.200000
v 0.124989 0.009456 -0.262500
v 0.124989 -0.090544 -0.262500
v 0.062489 0.009456 -0.200000
v 0.062489 -0.090544 -0.200000
v 0.062489 0.009456 0.200000
v 0.062489 -0.090544 0.200000
v 0.124989 0.009456 0.262500
v 0.124989 -0.090544 0.262500
v -0.062511 -0.090544 0.200000
v -0.062511 0.009456 0.200000
v -0.125011 -0.090544 0.262500
v -0.125011 0.009456 0.262500
v 0.062489 0.129456 -0.500000
v 0.062489 0.009456 -0.500000
v 0.062489 0.104456 -0.262500
v 0.062489 0.009456 -0.262500
v -0.062511 0.009456 -0.500000
v -0.062511 0.129456 -0.500000
v -0.062511 0.009456 -0.262500
v -0.062511 0.104456 -0.262500
v 0.032489 0.159456 -0.500000
v 0.032489 0.134456 -0.262500
v -0.032511 0.159456 -0.500000
v -0.032511 0.134456 -0.262500
v 0.062489 0.009456 -0.262500
v -0.062511 0.009456 -0.262500
v 0.062489 0.104456 -0.262500
v -0.062511 0.104456 -0.262500
v 0.032489 0.134456 -0.262500
v -0.032511 0.134456 -0.262500
v 0.032489 0.134456 0.262500
v 0.062489 0.104456 0.262500
v 0.032489 0.159456 0.500000
v 0.062489 0.129456 0.500000
v -0.062511 0.129456 -0.500000
v -0.032511 0.159456 -0.500000
v -0.062511 0.104456 -0.262500
v -0.032511 0.134456 -0.262500
v -0.062511 0.009456 -0.500000
v 0.062489 0.009456 -0.500000
v -0.062511 0.129456 -0.500000
v 0.062489 0.129456 -0.500000
v -0.032511 0.159456 -0.500000
v 0.032489 0.159456 -0.500000
v 0.062489 0.104456 0.262500
v 0.062489 0.009456 0.262500
v 0.062489 0.129456 0.500000
v 0.062489 0.009456 0.500000
v 0.062489 0.009456 0.500000
v -0.062511 0.009456 0.500000
v 0.062489 0.129456 0.500000
v -0.062511 0.129456 0.500000
v 0.032489 0.159456 0.500000
v -0.032511 0.159456 0.500000
v 0.032489 0.134456 0.262500
v 0.032489 0.159456 0.500000
v -0.032511 0.134456 0.262500
v -0.032511 0.159456 0.500000
v -0.062511 0.009456 0.262500
v 0.062489 0.009456 0.262500
v -0.062511 0.104456 0.262500
v 0.062489 0.104456 0.262500
v -0.032511 0.134456 0.262500
v 0.032489 0.134456 0.262500
v -0.062511 0.009456 0.262500
v -0.062511 0.104456 0.262500
v -0.062511 0.009456 0.500000
v -0.062511 0.129456 0.500000
v -0.062511 0.104456 0.262500
v -0.032511 0.134456 0.262500
v -0.062511 0.129456 0.500000
v -0.032511 0.159456 0.500000
v 0.062489 0.129456 -0.500000
v 0.062489 0.104456 -0.262500
v 0.032489 0.159456 -0.500000
v 0.032489 0.134456 -0.262500
vn -0.0000 -0.0000 -1.0000
vn 0.3827 -0.0000 0.9239
vn -0.3827 -0.0000 0.9239
vn -0.9239 -0.0000 0.3827
vn -1.0000 -0.0000 -0.0000
vn 0.9239 -0.0000 0.3827
vn 1.0000 -0.0000 -0.0000
vn -0.0000 -1.0000 -0.0000
vn -0.9239 -0.0000 -0.3827
vn 0.9239 -0.0000 -0.3827
vn -0.0000 -0.0000 1.0000
vn -0.3827 -0.0000 -0.9239
vn 0.3827 -0.0000 -0.9239
vn -0.0000 1.0000 -0.0000
vn 0.9321 0.3602 0.0379
vn 0.9139 0.4037 0.0425
vn -0.9139 0.4037 0.0425
vn -0.9321 0.3602 0.0379
vn -0.3721 0.9231 0.0972
vn 0.3902 0.9157 0.0964
vn 0.3721 0.9231 0.0972
vn -0.3902 0.9157 0.0964
vn 0.3722 0.9230 -0.0972
vn 0.9321 0.3602 -0.0379
vn 0.3902 0.9157 -0.0964
vn 0.9139 0.4037 -0.0425
vn -0.3722 0.9230 0.0972
vn -0.3902 0.9157 -0.0964
vn 0.3721 0.9231 -0.0972
vn -0.3721 0.9231 -0.0972
vn -0.9321 0.3602 -0.0379
vn -0.9139 0.4037 -0.0425
vn -0.3722 0.9230 -0.0972
vn 0.3722 0.9230 0.0972
vt 0.218750 0.475000
vt 0.218750 0.275000
vt 0.468750 0.151667
vt 0.468750 0.025000
vt 0.468750 0.185000
vt 0.468750 0.225000
vt 0.468750 0.191667
s 0
usemtl colormap.025
f 3/1/1 2/2/1 1/2/1
f 2/2/1 3/1/1 4/1/1
s 1
f 7/1/2 6/2/3 5/2/2
f 6/2/3 7/1/2 8/1/3
f 11/2/4 10/1/5 9/2/5
f 10/1/5 11/2/4 12/1/4
f 15/1/6 14/2/7 13/1/7
f 14/2/7 15/1/6 16/2/6
s 0
f 19/2/8 18/2/8 17/2/8
f 18/2/8 19/2/8 20/2/8
f 20/2/8 19/2/8 21/2/8
f 20/2/8 21/2/8 22/2/8
s 1
f 25/2/5 24/1/9 23/2/9
f 24/1/9 25/2/5 26/1/5
f 29/1/7 28/2/10 27/1/10
f 28/2/10 29/1/7 30/2/7
s 0
f 33/1/11 32/2/11 31/2/11
f 32/2/11 33/1/11 34/1/11
s 1
f 37/1/12 36/2/13 35/2/12
f 36/2/13 37/1/12 38/1/13
s 0
f 41/2/8 40/2/8 39/2/8
f 40/2/8 41/2/8 42/2/8
f 42/2/8 41/2/8 43/2/8
f 43/2/8 41/2/8 44/2/8
f 47/1/14 46/1/14 45/1/14
f 46/1/14 47/1/14 48/1/14
f 48/1/14 47/1/14 49/1/14
f 49/1/14 47/1/14 50/1/14
f 53/1/14 52/1/14 51/1/14
f 52/1/14 53/1/14 54/1/14
f 54/1/14 53/1/14 55/1/14
f 54/1/14 55/1/14 56/1/14
s 1
f 59/2/3 58/1/4 57/2/4
f 58/1/4 59/2/3 60/1/3
f 63/1/2 62/2/6 61/1/6
f 62/2/6 63/1/2 64/2/2
f 67/1/10 66/2/13 65/1/13
f 66/2/13 67/1/10 68/2/10
f 71/2/9 70/1/12 69/2/12
f 70/1/12 71/2/9 72/1/9
f 75/3/15 74/4/7 73/5/16
f 74/4/7 75/3/15 76/4/7
f 79/4/5 78/5/17 77/4/5
f 78/5/17 79/4/5 80/3/18
f 83/6/19 82/7/20 81/6/21
f 82/7/20 83/6/19 84/7/22
s 0
f 87/3/11 86/4/11 85/4/11
f 86/4/11 87/3/11 88/3/11
f 88/3/11 87/3/11 89/7/11
f 88/3/11 89/7/11 90/7/11
s 1
f 93/6/23 92/3/24 91/7/25
f 92/3/24 93/6/23 94/5/26
f 97/3/18 96/6/27 95/5/17
f 96/6/27 97/3/18 98/7/22
s 0
f 101/5/1 100/4/1 99/4/1
f 100/4/1 101/5/1 102/5/1
f 102/5/1 101/5/1 103/6/1
f 102/5/1 103/6/1 104/6/1
s 1
f 107/5/26 106/4/7 105/3/24
f 106/4/7 107/5/26 108/4/7
s 0
f 111/5/11 110/4/11 109/4/11
f 110/4/11 111/5/11 112/5/11
f 112/5/11 111/5/11 113/6/11
f 112/5/11 113/6/11 114/6/11
s 1
f 117/7/28 116/6/29 115/7/25
f 116/6/29 117/7/28 118/6/30
s 0
f 121/3/1 120/4/1 119/4/1
f 120/4/1 121/3/1 122/3/1
f 122/3/1 121/3/1 123/7/1
f 122/3/1 123/7/1 124/7/1
s 1
f 127/4/5 126/3/31 125/4/5
f 126/3/31 127/4/5 128/5/32
f 131/5/32 130/7/28 129/3/31
f 130/7/28 131/5/32 132/6/33
f 135/6/34 134/3/15 133/5/16
f 134/3/15 135/6/34 136/7/20
