# Blender 5.1.0
# www.blender.org
mtllib lantern.mtl
o lantern-col
v 0.076780 -0.163436 -0.047959
v 0.076780 -0.163436 0.048041
v 0.047980 -0.163436 -0.076759
v 0.047980 -0.163436 0.076841
v -0.048020 -0.163436 -0.076759
v -0.048020 -0.163436 0.076841
v -0.076820 -0.163436 -0.047959
v -0.076820 -0.163436 0.048041
v 0.095980 -0.461036 -0.059959
v 0.059980 -0.461036 -0.095959
v 0.095980 -0.461036 0.060041
v 0.059980 -0.461036 0.096041
v -0.060020 -0.461036 -0.095959
v -0.060020 -0.461036 0.096041
v -0.096020 -0.461036 -0.059959
v -0.096020 -0.461036 0.060041
v 0.059980 -0.461036 0.096041
v 0.047980 -0.163436 0.076841
v 0.095980 -0.461036 0.060041
v 0.076780 -0.163436 0.048041
v -0.096020 -0.461036 -0.059959
v -0.076820 -0.163436 -0.047959
v -0.096020 -0.461036 0.060041
v -0.076820 -0.163436 0.048041
v -0.060020 -0.461036 -0.095959
v -0.048020 -0.163436 -0.076759
v -0.096020 -0.461036 -0.059959
v -0.076820 -0.163436 -0.047959
v -0.060020 -0.461036 -0.095959
v 0.059980 -0.461036 -0.095959
v -0.048020 -0.163436 -0.076759
v 0.047980 -0.163436 -0.076759
v -0.076820 -0.163436 0.048041
v -0.048020 -0.163436 0.076841
v -0.096020 -0.461036 0.060041
v -0.060020 -0.461036 0.096041
v 0.059980 -0.461036 -0.095959
v 0.095980 -0.461036 -0.059959
v 0.047980 -0.163436 -0.076759
v 0.076780 -0.163436 -0.047959
v 0.059980 -0.461036 0.096041
v -0.060020 -0.461036 0.096041
v 0.047980 -0.163436 0.076841
v -0.048020 -0.163436 0.076841
v 0.095980 -0.461036 -0.059959
v 0.095980 -0.461036 0.060041
v 0.076780 -0.163436 -0.047959
v 0.076780 -0.163436 0.048041
v 0.047980 -0.019436 0.048041
v -0.048020 -0.019436 0.048041
v 0.032140 0.220564 0.032201
v -0.032180 0.220564 0.032201
v 0.047980 -0.163436 0.048041
v -0.048020 -0.163436 0.048041
v 0.047980 -0.019436 0.048041
v -0.048020 -0.019436 0.048041
v -0.048020 -0.163436 -0.047959
v -0.048020 -0.019436 -0.047959
v -0.048020 -0.163436 0.048041
v -0.048020 -0.019436 0.048041
v 0.047980 -0.019436 -0.047959
v 0.047980 -0.019436 0.048041
v 0.032140 0.220564 -0.032119
v 0.032140 0.220564 0.032201
v 0.047980 -0.019436 -0.047959
v 0.047980 -0.163436 -0.047959
v 0.047980 -0.019436 0.048041
v 0.047980 -0.163436 0.048041
v -0.048020 -0.163436 -0.047959
v 0.047980 -0.163436 -0.047959
v -0.048020 -0.019436 -0.047959
v 0.047980 -0.019436 -0.047959
v -0.048020 -0.019436 -0.047959
v 0.047980 -0.019436 -0.047959
v -0.032180 0.220564 -0.032119
v 0.032140 0.220564 -0.032119
v -0.032180 0.220564 -0.032119
v 0.032140 0.220564 -0.032119
v -0.032180 0.824964 -0.032119
v -0.016100 0.776724 -0.032119
v -0.016100 0.808884 -0.032119
v 0.016060 0.776724 -0.032119
v 0.016060 0.808884 -0.032119
v 0.032140 0.824964 -0.032119
v 0.032140 0.220564 0.032201
v -0.032180 0.220564 0.032201
v 0.032140 0.824964 0.032201
v 0.016060 0.776724 0.032201
v 0.016060 0.808884 0.032201
v -0.016100 0.776724 0.032201
v -0.016100 0.808884 0.032201
v -0.032180 0.824964 0.032201
v 0.032140 0.824964 -0.032119
v 0.032140 0.220564 -0.032119
v 0.032140 0.824964 0.032201
v 0.032140 0.220564 0.032201
v 0.008020 0.800844 -0.112119
v 0.008020 0.784764 -0.112119
v 0.016060 0.808884 -0.032119
v 0.016060 0.776724 -0.032119
v 0.016060 0.776724 0.032201
v -0.016100 0.776724 0.032201
v 0.008020 0.784764 0.112201
v -0.008060 0.784764 0.112201
v -0.048020 -0.019436 -0.047959
v -0.032180 0.220564 -0.032119
v -0.048020 -0.019436 0.048041
v -0.032180 0.220564 0.032201
v 0.016060 0.808884 -0.032119
v -0.016100 0.808884 -0.032119
v 0.008020 0.800844 -0.112119
v -0.008060 0.800844 -0.112119
v 0.008020 0.784764 0.112201
v -0.008060 0.784764 0.112201
v 0.008020 0.800844 0.112201
v -0.008060 0.800844 0.112201
v -0.032180 0.220564 -0.032119
v -0.032180 0.824964 -0.032119
v -0.032180 0.220564 0.032201
v -0.032180 0.824964 0.032201
v 0.016060 0.808884 0.032201
v 0.016060 0.776724 0.032201
v 0.008020 0.800844 0.112201
v 0.008020 0.784764 0.112201
v -0.008060 0.784764 -0.112119
v 0.008020 0.784764 -0.112119
v -0.008060 0.800844 -0.112119
v 0.008020 0.800844 -0.112119
v -0.016100 0.776724 0.032201
v -0.016100 0.808884 0.032201
v -0.008060 0.784764 0.112201
v -0.008060 0.800844 0.112201
v -0.008060 0.784764 -0.112119
v -0.008060 0.800844 -0.112119
v -0.016100 0.776724 -0.032119
v -0.016100 0.808884 -0.032119
v 0.016060 0.808884 0.032201
v 0.008020 0.800844 0.112201
v -0.016100 0.808884 0.032201
v -0.008060 0.800844 0.112201
v 0.016060 0.776724 -0.032119
v 0.008020 0.784764 -0.112119
v -0.016100 0.776724 -0.032119
v -0.008060 0.784764 -0.112119
v 0.032140 0.824964 -0.032119
v -0.032180 0.824964 -0.032119
v 0.032140 0.824964 0.032201
v -0.032180 0.824964 0.032201
v 0.058173 1.024963 0.108265
v -0.058213 1.024963 0.108265
v 0.058173 1.064963 0.108265
v -0.058213 1.064963 0.108265
v 0.108204 1.024963 0.058234
v 0.058173 1.024963 0.108265
v 0.108204 1.064963 0.058234
v 0.058173 1.064963 0.108265
v -0.071824 1.064963 -0.043066
v -0.043127 1.064963 -0.071763
v -0.056027 1.094964 -0.033583
v -0.033644 1.094964 -0.055966
v -0.043127 1.064963 -0.071763
v 0.043088 1.064963 -0.071763
v -0.033644 1.094964 -0.055966
v 0.033604 1.094964 -0.055966
v -0.108244 1.024963 -0.058152
v -0.108244 1.064963 -0.058152
v -0.108244 1.024963 0.058234
v -0.108244 1.064963 0.058234
v -0.058213 1.024963 -0.108183
v 0.058173 1.024963 -0.108183
v -0.058213 1.064963 -0.108183
v 0.058173 1.064963 -0.108183
v 0.055988 1.094964 -0.033583
v 0.055988 1.094964 0.033665
v 0.033604 1.094964 -0.055966
v 0.033604 1.094964 0.056048
v -0.033644 1.094964 -0.055966
v -0.033644 1.094964 0.056048
v -0.056027 1.094964 -0.033583
v -0.056027 1.094964 0.033665
v 0.043088 1.064963 -0.071763
v 0.071784 1.064963 -0.043066
v 0.033604 1.094964 -0.055966
v 0.055988 1.094964 -0.033583
v 0.071784 1.064963 -0.043066
v 0.071784 1.064963 0.043148
v 0.055988 1.094964 -0.033583
v 0.055988 1.094964 0.033665
v 0.108204 1.024963 -0.058152
v 0.058173 1.024963 -0.108183
v 0.108204 1.024963 0.058234
v 0.058173 1.024963 0.108265
v -0.058213 1.024963 -0.108183
v -0.058213 1.024963 0.108265
v -0.108244 1.024963 -0.058152
v -0.108244 1.024963 0.058234
v 0.071784 1.064963 0.043148
v 0.043088 1.064963 0.071845
v 0.055988 1.094964 0.033665
v 0.033604 1.094964 0.056048
v 0.108204 1.064963 -0.058152
v 0.108204 1.064963 0.058234
v 0.058173 1.064963 -0.108183
v 0.071784 1.064963 -0.043066
v 0.043088 1.064963 -0.071763
v 0.071784 1.064963 0.043148
v 0.058173 1.064963 0.108265
v 0.043088 1.064963 0.071845
v -0.058213 1.064963 -0.108183
v -0.043127 1.064963 -0.071763
v -0.071824 1.064963 -0.043066
v -0.108244 1.064963 -0.058152
v -0.058213 1.064963 0.108265
v -0.043127 1.064963 0.071845
v -0.071824 1.064963 0.043148
v -0.108244 1.064963 0.058234
v -0.056027 1.094964 0.033665
v -0.033644 1.094964 0.056048
v -0.071824 1.064963 0.043148
v -0.043127 1.064963 0.071845
v 0.108204 1.064963 -0.058152
v 0.108204 1.024963 -0.058152
v 0.108204 1.064963 0.058234
v 0.108204 1.024963 0.058234
v -0.108244 1.024963 -0.058152
v -0.058213 1.024963 -0.108183
v -0.108244 1.064963 -0.058152
v -0.058213 1.064963 -0.108183
v -0.071824 1.064963 -0.043066
v -0.056027 1.094964 -0.033583
v -0.071824 1.064963 0.043148
v -0.056027 1.094964 0.033665
v 0.058173 1.064963 -0.108183
v 0.058173 1.024963 -0.108183
v 0.108204 1.064963 -0.058152
v 0.108204 1.024963 -0.058152
v 0.043088 1.064963 0.071845
v -0.043127 1.064963 0.071845
v 0.033604 1.094964 0.056048
v -0.033644 1.094964 0.056048
v -0.108244 1.024963 0.058234
v -0.108244 1.064963 0.058234
v -0.058213 1.024963 0.108265
v -0.058213 1.064963 0.108265
v -0.047887 1.024964 0.083335
v 0.047847 1.024964 0.083335
v -0.032180 0.824964 0.032201
v -0.083314 1.024964 0.047908
v 0.032140 0.824964 0.032201
v 0.083275 1.024964 0.047908
v -0.032180 0.824964 -0.032119
v -0.083314 1.024964 -0.047826
v -0.047887 1.024964 -0.083253
v 0.032140 0.824964 -0.032119
v 0.083275 1.024964 -0.047826
v 0.047847 1.024964 -0.083253
vn -0.0000 1.0000 -0.0000
vn -0.0000 -1.0000 -0.0000
vn 0.9201 0.0749 0.3844
vn 0.3788 0.0748 0.9225
vn 0.3844 0.0749 0.9201
vn 0.9225 0.0748 0.3788
vn -0.9202 0.0749 0.3843
vn -0.9225 0.0748 -0.3787
vn -0.9202 0.0748 -0.3843
vn -0.9225 0.0748 0.3787
vn -0.9201 0.0749 -0.3844
vn -0.3788 0.0748 -0.9225
vn -0.3844 0.0749 -0.9201
vn -0.9225 0.0748 -0.3788
vn -0.3787 0.0748 -0.9225
vn 0.3843 0.0748 -0.9202
vn -0.3843 0.0749 -0.9202
vn 0.3787 0.0748 -0.9225
vn -0.9201 0.0749 0.3844
vn -0.3788 0.0748 0.9225
vn -0.9225 0.0748 0.3788
vn -0.3844 0.0749 0.9201
vn 0.3788 0.0748 -0.9225
vn 0.9201 0.0749 -0.3844
vn 0.3844 0.0749 -0.9201
vn 0.9225 0.0748 -0.3788
vn 0.3787 0.0748 0.9225
vn -0.3843 0.0748 0.9202
vn 0.3843 0.0749 0.9202
vn -0.3787 0.0748 0.9225
vn 0.9225 0.0748 -0.3787
vn 0.9202 0.0748 0.3843
vn 0.9202 0.0749 -0.3843
vn 0.9225 0.0748 0.3787
vn -0.0000 0.0336 0.9994
vn -0.0000 0.0322 0.9995
vn -0.0000 0.0323 0.9995
vn -0.0000 -0.0000 1.0000
vn -1.0000 -0.0000 -0.0000
vn -0.9995 0.0323 -0.0000
vn 0.9994 0.0336 -0.0000
vn 0.9995 0.0322 -0.0000
vn 0.9995 0.0323 -0.0000
vn 1.0000 -0.0000 -0.0000
vn -0.0000 0.0323 -0.9995
vn -0.0000 -0.0000 -1.0000
vn -0.0000 0.0336 -0.9994
vn -0.0000 0.0322 -0.9995
vn 0.7000 0.7001 -0.1407
vn 0.7000 -0.7001 -0.1407
vn 0.7001 -0.7000 0.1407
vn -0.7001 -0.7000 0.1407
vn -0.9995 0.0322 -0.0000
vn -0.9994 0.0336 -0.0000
vn 0.7001 0.7000 -0.1407
vn -0.7001 0.7000 -0.1407
vn 0.7000 0.7001 0.1407
vn 0.7000 -0.7001 0.1407
vn -0.7000 -0.7001 0.1407
vn -0.7000 0.7001 0.1407
vn -0.7000 -0.7001 -0.1407
vn -0.7000 0.7001 -0.1407
vn -0.7001 0.7000 0.1407
vn 0.7001 0.7000 0.1407
vn -0.7001 -0.7000 -0.1407
vn 0.7001 -0.7000 -0.1407
vn 0.3827 -0.0000 0.9239
vn -0.3827 -0.0000 0.9239
vn 0.9239 -0.0000 0.3827
vn 0.3827 0.0001 0.9239
vn -0.7978 0.5177 -0.3090
vn -0.3394 0.5200 -0.7838
vn -0.7838 0.5200 -0.3394
vn -0.3090 0.5178 -0.7978
vn -0.3090 0.5177 -0.7978
vn 0.3393 0.5200 -0.7839
vn -0.3393 0.5200 -0.7839
vn 0.3090 0.5177 -0.7978
vn -0.9239 -0.0000 0.3827
vn -0.9239 -0.0000 -0.3827
vn -0.3827 -0.0000 -0.9239
vn 0.3827 -0.0000 -0.9239
vn 0.7838 0.5200 -0.3394
vn 0.3394 0.5200 -0.7838
vn 0.7978 0.5178 -0.3090
vn 0.7839 0.5200 0.3393
vn 0.7839 0.5200 -0.3393
vn 0.7978 0.5178 0.3090
vn 0.7978 0.5177 0.3090
vn 0.3394 0.5200 0.7838
vn 0.7838 0.5200 0.3394
vn 0.3090 0.5178 0.7978
vn -0.7838 0.5200 0.3394
vn -0.3090 0.5177 0.7978
vn -0.7978 0.5178 0.3090
vn -0.3394 0.5200 0.7838
vn 0.9239 -0.0000 -0.3827
vn -0.3827 0.0001 -0.9239
vn -0.7839 0.5200 0.3393
vn -0.7839 0.5200 -0.3393
vn -0.7978 0.5177 0.3090
vn 0.3090 0.5177 0.7978
vn -0.3393 0.5200 0.7839
vn 0.3393 0.5200 0.7839
vn -0.6675 -0.3301 0.6675
vn 0.3649 -0.2574 0.8947
vn -0.3649 -0.2574 0.8947
vn -0.8947 -0.2574 0.3649
vn 0.6675 -0.3301 0.6675
vn 0.8947 -0.2574 0.3649
vn -0.6675 -0.3301 -0.6675
vn -0.8947 -0.2574 -0.3649
vn -0.3649 -0.2574 -0.8947
vn 0.6675 -0.3301 -0.6675
vn 0.8947 -0.2574 -0.3649
vn 0.3649 -0.2574 -0.8947
vt 0.968750 0.225000
vt 0.968750 0.025000
vt 0.218750 0.352701
vt 0.218750 0.304138
vt 0.218750 0.275000
vt 0.218750 0.475000
vt 0.218750 0.465239
vt 0.218750 0.471746
vt 0.218750 0.466866
vt 0.218750 0.470119
vt 0.218750 0.389286
vt 0.343750 0.475000
vt 0.343750 0.275000
s 0
usemtl colormap.030
f 3/1/1 2/1/1 1/1/1
f 2/1/1 3/1/1 4/1/1
f 4/1/1 3/1/1 5/1/1
f 4/1/1 5/1/1 6/1/1
f 6/1/1 5/1/1 7/1/1
f 6/1/1 7/1/1 8/1/1
f 11/2/2 10/2/2 9/2/2
f 10/2/2 11/2/2 12/2/2
f 10/2/2 12/2/2 13/2/2
f 13/2/2 12/2/2 14/2/2
f 13/2/2 14/2/2 15/2/2
f 15/2/2 14/2/2 16/2/2
s 1
f 19/2/3 18/1/4 17/2/5
f 18/1/4 19/2/3 20/1/6
f 23/2/7 22/1/8 21/2/9
f 22/1/8 23/2/7 24/1/10
f 27/2/11 26/1/12 25/2/13
f 26/1/12 27/2/11 28/1/14
f 31/1/15 30/2/16 29/2/17
f 30/2/16 31/1/15 32/1/18
f 35/2/19 34/1/20 33/1/21
f 34/1/20 35/2/19 36/2/22
f 39/1/23 38/2/24 37/2/25
f 38/2/24 39/1/23 40/1/26
f 43/1/27 42/2/28 41/2/29
f 42/2/28 43/1/27 44/1/30
f 47/1/31 46/2/32 45/2/33
f 46/2/32 47/1/31 48/1/34
f 51/3/35 50/4/36 49/4/36
f 50/4/36 51/3/35 52/3/35
f 55/4/37 54/5/38 53/5/38
f 54/5/38 55/4/37 56/4/37
f 59/5/39 58/4/40 57/5/39
f 58/4/40 59/5/39 60/4/40
f 63/3/41 62/4/42 61/4/42
f 62/4/42 63/3/41 64/3/41
f 67/4/43 66/5/44 65/4/43
f 66/5/44 67/4/43 68/5/44
f 71/4/45 70/5/46 69/5/46
f 70/5/46 71/4/45 72/4/45
f 75/3/47 74/4/48 73/4/48
f 74/4/48 75/3/47 76/3/47
f 79/6/46 78/3/47 77/3/47
f 78/3/47 79/6/46 80/7/46
s 0
f 80/7/46 79/6/46 81/8/46
s 1
f 82/7/46 78/3/47 80/7/46
s 0
f 81/8/46 79/6/46 83/8/46
s 1
f 78/3/47 82/7/46 84/6/46
s 0
f 84/6/46 82/7/46 83/8/46
f 84/6/46 83/8/46 79/6/46
s 1
f 87/6/38 86/3/35 85/3/35
f 86/3/35 87/6/38 88/7/38
s 0
f 88/7/38 87/6/38 89/8/38
s 1
f 90/7/38 86/3/35 88/7/38
s 0
f 89/8/38 87/6/38 91/8/38
s 1
f 86/3/35 90/7/38 92/6/38
s 0
f 92/6/38 90/7/38 91/8/38
f 92/6/38 91/8/38 87/6/38
s 1
f 95/6/44 94/3/41 93/6/44
f 94/3/41 95/6/44 96/3/41
f 99/8/49 98/9/50 97/10/49
f 98/9/50 99/8/49 100/7/50
f 103/9/51 102/7/52 101/7/51
f 102/7/52 103/9/51 104/9/52
f 107/4/53 106/3/54 105/4/53
f 106/3/54 107/4/53 108/3/54
f 111/10/55 110/8/56 109/8/55
f 110/8/56 111/10/55 112/10/56
s 0
f 115/10/38 114/9/38 113/9/38
f 114/9/38 115/10/38 116/10/38
s 1
f 119/3/54 118/6/39 117/3/54
f 118/6/39 119/3/54 120/6/39
f 123/10/57 122/7/58 121/8/57
f 122/7/58 123/10/57 124/9/58
s 0
f 127/10/46 126/9/46 125/9/46
f 126/9/46 127/10/46 128/10/46
s 1
f 131/9/59 130/8/60 129/7/59
f 130/8/60 131/9/59 132/10/60
f 135/7/61 134/10/62 133/9/61
f 134/10/62 135/7/61 136/8/62
f 139/8/63 138/10/64 137/8/64
f 138/10/64 139/8/63 140/10/63
f 143/7/65 142/9/66 141/7/66
f 142/9/66 143/7/65 144/9/65
s 0
f 147/6/2 146/6/2 145/6/2
f 146/6/2 147/6/2 148/6/2
s 1
f 151/11/67 150/5/68 149/5/67
f 150/5/68 151/11/67 152/11/68
f 155/11/69 154/5/70 153/5/69
f 154/5/70 155/11/69 156/11/67
f 159/6/71 158/11/72 157/11/73
f 158/11/72 159/6/71 160/6/74
f 163/6/75 162/11/76 161/11/77
f 162/11/76 163/6/75 164/6/78
f 167/5/79 166/11/80 165/5/80
f 166/11/80 167/5/79 168/11/79
f 171/11/81 170/5/82 169/5/81
f 170/5/82 171/11/81 172/11/82
s 0
f 175/6/1 174/6/1 173/6/1
f 174/6/1 175/6/1 176/6/1
f 176/6/1 175/6/1 177/6/1
f 176/6/1 177/6/1 178/6/1
f 178/6/1 177/6/1 179/6/1
f 178/6/1 179/6/1 180/6/1
s 1
f 183/6/78 182/11/83 181/11/84
f 182/11/83 183/6/78 184/6/85
f 187/6/85 186/11/86 185/11/87
f 186/11/86 187/6/85 188/6/88
s 0
f 191/5/2 190/5/2 189/5/2
f 190/5/2 191/5/2 192/5/2
f 190/5/2 192/5/2 193/5/2
f 193/5/2 192/5/2 194/5/2
f 193/5/2 194/5/2 195/5/2
f 195/5/2 194/5/2 196/5/2
s 1
f 199/6/89 198/11/90 197/11/91
f 198/11/90 199/6/89 200/6/92
s 0
f 203/11/1 202/11/1 201/11/1
f 202/11/1 203/11/1 204/11/1
f 204/11/1 203/11/1 205/11/1
f 206/11/1 202/11/1 204/11/1
f 202/11/1 206/11/1 207/11/1
f 207/11/1 206/11/1 208/11/1
f 205/11/1 203/11/1 209/11/1
f 205/11/1 209/11/1 210/11/1
f 210/11/1 209/11/1 211/11/1
f 211/11/1 209/11/1 212/11/1
f 207/11/1 208/11/1 213/11/1
f 213/11/1 208/11/1 214/11/1
f 211/11/1 212/11/1 215/11/1
f 213/11/1 214/11/1 215/11/1
f 216/11/1 215/11/1 212/11/1
f 213/11/1 215/11/1 216/11/1
s 1
f 219/11/93 218/6/94 217/6/95
f 218/6/94 219/11/93 220/11/96
f 223/11/69 222/5/97 221/11/97
f 222/5/97 223/11/69 224/5/69
f 227/11/80 226/5/98 225/5/80
f 226/5/98 227/11/80 228/11/81
f 231/11/99 230/6/71 229/11/100
f 230/6/71 231/11/99 232/6/101
f 235/11/97 234/5/82 233/11/82
f 234/5/82 235/11/97 236/5/97
f 239/6/102 238/11/103 237/11/104
f 238/11/103 239/6/102 240/6/94
f 243/5/68 242/11/79 241/5/79
f 242/11/79 243/5/68 244/11/68
f 247/12/105 246/13/106 245/13/107
f 245/13/107 248/13/108 247/12/105
f 246/13/106 247/12/105 249/12/109
f 246/13/106 249/12/109 250/13/110
f 248/13/108 251/12/111 247/12/105
f 251/12/111 248/13/108 252/13/112
f 253/13/113 251/12/111 252/13/112
f 254/12/114 250/13/110 249/12/109
f 253/13/113 254/12/114 251/12/111
f 250/13/110 254/12/114 255/13/115
f 254/12/114 253/13/113 256/13/116
f 254/12/114 256/13/116 255/13/115
