# Blender 5.1.0
# www.blender.org
mtllib overhang.mtl
o overhang-col
v 0.112194 -0.053223 -0.400000
v 0.112194 -0.053223 -0.500000
v -0.147806 -0.053223 -0.400000
v -0.147806 -0.053223 -0.500000
v -0.122806 0.046777 0.400000
v -0.147806 0.046777 0.400000
v -0.122806 -0.003223 0.400000
v -0.147806 -0.053223 0.400000
v 0.112194 -0.053223 0.400000
v 0.112194 -0.003223 0.400000
v 0.112194 0.046777 0.400000
v 0.112194 -0.003223 0.400000
v 0.112194 0.046777 0.500000
v 0.112194 -0.053223 0.400000
v 0.112194 -0.053223 0.500000
v 0.137194 0.046777 -0.400000
v 0.137194 -0.003223 -0.400000
v 0.137194 0.046777 0.400000
v 0.137194 -0.003223 0.400000
v -0.147806 0.046777 0.400000
v -0.122806 0.046777 0.400000
v -0.147806 0.046777 0.500000
v 0.112194 0.046777 0.500000
v -0.122806 0.046777 -0.400000
v -0.147806 0.046777 -0.500000
v -0.147806 0.046777 -0.400000
v 0.112194 0.046777 0.400000
v 0.112194 0.046777 -0.400000
v 0.112194 0.046777 -0.500000
v 0.137194 0.046777 0.400000
v 0.137194 0.046777 -0.400000
v -0.147806 -0.053223 0.400000
v -0.147806 0.046777 0.400000
v -0.147806 -0.053223 0.500000
v -0.147806 0.046777 0.500000
v 0.112194 0.046777 -0.500000
v 0.112194 -0.053223 -0.500000
v 0.112194 0.046777 -0.400000
v 0.112194 -0.053223 -0.400000
v 0.112194 -0.003223 -0.400000
v 0.137194 -0.003223 0.400000
v 0.112194 -0.003223 0.400000
v 0.137194 0.046777 0.400000
v 0.112194 0.046777 0.400000
v 0.112194 -0.053223 0.500000
v 0.112194 -0.053223 0.400000
v -0.147806 -0.053223 0.500000
v -0.147806 -0.053223 0.400000
v -0.147806 -0.053223 -0.500000
v 0.112194 -0.053223 -0.500000
v -0.147806 0.046777 -0.500000
v 0.112194 0.046777 -0.500000
v 0.112194 -0.053223 -0.400000
v -0.147806 -0.053223 -0.400000
v 0.112194 -0.003223 -0.400000
v -0.122806 -0.003223 -0.400000
v -0.147806 0.046777 -0.400000
v -0.122806 0.046777 -0.400000
v -0.122806 -0.003223 -0.400000
v -0.122806 0.046777 -0.400000
v -0.122806 -0.003223 0.400000
v -0.122806 0.046777 0.400000
v 0.112194 -0.053223 0.500000
v -0.147806 -0.053223 0.500000
v 0.112194 0.046777 0.500000
v -0.147806 0.046777 0.500000
v -0.147806 -0.053223 -0.500000
v -0.147806 0.046777 -0.500000
v -0.147806 -0.053223 -0.400000
v -0.147806 0.046777 -0.400000
v 0.112194 -0.003223 -0.400000
v 0.137194 -0.003223 -0.400000
v 0.112194 0.046777 -0.400000
v 0.137194 0.046777 -0.400000
v 0.112194 -0.283223 -0.425000
v 0.112194 -0.283223 -0.475000
v -0.117806 -0.053223 -0.425000
v -0.117806 -0.053223 -0.475000
v 0.112194 -0.283223 0.475000
v -0.117806 -0.053223 0.475000
v 0.112194 -0.212512 0.475000
v -0.047095 -0.053223 0.475000
v 0.112194 -0.212512 -0.475000
v 0.112194 -0.212512 -0.425000
v -0.047095 -0.053223 -0.475000
v -0.047095 -0.053223 -0.425000
v 0.112194 -0.212512 -0.475000
v 0.112194 -0.283223 -0.475000
v 0.112194 -0.212512 -0.425000
v 0.112194 -0.283223 -0.425000
v 0.112194 -0.283223 0.425000
v 0.112194 -0.212512 0.425000
v -0.117806 -0.053223 0.425000
v -0.047095 -0.053223 0.425000
v 0.112194 -0.283223 0.475000
v 0.112194 -0.283223 0.425000
v -0.117806 -0.053223 0.475000
v -0.117806 -0.053223 0.425000
v 0.112194 -0.212512 0.425000
v 0.112194 -0.212512 0.475000
v -0.047095 -0.053223 0.425000
v -0.047095 -0.053223 0.475000
v 0.112194 -0.212512 0.425000
v 0.112194 -0.283223 0.425000
v 0.112194 -0.212512 0.475000
v 0.112194 -0.283223 0.475000
v 0.112194 -0.283223 -0.475000
v 0.112194 -0.212512 -0.475000
v -0.117806 -0.053223 -0.475000
v -0.047095 -0.053223 -0.475000
v 0.112194 -0.283223 -0.425000
v -0.117806 -0.053223 -0.425000
v 0.112194 -0.212512 -0.425000
v -0.047095 -0.053223 -0.425000
v 0.137194 -0.003223 0.400000
v 0.137194 -0.003223 -0.400000
v 0.112194 -0.003223 0.400000
v 0.112194 -0.003223 -0.400000
v -0.122806 -0.003223 0.400000
v -0.122806 -0.003223 -0.400000
vn -0.0000 -1.0000 -0.0000
vn -0.0000 -0.0000 -1.0000
vn 1.0000 -0.0000 -0.0000
vn -0.0000 1.0000 -0.0000
vn -1.0000 -0.0000 -0.0000
vn -0.0000 0.3827 0.9239
vn -0.0000 -0.3827 0.9239
vn 0.2706 0.2706 0.9239
vn -0.0000 -0.0000 1.0000
vn -0.7071 -0.7071 -0.0000
vn 0.7071 0.7071 -0.0000
vt 0.593750 0.205000
vt 0.593750 0.215000
vt 0.593750 0.225000
vt 0.593750 0.025000
vt 0.593750 0.163512
vt 0.718750 0.215000
s 0
usemtl colormap.031
f 3/1/1 2/1/1 1/1/1
f 2/1/1 3/1/1 4/1/1
f 7/2/2 6/3/2 5/3/2
f 7/2/2 8/1/2 6/3/2
f 8/1/2 7/2/2 9/1/2
f 10/2/2 9/1/2 7/2/2
f 13/3/3 12/2/3 11/3/3
f 12/2/3 13/3/3 14/1/3
f 14/1/3 13/3/3 15/1/3
f 18/3/3 17/2/3 16/3/3
f 17/2/3 18/3/3 19/2/3
f 22/3/4 21/3/4 20/3/4
f 23/3/4 21/3/4 22/3/4
f 21/3/4 23/3/4 24/3/4
f 23/3/4 25/3/4 24/3/4
f 24/3/4 25/3/4 26/3/4
f 27/3/4 25/3/4 23/3/4
f 28/3/4 25/3/4 27/3/4
f 25/3/4 28/3/4 29/3/4
f 30/3/4 28/3/4 27/3/4
f 28/3/4 30/3/4 31/3/4
f 34/1/5 33/3/5 32/1/5
f 33/3/5 34/1/5 35/3/5
f 38/3/3 37/1/3 36/3/3
f 37/1/3 38/3/3 39/1/3
s 1
f 39/1/6 38/3/7 40/2/8
s 0
f 43/3/9 42/2/9 41/2/9
f 42/2/9 43/3/9 44/3/9
f 47/1/1 46/1/1 45/1/1
f 46/1/1 47/1/1 48/1/1
f 51/3/2 50/1/2 49/1/2
f 50/1/2 51/3/2 52/3/2
f 55/2/9 54/1/9 53/1/9
f 54/1/9 55/2/9 56/2/9
f 54/1/9 56/2/9 57/3/9
f 57/3/9 56/2/9 58/3/9
f 61/2/5 60/3/5 59/2/5
f 60/3/5 61/2/5 62/3/5
f 65/3/9 64/1/9 63/1/9
f 64/1/9 65/3/9 66/3/9
f 69/1/5 68/3/5 67/1/5
f 68/3/5 69/1/5 70/3/5
f 73/3/2 72/2/2 71/2/2
f 72/2/2 73/3/2 74/3/2
f 77/4/10 76/3/10 75/3/10
f 76/3/10 77/4/10 78/4/10
f 81/5/9 80/4/9 79/3/9
f 80/4/9 81/5/9 82/4/9
f 85/4/11 84/5/11 83/5/11
f 84/5/11 85/4/11 86/4/11
f 89/5/3 88/3/3 87/5/3
f 88/3/3 89/5/3 90/3/3
f 93/4/2 92/5/2 91/3/2
f 92/5/2 93/4/2 94/4/2
f 97/4/10 96/3/10 95/3/10
f 96/3/10 97/4/10 98/4/10
f 101/4/11 100/5/11 99/5/11
f 100/5/11 101/4/11 102/4/11
f 105/5/3 104/3/3 103/5/3
f 104/3/3 105/5/3 106/3/3
f 109/4/2 108/5/2 107/3/2
f 108/5/2 109/4/2 110/4/2
f 113/5/9 112/4/9 111/3/9
f 112/4/9 113/5/9 114/4/9
f 117/6/1 116/6/1 115/6/1
f 116/6/1 117/6/1 118/6/1
f 118/6/1 117/6/1 119/6/1
f 118/6/1 119/6/1 120/6/1
