# Blender 5.1.0
# www.blender.org
mtllib pillar_stone.mtl
o pillar-stone-col
v 0.080000 -0.458935 -0.050000
v 0.080000 -0.258935 -0.050000
v 0.050000 -0.458935 -0.080000
v 0.050000 -0.258935 -0.080000
v -0.050000 -0.458935 -0.080000
v 0.050000 -0.458935 -0.080000
v -0.050000 -0.258935 -0.080000
v 0.050000 -0.258935 -0.080000
v 0.080000 -0.458935 0.050000
v 0.050000 -0.458935 0.080000
v 0.080000 -0.258935 0.050000
v 0.050000 -0.258935 0.080000
v 0.080000 -0.258935 -0.050000
v 0.080000 -0.458935 -0.050000
v 0.080000 -0.258935 0.050000
v 0.080000 -0.458935 0.050000
v -0.080000 -0.458935 -0.050000
v -0.080000 -0.258935 -0.050000
v -0.080000 -0.458935 0.050000
v -0.080000 -0.258935 0.050000
v -0.080000 -0.458935 0.050000
v -0.080000 -0.258935 0.050000
v -0.050000 -0.458935 0.080000
v -0.050000 -0.258935 0.080000
v -0.080000 0.441065 -0.050000
v -0.080000 0.541065 -0.050000
v -0.080000 0.441065 0.050000
v -0.080000 0.541065 0.050000
v -0.080000 -0.458935 -0.050000
v -0.050000 -0.458935 -0.080000
v -0.080000 -0.258935 -0.050000
v -0.050000 -0.258935 -0.080000
v 0.050000 -0.458935 0.080000
v -0.050000 -0.458935 0.080000
v 0.050000 -0.258935 0.080000
v -0.050000 -0.258935 0.080000
v 0.080000 0.541065 -0.050000
v 0.080000 0.541065 0.050000
v 0.050000 0.541065 -0.080000
v 0.050000 0.541065 0.080000
v -0.050000 0.541065 -0.080000
v -0.050000 0.541065 0.080000
v -0.080000 0.541065 -0.050000
v -0.080000 0.541065 0.050000
v 0.080000 -0.458935 -0.050000
v 0.050000 -0.458935 -0.080000
v 0.080000 -0.458935 0.050000
v 0.050000 -0.458935 0.080000
v -0.050000 -0.458935 -0.080000
v -0.050000 -0.458935 0.080000
v -0.080000 -0.458935 -0.050000
v -0.080000 -0.458935 0.050000
v -0.080000 -0.258935 0.050000
v -0.080000 -0.258935 -0.050000
v -0.050000 -0.258935 0.080000
v -0.050000 -0.258935 0.050000
v 0.050000 -0.258935 0.080000
v -0.050000 -0.258935 -0.050000
v -0.050000 -0.258935 -0.080000
v 0.050000 -0.258935 0.050000
v 0.050000 -0.258935 -0.050000
v 0.050000 -0.258935 -0.080000
v 0.080000 -0.258935 0.050000
v 0.080000 -0.258935 -0.050000
v -0.080000 -0.120769 0.050000
v -0.080000 -0.020768 0.050000
v -0.050000 -0.120769 0.080000
v -0.050000 -0.020768 0.080000
v 0.050000 0.441065 0.080000
v -0.050000 0.441065 0.080000
v 0.050000 0.541065 0.080000
v -0.050000 0.541065 0.080000
v -0.080000 0.441065 0.050000
v -0.080000 0.541065 0.050000
v -0.050000 0.441065 0.080000
v -0.050000 0.541065 0.080000
v 0.080000 -0.120769 0.050000
v 0.050000 -0.120769 0.080000
v 0.080000 -0.020768 0.050000
v 0.050000 -0.020768 0.080000
v -0.080000 -0.120769 -0.050000
v -0.080000 -0.020768 -0.050000
v -0.080000 -0.120769 0.050000
v -0.080000 -0.020768 0.050000
v -0.080000 -0.120769 -0.050000
v -0.050000 -0.120769 -0.080000
v -0.080000 -0.020768 -0.050000
v -0.050000 -0.020768 -0.080000
v 0.080000 -0.120769 -0.050000
v 0.050000 -0.120769 -0.080000
v 0.080000 -0.120769 0.050000
v 0.050000 -0.120769 0.080000
v 0.050000 -0.120769 -0.050000
v -0.050000 -0.120769 -0.080000
v 0.050000 -0.120769 0.050000
v -0.050000 -0.120769 0.080000
v -0.050000 -0.120769 0.050000
v -0.080000 -0.120769 0.050000
v -0.050000 -0.120769 -0.050000
v -0.080000 -0.120769 -0.050000
v -0.080000 -0.020768 0.050000
v -0.080000 -0.020768 -0.050000
v -0.050000 -0.020768 0.080000
v -0.050000 -0.020768 0.050000
v 0.050000 -0.020768 0.080000
v -0.050000 -0.020768 -0.050000
v -0.050000 -0.020768 -0.080000
v 0.050000 -0.020768 0.050000
v 0.050000 -0.020768 -0.050000
v 0.050000 -0.020768 -0.080000
v 0.080000 -0.020768 0.050000
v 0.080000 -0.020768 -0.050000
v 0.080000 0.441065 -0.050000
v 0.050000 0.441065 -0.080000
v 0.080000 0.441065 0.050000
v 0.050000 0.441065 0.080000
v 0.050000 0.441065 -0.050000
v -0.050000 0.441065 -0.080000
v 0.050000 0.441065 0.050000
v -0.050000 0.441065 0.080000
v -0.050000 0.441065 0.050000
v -0.080000 0.441065 0.050000
v -0.050000 0.441065 -0.050000
v -0.080000 0.441065 -0.050000
v 0.080000 0.441065 0.050000
v 0.050000 0.441065 0.080000
v 0.080000 0.541065 0.050000
v 0.050000 0.541065 0.080000
v -0.050000 -0.120769 -0.080000
v 0.050000 -0.120769 -0.080000
v -0.050000 -0.020768 -0.080000
v 0.050000 -0.020768 -0.080000
v 0.080000 0.441065 -0.050000
v 0.080000 0.541065 -0.050000
v 0.050000 0.441065 -0.080000
v 0.050000 0.541065 -0.080000
v 0.080000 -0.120769 -0.050000
v 0.080000 -0.020768 -0.050000
v 0.050000 -0.120769 -0.080000
v 0.050000 -0.020768 -0.080000
v 0.050000 -0.120769 0.080000
v -0.050000 -0.120769 0.080000
v 0.050000 -0.020768 0.080000
v -0.050000 -0.020768 0.080000
v 0.080000 0.541065 -0.050000
v 0.080000 0.441065 -0.050000
v 0.080000 0.541065 0.050000
v 0.080000 0.441065 0.050000
v 0.080000 -0.020768 -0.050000
v 0.080000 -0.120769 -0.050000
v 0.080000 -0.020768 0.050000
v 0.080000 -0.120769 0.050000
v -0.080000 0.441065 -0.050000
v -0.050000 0.441065 -0.080000
v -0.080000 0.541065 -0.050000
v -0.050000 0.541065 -0.080000
v -0.050000 0.441065 -0.080000
v 0.050000 0.441065 -0.080000
v -0.050000 0.541065 -0.080000
v 0.050000 0.541065 -0.080000
v -0.050000 -0.258935 -0.050000
v -0.050000 -0.120769 -0.050000
v -0.050000 -0.258935 0.050000
v -0.050000 -0.120769 0.050000
v 0.050000 0.441065 -0.050000
v 0.050000 -0.020768 -0.050000
v 0.050000 0.441065 0.050000
v 0.050000 -0.020768 0.050000
v 0.050000 -0.120769 -0.050000
v 0.050000 -0.258935 -0.050000
v 0.050000 -0.120769 0.050000
v 0.050000 -0.258935 0.050000
v -0.050000 -0.020768 -0.050000
v -0.050000 0.441065 -0.050000
v -0.050000 -0.020768 0.050000
v -0.050000 0.441065 0.050000
v -0.050000 -0.258935 -0.050000
v 0.050000 -0.258935 -0.050000
v -0.050000 -0.120769 -0.050000
v 0.050000 -0.120769 -0.050000
v 0.050000 -0.020768 0.050000
v -0.050000 -0.020768 0.050000
v 0.050000 0.441065 0.050000
v -0.050000 0.441065 0.050000
v -0.050000 -0.020768 -0.050000
v 0.050000 -0.020768 -0.050000
v -0.050000 0.441065 -0.050000
v 0.050000 0.441065 -0.050000
v 0.050000 -0.258935 0.050000
v -0.050000 -0.258935 0.050000
v 0.050000 -0.120769 0.050000
v -0.050000 -0.120769 0.050000
vn 0.3827 -0.0000 -0.9239
vn 0.9239 -0.0000 -0.3827
vn -0.3827 -0.0000 -0.9239
vn 0.9239 -0.0001 0.3827
vn 0.3827 0.0001 0.9239
vn 0.9239 -0.0000 0.3827
vn 0.3827 -0.0000 0.9239
vn -0.9239 -0.0000 0.3827
vn -0.9239 -0.0000 -0.3827
vn -0.3827 -0.0000 0.9239
vn -0.3827 -0.0001 0.9239
vn -0.9239 -0.0001 -0.3827
vn -0.3827 0.0001 -0.9239
vn -0.0000 1.0000 -0.0000
vn -0.0000 -1.0000 -0.0000
vn -0.0000 -0.0000 1.0000
vn -1.0000 -0.0000 -0.0000
vn -0.9239 0.0001 0.3827
vn 0.9239 0.0001 -0.3827
vn 1.0000 -0.0000 -0.0000
vn -0.0000 -0.0000 -1.0000
vt 0.968750 0.025000
vt 0.968750 0.065000
vt 0.968750 0.205000
vt 0.968750 0.225000
vt 0.968750 0.092633
vt 0.968750 0.112633
vt 0.218750 0.315000
vt 0.218750 0.342633
vt 0.218750 0.455000
vt 0.218750 0.362633
s 1
usemtl colormap.032
f 3/1/1 2/2/2 1/1/2
f 2/2/2 3/1/1 4/2/1
f 7/2/3 6/1/1 5/1/3
f 6/1/1 7/2/3 8/2/1
f 11/2/4 10/1/5 9/1/6
f 10/1/5 11/2/4 12/2/7
f 15/2/6 14/1/2 13/2/2
f 14/1/2 15/2/6 16/1/6
f 19/1/8 18/2/9 17/1/9
f 18/2/9 19/1/8 20/2/8
f 23/1/10 22/2/8 21/1/8
f 22/2/8 23/1/10 24/2/11
f 27/3/8 26/4/9 25/3/9
f 26/4/9 27/3/8 28/4/8
f 31/2/12 30/1/13 29/1/9
f 30/1/13 31/2/12 32/2/3
f 35/2/7 34/1/10 33/1/7
f 34/1/10 35/2/7 36/2/10
s 0
f 39/4/14 38/4/14 37/4/14
f 38/4/14 39/4/14 40/4/14
f 40/4/14 39/4/14 41/4/14
f 40/4/14 41/4/14 42/4/14
f 42/4/14 41/4/14 43/4/14
f 42/4/14 43/4/14 44/4/14
f 47/1/15 46/1/15 45/1/15
f 46/1/15 47/1/15 48/1/15
f 46/1/15 48/1/15 49/1/15
f 49/1/15 48/1/15 50/1/15
f 49/1/15 50/1/15 51/1/15
f 51/1/15 50/1/15 52/1/15
f 55/2/14 54/2/14 53/2/14
f 56/2/14 54/2/14 55/2/14
f 57/2/14 56/2/14 55/2/14
f 58/2/14 54/2/14 56/2/14
f 58/2/14 59/2/14 54/2/14
f 57/2/14 60/2/14 56/2/14
f 61/2/14 59/2/14 58/2/14
s 1
f 57/2/16 61/2/14 60/2/17
s 0
f 59/2/14 61/2/14 62/2/14
s 1
f 57/2/16 62/2/14 61/2/14
s 0
f 63/2/14 62/2/14 57/2/14
f 62/2/14 63/2/14 64/2/14
s 1
f 67/5/10 66/6/8 65/5/18
f 66/6/8 67/5/10 68/6/10
f 71/4/7 70/3/10 69/3/7
f 70/3/10 71/4/7 72/4/10
f 75/3/10 74/4/8 73/3/8
f 74/4/8 75/3/10 76/4/10
f 79/6/6 78/5/7 77/5/6
f 78/5/7 79/6/6 80/6/7
f 83/5/8 82/6/9 81/5/9
f 82/6/9 83/5/8 84/6/8
f 87/6/9 86/5/3 85/5/9
f 86/5/3 87/6/9 88/6/3
s 0
f 91/5/15 90/5/15 89/5/15
f 90/5/15 91/5/15 92/5/15
s 1
f 90/5/14 92/5/16 93/5/14
s 0
f 90/5/15 93/5/15 94/5/15
s 1
f 93/5/14 92/5/16 95/5/17
s 0
f 96/5/15 95/5/15 92/5/15
f 95/5/15 96/5/15 97/5/15
f 97/5/15 96/5/15 98/5/15
f 94/5/15 93/5/15 99/5/15
f 97/5/15 98/5/15 99/5/15
f 94/5/15 99/5/15 100/5/15
f 100/5/15 99/5/15 98/5/15
f 103/6/14 102/6/14 101/6/14
f 104/6/14 102/6/14 103/6/14
f 105/6/14 104/6/14 103/6/14
f 106/6/14 102/6/14 104/6/14
f 106/6/14 107/6/14 102/6/14
f 105/6/14 108/6/14 104/6/14
f 109/6/14 107/6/14 106/6/14
s 1
f 105/6/16 109/6/15 108/6/17
s 0
f 107/6/14 109/6/14 110/6/14
s 1
f 105/6/16 110/6/15 109/6/15
s 0
f 111/6/14 110/6/14 105/6/14
f 110/6/14 111/6/14 112/6/14
f 115/3/15 114/3/15 113/3/15
f 114/3/15 115/3/15 116/3/15
s 1
f 114/3/15 116/3/16 117/3/15
s 0
f 114/3/15 117/3/15 118/3/15
s 1
f 117/3/15 116/3/16 119/3/14
s 0
f 120/3/15 119/3/15 116/3/15
f 119/3/15 120/3/15 121/3/15
f 121/3/15 120/3/15 122/3/15
f 118/3/15 117/3/15 123/3/15
f 121/3/15 122/3/15 123/3/15
f 118/3/15 123/3/15 124/3/15
f 124/3/15 123/3/15 122/3/15
s 1
f 127/4/6 126/3/7 125/3/6
f 126/3/7 127/4/6 128/4/7
f 131/6/3 130/5/1 129/5/3
f 130/5/1 131/6/3 132/6/1
f 135/3/1 134/4/2 133/3/2
f 134/4/2 135/3/1 136/4/1
f 139/5/1 138/6/2 137/5/19
f 138/6/2 139/5/1 140/6/1
f 143/6/7 142/5/10 141/5/7
f 142/5/10 143/6/7 144/6/10
f 147/4/6 146/3/2 145/4/2
f 146/3/2 147/4/6 148/3/6
f 151/6/6 150/5/2 149/6/2
f 150/5/2 151/6/6 152/5/6
f 155/4/9 154/3/3 153/3/9
f 154/3/3 155/4/9 156/4/3
f 159/4/3 158/3/1 157/3/3
f 158/3/1 159/4/3 160/4/1
s 0
f 163/7/17 162/8/17 161/7/17
f 162/8/17 163/7/17 164/8/17
f 167/9/20 166/10/20 165/9/20
f 166/10/20 167/9/20 168/10/20
f 171/8/20 170/7/20 169/8/20
f 170/7/20 171/8/20 172/7/20
f 175/10/17 174/9/17 173/10/17
f 174/9/17 175/10/17 176/9/17
f 179/8/21 178/7/21 177/7/21
f 178/7/21 179/8/21 180/8/21
f 183/9/16 182/10/16 181/10/16
f 182/10/16 183/9/16 184/9/16
f 187/9/21 186/10/21 185/10/21
f 186/10/21 187/9/21 188/9/21
f 191/8/16 190/7/16 189/7/16
f 190/7/16 191/8/16 192/8/16
