# Blender 5.1.0
# www.blender.org
mtllib road_edge_slope.mtl
o road-edge-slope-col
v -0.238327 -0.056912 -0.620446
v -0.238327 0.143088 0.379554
v -0.523327 -0.056912 -0.620446
v -0.523327 0.143088 0.379554
v -0.238327 -0.056912 -0.620446
v -0.523327 -0.056912 -0.620446
v -0.238327 -0.069412 -0.620446
v -0.523327 -0.081912 -0.620446
v -0.148327 -0.069412 -0.620446
v -0.148327 -0.081912 -0.620446
v -0.148327 -0.069412 -0.620446
v -0.148327 0.130588 0.379554
v -0.238327 -0.069412 -0.620446
v -0.238327 0.130588 0.379554
v -0.238327 -0.056912 -0.620446
v -0.238327 -0.069412 -0.620446
v -0.238327 0.143088 0.379554
v -0.238327 0.130588 0.379554
v 0.476673 -0.081912 0.379554
v 0.476673 -0.081912 -0.620446
v -0.148327 -0.081912 0.379554
v -0.148327 -0.081912 -0.620446
v -0.523327 -0.081912 0.379554
v -0.523327 -0.081912 -0.620446
v -0.523327 -0.081912 -0.620446
v -0.523327 -0.056912 -0.620446
v -0.523327 -0.081912 0.379554
v -0.523327 0.143088 0.379554
v -0.148327 -0.081912 0.379554
v -0.523327 -0.081912 0.379554
v -0.148327 0.118088 0.379554
v -0.523327 0.143088 0.379554
v -0.238327 0.130588 0.379554
v -0.148327 0.130588 0.379554
v -0.238327 0.143088 0.379554
v -0.148327 -0.069412 -0.620446
v -0.148327 -0.081912 -0.620446
v -0.058327 -0.031912 -0.620446
v -0.058327 0.168088 0.379554
v -0.148327 -0.056912 -0.620446
v -0.148327 0.143088 0.379554
v 0.476673 -0.031912 -0.620446
v 0.476673 -0.081912 -0.620446
v 0.476673 0.168088 0.379554
v 0.476673 -0.081912 0.379554
v 0.476673 -0.081912 0.379554
v -0.148327 -0.081912 0.379554
v 0.476673 0.168088 0.379554
v -0.148327 0.118088 0.379554
v -0.148327 0.130588 0.379554
v -0.148327 0.143088 0.379554
v -0.058327 0.168088 0.379554
v -0.148327 -0.069412 -0.620446
v -0.148327 -0.056912 -0.620446
v -0.148327 0.130588 0.379554
v -0.148327 0.143088 0.379554
v 0.476673 -0.081912 -0.620446
v 0.476673 -0.031912 -0.620446
v -0.148327 -0.056912 -0.620446
v -0.058327 -0.031912 -0.620446
v 0.476673 -0.031912 -0.620446
v 0.476673 0.168088 0.379554
v -0.058327 -0.031912 -0.620446
v -0.058327 0.168088 0.379554
vn -0.0000 0.9806 -0.1961
vn -0.0000 -0.0000 -1.0000
vn 1.0000 -0.0000 -0.0000
vn -0.0000 -1.0000 -0.0000
vn -1.0000 -0.0000 -0.0000
vn -0.0000 -0.0000 1.0000
vn -0.2628 0.9461 -0.1892
vn -0.1304 0.9722 -0.1944
vn -0.1348 0.9716 -0.1943
vn -0.1347 0.9716 -0.1943
vn -0.1303 0.9722 -0.1945
vt 0.156250 0.375000
vt 0.906250 0.125000
s 0
usemtl colormap.044
f 3/1/1 2/1/1 1/1/1
f 2/1/1 3/1/1 4/1/1
f 7/1/2 6/1/2 5/1/2
f 6/1/2 7/1/2 8/1/2
f 9/2/2 8/1/2 7/1/2
f 8/1/2 9/2/2 10/2/2
f 13/1/1 12/1/1 11/1/1
f 12/1/1 13/1/1 14/1/1
f 17/1/3 16/1/3 15/1/3
f 16/1/3 17/1/3 18/1/3
f 21/1/4 20/1/4 19/1/4
f 20/1/4 21/1/4 22/1/4
f 22/1/4 21/1/4 23/1/4
f 22/1/4 23/1/4 24/1/4
f 27/1/5 26/1/5 25/1/5
f 26/1/5 27/1/5 28/1/5
f 31/1/6 30/1/6 29/1/6
f 30/1/6 31/1/6 32/1/6
f 32/1/6 31/1/6 33/1/6
f 33/1/6 31/1/6 34/1/6
f 32/1/6 33/1/6 35/1/6
s 1
f 40/2/7 39/2/8 38/2/9
f 39/2/8 40/2/7 41/2/7
s 0
f 44/2/3 43/2/3 42/2/3
f 43/2/3 44/2/3 45/2/3
f 48/2/6 47/2/6 46/2/6
f 47/2/6 48/2/6 49/2/6
f 49/2/6 48/2/6 50/2/6
f 50/2/6 48/2/6 51/2/6
f 51/2/6 48/2/6 52/2/6
f 55/2/5 54/2/5 53/2/5
f 54/2/5 55/2/5 56/2/5
f 36/2/2 57/2/2 37/2/2
f 57/2/2 36/2/2 58/2/2
f 58/2/2 36/2/2 59/2/2
f 58/2/2 59/2/2 60/2/2
s 1
f 63/2/10 62/2/1 61/2/1
f 62/2/1 63/2/10 64/2/11
