# Blender 5.1.0
# www.blender.org
mtllib road_curb_end.mtl
o road-curb-end-col
v -0.053763 0.006977 0.263988
v 0.446237 -0.005523 0.263988
v 0.446237 0.006977 0.263988
v -0.053763 0.006977 -0.451012
v -0.053763 0.006977 0.173988
v -0.553763 0.006977 -0.451012
v -0.053763 0.006977 0.263988
v -0.553763 0.006977 0.548988
v 0.446237 0.006977 0.263988
v 0.446237 0.006977 0.548988
v 0.446237 -0.018023 -0.451012
v -0.053763 -0.018023 -0.451012
v 0.446237 -0.018023 0.173988
v 0.446237 -0.018023 0.548988
v -0.553763 -0.018023 0.548988
v -0.553763 -0.018023 -0.451012
v 0.446237 -0.005523 0.173988
v 0.446237 -0.005523 0.263988
v -0.053763 0.006977 0.173988
v -0.053763 0.006977 0.263988
v -0.553763 -0.018023 -0.451012
v -0.053763 -0.018023 -0.451012
v -0.553763 0.006977 -0.451012
v -0.053763 0.006977 -0.451012
v 0.446237 -0.018023 0.548988
v -0.553763 -0.018023 0.548988
v 0.446237 0.006977 0.548988
v -0.553763 0.006977 0.548988
v 0.446237 0.006977 0.263988
v 0.446237 -0.005523 0.263988
v 0.446237 0.006977 0.548988
v 0.446237 -0.018023 0.548988
v 0.446237 -0.018023 0.173988
v 0.446237 -0.005523 0.173988
v -0.553763 -0.018023 -0.451012
v -0.553763 0.006977 -0.451012
v -0.553763 -0.018023 0.548988
v -0.553763 0.006977 0.548988
v 0.446237 0.006977 0.173988
v 0.446237 -0.005523 0.173988
v -0.053763 0.006977 0.173988
v -0.053763 -0.018023 -0.451012
v 0.446237 -0.018023 -0.451012
v -0.053763 0.006977 -0.451012
v 0.446237 0.031977 -0.451012
v -0.053763 0.031977 -0.451012
v -0.053763 0.006977 -0.451012
v -0.053763 0.031977 -0.451012
v -0.053763 0.006977 0.173988
v -0.053763 0.031977 0.083988
v 0.446237 0.031977 -0.451012
v 0.446237 -0.018023 -0.451012
v 0.446237 0.031977 0.083988
v 0.446237 -0.018023 0.173988
v 0.446237 0.006977 0.173988
v 0.446237 -0.005523 0.173988
v 0.446237 0.031977 -0.451012
v 0.446237 0.031977 0.083988
v -0.053763 0.031977 -0.451012
v -0.053763 0.031977 0.083988
v 0.446237 0.006977 0.173988
v -0.053763 0.006977 0.173988
v 0.446237 0.031977 0.083988
v -0.053763 0.031977 0.083988
vn -0.0000 -0.0000 -1.0000
vn -0.0000 1.0000 -0.0000
vn 0.0083 1.0000 -0.0000
vn 0.0062 1.0000 -0.0000
vn -0.0000 -1.0000 -0.0000
vn 0.0250 0.9997 -0.0000
vn 0.0063 1.0000 -0.0000
vn -0.0000 -0.0000 1.0000
vn 1.0000 -0.0000 -0.0000
vn -1.0000 -0.0000 -0.0000
vn -0.0000 -0.0000 -0.0000
vn -0.0000 0.9908 0.1350
vn -0.0000 0.9908 0.1351
vn -0.0000 0.9635 0.2676
vt 0.156250 0.375000
vt 0.906250 0.125000
s 0
usemtl colormap.042
f 3/1/1 2/1/1 1/1/1
s 1
f 6/1/2 5/1/3 4/1/2
f 5/1/3 6/1/2 7/1/4
f 8/1/2 7/1/4 6/1/2
f 8/1/2 9/1/2 7/1/4
s 0
f 9/1/2 8/1/2 10/1/2
f 13/1/5 12/1/5 11/1/5
f 12/1/5 13/1/5 14/1/5
f 12/1/5 14/1/5 15/1/5
f 12/1/5 15/1/5 16/1/5
s 1
f 19/1/3 18/1/6 17/1/6
f 18/1/6 19/1/3 20/1/7
s 0
f 23/1/1 22/1/1 21/1/1
f 22/1/1 23/1/1 24/1/1
f 27/1/8 26/1/8 25/1/8
f 26/1/8 27/1/8 28/1/8
f 31/1/9 30/1/9 29/1/9
f 32/1/9 30/1/9 31/1/9
f 33/1/9 30/1/9 32/1/9
f 30/1/9 33/1/9 34/1/9
f 37/1/10 36/1/10 35/1/10
f 36/1/10 37/1/10 38/1/10
f 41/2/8 40/2/8 39/2/8
f 44/2/1 43/2/1 42/2/1
f 43/2/1 44/2/1 45/2/1
f 45/2/1 44/2/1 46/2/1
f 49/2/10 48/2/10 47/2/10
f 48/2/10 49/2/10 50/2/10
f 53/2/9 52/2/9 51/2/9
f 52/2/9 53/2/9 54/2/9
f 54/2/9 53/2/9 55/2/9
s 1
f 54/2/11 55/2/11 56/2/11
f 59/2/2 58/2/12 57/2/2
f 58/2/12 59/2/2 60/2/12
f 63/2/13 62/2/14 61/2/14
f 62/2/14 63/2/13 64/2/13
