# Blender 5.1.0
# www.blender.org
mtllib road_edge.mtl
o road-edge-col
v -0.209112 -0.009141 -0.500000
v -0.209112 -0.009141 0.500000
v -0.299112 -0.009141 -0.500000
v -0.299112 -0.009141 0.500000
v -0.299112 0.003359 -0.500000
v -0.299112 0.003359 0.500000
v -0.584112 0.003359 -0.500000
v -0.584112 0.003359 0.500000
v -0.299112 0.003359 -0.500000
v -0.299112 -0.009141 -0.500000
v -0.299112 0.003359 0.500000
v -0.299112 -0.009141 0.500000
v -0.209112 -0.021641 0.500000
v -0.209112 -0.021641 -0.500000
v -0.584112 -0.021641 0.500000
v -0.584112 -0.021641 -0.500000
v -0.209112 -0.021641 0.500000
v -0.584112 -0.021641 0.500000
v -0.209112 -0.009141 0.500000
v -0.299112 -0.009141 0.500000
v -0.584112 0.003359 0.500000
v -0.299112 0.003359 0.500000
v -0.299112 0.003359 -0.500000
v -0.584112 0.003359 -0.500000
v -0.299112 -0.009141 -0.500000
v -0.584112 -0.021641 -0.500000
v -0.209112 -0.009141 -0.500000
v -0.209112 -0.021641 -0.500000
v -0.584112 -0.021641 -0.500000
v -0.584112 0.003359 -0.500000
v -0.584112 -0.021641 0.500000
v -0.584112 0.003359 0.500000
v -0.209112 -0.021641 0.500000
v -0.209112 -0.021641 -0.500000
v 0.415888 -0.021641 0.500000
v 0.415888 -0.021641 -0.500000
v -0.209112 -0.021641 -0.500000
v 0.415888 -0.021641 -0.500000
v -0.209112 -0.009141 -0.500000
v 0.415888 0.028359 -0.500000
v -0.209112 0.003359 -0.500000
v -0.119112 0.028359 -0.500000
v -0.119112 0.028359 -0.500000
v -0.119112 0.028359 0.500000
v -0.209112 0.003359 -0.500000
v -0.209112 0.003359 0.500000
v 0.415888 0.028359 -0.500000
v 0.415888 0.028359 0.500000
v -0.119112 0.028359 -0.500000
v -0.119112 0.028359 0.500000
v -0.209112 -0.021641 0.500000
v -0.209112 -0.009141 0.500000
v 0.415888 -0.021641 0.500000
v 0.415888 0.028359 0.500000
v -0.209112 0.003359 0.500000
v -0.119112 0.028359 0.500000
v 0.415888 0.028359 -0.500000
v 0.415888 -0.021641 -0.500000
v 0.415888 0.028359 0.500000
v 0.415888 -0.021641 0.500000
v -0.209112 -0.009141 -0.500000
v -0.209112 0.003359 -0.500000
v -0.209112 -0.009141 0.500000
v -0.209112 0.003359 0.500000
vn -0.0000 1.0000 -0.0000
vn 1.0000 -0.0000 -0.0000
vn -0.0000 -1.0000 -0.0000
vn -0.0000 -0.0000 1.0000
vn -0.0000 -0.0000 -1.0000
vn -1.0000 -0.0000 -0.0000
vn -0.2676 0.9635 -0.0000
vn -0.1351 0.9908 -0.0000
vn -0.1350 0.9908 -0.0000
vt 0.156250 0.375000
vt 0.906250 0.125000
s 0
usemtl colormap.045
f 3/1/1 2/1/1 1/1/1
f 2/1/1 3/1/1 4/1/1
f 7/1/1 6/1/1 5/1/1
f 6/1/1 7/1/1 8/1/1
f 11/1/2 10/1/2 9/1/2
f 10/1/2 11/1/2 12/1/2
f 15/1/3 14/2/3 13/2/3
f 14/2/3 15/1/3 16/1/3
f 19/1/4 18/1/4 17/1/4
f 18/1/4 19/1/4 20/1/4
f 18/1/4 20/1/4 21/1/4
f 21/1/4 20/1/4 22/1/4
f 25/1/5 24/1/5 23/1/5
f 24/1/5 25/1/5 26/1/5
f 27/1/5 26/1/5 25/1/5
f 26/1/5 27/1/5 28/1/5
f 31/1/6 30/1/6 29/1/6
f 30/1/6 31/1/6 32/1/6
f 33/2/3 36/2/3 35/2/3
f 36/2/3 33/2/3 34/2/3
f 39/2/5 38/2/5 37/2/5
f 38/2/5 39/2/5 40/2/5
f 40/2/5 39/2/5 41/2/5
f 40/2/5 41/2/5 42/2/5
s 1
f 45/2/7 44/2/8 43/2/8
f 44/2/8 45/2/7 46/2/7
f 49/2/9 48/2/1 47/2/1
f 48/2/1 49/2/9 50/2/9
s 0
f 53/2/4 52/2/4 51/2/4
f 52/2/4 53/2/4 54/2/4
f 52/2/4 54/2/4 55/2/4
f 55/2/4 54/2/4 56/2/4
f 59/2/2 58/2/2 57/2/2
f 58/2/2 59/2/2 60/2/2
f 63/2/6 62/2/6 61/2/6
f 62/2/6 63/2/6 64/2/6
