# Blender 5.1.0
# www.blender.org
mtllib road_slope.mtl
o road-slope-col
v 0.500000 -0.075833 0.366667
v -0.500000 -0.075833 0.366667
v 0.500000 0.149167 0.366667
v -0.500000 0.149167 0.366667
v -0.500000 -0.075833 -0.633333
v 0.500000 -0.075833 -0.633333
v -0.500000 -0.050833 -0.633333
v 0.500000 -0.050833 -0.633333
v -0.500000 -0.075833 -0.633333
v -0.500000 -0.050833 -0.633333
v -0.500000 -0.075833 0.366667
v -0.500000 0.149167 0.366667
v 0.500000 -0.050833 -0.633333
v 0.500000 0.149167 0.366667
v -0.500000 -0.050833 -0.633333
v -0.500000 0.149167 0.366667
v 0.500000 -0.075833 0.366667
v 0.500000 -0.075833 -0.633333
v -0.500000 -0.075833 0.366667
v -0.500000 -0.075833 -0.633333
v 0.500000 -0.050833 -0.633333
v 0.500000 -0.075833 -0.633333
v 0.500000 0.149167 0.366667
v 0.500000 -0.075833 0.366667
vn -0.0000 -0.0000 1.0000
vn -0.0000 -0.0000 -1.0000
vn -1.0000 -0.0000 -0.0000
vn -0.0000 0.9806 -0.1961
vn -0.0000 -1.0000 -0.0000
vn 1.0000 -0.0000 -0.0000
vt 0.156250 0.375000
s 0
usemtl colormap.046
f 3/1/1 2/1/1 1/1/1
f 2/1/1 3/1/1 4/1/1
f 7/1/2 6/1/2 5/1/2
f 6/1/2 7/1/2 8/1/2
f 11/1/3 10/1/3 9/1/3
f 10/1/3 11/1/3 12/1/3
f 15/1/4 14/1/4 13/1/4
f 14/1/4 15/1/4 16/1/4
f 19/1/5 18/1/5 17/1/5
f 18/1/5 19/1/5 20/1/5
f 23/1/6 22/1/6 21/1/6
f 22/1/6 23/1/6 24/1/6
