# Blender 5.1.0
# www.blender.org
mtllib roof_high_window.mtl
o roof-high-window-col
v -0.549459 0.137334 -0.250000
v -0.549459 -0.302666 -0.250000
v -0.109459 0.137334 -0.250000
v -0.109459 0.137334 0.250000
v -0.549459 -0.302666 0.250000
v -0.549459 0.137334 0.250000
v 0.421252 0.738045 -0.500000
v 0.421252 0.597334 -0.500000
v 0.421252 0.738045 0.500000
v 0.421252 -0.402666 -0.500000
v 0.421252 -0.402666 0.500000
v 0.421252 0.597334 0.500000
v -0.478748 -0.402666 0.500000
v -0.478748 -0.402666 0.475000
v -0.578748 -0.402666 0.500000
v -0.478748 -0.402666 -0.475000
v -0.478748 -0.402666 -0.500000
v -0.578748 -0.402666 -0.500000
v 0.321252 -0.402666 -0.475000
v 0.321252 -0.402666 0.475000
v 0.321252 -0.402666 -0.500000
v 0.321252 -0.402666 0.500000
v 0.421252 -0.402666 -0.500000
v 0.421252 -0.402666 0.500000
v -0.478748 -0.402666 -0.475000
v 0.321252 -0.402666 -0.475000
v -0.478748 -0.302666 -0.475000
v 0.321252 0.497334 -0.475000
v 0.321252 -0.402666 0.475000
v -0.478748 -0.402666 0.475000
v 0.321252 0.497334 0.475000
v -0.478748 -0.302666 0.475000
v -0.449459 0.084531 -0.100144
v -0.599459 0.084531 -0.100144
v -0.449459 0.208994 -0.000000
v -0.549459 0.193459 -0.012500
v -0.549459 0.208994 -0.000000
v -0.574459 0.193459 -0.012500
v -0.599459 0.208994 -0.000000
v -0.574459 0.208994 -0.000000
v -0.449459 -0.152809 -0.100144
v -0.449459 0.084531 -0.100144
v -0.449459 -0.152809 0.100144
v -0.449459 0.208994 -0.000000
v -0.449459 0.084531 0.100144
v -0.449459 -0.152809 -0.100144
v -0.599459 -0.152809 -0.100144
v -0.449459 0.084531 -0.100144
v -0.555709 -0.072809 -0.100144
v -0.568209 -0.072809 -0.100144
v -0.555709 -0.047809 -0.100144
v -0.599459 0.084531 -0.100144
v -0.568209 -0.047809 -0.100144
v -0.568209 0.042191 -0.100144
v -0.555709 0.042191 -0.100144
v -0.568209 0.067191 -0.100144
v -0.555709 0.067191 -0.100144
v -0.449459 -0.152809 -0.100144
v -0.449459 -0.152809 0.100144
v -0.599459 -0.152809 -0.100144
v -0.549459 -0.152809 -0.012500
v -0.574459 -0.152809 -0.012500
v -0.549459 -0.152809 0.012500
v -0.574459 -0.152809 0.012500
v -0.599459 -0.152809 0.100144
v -0.599459 0.084531 0.100144
v -0.449459 0.084531 0.100144
v -0.599459 0.208994 -0.000000
v -0.574459 0.193459 0.012500
v -0.574459 0.208994 -0.000000
v -0.549459 0.193459 0.012500
v -0.449459 0.208994 -0.000000
v -0.549459 0.208994 -0.000000
v -0.449459 -0.152809 0.100144
v -0.568209 -0.072809 0.100144
v -0.599459 -0.152809 0.100144
v -0.599459 0.084531 0.100144
v -0.555709 -0.072809 0.100144
v -0.568209 -0.047809 0.100144
v -0.449459 0.084531 0.100144
v -0.555709 -0.047809 0.100144
v -0.555709 0.042191 0.100144
v -0.568209 0.042191 0.100144
v -0.555709 0.067191 0.100144
v -0.568209 0.067191 0.100144
v -0.549459 0.137334 -0.250000
v -0.549459 -0.252753 -0.200087
v -0.549459 -0.302666 -0.250000
v -0.549459 -0.302666 0.250000
v -0.549459 0.119747 -0.200087
v -0.549459 -0.252753 0.200087
v -0.549459 0.448045 -0.000000
v -0.549459 0.119747 0.200087
v -0.549459 0.368423 -0.000000
v -0.549459 0.137334 0.250000
v -0.478748 -0.402666 0.500000
v -0.578748 -0.402666 0.500000
v -0.478748 -0.302666 0.500000
v -0.578748 -0.402666 -0.500000
v -0.478748 -0.402666 -0.500000
v -0.478748 -0.302666 -0.500000
v 0.321252 -0.402666 -0.500000
v 0.421252 -0.402666 -0.500000
v 0.321252 0.497334 -0.500000
v 0.421252 0.597334 -0.500000
v -0.478748 -0.302666 -0.500000
v -0.478748 -0.402666 -0.500000
v -0.478748 -0.302666 -0.475000
v -0.478748 -0.402666 -0.475000
v 0.421252 -0.402666 0.500000
v 0.321252 -0.402666 0.500000
v 0.421252 0.597334 0.500000
v 0.321252 0.497334 0.500000
v 0.321252 -0.402666 0.475000
v 0.321252 0.497334 0.475000
v 0.321252 -0.402666 0.500000
v 0.321252 0.497334 0.500000
v -0.478748 -0.302666 0.475000
v -0.478748 -0.402666 0.475000
v -0.478748 -0.302666 0.500000
v -0.478748 -0.402666 0.500000
v -0.549459 -0.202384 0.149718
v -0.599459 -0.202384 0.149718
v -0.549459 0.101999 0.149718
v -0.599459 0.101999 0.149718
v -0.549459 0.101999 0.149718
v -0.599459 0.101999 0.149718
v -0.549459 0.288075 -0.000000
v -0.599459 0.288075 -0.000000
v -0.599459 0.101999 -0.149718
v -0.549459 0.101999 -0.149718
v -0.599459 0.288075 -0.000000
v -0.549459 0.288075 -0.000000
v -0.599459 -0.202384 -0.149718
v -0.549459 -0.202384 -0.149718
v -0.599459 0.101999 -0.149718
v -0.549459 0.101999 -0.149718
v 0.321252 -0.402666 -0.500000
v 0.321252 0.497334 -0.500000
v 0.321252 -0.402666 -0.475000
v 0.321252 0.497334 -0.475000
v -0.555709 0.067191 0.012500
v -0.555709 0.042191 0.012500
v -0.555709 0.067191 0.100144
v -0.555709 0.042191 0.100144
v -0.549459 0.193459 -0.012500
v -0.549459 -0.152809 -0.012500
v -0.549459 0.208994 -0.000000
v -0.549459 -0.152809 0.012500
v -0.549459 0.193459 0.012500
v -0.555709 0.042191 -0.012500
v -0.555709 0.042191 -0.100144
v -0.568209 0.042191 -0.012500
v -0.568209 0.042191 -0.100144
v -0.555709 0.067191 -0.100144
v -0.555709 0.067191 -0.012500
v -0.568209 0.067191 -0.100144
v -0.568209 0.067191 -0.012500
v -0.549459 -0.202384 -0.149718
v -0.599459 -0.202384 -0.149718
v -0.549459 -0.202384 0.149718
v -0.599459 -0.202384 0.149718
v -0.568209 -0.072809 -0.100144
v -0.568209 -0.047809 -0.100144
v -0.568209 -0.072809 -0.012500
v -0.568209 -0.047809 -0.012500
v -0.568209 0.042191 -0.100144
v -0.568209 0.067191 -0.100144
v -0.568209 0.042191 -0.012500
v -0.568209 0.067191 -0.012500
v -0.555709 -0.072809 0.100144
v -0.555709 -0.072809 0.012500
v -0.568209 -0.072809 0.100144
v -0.568209 -0.072809 0.012500
v -0.555709 -0.047809 -0.100144
v -0.555709 -0.047809 -0.012500
v -0.568209 -0.047809 -0.100144
v -0.568209 -0.047809 -0.012500
v -0.555709 -0.072809 -0.012500
v -0.555709 -0.072809 -0.100144
v -0.568209 -0.072809 -0.012500
v -0.568209 -0.072809 -0.100144
v -0.555709 0.067191 0.012500
v -0.555709 0.067191 0.100144
v -0.568209 0.067191 0.012500
v -0.568209 0.067191 0.100144
v -0.568209 0.042191 0.012500
v -0.568209 0.067191 0.012500
v -0.568209 0.042191 0.100144
v -0.568209 0.067191 0.100144
v -0.555709 0.042191 0.100144
v -0.555709 0.042191 0.012500
v -0.568209 0.042191 0.100144
v -0.568209 0.042191 0.012500
v -0.555709 0.042191 -0.100144
v -0.555709 0.042191 -0.012500
v -0.555709 0.067191 -0.100144
v -0.555709 0.067191 -0.012500
v -0.574459 -0.152809 -0.012500
v -0.574459 0.193459 -0.012500
v -0.574459 -0.152809 0.012500
v -0.574459 0.208994 -0.000000
v -0.574459 0.193459 0.012500
v -0.555709 -0.047809 0.012500
v -0.555709 -0.047809 0.100144
v -0.568209 -0.047809 0.012500
v -0.568209 -0.047809 0.100144
v -0.555709 -0.072809 -0.100144
v -0.555709 -0.072809 -0.012500
v -0.555709 -0.047809 -0.100144
v -0.555709 -0.047809 -0.012500
v -0.568209 -0.072809 0.012500
v -0.568209 -0.047809 0.012500
v -0.568209 -0.072809 0.100144
v -0.568209 -0.047809 0.100144
v -0.555709 -0.047809 0.012500
v -0.555709 -0.072809 0.012500
v -0.555709 -0.047809 0.100144
v -0.555709 -0.072809 0.100144
v -0.568209 0.067191 -0.012500
v -0.574459 0.193459 -0.012500
v -0.568209 0.042191 -0.012500
v -0.555709 0.067191 -0.012500
v -0.549459 0.193459 -0.012500
v -0.555709 0.042191 -0.012500
v -0.555709 -0.047809 -0.012500
v -0.568209 -0.047809 -0.012500
v -0.555709 -0.072809 -0.012500
v -0.549459 -0.152809 -0.012500
v -0.568209 -0.072809 -0.012500
v -0.574459 -0.152809 -0.012500
v -0.555709 0.067191 0.012500
v -0.549459 0.193459 0.012500
v -0.555709 0.042191 0.012500
v -0.568209 0.067191 0.012500
v -0.574459 0.193459 0.012500
v -0.568209 0.042191 0.012500
v -0.568209 -0.047809 0.012500
v -0.555709 -0.047809 0.012500
v -0.555709 -0.072809 0.012500
v -0.549459 -0.152809 0.012500
v -0.568209 -0.072809 0.012500
v -0.574459 -0.152809 0.012500
v -0.599459 0.101999 0.149718
v -0.599459 0.084531 0.100144
v -0.599459 0.288075 -0.000000
v -0.599459 -0.202384 0.149718
v -0.599459 0.208994 -0.000000
v -0.599459 -0.152809 0.100144
v -0.599459 0.084531 -0.100144
v -0.599459 0.101999 -0.149718
v -0.599459 -0.152809 -0.100144
v -0.599459 -0.202384 -0.149718
v -0.549459 0.119747 0.200087
v -0.549459 0.101999 0.149718
v -0.549459 0.368423 -0.000000
v -0.549459 -0.252753 0.200087
v -0.549459 0.288075 -0.000000
v -0.549459 -0.202384 0.149718
v -0.549459 0.101999 -0.149718
v -0.549459 0.119747 -0.200087
v -0.549459 -0.202384 -0.149718
v -0.549459 -0.252753 -0.200087
v -0.549459 0.448045 -0.000000
v -0.549459 0.137334 -0.250000
v -0.599459 0.448045 -0.000000
v -0.599459 0.098379 -0.281344
v -0.549459 0.098379 -0.281344
v -0.148415 0.098379 -0.281344
v -0.109459 0.137334 -0.250000
v -0.117070 0.129723 0.320300
v -0.148415 0.098379 0.281344
v -0.599459 0.129723 0.320300
v -0.549459 0.098379 0.281344
v -0.599459 0.098379 0.281344
v -0.599459 0.098379 0.281344
v -0.549459 0.098379 0.281344
v -0.599459 0.448045 -0.000000
v -0.549459 0.137334 0.250000
v -0.549459 0.448045 -0.000000
v -0.148415 0.098379 0.281344
v -0.109459 0.137334 0.250000
v 0.321252 0.638045 -0.500000
v 0.421252 0.738045 -0.500000
v 0.321252 0.638045 0.500000
v 0.421252 0.738045 0.500000
v -0.117070 0.129723 -0.320300
v -0.599459 0.129723 -0.320300
v -0.148415 0.098379 -0.281344
v -0.549459 0.098379 -0.281344
v -0.599459 0.098379 -0.281344
v -0.117070 0.129723 0.320300
v -0.599459 0.129723 0.320300
v 0.281012 0.527805 -0.000000
v -0.599459 0.527805 -0.000000
v -0.578748 -0.402666 -0.500000
v -0.614103 -0.438021 -0.500000
v -0.578748 -0.402666 0.500000
v -0.614103 -0.438021 0.500000
v 0.321252 0.497334 -0.500000
v -0.478748 -0.302666 -0.500000
v 0.321252 0.497334 -0.475000
v -0.478748 -0.302666 -0.475000
v -0.614103 -0.438021 0.500000
v -0.614103 -0.438021 -0.500000
v -0.649459 -0.402666 0.500000
v -0.649459 -0.402666 -0.500000
v -0.109459 0.137334 -0.250000
v -0.549459 -0.302666 -0.250000
v -0.148415 0.098379 -0.281344
v -0.549459 -0.302666 -0.500000
v -0.117070 0.129723 -0.320300
v 0.321252 0.568045 -0.500000
v 0.281012 0.527805 -0.000000
v 0.321252 0.568045 0.500000
v -0.117070 0.129723 0.320300
v -0.549459 -0.302666 0.500000
v -0.148415 0.098379 0.281344
v -0.549459 -0.302666 0.250000
v -0.109459 0.137334 0.250000
v 0.321252 0.568045 -0.500000
v 0.321252 0.638045 -0.500000
v 0.321252 0.568045 0.500000
v 0.321252 0.638045 0.500000
v 0.321252 0.497334 0.475000
v -0.478748 -0.302666 0.475000
v 0.321252 0.497334 0.500000
v -0.478748 -0.302666 0.500000
v -0.599459 0.129723 -0.320300
v -0.117070 0.129723 -0.320300
v -0.599459 0.527805 -0.000000
v 0.281012 0.527805 -0.000000
v -0.599459 0.129723 -0.320300
v -0.599459 0.527805 -0.000000
v -0.599459 0.098379 -0.281344
v -0.599459 0.448045 -0.000000
v -0.599459 0.098379 0.281344
v -0.599459 0.129723 0.320300
v -0.614103 -0.438021 -0.500000
v -0.578748 -0.402666 -0.500000
v -0.649459 -0.402666 -0.500000
v -0.549459 -0.302666 -0.500000
v -0.478748 -0.302666 -0.500000
v 0.321252 0.568045 -0.500000
v 0.321252 0.497334 -0.500000
v 0.421252 0.597334 -0.500000
v 0.321252 0.638045 -0.500000
v 0.421252 0.738045 -0.500000
v -0.614103 -0.438021 0.500000
v -0.649459 -0.402666 0.500000
v -0.578748 -0.402666 0.500000
v -0.549459 -0.302666 0.500000
v -0.478748 -0.302666 0.500000
v 0.321252 0.568045 0.500000
v 0.321252 0.497334 0.500000
v 0.421252 0.597334 0.500000
v 0.321252 0.638045 0.500000
v 0.421252 0.738045 0.500000
v -0.549459 -0.302666 -0.500000
v -0.549459 -0.302666 -0.250000
v -0.649459 -0.402666 -0.500000
v -0.549459 -0.302666 0.250000
v -0.549459 -0.302666 0.500000
v -0.649459 -0.402666 0.500000
vn -0.0000 -0.0000 -1.0000
vn -0.0000 -0.0000 1.0000
vn 1.0000 -0.0000 -0.0000
vn -0.0000 0.3827 0.9239
vn -0.0000 -0.3827 0.9239
vn 0.2706 0.2706 0.9239
vn -0.0000 -1.0000 -0.0000
vn -0.0000 -0.6269 0.7791
vn -1.0000 -0.0000 -0.0000
vn -0.0000 1.0000 -0.0000
vn -0.0000 -0.6269 -0.7791
vn -0.0000 0.3323 0.9432
vn -0.0000 0.6269 0.7791
vn -0.0000 0.3324 0.9432
vn -0.0000 0.6269 -0.7791
vn -0.0000 0.3324 -0.9432
vn -0.0000 0.3323 -0.9432
vn -0.0000 -0.7791 0.6269
vn -0.9239 0.3827 -0.0000
vn -0.7071 0.7071 -0.0000
vn -0.0000 -0.7791 -0.6269
vn 0.7071 -0.7071 -0.0000
vn -0.7071 -0.7071 -0.0000
vt 0.718750 0.119678
vt 0.718750 0.042533
vt 0.718750 0.225000
vt 0.718750 0.200329
vt 0.718750 0.025000
vt 0.718750 0.182796
vt 0.718750 0.132242
vt 0.718750 0.110420
vt 0.718750 0.129518
vt 0.718750 0.068807
vt 0.718750 0.082834
vt 0.718750 0.087217
vt 0.718750 0.102996
vt 0.718750 0.107380
vt 0.718750 0.051284
vt 0.718750 0.116594
vt 0.718750 0.174155
vt 0.718750 0.160195
vt 0.593750 0.042533
vt 0.593750 0.025000
vt 0.593750 0.182796
vt 0.593750 0.200329
vt 0.593750 0.113483
vt 0.593750 0.060115
vt 0.593750 0.146107
vt 0.593750 0.107380
vt 0.593750 0.102996
vt 0.593750 0.132242
vt 0.593750 0.068807
vt 0.593750 0.129518
vt 0.593750 0.082834
vt 0.593750 0.087217
vt 0.593750 0.110420
vt 0.593750 0.225000
vt 0.593750 0.139219
vt 0.593750 0.144934
vt 0.593750 0.199130
vt 0.593750 0.041217
vt 0.093750 0.174155
vt 0.093750 0.119678
vt 0.093750 0.112848
vt 0.093750 0.118343
vt 0.093750 0.207467
vt 0.093750 0.225000
vt 0.093750 0.188139
vt 0.093750 0.025000
vt 0.093750 0.182796
vt 0.093750 0.042533
vt 0.093750 0.195194
vt 0.093750 0.031012
vt 0.093750 0.048018
vt 0.093750 0.196090
vt 0.093750 0.184065
vt 0.093750 0.201071
vt 0.093750 0.207994
vt 0.093750 0.075000
vt 0.093750 0.175000
s 0
usemtl colormap.070
f 3/1/1 2/2/1 1/1/1
f 6/1/2 5/2/2 4/1/2
f 9/3/3 8/4/3 7/3/3
f 8/4/3 9/3/3 10/5/3
f 10/5/3 9/3/3 11/5/3
s 1
f 11/5/4 9/3/5 12/4/6
s 0
f 15/5/7 14/5/7 13/5/7
f 14/5/7 15/5/7 16/5/7
f 16/5/7 15/5/7 17/5/7
f 17/5/7 15/5/7 18/5/7
f 19/5/7 14/5/7 16/5/7
f 14/5/7 19/5/7 20/5/7
s 1
f 21/5/1 20/5/3 19/5/7
f 21/5/1 22/5/3 20/5/3
s 0
f 23/5/7 22/5/7 21/5/7
f 22/5/7 23/5/7 24/5/7
f 27/2/1 26/5/1 25/5/1
f 26/5/1 27/2/1 28/6/1
f 31/6/2 30/5/2 29/5/2
f 30/5/2 31/6/2 32/2/2
f 35/7/8 34/8/8 33/8/8
f 34/8/8 35/7/8 36/9/8
f 36/9/8 35/7/8 37/7/8
f 38/9/8 34/8/8 36/9/8
f 34/8/8 38/9/8 39/7/8
f 39/7/8 38/9/8 40/7/8
f 43/10/9 42/8/9 41/10/9
f 42/8/9 43/10/9 44/7/9
f 44/7/9 43/10/9 45/8/9
f 48/8/2 47/10/2 46/10/2
f 47/10/2 48/8/2 49/11/2
f 50/11/2 47/10/2 49/11/2
f 49/11/2 48/8/2 51/12/2
f 47/10/2 50/11/2 52/8/2
f 51/12/2 48/8/2 53/12/2
f 52/8/2 50/11/2 53/12/2
f 52/8/2 53/12/2 54/13/2
f 54/13/2 53/12/2 55/13/2
f 53/12/2 48/8/2 55/13/2
f 52/8/2 54/13/2 56/14/2
f 52/8/2 56/14/2 48/8/2
f 55/13/2 48/8/2 57/14/2
f 57/14/2 48/8/2 56/14/2
f 60/10/10 59/10/10 58/10/10
f 59/10/10 60/10/10 61/10/10
f 61/10/10 60/10/10 62/10/10
f 63/10/10 59/10/10 61/10/10
f 62/10/10 60/10/10 64/10/10
f 59/10/10 63/10/10 65/10/10
f 65/10/10 63/10/10 64/10/10
f 65/10/10 64/10/10 60/10/10
f 68/7/11 67/8/11 66/8/11
f 67/8/11 68/7/11 69/9/11
f 69/9/11 68/7/11 70/7/11
f 71/9/11 67/8/11 69/9/11
f 67/8/11 71/9/11 72/7/11
f 72/7/11 71/9/11 73/7/11
f 76/10/1 75/11/1 74/10/1
f 75/11/1 76/10/1 77/8/1
f 78/11/1 74/10/1 75/11/1
f 75/11/1 77/8/1 79/12/1
f 74/10/1 78/11/1 80/8/1
f 79/12/1 77/8/1 81/12/1
f 80/8/1 78/11/1 81/12/1
f 80/8/1 81/12/1 82/13/1
f 82/13/1 81/12/1 83/13/1
f 81/12/1 77/8/1 83/13/1
f 80/8/1 82/13/1 84/14/1
f 80/8/1 84/14/1 77/8/1
f 83/13/1 77/8/1 85/14/1
f 85/14/1 77/8/1 84/14/1
f 88/2/9 87/15/9 86/1/9
f 87/15/9 88/2/9 89/2/9
f 90/16/9 86/1/9 87/15/9
f 87/15/9 89/2/9 91/15/9
f 86/1/9 90/16/9 92/17/9
f 91/15/9 89/2/9 93/16/9
f 92/17/9 90/16/9 94/18/9
f 95/1/9 93/16/9 89/2/9
f 92/17/9 94/18/9 95/1/9
f 95/1/9 94/18/9 93/16/9
f 98/19/2 97/20/2 96/20/2
f 101/19/1 100/20/1 99/20/1
f 104/21/1 103/20/1 102/20/1
f 103/20/1 104/21/1 105/22/1
f 108/19/3 107/20/3 106/19/3
f 107/20/3 108/19/3 109/20/3
f 112/22/2 111/20/2 110/20/2
f 111/20/2 112/22/2 113/21/2
f 116/20/9 115/21/9 114/20/9
f 115/21/9 116/20/9 117/21/9
f 120/19/3 119/20/3 118/19/3
f 119/20/3 120/19/3 121/20/3
s 1
f 124/23/12 123/24/2 122/24/2
f 123/24/2 124/23/12 125/23/12
f 128/25/13 127/23/14 126/23/14
f 127/23/14 128/25/13 129/25/13
f 132/25/15 131/23/16 130/23/16
f 131/23/16 132/25/15 133/25/15
f 136/23/17 135/24/1 134/24/1
f 135/24/1 136/23/17 137/23/17
s 0
f 140/20/9 139/21/9 138/20/9
f 139/21/9 140/20/9 141/21/9
f 144/26/3 143/27/3 142/26/3
f 143/27/3 144/26/3 145/27/3
f 148/28/3 147/29/3 146/30/3
f 147/29/3 148/28/3 149/29/3
f 149/29/3 148/28/3 150/30/3
f 153/27/7 152/27/7 151/27/7
f 152/27/7 153/27/7 154/27/7
f 157/26/10 156/26/10 155/26/10
f 156/26/10 157/26/10 158/26/10
f 161/24/7 160/24/7 159/24/7
f 160/24/7 161/24/7 162/24/7
f 165/31/9 164/32/9 163/31/9
f 164/32/9 165/31/9 166/32/9
f 169/27/9 168/26/9 167/27/9
f 168/26/9 169/27/9 170/26/9
f 173/31/7 172/31/7 171/31/7
f 172/31/7 173/31/7 174/31/7
f 177/32/10 176/32/10 175/32/10
f 176/32/10 177/32/10 178/32/10
f 181/31/7 180/31/7 179/31/7
f 180/31/7 181/31/7 182/31/7
f 185/26/10 184/26/10 183/26/10
f 184/26/10 185/26/10 186/26/10
f 189/27/9 188/26/9 187/27/9
f 188/26/9 189/27/9 190/26/9
f 193/27/7 192/27/7 191/27/7
f 192/27/7 193/27/7 194/27/7
f 197/26/3 196/27/3 195/27/3
f 196/27/3 197/26/3 198/26/3
f 201/29/9 200/30/9 199/29/9
f 200/30/9 201/29/9 202/28/9
f 202/28/9 201/29/9 203/30/9
f 206/32/10 205/32/10 204/32/10
f 205/32/10 206/32/10 207/32/10
f 210/32/3 209/31/3 208/31/3
f 209/31/3 210/32/3 211/32/3
f 214/31/9 213/32/9 212/31/9
f 213/32/9 214/31/9 215/32/9
f 218/32/3 217/31/3 216/32/3
f 217/31/3 218/32/3 219/31/3
f 222/27/1 221/30/1 220/26/1
f 220/26/1 221/30/1 223/26/1
f 223/26/1 221/30/1 224/30/1
f 224/30/1 225/27/1 223/26/1
f 225/27/1 226/32/1 222/27/1
f 224/30/1 226/32/1 225/27/1
f 227/32/1 222/27/1 226/32/1
f 227/32/1 221/30/1 222/27/1
f 224/30/1 228/31/1 226/32/1
f 229/29/1 228/31/1 224/30/1
f 230/31/1 221/30/1 227/32/1
f 228/31/1 229/29/1 230/31/1
f 230/31/1 231/29/1 221/30/1
f 231/29/1 230/31/1 229/29/1
f 234/27/2 233/30/2 232/26/2
f 232/26/2 233/30/2 235/26/2
f 236/30/2 235/26/2 233/30/2
f 236/30/2 237/27/2 235/26/2
f 238/32/2 234/27/2 237/27/2
f 236/30/2 238/32/2 237/27/2
f 239/32/2 234/27/2 238/32/2
f 239/32/2 233/30/2 234/27/2
f 240/31/2 233/30/2 239/32/2
f 240/31/2 241/29/2 233/30/2
f 236/30/2 242/31/2 238/32/2
f 241/29/2 240/31/2 242/31/2
f 243/29/2 242/31/2 236/30/2
f 242/31/2 243/29/2 241/29/2
f 246/25/9 245/33/9 244/23/9
f 244/23/9 245/33/9 247/24/9
f 246/25/9 248/28/9 245/33/9
f 249/29/9 247/24/9 245/33/9
f 246/25/9 250/33/9 248/28/9
f 251/23/9 250/33/9 246/25/9
f 252/29/9 247/24/9 249/29/9
f 250/33/9 251/23/9 252/29/9
f 252/29/9 253/24/9 247/24/9
f 253/24/9 252/29/9 251/23/9
f 256/34/9 255/35/9 254/36/9
f 254/36/9 255/35/9 257/20/9
f 256/34/9 258/37/9 255/35/9
f 259/38/9 257/20/9 255/35/9
f 256/34/9 260/35/9 258/37/9
f 261/36/9 260/35/9 256/34/9
f 262/38/9 257/20/9 259/38/9
f 260/35/9 261/36/9 262/38/9
f 262/38/9 263/20/9 257/20/9
f 263/20/9 262/38/9 261/36/9
f 266/39/8 265/40/8 264/39/8
f 267/41/8 265/40/8 266/39/8
f 265/40/8 267/41/8 268/41/8
f 269/41/8 265/40/8 268/41/8
f 265/40/8 269/41/8 270/40/8
f 273/42/18 272/41/18 271/42/18
f 272/41/18 273/42/18 274/41/18
f 274/41/18 273/42/18 275/41/18
f 278/39/11 277/41/11 276/41/11
f 277/41/11 278/39/11 279/40/11
f 279/40/11 278/39/11 280/39/11
f 279/40/11 281/41/11 277/41/11
f 281/41/11 279/40/11 282/40/11
s 1
f 285/43/19 284/44/20 283/43/19
f 284/44/20 285/43/19 286/44/20
s 0
f 289/41/21 288/42/21 287/42/21
f 288/42/21 289/41/21 290/41/21
f 288/42/21 290/41/21 291/41/21
f 294/45/13 293/42/13 292/42/13
f 293/42/13 294/45/13 295/45/13
f 298/46/22 297/46/22 296/46/22
f 297/46/22 298/46/22 299/46/22
f 302/47/22 301/48/22 300/47/22
f 301/48/22 302/47/22 303/48/22
f 306/46/23 305/46/23 304/46/23
f 305/46/23 306/46/23 307/46/23
f 310/41/20 309/48/20 308/40/20
f 309/48/20 310/41/20 311/48/20
f 312/42/20 311/48/20 310/41/20
f 312/42/20 313/49/20 311/48/20
f 314/45/20 313/49/20 312/42/20
f 313/49/20 314/45/20 315/49/20
f 316/42/20 315/49/20 314/45/20
f 315/49/20 316/42/20 317/48/20
f 317/48/20 316/42/20 318/41/20
f 317/48/20 318/41/20 319/48/20
f 319/48/20 318/41/20 320/40/20
s 1
f 323/49/9 322/43/19 321/49/9
f 322/43/19 323/49/9 324/43/19
s 0
f 327/47/22 326/48/22 325/47/22
f 326/48/22 327/47/22 328/48/22
f 331/45/15 330/42/15 329/42/15
f 330/42/15 331/45/15 332/45/15
f 335/41/9 334/45/9 333/42/9
f 334/45/9 335/41/9 336/39/9
f 334/45/9 336/39/9 337/41/9
f 334/45/9 337/41/9 338/42/9
f 341/50/1 340/50/1 339/46/1
f 340/50/1 341/50/1 342/51/1
f 340/50/1 342/51/1 343/51/1
f 343/51/1 342/51/1 344/52/1
f 343/51/1 344/52/1 345/53/1
f 345/53/1 344/52/1 346/54/1
f 346/54/1 344/52/1 347/55/1
f 346/54/1 347/55/1 348/44/1
f 351/50/2 350/50/2 349/46/2
f 350/50/2 351/50/2 352/51/2
f 352/51/2 351/50/2 353/51/2
f 352/51/2 353/51/2 354/52/2
f 354/52/2 353/51/2 355/53/2
f 354/52/2 355/53/2 356/54/2
f 354/52/2 356/54/2 357/55/2
f 357/55/2 356/54/2 358/44/2
f 361/56/20 360/57/20 359/57/20
f 360/57/20 361/56/20 362/57/20
f 362/57/20 361/56/20 363/57/20
f 363/57/20 361/56/20 364/56/20
