# Blender 5.1.0
# www.blender.org
mtllib roof_high_gable.mtl
o roof-high-gable-col
v -0.500000 -0.372061 -0.400000
v -0.500000 -0.372061 -0.500000
v -0.500000 -0.172061 -0.400000
v 0.500000 -0.172061 0.400000
v 0.500000 -0.372061 0.400000
v 0.500000 -0.372061 0.500000
v 0.500000 -0.172061 -0.400000
v 0.500000 -0.372061 -0.500000
v 0.500000 -0.372061 -0.400000
v -0.500000 -0.372061 0.400000
v -0.500000 -0.172061 0.400000
v -0.500000 -0.372061 0.500000
v -0.475000 -0.372061 -0.400000
v -0.500000 -0.372061 -0.400000
v -0.475000 -0.172061 -0.400000
v -0.500000 -0.172061 -0.400000
v 0.475000 -0.372061 0.400000
v 0.500000 -0.372061 0.400000
v 0.475000 -0.172061 0.400000
v 0.500000 -0.172061 0.400000
v 0.500000 -0.372061 -0.400000
v 0.475000 -0.372061 -0.400000
v 0.500000 -0.172061 -0.400000
v 0.475000 -0.172061 -0.400000
v -0.500000 -0.372061 0.400000
v -0.475000 -0.372061 0.400000
v -0.500000 -0.172061 0.400000
v -0.475000 -0.172061 0.400000
v -0.550000 -0.394422 -0.567082
v -0.550000 -0.252651 -0.496197
v -0.550000 -0.416783 -0.522361
v -0.550000 0.627939 -0.000000
v -0.550000 0.739742 -0.000000
v -0.550000 -0.416783 0.522361
v -0.550000 -0.252651 0.496197
v -0.550000 -0.394422 0.567082
v -0.475000 0.627939 -0.000000
v -0.550000 0.627939 -0.000000
v -0.475000 -0.172061 0.400000
v -0.500000 -0.172061 0.400000
v -0.500000 -0.372061 0.500000
v -0.550000 -0.416783 0.522361
v 0.550000 -0.416783 0.522361
v 0.500000 -0.372061 0.500000
v 0.550000 0.627939 -0.000000
v 0.500000 -0.172061 0.400000
v 0.475000 0.627939 -0.000000
v 0.475000 -0.172061 0.400000
v 0.475000 0.627939 -0.000000
v 0.550000 0.627939 -0.000000
v 0.475000 -0.172061 -0.400000
v 0.500000 -0.172061 -0.400000
v 0.500000 -0.372061 -0.500000
v 0.550000 -0.416783 -0.522361
v -0.550000 -0.416783 -0.522361
v -0.500000 -0.372061 -0.500000
v -0.550000 0.627939 -0.000000
v -0.500000 -0.172061 -0.400000
v -0.475000 0.627939 -0.000000
v -0.475000 -0.172061 -0.400000
v 0.550000 -0.252651 0.496197
v -0.550000 -0.252651 0.496197
v 0.550000 0.739742 -0.000000
v -0.550000 0.739742 -0.000000
v 0.550000 -0.394422 -0.567082
v 0.550000 -0.416783 -0.522361
v 0.550000 -0.252651 -0.496197
v 0.550000 0.627939 -0.000000
v 0.550000 0.739742 -0.000000
v 0.550000 -0.416783 0.522361
v 0.550000 -0.252651 0.496197
v 0.550000 -0.394422 0.567082
v 0.550000 -0.394422 0.567082
v 0.550000 -0.416783 0.522361
v -0.550000 -0.394422 0.567082
v -0.550000 -0.416783 0.522361
v 0.550000 -0.416783 -0.522361
v 0.550000 -0.394422 -0.567082
v -0.550000 -0.416783 -0.522361
v -0.550000 -0.394422 -0.567082
v -0.550000 -0.252651 -0.496197
v 0.550000 -0.252651 -0.496197
v -0.550000 0.739742 -0.000000
v 0.550000 0.739742 -0.000000
v 0.550000 -0.394422 0.567082
v -0.550000 -0.394422 0.567082
v 0.550000 -0.252651 0.496197
v -0.550000 -0.252651 0.496197
v -0.550000 -0.394422 -0.567082
v 0.550000 -0.394422 -0.567082
v -0.550000 -0.252651 -0.496197
v 0.550000 -0.252651 -0.496197
v 0.475000 -0.172061 -0.400000
v 0.475000 -0.372061 -0.400000
v 0.475000 0.627939 -0.000000
v 0.475000 -0.372061 0.400000
v 0.475000 -0.172061 0.400000
v 0.500000 -0.372061 0.500000
v 0.500000 -0.372061 0.400000
v -0.500000 -0.372061 0.500000
v 0.475000 -0.372061 0.400000
v 0.475000 -0.372061 -0.400000
v -0.475000 -0.372061 0.400000
v -0.500000 -0.372061 0.400000
v -0.475000 -0.372061 -0.400000
v -0.500000 -0.372061 -0.500000
v -0.500000 -0.372061 -0.400000
v 0.500000 -0.372061 -0.500000
v 0.500000 -0.372061 -0.400000
v -0.475000 -0.372061 -0.400000
v -0.475000 -0.172061 -0.400000
v -0.475000 -0.372061 0.400000
v -0.475000 0.627939 -0.000000
v -0.475000 -0.172061 0.400000
vn -1.0000 -0.0000 -0.0000
vn 1.0000 -0.0000 -0.0000
vn -0.0000 -0.0000 1.0000
vn -0.0000 -0.0000 -1.0000
vn -0.0000 -0.4472 -0.8944
vn -0.0000 -0.4472 0.8944
vn -0.0000 0.4472 0.8944
vn -0.0000 -0.8944 0.4472
vn -0.0000 -0.8944 -0.4472
vn -0.0000 0.4472 -0.8944
vn -0.0000 -1.0000 -0.0000
vt 0.593750 0.060978
vt 0.593750 0.025000
vt 0.093750 0.025000
vt 0.093750 0.046480
vt 0.093750 0.204888
vt 0.093750 0.225000
vt 0.093750 0.060978
vt 0.093750 0.175000
vt 0.093750 0.075000
vt 0.718750 0.204888
vt 0.718750 0.025000
vt 0.718750 0.060978
s 0
usemtl colormap.066
f 3/1/1 2/2/1 1/2/1
f 6/2/2 5/2/2 4/1/2
f 9/2/2 8/2/2 7/1/2
f 12/2/1 11/1/1 10/2/1
f 15/1/3 14/2/3 13/2/3
f 14/2/3 15/1/3 16/1/3
f 19/1/4 18/2/4 17/2/4
f 18/2/4 19/1/4 20/1/4
f 23/1/3 22/2/3 21/2/3
f 22/2/3 23/1/3 24/1/3
f 27/1/4 26/2/4 25/2/4
f 26/2/4 27/1/4 28/1/4
f 31/3/1 30/4/1 29/3/1
f 30/4/1 31/3/1 32/5/1
f 30/4/1 32/5/1 33/6/1
f 33/6/1 32/5/1 34/3/1
f 33/6/1 34/3/1 35/4/1
f 35/4/1 34/3/1 36/3/1
s 1
f 39/7/5 38/5/5 37/5/5
s 0
f 40/7/5 38/5/5 39/7/5
f 41/3/5 38/5/5 40/7/5
f 41/3/5 42/3/5 38/5/5
f 42/3/5 41/3/5 43/3/5
f 44/3/5 43/3/5 41/3/5
f 43/3/5 44/3/5 45/5/5
f 45/5/5 44/3/5 46/7/5
f 45/5/5 46/7/5 47/5/5
s 1
f 47/5/5 46/7/5 48/7/5
f 51/7/6 50/5/6 49/5/6
s 0
f 52/7/6 50/5/6 51/7/6
f 53/3/6 50/5/6 52/7/6
f 53/3/6 54/3/6 50/5/6
f 54/3/6 53/3/6 55/3/6
f 56/3/6 55/3/6 53/3/6
f 55/3/6 56/3/6 57/5/6
f 57/5/6 56/3/6 58/7/6
f 57/5/6 58/7/6 59/5/6
s 1
f 59/5/6 58/7/6 60/7/6
s 0
f 63/6/7 62/4/7 61/4/7
f 62/4/7 63/6/7 64/6/7
f 67/4/2 66/3/2 65/3/2
f 66/3/2 67/4/2 68/5/2
f 68/5/2 67/4/2 69/6/2
f 68/5/2 69/6/2 70/3/2
f 70/3/2 69/6/2 71/4/2
f 70/3/2 71/4/2 72/3/2
f 75/3/8 74/3/8 73/3/8
f 74/3/8 75/3/8 76/3/8
f 79/3/9 78/3/9 77/3/9
f 78/3/9 79/3/9 80/3/9
f 83/6/10 82/4/10 81/4/10
f 82/4/10 83/6/10 84/6/10
f 87/8/7 86/9/7 85/9/7
f 86/9/7 87/8/7 88/8/7
f 91/8/10 90/9/10 89/9/10
f 90/9/10 91/8/10 92/8/10
f 95/10/2 94/11/2 93/12/2
f 94/11/2 95/10/2 96/11/2
f 96/11/2 95/10/2 97/12/2
f 100/11/11 99/11/11 98/11/11
f 99/11/11 100/11/11 101/11/11
f 101/11/11 100/11/11 102/11/11
f 102/11/11 100/11/11 103/11/11
f 103/11/11 100/11/11 104/11/11
f 105/11/11 102/11/11 103/11/11
f 106/11/11 102/11/11 105/11/11
f 106/11/11 105/11/11 107/11/11
f 108/11/11 102/11/11 106/11/11
f 102/11/11 108/11/11 109/11/11
f 112/11/1 111/12/1 110/11/1
f 111/12/1 112/11/1 113/10/1
f 113/10/1 112/11/1 114/12/1
