# Blender 5.1.0
# www.blender.org
mtllib roof_corner_inner.mtl
o roof-corner-inner-col
v -0.558798 -0.168250 0.558798
v -0.504995 -0.141348 0.558798
v -0.558798 -0.224151 0.558798
v 0.341202 0.281751 0.558798
v 0.441202 -0.224151 0.558798
v 0.441202 0.401751 0.558798
v 0.341202 0.351750 0.558798
v 0.441202 0.401751 -0.441202
v 0.441202 -0.224151 -0.441202
v 0.441202 0.401751 0.558798
v 0.441202 -0.224151 0.558798
v 0.441202 -0.224151 -0.441202
v -0.558798 -0.224151 -0.441202
v 0.441202 -0.224151 0.558798
v -0.558798 -0.224151 0.558798
v -0.558798 0.351750 -0.341202
v -0.558798 0.281751 -0.341202
v -0.558798 0.401751 -0.441202
v -0.558798 -0.224151 -0.441202
v -0.558798 -0.224151 0.558798
v -0.558798 -0.141348 0.504995
v -0.558798 -0.168250 0.558798
v -0.558798 -0.224151 -0.441202
v 0.441202 -0.224151 -0.441202
v -0.558798 0.401751 -0.441202
v 0.441202 0.401751 -0.441202
v 0.441202 0.401751 -0.441202
v 0.341202 0.351750 -0.341202
v -0.558798 0.401751 -0.441202
v -0.558798 0.351750 -0.341202
v 0.341202 0.281751 -0.341202
v 0.341202 0.351750 -0.341202
v 0.341202 0.281751 0.558798
v 0.341202 0.351750 0.558798
v 0.341202 0.281751 -0.341202
v 0.341202 0.281751 0.558798
v -0.504995 -0.141348 0.504995
v -0.504995 -0.141348 0.558798
v -0.558798 0.281751 -0.341202
v -0.558798 0.351750 -0.341202
v 0.341202 0.281751 -0.341202
v 0.341202 0.351750 -0.341202
v 0.441202 0.401751 -0.441202
v 0.441202 0.401751 0.558798
v 0.341202 0.351750 -0.341202
v 0.341202 0.351750 0.558798
v 0.341202 0.281751 -0.341202
v -0.504995 -0.141348 0.504995
v -0.558798 0.281751 -0.341202
v -0.558798 -0.141348 0.504995
v -0.504995 -0.141348 0.504995
v -0.558798 -0.168250 0.558798
v -0.558798 -0.141348 0.504995
v -0.504995 -0.141348 0.504995
v -0.504995 -0.141348 0.558798
v -0.558798 -0.168250 0.558798
vn -0.0000 -0.0000 1.0000
vn 1.0000 -0.0000 -0.0000
vn -0.0000 -1.0000 -0.0000
vn -1.0000 -0.0000 -0.0000
vn -0.0000 -0.0000 -1.0000
vn -0.0000 0.8944 0.4472
vn -0.0000 0.6206 0.7841
vn -0.0000 0.5257 0.8507
vn -0.7841 0.6207 -0.0000
vn -0.8506 0.5257 -0.0000
vn -0.4472 0.8944 -0.0000
vn -0.0000 0.5257 0.8506
vn -0.0000 0.6207 0.7841
vn -0.7841 0.6206 -0.0000
vn -0.8507 0.5257 -0.0000
vt 0.218750 0.275000
vt 0.218750 0.301459
vt 0.218750 0.292863
vt 0.218750 0.436655
vt 0.218750 0.475000
vt 0.218750 0.459023
vt 0.218750 0.225000
vt 0.218750 0.209023
vt 0.218750 0.186655
vt 0.218750 0.051459
vt 0.218750 0.175000
vt 0.218750 0.075000
s 0
usemtl colormap.051
f 3/1/1 2/2/1 1/3/1
f 3/1/1 4/4/1 2/2/1
f 5/1/1 4/4/1 3/1/1
f 4/4/1 5/1/1 6/5/1
f 4/4/1 6/5/1 7/6/1
f 10/5/2 9/1/2 8/5/2
f 9/1/2 10/5/2 11/1/2
f 14/1/3 13/1/3 12/1/3
f 13/1/3 14/1/3 15/1/3
f 18/5/4 17/4/4 16/6/4
f 19/1/4 17/4/4 18/5/4
f 17/4/4 19/1/4 20/1/4
f 17/4/4 20/1/4 21/2/4
f 21/2/4 20/1/4 22/3/4
f 25/5/5 24/1/5 23/1/5
f 24/1/5 25/5/5 26/5/5
s 1
f 29/7/6 28/8/7 27/7/6
f 28/8/7 29/7/6 30/8/8
f 33/9/4 32/8/9 31/9/4
f 32/8/9 33/9/4 34/8/10
s 0
f 37/10/11 36/9/11 35/9/11
f 36/9/11 37/10/11 38/10/11
s 1
f 41/9/1 40/8/12 39/9/1
f 40/8/12 41/9/1 42/8/13
f 45/8/14 44/7/11 43/7/11
f 44/7/11 45/8/14 46/8/15
s 0
f 49/9/6 48/10/6 47/9/6
f 48/10/6 49/9/6 50/10/6
f 53/11/6 52/12/6 51/11/6
f 56/12/11 55/11/11 54/11/11
