# Blender 5.1.0
# www.blender.org
mtllib roof_high_cornerinner.mtl
o roof-high-cornerinner-col
v 0.340718 0.552831 -0.340718
v 0.340718 0.622831 -0.340718
v 0.340718 0.552831 0.559282
v 0.340718 0.622831 0.559282
v -0.529993 -0.317880 0.529993
v -0.529993 -0.317880 0.559282
v -0.559282 -0.347169 0.559282
v 0.340718 0.552831 0.559282
v 0.340718 0.552831 -0.340718
v -0.559282 0.552831 -0.340718
v 0.340718 0.552831 -0.340718
v -0.559282 -0.317880 0.529993
v -0.529993 -0.317880 0.529993
v -0.559282 -0.347169 0.559282
v 0.440718 0.722831 -0.440718
v 0.440718 0.722831 0.559282
v 0.340718 0.622831 -0.340718
v 0.340718 0.622831 0.559282
v 0.340718 0.622831 -0.340718
v -0.559282 0.622831 -0.340718
v 0.440718 0.722831 -0.440718
v -0.559282 0.722831 -0.440718
v 0.340718 0.552831 -0.340718
v -0.559282 0.552831 -0.340718
v 0.340718 0.622831 -0.340718
v -0.559282 0.622831 -0.340718
v -0.559282 -0.347169 0.559282
v -0.559282 -0.417880 0.559282
v -0.559282 -0.317880 0.529993
v -0.559282 0.552831 -0.340718
v -0.559282 -0.417880 -0.440718
v -0.559282 0.722831 -0.440718
v -0.559282 0.622831 -0.340718
v 0.440718 0.722831 -0.440718
v 0.440718 -0.417880 -0.440718
v 0.440718 0.722831 0.559282
v 0.440718 -0.417880 0.559282
v -0.559282 -0.417880 -0.440718
v 0.440718 -0.417880 -0.440718
v -0.559282 0.722831 -0.440718
v 0.440718 0.722831 -0.440718
v -0.559282 -0.347169 0.559282
v -0.529993 -0.317880 0.559282
v -0.559282 -0.417880 0.559282
v 0.340718 0.552831 0.559282
v 0.440718 -0.417880 0.559282
v 0.440718 0.722831 0.559282
v 0.340718 0.622831 0.559282
v 0.440718 -0.417880 -0.440718
v -0.559282 -0.417880 -0.440718
v 0.440718 -0.417880 0.559282
v -0.559282 -0.417880 0.559282
vn -1.0000 -0.0000 -0.0000
vn -0.7071 0.7071 -0.0000
vn -0.0000 0.7071 0.7071
vn -0.0000 -0.0000 1.0000
vn 1.0000 -0.0000 -0.0000
vn -0.0000 -0.0000 -1.0000
vn -0.0000 -1.0000 -0.0000
vt 0.093750 0.195194
vt 0.093750 0.207467
vt 0.093750 0.037398
vt 0.093750 0.042533
vt 0.093750 0.225000
vt 0.718750 0.042533
vt 0.718750 0.025000
vt 0.718750 0.037398
vt 0.718750 0.195194
vt 0.718750 0.225000
vt 0.718750 0.207467
s 0
usemtl colormap.061
f 3/1/1 2/2/1 1/1/1
f 2/2/1 3/1/1 4/2/1
f 7/3/2 6/4/2 5/4/2
f 8/1/2 5/4/2 6/4/2
f 5/4/2 8/1/2 9/1/2
f 12/4/3 11/1/3 10/1/3
f 11/1/3 12/4/3 13/4/3
f 12/4/3 14/3/3 13/4/3
f 17/2/2 16/5/2 15/5/2
s 1
f 16/5/2 17/2/2 18/2/2
s 0
f 21/5/3 20/2/3 19/2/3
f 20/2/3 21/5/3 22/5/3
f 25/2/4 24/1/4 23/1/4
f 24/1/4 25/2/4 26/2/4
f 29/6/1 28/7/1 27/8/1
f 30/9/1 28/7/1 29/6/1
f 30/9/1 31/7/1 28/7/1
f 31/7/1 30/9/1 32/10/1
f 33/11/1 32/10/1 30/9/1
f 36/10/5 35/7/5 34/10/5
f 35/7/5 36/10/5 37/7/5
f 40/10/6 39/7/6 38/7/6
f 39/7/6 40/10/6 41/10/6
f 44/7/4 43/6/4 42/8/4
f 44/7/4 45/9/4 43/6/4
f 46/7/4 45/9/4 44/7/4
f 45/9/4 46/7/4 47/10/4
f 45/9/4 47/10/4 48/11/4
f 51/7/7 50/7/7 49/7/7
f 50/7/7 51/7/7 52/7/7
