# Blender 5.1.0
# www.blender.org
mtllib roof_left.mtl
o roof-left-col
v -0.532936 -0.197120 0.509315
v -0.632935 -0.197120 0.509315
v -0.532936 -0.147120 0.509315
v 0.367065 -0.197120 0.509315
v 0.267065 -0.197120 0.509315
v 0.367065 0.302880 0.509315
v 0.267065 0.252880 0.509315
v 0.267065 0.364683 -0.490685
v 0.267065 0.364683 -0.390685
v -0.767100 -0.152399 -0.490685
v -0.767100 -0.152399 -0.390685
v 0.367065 0.478781 -0.490685
v 0.367065 0.478781 -0.390685
v 0.267065 0.428781 -0.490685
v 0.267065 0.428781 -0.390685
v 0.267065 -0.197120 -0.490685
v 0.267065 0.252880 -0.490685
v 0.267065 -0.197120 -0.465685
v 0.267065 0.252880 -0.465685
v 0.267065 -0.197120 0.484315
v 0.267065 0.252880 0.484315
v 0.267065 -0.197120 0.509315
v 0.267065 0.252880 0.509315
v 0.267065 0.428781 -0.490685
v 0.267065 0.428781 -0.390685
v 0.267065 0.364683 -0.490685
v 0.267065 0.364683 -0.390685
v 0.267065 0.378781 -0.390685
v 0.267065 0.378781 -0.390685
v 0.267065 0.428781 -0.390685
v 0.367065 0.428781 -0.390685
v 0.367065 0.478781 -0.390685
v -0.722378 -0.241842 -0.390685
v -0.767100 -0.152399 -0.390685
v -0.677657 -0.219481 -0.390685
v -0.700018 -0.174760 -0.390685
v -0.579132 -0.114317 -0.390685
v 0.267065 0.364683 -0.390685
v 0.267065 0.308781 -0.390685
v -0.677657 -0.219481 -0.390685
v -0.677657 -0.219481 -0.490685
v -0.722378 -0.241842 -0.390685
v -0.722378 -0.241842 -0.490685
v -0.532936 -0.147120 0.484315
v -0.532936 -0.197120 0.484315
v -0.532936 -0.147120 0.509315
v -0.532936 -0.197120 0.509315
v -0.722378 -0.241842 -0.490685
v -0.767100 -0.152399 -0.490685
v -0.722378 -0.241842 -0.390685
v -0.767100 -0.152399 -0.390685
v -0.532936 -0.147120 -0.490685
v -0.532936 -0.197120 -0.490685
v -0.532936 -0.147120 -0.465685
v -0.532936 -0.197120 -0.465685
v 0.267065 0.252880 -0.465685
v 0.267065 0.252880 -0.490685
v -0.532936 -0.147120 -0.465685
v -0.532936 -0.147120 -0.490685
v -0.722378 -0.241842 -0.490685
v -0.677657 -0.219481 -0.490685
v -0.767100 -0.152399 -0.490685
v -0.632935 -0.197120 -0.490685
v -0.532936 -0.197120 -0.490685
v -0.532936 -0.147120 -0.490685
v 0.267065 0.364683 -0.490685
v 0.267065 0.252880 -0.490685
v 0.367065 0.478781 -0.490685
v 0.267065 0.428781 -0.490685
v 0.267065 -0.197120 -0.490685
v 0.367065 -0.197120 -0.490685
v -0.532936 -0.197120 -0.465685
v 0.267065 -0.197120 -0.465685
v -0.532936 -0.147120 -0.465685
v 0.267065 0.252880 -0.465685
v 0.367065 0.428781 -0.390685
v 0.367065 0.302880 0.509315
v 0.367065 0.428781 0.509315
v 0.367065 -0.197120 0.509315
v 0.367065 -0.197120 -0.490685
v 0.367065 0.478781 -0.390685
v 0.367065 0.478781 -0.490685
v 0.267065 -0.197120 0.484315
v -0.532936 -0.197120 0.484315
v 0.267065 0.252880 0.484315
v -0.532936 -0.147120 0.484315
v -0.532936 -0.197120 0.509315
v -0.532936 -0.197120 0.484315
v -0.632935 -0.197120 0.509315
v -0.532936 -0.197120 -0.465685
v -0.532936 -0.197120 -0.490685
v -0.632935 -0.197120 -0.490685
v 0.267065 -0.197120 -0.465685
v 0.267065 -0.197120 0.484315
v 0.267065 -0.197120 -0.490685
v 0.267065 -0.197120 0.509315
v 0.367065 -0.197120 -0.490685
v 0.367065 -0.197120 0.509315
v -0.632935 -0.197120 0.509315
v -0.532936 -0.147120 0.509315
v 0.367065 0.302880 0.509315
v 0.267065 0.252880 0.509315
v 0.267065 0.364683 -0.390685
v -0.677657 -0.219481 -0.390685
v -0.677657 -0.219481 -0.490685
v 0.267065 0.308781 -0.390685
v 0.267065 0.308781 0.509315
v 0.267065 0.378781 -0.390685
v 0.267065 0.378781 0.509315
v -0.677657 -0.219481 -0.390685
v -0.700018 -0.174760 -0.390685
v -0.677657 -0.219481 0.509315
v -0.700018 -0.174760 0.509315
v 0.267065 0.252880 0.509315
v 0.267065 0.252880 0.484315
v -0.532936 -0.147120 0.509315
v -0.532936 -0.147120 0.484315
v -0.632935 -0.197120 0.509315
v -0.632935 -0.197120 -0.490685
v -0.677657 -0.219481 0.509315
v 0.367065 0.428781 0.509315
v 0.267065 0.378781 0.509315
v 0.367065 0.428781 -0.390685
v 0.267065 0.378781 -0.390685
v 0.267065 0.308781 -0.390685
v 0.267065 0.308781 0.509315
v -0.579132 -0.114317 -0.390685
v -0.579132 -0.114317 0.509315
v -0.677657 -0.219481 0.509315
v -0.700018 -0.174760 0.509315
v -0.579132 -0.114317 0.509315
v 0.267065 0.308781 0.509315
v 0.367065 0.428781 0.509315
v 0.267065 0.378781 0.509315
v -0.579132 -0.114317 -0.390685
v -0.700018 -0.174760 -0.390685
v -0.579132 -0.114317 0.509315
v -0.700018 -0.174760 0.509315
vn -0.0000 -0.0000 1.0000
vn -0.4472 0.8944 -0.0000
vn -1.0000 -0.0000 -0.0000
vn -0.0000 -0.3827 0.9239
vn -0.0000 0.3827 0.9239
vn -0.2706 -0.2706 0.9239
vn 0.4472 -0.8944 -0.0000
vn 1.0000 -0.0000 -0.0000
vn -0.8944 -0.4472 -0.0000
vn -0.0000 -0.0000 -1.0000
vn -0.0000 -1.0000 -0.0000
vn -0.8506 0.5257 -0.0000
vn -0.8507 0.5257 -0.0000
vt 0.218750 0.039795
vt 0.218750 0.025000
vt 0.593750 0.025000
vt 0.218750 0.172951
vt 0.218750 0.158155
vt 0.593750 0.038233
vt 0.593750 0.191238
vt 0.593750 0.210205
vt 0.593750 0.225000
vt 0.593750 0.158155
vt 0.218750 0.191238
vt 0.593750 0.195410
vt 0.593750 0.031617
vt 0.593750 0.049502
vt 0.593750 0.174697
vt 0.593750 0.039795
vt 0.218750 0.289795
vt 0.218750 0.275000
vt 0.218750 0.408155
vt 0.218750 0.460205
vt 0.218750 0.422951
vt 0.218750 0.475000
vt 0.218750 0.174697
vt 0.218750 0.195410
vt 0.218750 0.031617
vt 0.218750 0.210205
vt 0.218750 0.049502
vt 0.218750 0.075000
vt 0.218750 0.175000
s 0
usemtl colormap.072
f 3/1/1 2/2/1 1/3/1
f 6/4/1 5/3/1 4/3/1
f 5/3/1 6/4/1 7/5/1
f 10/6/2 9/7/2 8/7/2
f 9/7/2 10/6/2 11/6/2
f 14/8/2 13/9/2 12/9/2
f 13/9/2 14/8/2 15/8/2
f 18/3/3 17/10/3 16/3/3
f 17/10/3 18/3/3 19/10/3
f 22/3/3 21/10/3 20/3/3
f 21/10/3 22/3/3 23/10/3
f 26/7/3 25/8/3 24/8/3
f 25/8/3 26/7/3 27/11/3
s 1
f 25/8/4 27/11/5 28/12/6
s 0
f 31/8/1 30/8/1 29/12/1
f 30/8/1 31/8/1 32/9/1
f 35/3/1 34/6/1 33/3/1
f 34/6/1 35/3/1 36/13/1
f 34/6/1 36/13/1 37/14/1
f 34/6/1 37/14/1 38/7/1
f 38/7/1 37/14/1 39/15/1
f 42/3/7 41/2/7 40/2/7
s 1
f 41/2/7 42/3/7 43/3/7
s 0
f 46/16/8 45/3/8 44/16/8
f 45/3/8 46/16/8 47/3/8
f 50/3/9 49/6/9 48/3/9
f 49/6/9 50/3/9 51/6/9
f 54/16/8 53/3/8 52/16/8
f 53/3/8 54/16/8 55/3/8
f 58/16/7 57/10/7 56/10/7
s 1
f 57/10/7 58/16/7 59/16/7
s 0
f 62/6/10 61/3/10 60/3/10
f 61/3/10 62/6/10 63/3/10
f 63/3/10 62/6/10 64/3/10
f 64/3/10 62/6/10 65/16/10
f 65/16/10 62/6/10 66/7/10
f 65/16/10 66/7/10 67/10/10
f 68/9/10 67/10/10 66/7/10
f 68/9/10 66/7/10 69/8/10
f 68/9/10 70/3/10 67/10/10
f 70/3/10 68/9/10 71/3/10
f 74/17/10 73/18/10 72/18/10
f 73/18/10 74/17/10 75/19/10
f 78/20/8 77/21/8 76/20/8
f 79/18/8 76/20/8 77/21/8
f 80/18/8 76/20/8 79/18/8
f 80/18/8 81/22/8 76/20/8
f 81/22/8 80/18/8 82/22/8
f 85/19/1 84/18/1 83/18/1
f 84/18/1 85/19/1 86/17/1
f 89/18/11 88/18/11 87/18/11
f 88/18/11 89/18/11 90/18/11
f 90/18/11 89/18/11 91/18/11
f 91/18/11 89/18/11 92/18/11
f 93/18/11 88/18/11 90/18/11
f 88/18/11 93/18/11 94/18/11
s 1
f 95/18/10 94/18/8 93/18/3
f 95/18/10 96/18/8 94/18/8
s 0
f 97/18/11 96/18/11 95/18/11
f 96/18/11 97/18/11 98/18/11
f 107/23/3 103/11/3 106/23/3
s 1
f 103/11/3 107/23/3 108/24/12
f 108/24/12 107/23/3 109/24/12
s 0
f 112/2/9 111/25/9 110/2/9
f 111/25/9 112/2/9 113/25/9
f 116/1/7 115/5/7 114/5/7
s 1
f 115/5/7 116/1/7 117/1/7
s 0
f 120/2/7 119/2/7 118/2/7
f 119/2/7 120/2/7 104/2/7
f 119/2/7 104/2/7 105/2/7
s 1
f 123/26/2 122/24/13 121/26/2
f 122/24/13 123/26/2 124/24/13
s 0
f 127/27/2 126/23/2 125/23/2
f 126/23/2 127/27/2 128/27/2
f 99/2/1 130/25/1 129/2/1
f 130/25/1 99/2/1 100/1/1
f 130/25/1 100/1/1 131/27/1
f 131/27/1 100/1/1 102/5/1
f 131/27/1 102/5/1 132/23/1
f 132/23/1 102/5/1 101/4/1
f 132/23/1 101/4/1 133/26/1
f 132/23/1 133/26/1 134/24/1
f 138/28/2 137/29/2 136/28/2
f 135/29/2 136/28/2 137/29/2
