# Blender 5.1.0
# www.blender.org
mtllib roof_high_gable_end.mtl
o roof-high-gable-end-col
v -0.544220 -0.209674 -0.496197
v -0.047656 0.782719 -0.000000
v -0.544220 -0.209674 0.496197
v 0.502344 -0.373805 0.522361
v -0.570437 -0.373805 0.522361
v 0.502344 -0.351444 0.567082
v -0.615158 -0.351444 0.567082
v 0.502344 -0.351444 -0.567082
v 0.502344 -0.373805 -0.522361
v 0.502344 -0.209674 -0.496197
v 0.502344 0.670916 -0.000000
v 0.502344 0.782719 -0.000000
v 0.502344 -0.209674 0.496197
v 0.502344 -0.373805 0.522361
v 0.502344 -0.351444 0.567082
v 0.427344 0.670916 -0.000000
v 0.502344 0.670916 -0.000000
v 0.427344 -0.129084 -0.400000
v 0.452344 -0.129084 -0.400000
v 0.452344 -0.329084 -0.500000
v 0.502344 -0.373805 -0.522361
v -0.570437 -0.373805 -0.522361
v -0.548076 -0.329084 -0.500000
v 0.502344 -0.351444 -0.567082
v -0.615158 -0.351444 -0.567082
v 0.502344 -0.373805 -0.522361
v -0.570437 -0.373805 -0.522361
v 0.427344 -0.129084 0.400000
v 0.452344 -0.129084 0.400000
v 0.427344 0.670916 -0.000000
v 0.502344 0.670916 -0.000000
v 0.452344 -0.329084 0.500000
v 0.502344 -0.373805 0.522361
v -0.548076 -0.329084 0.500000
v -0.570437 -0.373805 0.522361
v -0.544220 -0.209674 -0.496197
v 0.502344 -0.209674 -0.496197
v -0.047656 0.782719 -0.000000
v 0.502344 0.782719 -0.000000
v -0.544220 -0.209674 0.496197
v -0.047656 0.782719 -0.000000
v 0.502344 -0.209674 0.496197
v 0.502344 0.782719 -0.000000
v -0.570437 -0.373805 -0.522361
v -0.615158 -0.351444 -0.567082
v -0.570437 -0.373805 0.522361
v -0.615158 -0.351444 0.567082
v -0.570437 -0.373805 -0.522361
v -0.570437 -0.373805 0.522361
v -0.548076 -0.329084 -0.500000
v -0.548076 -0.329084 0.500000
v -0.615158 -0.351444 -0.567082
v -0.544220 -0.209674 -0.496197
v -0.615158 -0.351444 0.567082
v -0.544220 -0.209674 0.496197
v -0.615158 -0.351444 0.567082
v -0.544220 -0.209674 0.496197
v 0.502344 -0.351444 0.567082
v 0.502344 -0.209674 0.496197
v 0.502344 -0.351444 -0.567082
v 0.502344 -0.209674 -0.496197
v -0.615158 -0.351444 -0.567082
v -0.544220 -0.209674 -0.496197
v 0.452344 -0.129084 0.400000
v 0.452344 -0.329084 0.400000
v 0.452344 -0.329084 0.500000
v 0.452344 -0.129084 -0.400000
v 0.452344 -0.329084 -0.500000
v 0.452344 -0.329084 -0.400000
v 0.427344 -0.329084 0.400000
v 0.452344 -0.329084 0.400000
v 0.427344 -0.129084 0.400000
v 0.452344 -0.129084 0.400000
v 0.452344 -0.329084 -0.400000
v 0.427344 -0.329084 -0.400000
v 0.452344 -0.129084 -0.400000
v 0.427344 -0.129084 -0.400000
v 0.452344 -0.329084 0.400000
v 0.427344 -0.329084 0.400000
v 0.452344 -0.329084 0.500000
v -0.548076 -0.329084 0.500000
v -0.548076 -0.329084 -0.500000
v 0.427344 -0.329084 -0.400000
v 0.452344 -0.329084 -0.400000
v 0.452344 -0.329084 -0.500000
v 0.427344 -0.129084 -0.400000
v 0.427344 -0.329084 -0.400000
v 0.427344 0.670916 -0.000000
v 0.427344 -0.329084 0.400000
v 0.427344 -0.129084 0.400000
vn -0.8943 0.4475 -0.0000
vn -0.0000 -0.8944 0.4472
vn 1.0000 -0.0000 -0.0000
vn -0.0000 -0.4472 0.8944
vn -0.0000 -0.8944 -0.4472
vn -0.0000 -0.4472 -0.8944
vn -0.0000 0.4472 -0.8944
vn -0.0000 0.4472 0.8944
vn -0.4472 -0.8944 -0.0000
vn 0.8944 -0.4472 -0.0000
vn -0.0000 -0.0000 -1.0000
vn -0.0000 -0.0000 1.0000
vn -0.0000 -1.0000 -0.0000
vt 0.093750 0.046480
vt 0.093750 0.225000
vt 0.093750 0.025000
vt 0.093750 0.204888
vt 0.093750 0.060978
vt 0.093750 0.075000
vt 0.093750 0.175000
vt 0.593750 0.025000
vt 0.593750 0.060978
vt 0.718750 0.025000
vt 0.718750 0.204888
vt 0.718750 0.060978
s 0
usemtl colormap.064
f 3/1/1 2/2/1 1/1/1
f 6/3/2 5/3/2 4/3/2
f 5/3/2 6/3/2 7/3/2
f 10/1/3 9/3/3 8/3/3
f 9/3/3 10/1/3 11/4/3
f 11/4/3 10/1/3 12/2/3
f 11/4/3 12/2/3 13/1/3
f 11/4/3 13/1/3 14/3/3
f 14/3/3 13/1/3 15/3/3
s 1
f 18/5/4 17/4/4 16/4/4
s 0
f 19/5/4 17/4/4 18/5/4
f 20/3/4 17/4/4 19/5/4
f 20/3/4 21/3/4 17/4/4
f 21/3/4 20/3/4 22/3/4
f 23/3/4 22/3/4 20/3/4
f 26/3/5 25/3/5 24/3/5
f 25/3/5 26/3/5 27/3/5
s 1
f 30/4/6 29/5/6 28/5/6
s 0
f 31/4/6 29/5/6 30/4/6
f 31/4/6 32/3/6 29/5/6
f 33/3/6 32/3/6 31/4/6
f 33/3/6 34/3/6 32/3/6
f 34/3/6 33/3/6 35/3/6
f 38/2/7 37/1/7 36/1/7
f 37/1/7 38/2/7 39/2/7
f 42/1/8 41/2/8 40/1/8
f 41/2/8 42/1/8 43/2/8
f 46/3/9 45/3/9 44/3/9
f 45/3/9 46/3/9 47/3/9
f 50/3/10 49/3/10 48/3/10
f 49/3/10 50/3/10 51/3/10
s 1
f 54/6/1 53/7/1 52/6/1
s 0
f 53/7/1 54/6/1 55/7/1
f 58/6/8 57/7/8 56/6/8
f 57/7/8 58/6/8 59/7/8
f 62/6/7 61/7/7 60/6/7
f 61/7/7 62/6/7 63/7/7
f 66/8/3 65/8/3 64/9/3
f 69/8/3 68/8/3 67/9/3
f 72/9/11 71/8/11 70/8/11
f 71/8/11 72/9/11 73/9/11
f 76/9/12 75/8/12 74/8/12
f 75/8/12 76/9/12 77/9/12
f 80/10/13 79/10/13 78/10/13
f 79/10/13 80/10/13 81/10/13
f 79/10/13 81/10/13 82/10/13
f 82/10/13 83/10/13 79/10/13
f 82/10/13 84/10/13 83/10/13
f 84/10/13 82/10/13 85/10/13
f 88/11/3 87/10/3 86/12/3
f 87/10/3 88/11/3 89/10/3
f 89/10/3 88/11/3 90/12/3
