# Blender 5.1.0
# www.blender.org
mtllib roof_right.mtl
o roof-right-col
v -0.632936 -0.197120 -0.509315
v -0.532936 -0.197120 -0.509315
v -0.532936 -0.147120 -0.509315
v -0.532936 -0.147120 0.465685
v -0.532936 -0.197120 0.465685
v -0.532936 -0.147120 0.490685
v -0.532936 -0.197120 0.490685
v -0.722378 -0.241842 0.390685
v -0.677657 -0.219481 0.390685
v -0.767100 -0.152399 0.390685
v -0.700018 -0.174760 0.390685
v -0.579132 -0.114317 0.390685
v 0.267065 0.364683 0.390685
v 0.267065 0.308781 0.390685
v 0.267065 0.364683 0.490685
v -0.767100 -0.152399 0.490685
v 0.267065 0.364683 0.390685
v -0.767100 -0.152399 0.390685
v 0.267065 -0.197120 0.465685
v 0.267065 0.252880 0.465685
v 0.267065 -0.197120 0.490685
v 0.267065 0.252880 0.490685
v 0.267065 -0.197120 -0.509315
v 0.267065 0.252880 -0.509315
v 0.267065 -0.197120 -0.484315
v 0.267065 0.252880 -0.484315
v 0.267065 0.252880 0.490685
v 0.267065 0.252880 0.465685
v -0.532936 -0.147120 0.490685
v -0.532936 -0.147120 0.465685
v -0.767100 -0.152399 0.390685
v -0.767100 -0.152399 0.490685
v -0.722378 -0.241842 0.390685
v -0.722378 -0.241842 0.490685
v 0.267065 0.378781 0.390685
v 0.267065 0.428781 0.390685
v 0.267065 0.364683 0.390685
v 0.267065 0.428781 0.490685
v 0.267065 0.364683 0.490685
v -0.532936 -0.147120 -0.509315
v -0.532936 -0.197120 -0.509315
v -0.532936 -0.147120 -0.484315
v -0.532936 -0.197120 -0.484315
v -0.677657 -0.219481 0.390685
v -0.722378 -0.241842 0.390685
v -0.677657 -0.219481 0.490685
v -0.722378 -0.241842 0.490685
v 0.267065 0.378781 0.390685
v 0.367065 0.428781 0.390685
v 0.267065 0.428781 0.390685
v 0.367065 0.478781 0.390685
v 0.367065 -0.197120 -0.509315
v 0.367065 0.302880 -0.509315
v 0.267065 -0.197120 -0.509315
v 0.267065 0.252880 -0.509315
v 0.367065 0.478781 0.490685
v 0.267065 0.428781 0.490685
v 0.367065 0.478781 0.390685
v 0.267065 0.428781 0.390685
v 0.367065 -0.197120 0.490685
v 0.267065 -0.197120 0.490685
v 0.367065 0.478781 0.490685
v 0.267065 0.252880 0.490685
v 0.267065 0.364683 0.490685
v 0.267065 0.428781 0.490685
v -0.532936 -0.147120 0.490685
v -0.767100 -0.152399 0.490685
v -0.532936 -0.197120 0.490685
v -0.632936 -0.197120 0.490685
v -0.677657 -0.219481 0.490685
v -0.722378 -0.241842 0.490685
v -0.532936 -0.197120 0.490685
v -0.532936 -0.197120 0.465685
v -0.632936 -0.197120 0.490685
v -0.532936 -0.197120 -0.484315
v -0.532936 -0.197120 -0.509315
v -0.632936 -0.197120 -0.509315
v 0.267065 -0.197120 -0.484315
v 0.267065 -0.197120 0.465685
v 0.267065 -0.197120 -0.509315
v 0.267065 -0.197120 0.490685
v 0.367065 -0.197120 -0.509315
v 0.367065 -0.197120 0.490685
v -0.532936 -0.197120 -0.484315
v 0.267065 -0.197120 -0.484315
v -0.532936 -0.147120 -0.484315
v 0.267065 0.252880 -0.484315
v 0.367065 0.478781 0.390685
v 0.367065 0.428781 0.390685
v 0.367065 0.478781 0.490685
v 0.367065 -0.197120 0.490685
v 0.367065 -0.197120 -0.509315
v 0.367065 0.302880 -0.509315
v 0.367065 0.428781 -0.509315
v 0.267065 -0.197120 0.465685
v -0.532936 -0.197120 0.465685
v 0.267065 0.252880 0.465685
v -0.532936 -0.147120 0.465685
v -0.632936 -0.197120 -0.509315
v -0.532936 -0.147120 -0.509315
v -0.677657 -0.219481 0.390685
v -0.677657 -0.219481 0.490685
v 0.367065 0.302880 -0.509315
v 0.267065 0.252880 -0.509315
v -0.677657 -0.219481 -0.509315
v -0.700018 -0.174760 -0.509315
v -0.579132 -0.114317 -0.509315
v 0.267065 0.308781 -0.509315
v 0.367065 0.428781 -0.509315
v 0.267065 0.378781 -0.509315
v -0.677657 -0.219481 -0.509315
v -0.700018 -0.174760 -0.509315
v -0.677657 -0.219481 0.390685
v -0.700018 -0.174760 0.390685
v 0.267065 0.252880 -0.484315
v 0.267065 0.252880 -0.509315
v -0.532936 -0.147120 -0.484315
v -0.532936 -0.147120 -0.509315
v -0.632936 -0.197120 0.490685
v -0.632936 -0.197120 -0.509315
v -0.677657 -0.219481 -0.509315
v 0.367065 0.428781 -0.509315
v 0.367065 0.428781 0.390685
v 0.267065 0.378781 -0.509315
v 0.267065 0.378781 0.390685
v 0.267065 0.308781 -0.509315
v 0.267065 0.378781 -0.509315
v 0.267065 0.308781 0.390685
v 0.267065 0.378781 0.390685
v 0.267065 0.364683 0.390685
v 0.267065 0.308781 0.390685
v -0.579132 -0.114317 0.390685
v 0.267065 0.308781 -0.509315
v -0.579132 -0.114317 -0.509315
v -0.579132 -0.114317 0.390685
v -0.700018 -0.174760 0.390685
v -0.579132 -0.114317 -0.509315
v -0.700018 -0.174760 -0.509315
vn -0.0000 -0.0000 -1.0000
vn 1.0000 -0.0000 -0.0000
vn -0.4472 0.8944 -0.0000
vn -1.0000 -0.0000 -0.0000
vn 0.4472 -0.8944 -0.0000
vn -0.8944 -0.4472 -0.0000
vn -0.0000 0.3827 -0.9239
vn -0.0000 -0.3827 -0.9239
vn -0.2706 0.2706 -0.9239
vn -0.0000 -0.0000 1.0000
vn -0.0000 -1.0000 -0.0000
vn -0.8507 0.5257 -0.0000
vn -0.8506 0.5257 -0.0000
vn -0.2706 -0.2706 0.9239
vt 0.218750 0.039795
vt 0.593750 0.025000
vt 0.218750 0.025000
vt 0.593750 0.039795
vt 0.593750 0.038233
vt 0.593750 0.031617
vt 0.593750 0.049502
vt 0.593750 0.191238
vt 0.593750 0.174697
vt 0.593750 0.158155
vt 0.593750 0.210205
vt 0.593750 0.195410
vt 0.593750 0.225000
vt 0.218750 0.172951
vt 0.218750 0.158155
vt 0.218750 0.275000
vt 0.218750 0.289795
vt 0.218750 0.408155
vt 0.218750 0.475000
vt 0.218750 0.460205
vt 0.218750 0.422951
vt 0.218750 0.031617
vt 0.218750 0.049502
vt 0.218750 0.174697
vt 0.218750 0.210205
vt 0.218750 0.195410
vt 0.218750 0.191238
vt 0.218750 0.175000
vt 0.218750 0.075000
s 0
usemtl colormap.074
f 3/1/1 2/2/1 1/3/1
f 6/4/2 5/2/2 4/4/2
f 5/2/2 6/4/2 7/2/2
f 10/5/1 9/2/1 8/2/1
f 9/2/1 10/5/1 11/6/1
f 11/6/1 10/5/1 12/7/1
f 12/7/1 10/5/1 13/8/1
f 12/7/1 13/8/1 14/9/1
f 17/8/3 16/5/3 15/8/3
f 16/5/3 17/8/3 18/5/3
f 21/2/4 20/10/4 19/2/4
f 20/10/4 21/2/4 22/10/4
f 25/2/4 24/10/4 23/2/4
f 24/10/4 25/2/4 26/10/4
f 29/4/5 28/10/5 27/10/5
s 1
f 28/10/5 29/4/5 30/4/5
s 0
f 33/2/6 32/5/6 31/5/6
f 32/5/6 33/2/6 34/2/6
s 1
f 37/8/7 36/11/8 35/12/9
s 0
f 36/11/4 37/8/4 38/11/4
f 38/11/4 37/8/4 39/8/4
f 42/4/2 41/2/2 40/4/2
f 41/2/2 42/4/2 43/2/2
f 46/3/5 45/2/5 44/3/5
s 1
f 45/2/5 46/3/5 47/2/5
s 0
f 50/11/1 49/11/1 48/12/1
f 49/11/1 50/11/1 51/13/1
f 54/2/1 53/14/1 52/2/1
f 53/14/1 54/2/1 55/15/1
f 58/13/3 57/11/3 56/13/3
f 57/11/3 58/13/3 59/11/3
f 62/13/10 61/2/10 60/2/10
f 61/2/10 62/13/10 63/10/10
f 63/10/10 62/13/10 64/8/10
f 64/8/10 62/13/10 65/11/10
f 64/8/10 66/4/10 63/10/10
f 67/5/10 66/4/10 64/8/10
f 67/5/10 68/2/10 66/4/10
f 67/5/10 69/2/10 68/2/10
f 67/5/10 70/2/10 69/2/10
f 70/2/10 67/5/10 71/2/10
f 74/16/11 73/16/11 72/16/11
f 73/16/11 74/16/11 75/16/11
f 75/16/11 74/16/11 76/16/11
f 76/16/11 74/16/11 77/16/11
f 78/16/11 73/16/11 75/16/11
f 73/16/11 78/16/11 79/16/11
s 1
f 80/16/1 79/16/2 78/16/4
f 80/16/1 81/16/2 79/16/2
s 0
f 82/16/11 81/16/11 80/16/11
f 81/16/11 82/16/11 83/16/11
f 86/17/1 85/16/1 84/16/1
f 85/16/1 86/17/1 87/18/1
f 90/19/2 89/20/2 88/19/2
f 89/20/2 90/19/2 91/16/2
f 92/16/2 89/20/2 91/16/2
f 93/21/2 89/20/2 92/16/2
f 89/20/2 93/21/2 94/20/2
f 97/18/10 96/16/10 95/16/10
f 96/16/10 97/18/10 98/17/10
f 106/22/1 99/3/1 105/3/1
f 99/3/1 106/22/1 100/1/1
f 100/1/1 106/22/1 107/23/1
f 100/1/1 107/23/1 104/15/1
f 104/15/1 107/23/1 108/24/1
f 104/15/1 108/24/1 103/14/1
f 103/14/1 108/24/1 109/25/1
f 109/25/1 108/24/1 110/26/1
f 113/3/6 112/22/6 111/3/6
f 112/22/6 113/3/6 114/22/6
f 117/1/5 116/15/5 115/15/5
s 1
f 116/15/5 117/1/5 118/1/5
s 0
f 102/3/5 120/3/5 119/3/5
s 1
f 120/3/5 102/3/5 101/3/5
s 0
f 120/3/5 101/3/5 121/3/5
s 1
f 124/26/12 123/25/3 122/25/3
f 123/25/3 124/26/12 125/26/12
f 128/24/4 127/26/13 126/24/4
f 127/26/13 128/24/4 129/26/13
f 129/26/13 128/24/4 130/27/14
s 0
f 133/24/3 132/23/3 131/24/3
f 132/23/3 133/24/3 134/23/3
f 137/28/3 136/29/3 135/28/3
f 136/29/3 137/28/3 138/29/3
