# Blender 5.1.0
# www.blender.org
mtllib roof_gable_end.mtl
o roof-gable-end-col
v 0.450263 -0.073240 0.400000
v 0.450263 -0.173240 0.400000
v 0.450263 -0.173240 0.500000
v 0.450263 -0.073240 -0.400000
v 0.450263 -0.173240 -0.500000
v 0.450263 -0.173240 -0.400000
v 0.450263 -0.173240 -0.400000
v 0.425263 -0.173240 -0.400000
v 0.450263 -0.073240 -0.400000
v 0.425263 -0.073240 -0.400000
v 0.450263 -0.173240 0.400000
v 0.450263 -0.073240 0.400000
v 0.425263 -0.173240 0.400000
v 0.425263 -0.073240 0.400000
v 0.425263 -0.073240 -0.400000
v 0.425263 -0.173240 -0.400000
v 0.425263 0.326760 0.000000
v 0.425263 -0.173240 0.400000
v 0.425263 -0.073240 0.400000
v 0.450263 -0.173240 0.500000
v 0.450263 -0.173240 0.400000
v -0.549737 -0.173240 0.500000
v 0.425263 -0.173240 0.400000
v 0.425263 -0.173240 -0.400000
v -0.549737 -0.173240 -0.500000
v 0.450263 -0.173240 -0.500000
v 0.450263 -0.173240 -0.400000
v -0.518173 -0.070965 -0.468436
v -0.049737 0.397471 0.000000
v -0.518173 -0.070965 0.468436
v 0.450263 -0.173240 -0.500000
v 0.500263 -0.173240 -0.500000
v -0.549737 -0.173240 -0.500000
v 0.500263 -0.137884 -0.535355
v -0.585092 -0.137884 -0.535355
v -0.518173 -0.070965 0.468436
v -0.049737 0.397471 0.000000
v 0.500263 -0.070965 0.468436
v 0.500263 0.397471 0.000000
v 0.500263 -0.173240 -0.500000
v 0.450263 -0.173240 -0.500000
v 0.500263 0.326760 0.000000
v 0.450263 -0.073240 -0.400000
v 0.425263 -0.073240 -0.400000
v 0.425263 0.326760 0.000000
v 0.500263 -0.137884 -0.535355
v 0.500263 -0.173240 -0.500000
v 0.500263 -0.070965 -0.468436
v 0.500263 0.326760 0.000000
v 0.500263 0.397471 0.000000
v 0.500263 -0.070965 0.468436
v 0.500263 -0.173240 0.500000
v 0.500263 -0.137884 0.535355
v 0.500263 -0.137884 0.535355
v 0.500263 -0.173240 0.500000
v -0.585092 -0.137884 0.535355
v 0.450263 -0.173240 0.500000
v -0.549737 -0.173240 0.500000
v -0.585092 -0.137884 -0.535355
v -0.585092 -0.137884 -0.450000
v -0.549737 -0.173240 -0.500000
v -0.549737 -0.173240 0.500000
v -0.585092 -0.137884 0.535355
v 0.450263 -0.173240 0.500000
v 0.500263 -0.173240 0.500000
v 0.450263 -0.073240 0.400000
v 0.500263 0.326760 0.000000
v 0.425263 -0.073240 0.400000
v 0.425263 0.326760 0.000000
v -0.518173 -0.070965 -0.468436
v 0.500263 -0.070965 -0.468436
v -0.049737 0.397471 0.000000
v 0.500263 0.397471 0.000000
v -0.585092 -0.137884 0.535355
v -0.518173 -0.070965 0.468436
v 0.500263 -0.137884 0.535355
v 0.500263 -0.070965 0.468436
v 0.500263 -0.137884 -0.535355
v 0.500263 -0.070965 -0.468436
v -0.585092 -0.137884 -0.535355
v -0.518173 -0.070965 -0.468436
v -0.585092 -0.137884 -0.535355
v -0.518173 -0.070965 -0.468436
v -0.585092 -0.137884 -0.450000
v -0.518173 -0.070965 0.468436
v -0.585092 -0.137884 0.535355
vn 1.0000 -0.0000 -0.0000
vn -0.0000 -0.0000 1.0000
vn -0.0000 -0.0000 -1.0000
vn -0.0000 -1.0000 -0.0000
vn -0.7071 0.7071 -0.0000
vn -0.0000 -0.7071 -0.7071
vn -0.0000 0.7071 0.7071
vn -0.0000 -0.7071 0.7071
vn -0.7071 -0.7071 -0.0000
vn -0.0000 0.7071 -0.7071
vt 0.593750 0.025000
vt 0.593750 0.060044
vt 0.218750 0.450220
vt 0.218750 0.275000
vt 0.218750 0.310044
vt 0.218750 0.060841
vt 0.218750 0.225000
vt 0.218750 0.025000
vt 0.218750 0.037390
vt 0.218750 0.200220
vt 0.218750 0.060044
vt 0.218750 0.075000
vt 0.218750 0.175000
s 0
usemtl colormap.056
f 3/1/1 2/1/1 1/2/1
f 6/1/1 5/1/1 4/2/1
f 9/2/2 8/1/2 7/1/2
f 8/1/2 9/2/2 10/2/2
f 13/1/3 12/2/3 11/1/3
f 12/2/3 13/1/3 14/2/3
f 17/3/1 16/4/1 15/5/1
f 16/4/1 17/3/1 18/4/1
f 18/4/1 17/3/1 19/5/1
f 22/4/4 21/4/4 20/4/4
f 21/4/4 22/4/4 23/4/4
f 23/4/4 22/4/4 24/4/4
f 25/4/4 24/4/4 22/4/4
f 26/4/4 24/4/4 25/4/4
f 24/4/4 26/4/4 27/4/4
f 30/6/5 29/7/5 28/6/5
s 1
f 33/8/6 32/8/6 31/8/6
s 0
f 32/8/6 33/8/6 34/9/6
s 1
f 34/9/6 33/8/6 35/9/6
s 0
f 38/6/7 37/7/7 36/6/7
f 37/7/7 38/6/7 39/7/7
f 42/10/8 41/8/8 40/8/8
f 41/8/8 42/10/8 43/11/8
f 43/11/8 42/10/8 44/11/8
f 44/11/8 42/10/8 45/10/8
f 48/6/1 47/8/1 46/9/1
f 47/8/1 48/6/1 49/10/1
f 49/10/1 48/6/1 50/7/1
f 49/10/1 50/7/1 51/6/1
f 49/10/1 51/6/1 52/8/1
f 52/8/1 51/6/1 53/9/1
f 56/9/8 55/8/8 54/9/8
f 55/8/8 56/9/8 57/8/8
f 57/8/8 56/9/8 58/8/8
f 61/8/9 60/9/9 59/9/9
f 60/9/9 61/8/9 62/8/9
f 60/9/9 62/8/9 63/9/9
f 66/11/6 65/8/6 64/8/6
f 65/8/6 66/11/6 67/10/6
f 67/10/6 66/11/6 68/11/6
f 67/10/6 68/11/6 69/10/6
f 72/7/10 71/6/10 70/6/10
f 71/6/10 72/7/10 73/7/10
f 76/12/7 75/13/7 74/12/7
f 75/13/7 76/12/7 77/13/7
f 80/12/10 79/13/10 78/12/10
f 79/13/10 80/12/10 81/13/10
f 84/12/5 83/13/5 82/12/5
f 83/13/5 84/12/5 85/13/5
f 85/13/5 84/12/5 86/12/5
