# Blender 5.1.0
# www.blender.org
mtllib roof_gable_detail.mtl
o roof-gable-detail-col
v -0.500000 -0.095372 -0.468436
v 0.500000 -0.095372 -0.468436
v -0.500000 0.373064 0.000000
v 0.500000 0.373064 0.000000
v 0.500000 -0.095372 0.468436
v -0.500000 -0.095372 0.468436
v 0.500000 0.373064 0.000000
v -0.500000 0.373064 0.000000
v 0.500000 -0.162291 0.535355
v 0.500000 -0.197646 0.500000
v -0.500000 -0.162291 0.535355
v -0.500000 -0.197646 0.500000
v 0.500000 -0.197646 -0.500000
v 0.500000 -0.162291 -0.535355
v -0.500000 -0.197646 -0.500000
v -0.500000 -0.162291 -0.535355
v 0.500000 -0.162291 -0.535355
v 0.500000 -0.095372 -0.468436
v -0.500000 -0.162291 -0.535355
v -0.500000 -0.095372 -0.468436
v -0.500000 -0.162291 0.535355
v -0.500000 -0.095372 0.468436
v 0.500000 -0.162291 0.535355
v 0.500000 -0.095372 0.468436
v 0.500000 -0.097646 0.400000
v 0.500000 -0.197646 0.400000
v 0.500000 -0.197646 0.500000
v -0.500000 -0.197646 -0.400000
v -0.500000 -0.197646 -0.500000
v -0.500000 -0.097646 -0.400000
v 0.500000 -0.097646 -0.400000
v 0.500000 -0.197646 -0.500000
v 0.500000 -0.197646 -0.400000
v -0.500000 -0.197646 0.400000
v -0.500000 -0.097646 0.400000
v -0.500000 -0.197646 0.500000
v -0.475000 -0.097646 -0.400000
v -0.500000 -0.097646 -0.400000
v -0.475000 0.302354 0.000000
v -0.550000 0.302354 0.000000
v -0.500000 -0.197646 -0.500000
v -0.550000 -0.233002 -0.535355
v -0.500000 -0.233002 -0.535355
v -0.550000 -0.233002 0.535355
v -0.500000 -0.233002 0.535355
v -0.550000 0.302354 0.000000
v -0.500000 -0.197646 0.500000
v -0.500000 -0.097646 0.400000
v -0.475000 -0.097646 0.400000
v -0.475000 0.302354 0.000000
v -0.475000 -0.197646 -0.400000
v -0.500000 -0.197646 -0.400000
v -0.475000 -0.097646 -0.400000
v -0.500000 -0.097646 -0.400000
v -0.500000 -0.197646 0.400000
v -0.475000 -0.197646 0.400000
v -0.500000 -0.097646 0.400000
v -0.475000 -0.097646 0.400000
v 0.550000 -0.233002 -0.535355
v 0.500000 -0.233002 -0.535355
v 0.550000 0.302354 0.000000
v 0.500000 -0.197646 -0.500000
v 0.500000 -0.097646 -0.400000
v 0.475000 -0.097646 -0.400000
v 0.475000 0.302354 0.000000
v 0.500000 -0.233002 0.535355
v 0.550000 -0.233002 0.535355
v 0.500000 -0.197646 0.500000
v 0.550000 0.302354 0.000000
v 0.500000 -0.097646 0.400000
v 0.475000 -0.097646 0.400000
v 0.475000 0.302354 0.000000
v 0.500000 -0.197646 0.400000
v 0.500000 -0.097646 0.400000
v 0.475000 -0.197646 0.400000
v 0.475000 -0.097646 0.400000
v 0.500000 -0.197646 -0.400000
v 0.475000 -0.197646 -0.400000
v 0.500000 -0.097646 -0.400000
v 0.475000 -0.097646 -0.400000
v 0.550000 0.443775 -0.070711
v 0.550000 0.373064 -0.070711
v 0.550000 0.443775 0.070711
v 0.550000 0.302354 0.000000
v 0.550000 0.373064 0.070711
v 0.550000 -0.233002 -0.535355
v 0.550000 -0.162291 -0.606066
v 0.550000 -0.233002 0.535355
v 0.550000 -0.162291 0.606066
v 0.550000 -0.162291 0.606066
v 0.500000 -0.162291 0.606066
v 0.550000 0.373064 0.070711
v 0.500000 0.373064 0.070711
v 0.550000 -0.162291 0.606066
v 0.550000 -0.233002 0.535355
v 0.500000 -0.162291 0.606066
v 0.500000 -0.233002 0.535355
v 0.550000 -0.233002 -0.535355
v 0.550000 -0.162291 -0.606066
v 0.500000 -0.233002 -0.535355
v 0.500000 -0.162291 -0.606066
v 0.550000 -0.162291 -0.606066
v 0.550000 0.373064 -0.070711
v 0.500000 -0.162291 -0.606066
v 0.500000 0.373064 -0.070711
v 0.500000 -0.197646 -0.500000
v 0.500000 -0.233002 -0.535355
v 0.500000 -0.162291 -0.535355
v 0.500000 -0.162291 -0.606066
v 0.500000 0.373064 -0.070711
v 0.500000 -0.095372 -0.468436
v 0.500000 0.373064 0.000000
v 0.500000 0.443775 -0.070711
v 0.500000 0.443775 0.070711
v 0.500000 0.373064 0.070711
v 0.500000 -0.095372 0.468436
v 0.500000 -0.162291 0.606066
v 0.500000 -0.162291 0.535355
v 0.500000 -0.233002 0.535355
v 0.500000 -0.197646 0.500000
v -0.550000 -0.162291 0.606066
v -0.550000 -0.233002 0.535355
v -0.550000 0.373064 0.070711
v -0.550000 0.302354 0.000000
v -0.550000 0.443775 0.070711
v -0.550000 0.443775 -0.070711
v -0.550000 0.373064 -0.070711
v -0.550000 -0.233002 -0.535355
v -0.550000 -0.162291 -0.606066
v -0.550000 -0.162291 -0.606066
v -0.500000 -0.162291 -0.606066
v -0.550000 0.373064 -0.070711
v -0.500000 0.373064 -0.070711
v -0.500000 -0.233002 -0.535355
v -0.500000 -0.162291 -0.606066
v -0.550000 -0.233002 -0.535355
v -0.550000 -0.162291 -0.606066
v -0.500000 -0.233002 0.535355
v -0.550000 -0.233002 0.535355
v -0.500000 -0.162291 0.606066
v -0.550000 -0.162291 0.606066
v -0.500000 -0.162291 0.606066
v -0.550000 -0.162291 0.606066
v -0.500000 0.373064 0.070711
v -0.550000 0.373064 0.070711
v -0.500000 0.443775 -0.070711
v -0.500000 0.373064 -0.070711
v -0.500000 0.443775 0.070711
v -0.500000 0.373064 0.000000
v -0.500000 0.373064 0.070711
v -0.500000 -0.095372 -0.468436
v -0.500000 -0.095372 0.468436
v -0.500000 -0.162291 0.606066
v -0.500000 -0.162291 0.535355
v -0.500000 -0.233002 0.535355
v -0.500000 -0.197646 0.500000
v -0.500000 -0.162291 -0.535355
v -0.500000 -0.162291 -0.606066
v -0.500000 -0.233002 -0.535355
v -0.500000 -0.197646 -0.500000
v -0.500000 0.373064 0.070711
v -0.550000 0.373064 0.070711
v -0.500000 0.443775 0.070711
v -0.550000 0.443775 0.070711
v -0.500000 0.443775 0.070711
v -0.550000 0.443775 0.070711
v -0.500000 0.443775 -0.070711
v -0.550000 0.443775 -0.070711
v -0.550000 0.373064 -0.070711
v -0.500000 0.373064 -0.070711
v -0.550000 0.443775 -0.070711
v -0.500000 0.443775 -0.070711
v 0.500000 0.373064 -0.070711
v 0.550000 0.373064 -0.070711
v 0.500000 0.443775 -0.070711
v 0.550000 0.443775 -0.070711
v 0.550000 0.443775 -0.070711
v 0.550000 0.443775 0.070711
v 0.500000 0.443775 -0.070711
v 0.500000 0.443775 0.070711
v 0.550000 0.373064 0.070711
v 0.500000 0.373064 0.070711
v 0.550000 0.443775 0.070711
v 0.500000 0.443775 0.070711
v 0.500000 -0.197646 0.500000
v 0.500000 -0.197646 0.400000
v -0.500000 -0.197646 0.500000
v 0.475000 -0.197646 0.400000
v 0.475000 -0.197646 -0.400000
v -0.475000 -0.197646 0.400000
v -0.500000 -0.197646 0.400000
v -0.475000 -0.197646 -0.400000
v -0.500000 -0.197646 -0.500000
v -0.500000 -0.197646 -0.400000
v 0.500000 -0.197646 -0.500000
v 0.500000 -0.197646 -0.400000
v -0.475000 -0.197646 -0.400000
v -0.475000 -0.097646 -0.400000
v -0.475000 -0.197646 0.400000
v -0.475000 0.302354 0.000000
v -0.475000 -0.097646 0.400000
v 0.475000 -0.097646 -0.400000
v 0.475000 -0.197646 -0.400000
v 0.475000 0.302354 0.000000
v 0.475000 -0.197646 0.400000
v 0.475000 -0.097646 0.400000
vn -0.0000 0.7071 -0.7071
vn -0.0000 0.7071 0.7071
vn -0.0000 -0.7071 0.7071
vn -0.0000 -0.7071 -0.7071
vn 1.0000 -0.0000 -0.0000
vn -1.0000 -0.0000 -0.0000
vn -0.0000 -0.0000 1.0000
vn -0.0000 -0.0000 -1.0000
vn -0.0000 1.0000 -0.0000
vn -0.0000 -1.0000 -0.0000
vt 0.218750 0.202952
vt 0.218750 0.056890
vt 0.218750 0.036024
vt 0.218750 0.025000
vt 0.218750 0.075000
vt 0.218750 0.175000
vt 0.593750 0.025000
vt 0.593750 0.056181
vt 0.593750 0.180904
vt 0.593750 0.225000
vt 0.593750 0.202952
vt 0.593750 0.036024
vt 0.593750 0.056890
vt 0.218750 0.275000
vt 0.218750 0.306181
vt 0.218750 0.430904
s 0
usemtl colormap.055
f 3/1/1 2/2/1 1/2/1
f 2/2/1 3/1/1 4/1/1
f 7/1/2 6/2/2 5/2/2
f 6/2/2 7/1/2 8/1/2
f 11/3/3 10/4/3 9/3/3
f 10/4/3 11/3/3 12/4/3
f 15/4/4 14/3/4 13/4/4
f 14/3/4 15/4/4 16/3/4
f 19/5/1 18/6/1 17/5/1
f 18/6/1 19/5/1 20/6/1
f 23/5/2 22/6/2 21/5/2
f 22/6/2 23/5/2 24/6/2
f 27/7/5 26/7/5 25/8/5
f 30/8/6 29/7/6 28/7/6
f 33/7/5 32/7/5 31/8/5
f 36/7/6 35/8/6 34/7/6
f 39/9/3 38/8/3 37/8/3
f 38/8/3 39/9/3 40/9/3
f 40/9/3 41/7/3 38/8/3
f 42/7/3 41/7/3 40/9/3
s 1
f 41/7/3 42/7/3 43/7/3
s 0
f 46/9/4 45/7/4 44/7/4
s 1
f 45/7/4 46/9/4 47/7/4
s 0
f 47/7/4 46/9/4 48/8/4
f 48/8/4 46/9/4 49/8/4
f 49/8/4 46/9/4 50/9/4
f 53/8/7 52/7/7 51/7/7
f 52/7/7 53/8/7 54/8/7
f 57/8/8 56/7/8 55/7/8
f 56/7/8 57/8/8 58/8/8
f 61/9/3 60/7/3 59/7/3
s 1
f 60/7/3 61/9/3 62/7/3
s 0
f 62/7/3 61/9/3 63/8/3
f 63/8/3 61/9/3 64/8/3
f 64/8/3 61/9/3 65/9/3
s 1
f 68/7/4 67/7/4 66/7/4
s 0
f 67/7/4 68/7/4 69/9/4
f 69/9/4 68/7/4 70/8/4
f 69/9/4 70/8/4 71/8/4
f 69/9/4 71/8/4 72/9/4
f 75/7/8 74/8/8 73/7/8
f 74/8/8 75/7/8 76/8/8
f 79/8/7 78/7/7 77/7/7
f 78/7/7 79/8/7 80/8/7
f 83/10/5 82/11/5 81/10/5
f 82/11/5 83/10/5 84/9/5
f 84/9/5 83/10/5 85/11/5
f 86/7/5 82/11/5 84/9/5
f 82/11/5 86/7/5 87/12/5
f 84/9/5 85/11/5 88/7/5
f 88/7/5 85/11/5 89/12/5
f 92/11/2 91/12/2 90/12/2
f 91/12/2 92/11/2 93/11/2
f 96/12/3 95/7/3 94/12/3
f 95/7/3 96/12/3 97/7/3
s 1
f 100/7/4 99/12/4 98/7/4
s 0
f 99/12/4 100/7/4 101/12/4
f 104/12/1 103/11/1 102/12/1
f 103/11/1 104/12/1 105/11/1
f 108/12/6 107/7/6 106/7/6
f 107/7/6 108/12/6 109/12/6
f 108/12/6 110/11/6 109/12/6
f 110/11/6 108/12/6 111/13/6
f 110/11/6 111/13/6 112/11/6
f 110/11/6 112/11/6 113/10/6
f 113/10/6 112/11/6 114/10/6
f 114/10/6 112/11/6 115/11/6
f 116/13/6 115/11/6 112/11/6
f 115/11/6 116/13/6 117/12/6
f 117/12/6 116/13/6 118/12/6
f 118/12/6 119/7/6 117/12/6
f 119/7/6 118/12/6 120/7/6
f 123/11/6 122/7/6 121/12/6
f 122/7/6 123/11/6 124/9/6
f 125/10/6 124/9/6 123/11/6
f 126/10/6 124/9/6 125/10/6
f 127/11/6 124/9/6 126/10/6
f 127/11/6 128/7/6 124/9/6
f 128/7/6 127/11/6 129/12/6
f 132/11/1 131/12/1 130/12/1
f 131/12/1 132/11/1 133/11/1
f 136/7/4 135/12/4 134/7/4
f 135/12/4 136/7/4 137/12/4
f 140/12/3 139/7/3 138/7/3
f 139/7/3 140/12/3 141/12/3
f 144/11/2 143/12/2 142/12/2
f 143/12/2 144/11/2 145/11/2
f 148/10/5 147/11/5 146/10/5
f 147/11/5 148/10/5 149/11/5
f 149/11/5 148/10/5 150/11/5
f 151/13/5 147/11/5 149/11/5
f 149/11/5 150/11/5 152/13/5
f 152/13/5 150/11/5 153/12/5
f 152/13/5 153/12/5 154/12/5
f 155/7/5 154/12/5 153/12/5
f 154/12/5 155/7/5 156/7/5
f 157/12/5 147/11/5 151/13/5
f 147/11/5 157/12/5 158/12/5
f 157/12/5 159/7/5 158/12/5
f 159/7/5 157/12/5 160/7/5
f 163/10/7 162/11/7 161/11/7
f 162/11/7 163/10/7 164/10/7
f 167/10/9 166/10/9 165/10/9
f 166/10/9 167/10/9 168/10/9
f 171/10/8 170/11/8 169/11/8
f 170/11/8 171/10/8 172/10/8
f 175/10/8 174/11/8 173/11/8
f 174/11/8 175/10/8 176/10/8
f 179/10/9 178/10/9 177/10/9
f 178/10/9 179/10/9 180/10/9
f 183/10/7 182/11/7 181/11/7
f 182/11/7 183/10/7 184/10/7
f 187/14/10 186/14/10 185/14/10
f 186/14/10 187/14/10 188/14/10
f 188/14/10 187/14/10 189/14/10
f 189/14/10 187/14/10 190/14/10
f 190/14/10 187/14/10 191/14/10
f 192/14/10 189/14/10 190/14/10
f 193/14/10 189/14/10 192/14/10
f 193/14/10 192/14/10 194/14/10
f 195/14/10 189/14/10 193/14/10
f 189/14/10 195/14/10 196/14/10
f 199/14/6 198/15/6 197/14/6
f 198/15/6 199/14/6 200/16/6
f 200/16/6 199/14/6 201/15/6
f 204/16/5 203/14/5 202/15/5
f 203/14/5 204/16/5 205/14/5
f 205/14/5 204/16/5 206/15/5
