# Blender 5.1.0
# www.blender.org
mtllib roof_point.mtl
o roof-point-col
v -0.137500 0.341867 0.137500
v -0.454688 -0.095633 0.498437
v -0.498437 -0.095633 0.454688
v 0.454688 -0.095633 -0.498437
v 0.498437 -0.095633 -0.454688
v 0.137500 0.341867 -0.137500
v 0.498437 -0.095633 0.454688
v 0.454688 -0.095633 0.498437
v 0.137500 0.341867 0.137500
v -0.454688 -0.095633 -0.498437
v -0.137500 0.341867 -0.137500
v -0.498437 -0.095633 -0.454688
v 0.137500 0.341867 0.137500
v -0.137500 0.341867 0.137500
v 0.068750 0.291867 0.068750
v -0.068750 0.291867 0.068750
v 0.137500 0.341867 -0.137500
v 0.068750 0.291867 -0.068750
v -0.137500 0.341867 -0.137500
v -0.068750 0.291867 -0.068750
v 0.068750 0.291867 -0.068750
v 0.068750 0.291867 0.068750
v -0.068750 0.291867 -0.068750
v -0.068750 0.291867 0.068750
v -0.068750 0.291867 -0.068750
v -0.068750 0.291867 0.068750
v -0.137500 0.341867 -0.137500
v -0.137500 0.341867 0.137500
v -0.498437 -0.095633 -0.454688
v -0.137500 0.341867 -0.137500
v -0.498437 -0.095633 0.454688
v -0.137500 0.341867 0.137500
v 0.498437 -0.095633 -0.454688
v 0.498437 -0.095633 0.454688
v 0.137500 0.341867 -0.137500
v 0.137500 0.341867 0.137500
v 0.137500 0.341867 -0.137500
v 0.137500 0.341867 0.137500
v 0.068750 0.291867 -0.068750
v 0.068750 0.291867 0.068750
v 0.454688 -0.095633 0.498437
v -0.454688 -0.095633 0.498437
v 0.137500 0.341867 0.137500
v -0.137500 0.341867 0.137500
v 0.454688 -0.095633 -0.498437
v 0.137500 0.341867 -0.137500
v -0.454688 -0.095633 -0.498437
v -0.137500 0.341867 -0.137500
v -0.454688 -0.095633 0.498437
v -0.500000 -0.158133 0.550000
v -0.498437 -0.095633 0.454688
v -0.550000 -0.158133 0.500000
v -0.500000 -0.158133 -0.550000
v 0.500000 -0.158133 -0.550000
v -0.454688 -0.095633 -0.498437
v 0.454688 -0.095633 -0.498437
v 0.500000 -0.158133 0.550000
v -0.500000 -0.158133 0.550000
v 0.454688 -0.095633 0.498437
v -0.454688 -0.095633 0.498437
v 0.550000 -0.158133 -0.500000
v 0.550000 -0.158133 0.500000
v 0.498437 -0.095633 -0.454688
v 0.498437 -0.095633 0.454688
v -0.454688 -0.095633 -0.498437
v -0.498437 -0.095633 -0.454688
v -0.500000 -0.158133 -0.550000
v -0.550000 -0.158133 -0.500000
v 0.550000 -0.158133 -0.500000
v 0.498437 -0.095633 -0.454688
v 0.500000 -0.158133 -0.550000
v 0.454688 -0.095633 -0.498437
v 0.550000 -0.158133 0.500000
v 0.550000 -0.158133 -0.500000
v 0.500000 -0.158133 0.550000
v 0.500000 -0.158133 -0.550000
v -0.500000 -0.158133 0.550000
v -0.500000 -0.158133 -0.550000
v -0.550000 -0.158133 0.500000
v -0.550000 -0.158133 -0.500000
v 0.550000 -0.158133 0.500000
v 0.500000 -0.158133 0.550000
v 0.498437 -0.095633 0.454688
v 0.454688 -0.095633 0.498437
v -0.550000 -0.158133 -0.500000
v -0.498437 -0.095633 -0.454688
v -0.550000 -0.158133 0.500000
v -0.498437 -0.095633 0.454688
vn -0.6225 0.7258 0.2927
vn -0.2927 0.7258 0.6225
vn -0.4606 0.7587 0.4606
vn 0.4606 0.7587 -0.4606
vn 0.6225 0.7258 -0.2927
vn 0.2927 0.7258 -0.6225
vn 0.4606 0.7587 0.4606
vn 0.2927 0.7258 0.6225
vn 0.6225 0.7258 0.2927
vn -0.6225 0.7258 -0.2927
vn -0.4606 0.7587 -0.4606
vn -0.2927 0.7258 -0.6225
vn -0.3233 0.8893 -0.3234
vn 0.3233 0.8893 -0.3234
vn -0.3234 0.8893 -0.3234
vn 0.3234 0.8893 -0.3234
vn 0.3234 0.8893 0.3234
vn -0.3234 0.8893 0.3234
vn -0.3233 0.8893 0.3234
vn 0.3233 0.8893 0.3234
vn -0.0000 1.0000 -0.0000
vn 0.3234 0.8893 0.3233
vn 0.3234 0.8893 -0.3233
vn -0.6226 0.7258 0.2926
vn -0.6226 0.7258 -0.2926
vn 0.6226 0.7258 0.2926
vn 0.6226 0.7258 -0.2926
vn -0.3234 0.8893 0.3233
vn -0.3234 0.8893 -0.3233
vn -0.2926 0.7258 0.6226
vn 0.2926 0.7258 0.6226
vn -0.2926 0.7258 -0.6226
vn 0.2926 0.7258 -0.6226
vn -0.6697 0.7101 0.2174
vn -0.2174 0.7101 0.6697
vn -0.2174 0.7101 -0.6697
vn 0.2173 0.7101 -0.6697
vn 0.2174 0.7101 0.6697
vn -0.2173 0.7101 0.6697
vn 0.6697 0.7101 -0.2174
vn 0.6697 0.7101 0.2173
vn -0.6697 0.7101 -0.2174
vn 0.2174 0.7101 -0.6697
vn -0.0000 -1.0000 -0.0000
vn 0.6697 0.7101 0.2174
vn -0.6697 0.7101 -0.2173
vt 0.218750 0.025000
vt 0.218750 0.225000
vt 0.218750 0.202143
vt 0.218750 0.175000
vt 0.218750 0.075000
s 1
usemtl colormap.073
f 3/1/1 2/1/2 1/2/3
f 6/2/4 5/1/5 4/1/6
f 9/2/7 8/1/8 7/1/9
f 12/1/10 11/2/11 10/1/12
f 15/3/13 14/2/14 13/2/15
f 14/2/14 15/3/13 16/3/16
f 19/2/17 18/3/18 17/2/19
f 18/3/18 19/2/17 20/3/20
s 0
f 23/3/21 22/3/21 21/3/21
f 22/3/21 23/3/21 24/3/21
s 1
f 27/2/22 26/3/23 25/3/17
f 26/3/23 27/2/22 28/2/16
f 31/1/24 30/2/11 29/1/25
f 30/2/11 31/1/24 32/2/3
f 35/2/4 34/1/26 33/1/27
f 34/1/26 35/2/4 36/2/7
f 39/3/28 38/2/29 37/2/18
f 38/2/29 39/3/28 40/3/15
f 43/2/7 42/1/30 41/1/31
f 42/1/30 43/2/7 44/2/3
f 47/1/32 46/2/4 45/1/33
f 46/2/4 47/1/32 48/2/11
f 51/4/34 50/5/2 49/4/35
f 50/5/2 51/4/34 52/5/1
f 55/4/36 54/5/33 53/5/32
f 54/5/33 55/4/36 56/4/37
f 59/4/38 58/5/30 57/5/31
f 58/5/30 59/4/38 60/4/39
f 63/4/40 62/5/26 61/5/27
f 62/5/26 63/4/40 64/4/41
f 67/5/12 66/4/42 65/4/36
f 66/4/42 67/5/12 68/5/10
f 71/5/6 70/4/40 69/5/5
f 70/4/40 71/5/6 72/4/43
s 0
f 75/5/44 74/5/44 73/5/44
f 74/5/44 75/5/44 76/5/44
f 76/5/44 75/5/44 77/5/44
f 76/5/44 77/5/44 78/5/44
f 78/5/44 77/5/44 79/5/44
f 78/5/44 79/5/44 80/5/44
s 1
f 83/4/45 82/5/8 81/5/9
f 82/5/8 83/4/45 84/4/38
f 87/5/24 86/4/46 85/5/25
f 86/4/46 87/5/24 88/4/34
