# Blender 5.1.0
# www.blender.org
mtllib roof_high_gable_top.mtl
o roof-high-gable-top-col
v 0.500000 -0.223594 0.500000
v 0.500000 -0.223594 0.400000
v -0.500000 -0.223594 0.500000
v 0.475000 -0.223594 0.400000
v 0.475000 -0.223594 -0.400000
v -0.475000 -0.223594 0.400000
v -0.500000 -0.223594 0.400000
v -0.475000 -0.223594 -0.400000
v -0.500000 -0.223594 -0.500000
v -0.500000 -0.223594 -0.400000
v 0.500000 -0.223594 -0.500000
v 0.500000 -0.223594 -0.400000
v 0.475000 -0.123594 -0.400000
v 0.475000 -0.223594 -0.400000
v 0.475000 0.276406 0.000000
v 0.475000 -0.223594 0.400000
v 0.475000 -0.123594 0.400000
v -0.475000 -0.223594 -0.400000
v -0.475000 -0.123594 -0.400000
v -0.475000 -0.223594 0.400000
v -0.475000 0.276406 0.000000
v -0.475000 -0.123594 0.400000
v 0.500000 -0.123594 0.400000
v 0.500000 -0.223594 0.400000
v 0.500000 -0.223594 0.500000
v -0.500000 -0.223594 0.400000
v -0.500000 -0.123594 0.400000
v -0.500000 -0.223594 0.500000
v -0.500000 -0.223594 -0.400000
v -0.500000 -0.223594 -0.500000
v -0.500000 -0.123594 -0.400000
v 0.500000 -0.123594 -0.400000
v 0.500000 -0.223594 -0.500000
v 0.500000 -0.223594 -0.400000
v -0.500000 -0.223594 -0.400000
v -0.500000 -0.123594 -0.400000
v -0.475000 -0.223594 -0.400000
v -0.475000 -0.123594 -0.400000
v -0.500000 -0.223594 0.400000
v -0.475000 -0.223594 0.400000
v -0.500000 -0.123594 0.400000
v -0.475000 -0.123594 0.400000
v 0.500000 -0.223594 0.400000
v 0.500000 -0.123594 0.400000
v 0.475000 -0.223594 0.400000
v 0.475000 -0.123594 0.400000
v 0.500000 -0.223594 -0.400000
v 0.475000 -0.223594 -0.400000
v 0.500000 -0.123594 -0.400000
v 0.475000 -0.123594 -0.400000
v 0.500000 0.276406 0.000000
v 0.475000 0.276406 0.000000
v 0.500000 -0.123594 0.400000
v 0.475000 -0.123594 0.400000
v 0.500000 -0.082883 -0.500000
v 0.500000 0.417117 0.000000
v -0.500000 -0.082883 -0.500000
v -0.500000 0.417117 0.000000
v -0.475000 -0.123594 0.400000
v -0.475000 0.276406 0.000000
v -0.500000 -0.123594 0.400000
v -0.500000 0.276406 0.000000
v -0.500000 -0.082883 -0.500000
v -0.500000 0.417117 0.000000
v -0.500000 -0.223594 -0.500000
v -0.500000 -0.123594 -0.400000
v -0.500000 0.276406 0.000000
v -0.500000 -0.082883 0.500000
v -0.500000 -0.123594 0.400000
v -0.500000 -0.223594 0.500000
v 0.500000 -0.082883 -0.500000
v 0.500000 -0.223594 -0.500000
v 0.500000 0.417117 0.000000
v 0.500000 -0.123594 -0.400000
v 0.500000 0.276406 0.000000
v 0.500000 -0.082883 0.500000
v 0.500000 -0.123594 0.400000
v 0.500000 -0.223594 0.500000
v -0.500000 -0.123594 -0.400000
v -0.500000 0.276406 0.000000
v -0.475000 -0.123594 -0.400000
v -0.475000 0.276406 0.000000
v -0.500000 -0.223594 -0.500000
v 0.500000 -0.223594 -0.500000
v -0.500000 -0.082883 -0.500000
v 0.500000 -0.082883 -0.500000
v 0.500000 -0.123594 -0.400000
v 0.475000 -0.123594 -0.400000
v 0.500000 0.276406 0.000000
v 0.475000 0.276406 0.000000
v 0.500000 -0.223594 0.500000
v -0.500000 -0.223594 0.500000
v 0.500000 -0.082883 0.500000
v -0.500000 -0.082883 0.500000
v 0.500000 -0.082883 0.500000
v -0.500000 -0.082883 0.500000
v 0.500000 0.417117 0.000000
v -0.500000 0.417117 0.000000
vn -0.0000 -1.0000 -0.0000
vn 1.0000 -0.0000 -0.0000
vn -1.0000 -0.0000 -0.0000
vn -0.0000 -0.0000 1.0000
vn -0.0000 -0.0000 -1.0000
vn -0.0000 -0.7071 -0.7071
vn -0.0000 0.3827 -0.9239
vn -0.0000 0.7071 -0.7071
vn -0.0000 -0.7071 0.7071
vn -0.0000 0.3827 0.9239
vn -0.0000 0.7071 0.7071
vt 0.718750 0.025000
vt 0.718750 0.225000
vt 0.718750 0.065000
vt 0.593750 0.025000
vt 0.593750 0.065000
vt 0.093750 0.056215
vt 0.093750 0.181077
vt 0.093750 0.068923
vt 0.093750 0.225000
vt 0.093750 0.025000
s 0
usemtl colormap.065
f 3/1/1 2/1/1 1/1/1
f 2/1/1 3/1/1 4/1/1
f 4/1/1 3/1/1 5/1/1
f 5/1/1 3/1/1 6/1/1
f 6/1/1 3/1/1 7/1/1
f 8/1/1 5/1/1 6/1/1
f 9/1/1 5/1/1 8/1/1
f 9/1/1 8/1/1 10/1/1
f 11/1/1 5/1/1 9/1/1
f 5/1/1 11/1/1 12/1/1
f 15/2/2 14/1/2 13/3/2
f 14/1/2 15/2/2 16/1/2
f 16/1/2 15/2/2 17/3/2
f 20/1/3 19/3/3 18/1/3
f 19/3/3 20/1/3 21/2/3
f 21/2/3 20/1/3 22/3/3
f 25/4/2 24/4/2 23/5/2
f 28/4/3 27/5/3 26/4/3
f 31/5/3 30/4/3 29/4/3
f 34/4/2 33/4/2 32/5/2
f 37/4/4 36/5/4 35/4/4
f 36/5/4 37/4/4 38/5/4
f 41/5/5 40/4/5 39/4/5
f 40/4/5 41/5/5 42/5/5
f 45/4/5 44/5/5 43/4/5
f 44/5/5 45/4/5 46/5/5
f 49/5/4 48/4/4 47/4/4
f 48/4/4 49/5/4 50/5/4
f 53/6/6 52/7/6 51/7/6
f 52/7/6 53/6/6 54/6/6
s 1
f 57/8/7 56/9/8 55/8/7
f 56/9/8 57/8/7 58/9/8
s 0
f 61/6/6 60/7/6 59/6/6
f 60/7/6 61/6/6 62/7/6
f 65/10/3 64/9/3 63/8/3
f 64/9/3 65/10/3 66/6/3
f 64/9/3 66/6/3 67/7/3
f 64/9/3 67/7/3 68/8/3
f 68/8/3 67/7/3 69/6/3
f 68/8/3 69/6/3 70/10/3
f 73/9/2 72/10/2 71/8/2
f 72/10/2 73/9/2 74/6/2
f 74/6/2 73/9/2 75/7/2
f 75/7/2 73/9/2 76/8/2
f 75/7/2 76/8/2 77/6/2
f 77/6/2 76/8/2 78/10/2
f 81/6/9 80/7/9 79/6/9
f 80/7/9 81/6/9 82/7/9
s 1
f 85/8/7 84/10/5 83/10/5
f 84/10/5 85/8/7 86/8/7
s 0
f 89/7/9 88/6/9 87/6/9
f 88/6/9 89/7/9 90/7/9
s 1
f 93/8/10 92/10/4 91/10/4
f 92/10/4 93/8/10 94/8/10
f 97/9/11 96/8/10 95/8/10
f 96/8/10 97/9/11 98/9/11
