# Blender 5.1.0
# www.blender.org
mtllib stairs_wide_stone_handrail.mtl
o stairs-wide-stone-handrail-col
v -0.143334 -0.060464 -0.500000
v -0.143334 -0.022964 -0.500000
v -0.143334 -0.060464 0.500000
v -0.143334 -0.022964 0.500000
v -0.373334 -0.310464 0.500000
v -0.373334 -0.310464 -0.500000
v -0.393334 -0.310464 0.500000
v -0.393334 -0.310464 -0.500000
v 0.251666 0.227036 -0.500000
v 0.251666 0.314536 -0.500000
v 0.251666 0.227036 0.500000
v 0.251666 0.314536 0.500000
v 0.376666 0.439536 0.500000
v 0.376666 0.439536 -0.500000
v 0.356666 0.439536 0.500000
v 0.356666 0.439536 -0.500000
v 0.376666 0.352036 -0.500000
v 0.376666 0.439536 -0.500000
v 0.376666 0.352036 0.500000
v 0.376666 0.439536 0.500000
v 0.356666 0.439536 -0.500000
v 0.356666 0.477036 -0.500000
v 0.356666 0.439536 0.500000
v 0.356666 0.477036 0.500000
v -0.248334 -0.272964 -0.500000
v -0.248334 -0.185464 -0.500000
v -0.248334 -0.272964 0.500000
v -0.248334 -0.185464 0.500000
v -0.423334 -0.522964 0.500000
v -0.423334 -0.522964 -0.500000
v -0.498334 -0.522964 0.500000
v -0.498334 -0.522964 -0.500000
v -0.123334 -0.060464 0.500000
v -0.123334 -0.060464 -0.500000
v -0.143334 -0.060464 0.500000
v -0.143334 -0.060464 -0.500000
v -0.018334 0.064536 -0.500000
v -0.018334 0.102036 -0.500000
v -0.018334 0.064536 0.500000
v -0.018334 0.102036 0.500000
v -0.248334 -0.272964 0.500000
v -0.393334 -0.272964 0.500000
v -0.248334 -0.272964 -0.500000
v -0.393334 -0.272964 -0.500000
v 0.126666 0.102036 0.500000
v -0.018334 0.102036 0.500000
v 0.126666 0.102036 -0.500000
v -0.018334 0.102036 -0.500000
v -0.393334 -0.310464 -0.500000
v -0.393334 -0.272964 -0.500000
v -0.393334 -0.310464 0.500000
v -0.393334 -0.272964 0.500000
v 0.001666 -0.022964 -0.500000
v 0.001666 0.064536 -0.500000
v 0.001666 -0.022964 0.500000
v 0.001666 0.064536 0.500000
v -0.373334 -0.397964 0.500000
v -0.518334 -0.397964 0.500000
v -0.373334 -0.397964 -0.500000
v -0.518334 -0.397964 -0.500000
v 0.501666 0.477036 -0.500000
v 0.501666 0.402036 -0.500000
v 0.501666 0.477036 0.500000
v 0.501666 0.402036 0.500000
v -0.123334 -0.147964 -0.500000
v -0.123334 -0.060464 -0.500000
v -0.123334 -0.147964 0.500000
v -0.123334 -0.060464 0.500000
v 0.126666 0.102036 -0.500000
v 0.126666 0.189536 -0.500000
v 0.126666 0.102036 0.500000
v 0.126666 0.189536 0.500000
v 0.251666 0.314536 0.500000
v 0.251666 0.314536 -0.500000
v 0.231666 0.314536 0.500000
v 0.231666 0.314536 -0.500000
v 0.251666 0.227036 0.500000
v 0.106666 0.227036 0.500000
v 0.251666 0.227036 -0.500000
v 0.106666 0.227036 -0.500000
v 0.231666 0.314536 -0.500000
v 0.231666 0.352036 -0.500000
v 0.231666 0.314536 0.500000
v 0.231666 0.352036 0.500000
v -0.248334 -0.185464 0.500000
v -0.248334 -0.185464 -0.500000
v -0.268334 -0.185464 0.500000
v -0.268334 -0.185464 -0.500000
v -0.518334 -0.435464 -0.500000
v -0.518334 -0.397964 -0.500000
v -0.518334 -0.435464 0.500000
v -0.518334 -0.397964 0.500000
v -0.373334 -0.397964 -0.500000
v -0.373334 -0.310464 -0.500000
v -0.373334 -0.397964 0.500000
v -0.373334 -0.310464 0.500000
v 0.376666 0.352036 0.500000
v 0.231666 0.352036 0.500000
v 0.376666 0.352036 -0.500000
v 0.231666 0.352036 -0.500000
v -0.498334 -0.522964 -0.500000
v -0.498334 -0.435464 -0.500000
v -0.498334 -0.522964 0.500000
v -0.498334 -0.435464 0.500000
v 0.001666 -0.022964 0.500000
v -0.143334 -0.022964 0.500000
v 0.001666 -0.022964 -0.500000
v -0.143334 -0.022964 -0.500000
v 0.001666 0.064536 0.500000
v 0.001666 0.064536 -0.500000
v -0.018334 0.064536 0.500000
v -0.018334 0.064536 -0.500000
v 0.501666 0.477036 0.500000
v 0.356666 0.477036 0.500000
v 0.501666 0.477036 -0.500000
v 0.356666 0.477036 -0.500000
v -0.518334 -0.435464 -0.500000
v -0.498334 -0.435464 -0.500000
v -0.518334 -0.397964 -0.500000
v -0.373334 -0.397964 -0.500000
v -0.423334 -0.522964 -0.500000
v -0.498334 -0.522964 -0.500000
v 0.501666 0.402036 -0.500000
v -0.248334 -0.272964 -0.500000
v -0.373334 -0.310464 -0.500000
v -0.393334 -0.272964 -0.500000
v -0.393334 -0.310464 -0.500000
v -0.123334 -0.147964 -0.500000
v -0.248334 -0.185464 -0.500000
v -0.268334 -0.147964 -0.500000
v -0.268334 -0.185464 -0.500000
v 0.001666 -0.022964 -0.500000
v -0.123334 -0.060464 -0.500000
v -0.143334 -0.022964 -0.500000
v -0.143334 -0.060464 -0.500000
v 0.126666 0.102036 -0.500000
v 0.001666 0.064536 -0.500000
v -0.018334 0.102036 -0.500000
v -0.018334 0.064536 -0.500000
v 0.251666 0.227036 -0.500000
v 0.126666 0.189536 -0.500000
v 0.106666 0.227036 -0.500000
v 0.106666 0.189536 -0.500000
v 0.376666 0.352036 -0.500000
v 0.251666 0.314536 -0.500000
v 0.231666 0.352036 -0.500000
v 0.231666 0.314536 -0.500000
v 0.376666 0.439536 -0.500000
v 0.501666 0.477036 -0.500000
v 0.356666 0.477036 -0.500000
v 0.356666 0.439536 -0.500000
v -0.498334 -0.435464 0.500000
v -0.498334 -0.435464 -0.500000
v -0.518334 -0.435464 0.500000
v -0.518334 -0.435464 -0.500000
v -0.498334 -0.522964 0.500000
v -0.498334 -0.435464 0.500000
v -0.423334 -0.522964 0.500000
v -0.373334 -0.397964 0.500000
v 0.501666 0.402036 0.500000
v -0.248334 -0.272964 0.500000
v -0.518334 -0.397964 0.500000
v -0.518334 -0.435464 0.500000
v -0.373334 -0.310464 0.500000
v -0.393334 -0.272964 0.500000
v -0.393334 -0.310464 0.500000
v -0.123334 -0.147964 0.500000
v -0.248334 -0.185464 0.500000
v -0.268334 -0.147964 0.500000
v -0.268334 -0.185464 0.500000
v 0.001666 -0.022964 0.500000
v -0.123334 -0.060464 0.500000
v -0.143334 -0.022964 0.500000
v -0.143334 -0.060464 0.500000
v 0.126666 0.102036 0.500000
v 0.001666 0.064536 0.500000
v -0.018334 0.102036 0.500000
v -0.018334 0.064536 0.500000
v 0.251666 0.227036 0.500000
v 0.126666 0.189536 0.500000
v 0.106666 0.227036 0.500000
v 0.106666 0.189536 0.500000
v 0.376666 0.352036 0.500000
v 0.251666 0.314536 0.500000
v 0.231666 0.352036 0.500000
v 0.231666 0.314536 0.500000
v 0.376666 0.439536 0.500000
v 0.501666 0.477036 0.500000
v 0.356666 0.477036 0.500000
v 0.356666 0.439536 0.500000
v -0.268334 -0.185464 -0.500000
v -0.268334 -0.147964 -0.500000
v -0.268334 -0.185464 0.500000
v -0.268334 -0.147964 0.500000
v -0.423334 -0.522964 -0.500000
v -0.423334 -0.522964 0.500000
v 0.501666 0.402036 -0.500000
v 0.501666 0.402036 0.500000
v -0.123334 -0.147964 0.500000
v -0.268334 -0.147964 0.500000
v -0.123334 -0.147964 -0.500000
v -0.268334 -0.147964 -0.500000
v 0.126666 0.189536 0.500000
v 0.126666 0.189536 -0.500000
v 0.106666 0.189536 0.500000
v 0.106666 0.189536 -0.500000
v 0.106666 0.189536 -0.500000
v 0.106666 0.227036 -0.500000
v 0.106666 0.189536 0.500000
v 0.106666 0.227036 0.500000
v -0.090834 -0.022964 -0.440000
v -0.090834 0.249536 -0.440000
v -0.090834 -0.022964 -0.420000
v -0.090834 0.249536 -0.420000
v 0.501666 0.922036 -0.450000
v 0.501666 0.842036 -0.450000
v 0.501666 0.922036 -0.410000
v 0.501666 0.842036 -0.410000
v -0.340834 -0.272964 -0.440000
v -0.300834 -0.272964 -0.440000
v -0.340834 -0.000464 -0.440000
v -0.300834 0.039536 -0.440000
v 0.159166 0.227036 -0.440000
v 0.199166 0.227036 -0.440000
v 0.159166 0.499536 -0.440000
v 0.199166 0.539536 -0.440000
v -0.300834 -0.272964 -0.420000
v -0.340834 -0.272964 -0.420000
v -0.300834 0.039536 -0.420000
v -0.340834 -0.000464 -0.420000
v 0.199166 0.227036 -0.420000
v 0.159166 0.227036 -0.420000
v 0.199166 0.539536 -0.420000
v 0.159166 0.499536 -0.420000
v -0.518334 -0.177964 -0.450000
v -0.518334 -0.097964 -0.450000
v -0.518334 -0.177964 -0.410000
v -0.518334 -0.097964 -0.410000
v 0.409166 0.477036 -0.440000
v 0.449166 0.477036 -0.440000
v 0.409166 0.749536 -0.440000
v 0.449166 0.789536 -0.440000
v 0.449166 0.789536 -0.440000
v 0.449166 0.477036 -0.440000
v 0.449166 0.789536 -0.420000
v 0.449166 0.477036 -0.420000
v -0.518334 -0.177964 -0.410000
v -0.518334 -0.097964 -0.410000
v 0.501666 0.842036 -0.410000
v 0.501666 0.922036 -0.410000
v 0.199166 0.539536 -0.440000
v 0.199166 0.227036 -0.440000
v 0.199166 0.539536 -0.420000
v 0.199166 0.227036 -0.420000
v 0.159166 0.227036 -0.440000
v 0.159166 0.499536 -0.440000
v 0.159166 0.227036 -0.420000
v 0.159166 0.499536 -0.420000
v -0.518334 -0.177964 -0.450000
v 0.501666 0.842036 -0.450000
v -0.518334 -0.097964 -0.450000
v 0.501666 0.922036 -0.450000
v -0.340834 -0.272964 -0.440000
v -0.340834 -0.000464 -0.440000
v -0.340834 -0.272964 -0.420000
v -0.340834 -0.000464 -0.420000
v 0.449166 0.477036 -0.420000
v 0.409166 0.477036 -0.420000
v 0.449166 0.789536 -0.420000
v 0.409166 0.749536 -0.420000
v -0.090834 -0.022964 -0.440000
v -0.050834 -0.022964 -0.440000
v -0.090834 0.249536 -0.440000
v -0.050834 0.289536 -0.440000
v -0.300834 0.039536 -0.440000
v -0.300834 -0.272964 -0.440000
v -0.300834 0.039536 -0.420000
v -0.300834 -0.272964 -0.420000
v 0.409166 0.477036 -0.440000
v 0.409166 0.749536 -0.440000
v 0.409166 0.477036 -0.420000
v 0.409166 0.749536 -0.420000
v -0.518334 -0.097964 -0.450000
v 0.501666 0.922036 -0.450000
v -0.518334 -0.097964 -0.410000
v 0.501666 0.922036 -0.410000
v -0.050834 -0.022964 -0.420000
v -0.090834 -0.022964 -0.420000
v -0.050834 0.289536 -0.420000
v -0.090834 0.249536 -0.420000
v -0.050834 0.289536 -0.440000
v -0.050834 -0.022964 -0.440000
v -0.050834 0.289536 -0.420000
v -0.050834 -0.022964 -0.420000
v -0.518334 -0.177964 0.410000
v 0.501666 0.842036 0.410000
v -0.518334 -0.097964 0.410000
v 0.501666 0.922036 0.410000
v -0.518334 -0.177964 0.450000
v -0.518334 -0.097964 0.450000
v 0.501666 0.842036 0.450000
v 0.501666 0.922036 0.450000
v -0.300834 -0.272964 0.440000
v -0.340834 -0.272964 0.440000
v -0.300834 0.039536 0.440000
v -0.340834 -0.000464 0.440000
v 0.199166 0.227036 0.440000
v 0.159166 0.227036 0.440000
v 0.199166 0.539536 0.440000
v 0.159166 0.499536 0.440000
v 0.501666 0.922036 0.410000
v 0.501666 0.842036 0.410000
v 0.501666 0.922036 0.450000
v 0.501666 0.842036 0.450000
v 0.159166 0.227036 0.420000
v 0.199166 0.227036 0.420000
v 0.159166 0.499536 0.420000
v 0.199166 0.539536 0.420000
v -0.340834 -0.272964 0.420000
v -0.300834 -0.272964 0.420000
v -0.340834 -0.000464 0.420000
v -0.300834 0.039536 0.420000
v -0.340834 -0.272964 0.420000
v -0.340834 -0.000464 0.420000
v -0.340834 -0.272964 0.440000
v -0.340834 -0.000464 0.440000
v 0.409166 0.477036 0.420000
v 0.449166 0.477036 0.420000
v 0.409166 0.749536 0.420000
v 0.449166 0.789536 0.420000
v -0.518334 -0.097964 0.410000
v 0.501666 0.922036 0.410000
v -0.518334 -0.097964 0.450000
v 0.501666 0.922036 0.450000
v -0.050834 -0.022964 0.440000
v -0.090834 -0.022964 0.440000
v -0.050834 0.289536 0.440000
v -0.090834 0.249536 0.440000
v -0.050834 0.289536 0.420000
v -0.050834 -0.022964 0.420000
v -0.050834 0.289536 0.440000
v -0.050834 -0.022964 0.440000
v 0.409166 0.477036 0.420000
v 0.409166 0.749536 0.420000
v 0.409166 0.477036 0.440000
v 0.409166 0.749536 0.440000
v -0.518334 -0.177964 0.410000
v -0.518334 -0.097964 0.410000
v -0.518334 -0.177964 0.450000
v -0.518334 -0.097964 0.450000
v -0.090834 -0.022964 0.420000
v -0.090834 0.249536 0.420000
v -0.090834 -0.022964 0.440000
v -0.090834 0.249536 0.440000
v 0.449166 0.477036 0.440000
v 0.409166 0.477036 0.440000
v 0.449166 0.789536 0.440000
v 0.409166 0.749536 0.440000
v 0.159166 0.227036 0.420000
v 0.159166 0.499536 0.420000
v 0.159166 0.227036 0.440000
v 0.159166 0.499536 0.440000
v -0.300834 0.039536 0.420000
v -0.300834 -0.272964 0.420000
v -0.300834 0.039536 0.440000
v -0.300834 -0.272964 0.440000
v -0.090834 -0.022964 0.420000
v -0.050834 -0.022964 0.420000
v -0.090834 0.249536 0.420000
v -0.050834 0.289536 0.420000
v 0.199166 0.539536 0.420000
v 0.199166 0.227036 0.420000
v 0.199166 0.539536 0.440000
v 0.199166 0.227036 0.440000
v 0.449166 0.789536 0.420000
v 0.449166 0.477036 0.420000
v 0.449166 0.789536 0.440000
v 0.449166 0.477036 0.440000
v -0.518334 -0.177964 0.450000
v -0.340834 -0.000464 0.420000
v -0.518334 -0.177964 0.410000
v 0.501666 0.842036 0.410000
v -0.340834 -0.000464 0.440000
v 0.501666 0.842036 0.450000
v -0.300834 0.039536 0.440000
v 0.449166 0.789536 0.420000
v 0.449166 0.789536 0.440000
v 0.409166 0.749536 0.420000
v 0.409166 0.749536 0.440000
v 0.199166 0.539536 0.420000
v 0.199166 0.539536 0.440000
v 0.159166 0.499536 0.420000
v 0.159166 0.499536 0.440000
v -0.090834 0.249536 0.440000
v -0.300834 0.039536 0.420000
v -0.050834 0.289536 0.440000
v -0.090834 0.249536 0.420000
v -0.050834 0.289536 0.420000
v -0.518334 -0.177964 -0.410000
v -0.340834 -0.000464 -0.440000
v -0.518334 -0.177964 -0.450000
v 0.501666 0.842036 -0.450000
v -0.340834 -0.000464 -0.420000
v 0.501666 0.842036 -0.410000
v -0.300834 0.039536 -0.420000
v 0.449166 0.789536 -0.440000
v 0.449166 0.789536 -0.420000
v 0.409166 0.749536 -0.440000
v 0.409166 0.749536 -0.420000
v 0.199166 0.539536 -0.440000
v 0.199166 0.539536 -0.420000
v 0.159166 0.499536 -0.440000
v 0.159166 0.499536 -0.420000
v -0.090834 0.249536 -0.420000
v -0.300834 0.039536 -0.440000
v -0.050834 0.289536 -0.420000
v -0.090834 0.249536 -0.440000
v -0.050834 0.289536 -0.440000
vn -0.7071 -0.7071 -0.0000
vn -1.0000 -0.0000 -0.0000
vn -0.0000 -1.0000 -0.0000
vn -0.0000 1.0000 -0.0000
vn 1.0000 -0.0000 -0.0000
vn -0.0000 -0.0000 -1.0000
vn -0.0000 -0.0000 1.0000
vn 0.7071 -0.7071 -0.0000
vn -0.7071 0.7071 -0.0000
vn 0.7071 -0.7071 0.0001
vn 0.6861 -0.7135 -0.1420
vn 0.6975 -0.7165 0.0030
vn 0.7009 -0.7128 0.0257
vn 0.8533 -0.3367 -0.3982
vn 0.6679 -0.7359 -0.1107
vn 0.7070 -0.7072 -0.0000
vn 0.6276 -0.7523 0.2005
vn 0.7051 -0.7080 0.0395
vn 0.8121 -0.4932 0.3118
vn 0.6974 -0.7162 0.0263
vn 0.6020 -0.3734 0.7058
vn 0.5907 -0.6986 -0.4038
vt 0.218750 0.367500
vt 0.218750 0.375000
vt 0.218750 0.317500
vt 0.218750 0.425000
vt 0.218750 0.442500
vt 0.218750 0.467500
vt 0.218750 0.450000
vt 0.218750 0.475000
vt 0.218750 0.325000
vt 0.218750 0.342500
vt 0.218750 0.275000
vt 0.218750 0.392500
vt 0.218750 0.400000
vt 0.218750 0.300000
vt 0.218750 0.460000
vt 0.218750 0.350000
vt 0.218750 0.417500
vt 0.218750 0.292500
vt 0.593750 0.066841
vt 0.593750 0.112448
vt 0.593750 0.225000
vt 0.593750 0.211611
vt 0.593750 0.070607
vt 0.593750 0.025000
vt 0.593750 0.077301
vt 0.593750 0.154289
vt 0.593750 0.108682
vt 0.593750 0.160983
vt 0.593750 0.040900
vt 0.593750 0.054289
vt 0.593750 0.196130
vt 0.593750 0.150523
vt 0.593750 0.202824
vt 0.593750 0.119142
s 1
usemtl colormap.084
f 3/1/1 2/2/2 1/1/1
f 2/2/2 3/1/1 4/2/2
f 7/3/1 6/3/3 5/3/3
f 6/3/3 7/3/1 8/3/1
s 0
f 11/4/2 10/5/2 9/4/2
f 10/5/2 11/4/2 12/5/2
s 1
f 15/6/1 14/6/3 13/6/3
f 14/6/3 15/6/1 16/6/1
s 0
f 19/7/2 18/6/2 17/7/2
f 18/6/2 19/7/2 20/6/2
s 1
f 23/6/1 22/8/2 21/6/1
f 22/8/2 23/6/1 24/8/2
s 0
f 27/9/2 26/10/2 25/9/2
f 26/10/2 27/9/2 28/10/2
f 31/11/3 30/11/3 29/11/3
f 30/11/3 31/11/3 32/11/3
s 1
f 35/1/1 34/1/3 33/1/3
f 34/1/3 35/1/1 36/1/1
f 39/12/1 38/13/2 37/12/1
f 38/13/2 39/12/1 40/13/2
s 0
f 43/9/4 42/9/4 41/9/4
f 42/9/4 43/9/4 44/9/4
f 47/13/4 46/13/4 45/13/4
f 46/13/4 47/13/4 48/13/4
s 1
f 51/3/1 50/9/2 49/3/1
f 50/9/2 51/3/1 52/9/2
s 0
f 55/2/2 54/12/2 53/2/2
f 54/12/2 55/2/2 56/12/2
f 59/14/4 58/14/4 57/14/4
f 58/14/4 59/14/4 60/14/4
f 63/8/5 62/15/5 61/8/5
f 62/15/5 63/8/5 64/15/5
f 67/16/2 66/1/2 65/16/2
f 66/1/2 67/16/2 68/1/2
f 71/13/2 70/17/2 69/13/2
f 70/17/2 71/13/2 72/17/2
s 1
f 75/5/1 74/5/3 73/5/3
f 74/5/3 75/5/1 76/5/1
s 0
f 79/4/4 78/4/4 77/4/4
f 78/4/4 79/4/4 80/4/4
s 1
f 83/5/1 82/7/2 81/5/1
f 82/7/2 83/5/1 84/7/2
f 87/10/1 86/10/3 85/10/3
f 86/10/3 87/10/1 88/10/1
f 91/18/1 90/14/2 89/18/1
f 90/14/2 91/18/1 92/14/2
s 0
f 95/14/2 94/3/2 93/14/2
f 94/3/2 95/14/2 96/3/2
f 99/7/4 98/7/4 97/7/4
f 98/7/4 99/7/4 100/7/4
f 103/11/2 102/18/2 101/11/2
f 102/18/2 103/11/2 104/18/2
f 107/2/4 106/2/4 105/2/4
f 106/2/4 107/2/4 108/2/4
s 1
f 111/12/1 110/12/3 109/12/3
f 110/12/3 111/12/1 112/12/1
s 0
f 115/8/4 114/8/4 113/8/4
f 114/8/4 115/8/4 116/8/4
f 119/14/6 118/18/6 117/18/6
f 120/14/6 118/18/6 119/14/6
f 121/11/6 118/18/6 120/14/6
f 118/18/6 121/11/6 122/11/6
f 121/11/6 120/14/6 123/15/6
f 123/15/6 120/14/6 124/9/6
f 124/9/6 120/14/6 125/3/6
f 124/9/6 125/3/6 126/9/6
f 126/9/6 125/3/6 127/3/6
f 123/15/6 124/9/6 128/16/6
f 128/16/6 124/9/6 129/10/6
f 128/16/6 129/10/6 130/16/6
f 130/16/6 129/10/6 131/10/6
f 123/15/6 128/16/6 132/2/6
f 132/2/6 128/16/6 133/1/6
f 132/2/6 133/1/6 134/2/6
f 134/2/6 133/1/6 135/1/6
f 123/15/6 132/2/6 136/13/6
f 136/13/6 132/2/6 137/12/6
f 136/13/6 137/12/6 138/13/6
f 138/13/6 137/12/6 139/12/6
f 123/15/6 136/13/6 140/4/6
f 140/4/6 136/13/6 141/17/6
f 140/4/6 141/17/6 142/4/6
f 142/4/6 141/17/6 143/17/6
f 123/15/6 140/4/6 144/7/6
f 144/7/6 140/4/6 145/5/6
f 144/7/6 145/5/6 146/7/6
f 146/7/6 145/5/6 147/5/6
f 123/15/6 144/7/6 148/6/6
f 123/15/6 148/6/6 149/8/6
f 149/8/6 148/6/6 150/8/6
f 150/8/6 148/6/6 151/6/6
s 1
f 154/18/1 153/18/3 152/18/3
f 153/18/3 154/18/1 155/18/1
s 0
f 158/11/7 157/18/7 156/11/7
f 157/18/7 158/11/7 159/14/7
f 159/14/7 158/11/7 160/15/7
f 159/14/7 160/15/7 161/9/7
f 157/18/7 159/14/7 162/14/7
f 162/14/7 163/18/7 157/18/7
f 159/14/7 161/9/7 164/3/7
f 164/3/7 161/9/7 165/9/7
f 165/9/7 166/3/7 164/3/7
f 161/9/7 160/15/7 167/16/7
f 161/9/7 167/16/7 168/10/7
f 168/10/7 167/16/7 169/16/7
f 169/16/7 170/10/7 168/10/7
f 167/16/7 160/15/7 171/2/7
f 167/16/7 171/2/7 172/1/7
f 172/1/7 171/2/7 173/2/7
f 173/2/7 174/1/7 172/1/7
f 171/2/7 160/15/7 175/13/7
f 171/2/7 175/13/7 176/12/7
f 176/12/7 175/13/7 177/13/7
f 177/13/7 178/12/7 176/12/7
f 175/13/7 160/15/7 179/4/7
f 175/13/7 179/4/7 180/17/7
f 180/17/7 179/4/7 181/4/7
f 181/4/7 182/17/7 180/17/7
f 179/4/7 160/15/7 183/7/7
f 179/4/7 183/7/7 184/5/7
f 184/5/7 183/7/7 185/7/7
f 185/7/7 186/5/7 184/5/7
f 183/7/7 160/15/7 187/6/7
f 187/6/7 160/15/7 188/8/7
f 187/6/7 188/8/7 189/8/7
f 189/8/7 190/6/7 187/6/7
s 1
f 193/10/1 192/16/2 191/10/1
f 192/16/2 193/10/1 194/16/2
s 0
f 197/15/8 196/11/8 195/11/8
f 196/11/8 197/15/8 198/15/8
f 201/16/4 200/16/4 199/16/4
f 200/16/4 201/16/4 202/16/4
s 1
f 205/17/1 204/17/3 203/17/3
f 204/17/3 205/17/1 206/17/1
f 209/17/1 208/4/2 207/17/1
f 208/4/2 209/17/1 210/4/2
s 0
f 213/19/2 212/20/2 211/19/2
f 212/20/2 213/19/2 214/20/2
f 217/21/5 216/22/5 215/21/5
f 216/22/5 217/21/5 218/22/5
f 221/23/6 220/24/6 219/24/6
f 220/24/6 221/23/6 222/25/6
f 225/26/6 224/27/6 223/27/6
f 224/27/6 225/26/6 226/28/6
f 229/25/7 228/24/7 227/24/7
f 228/24/7 229/25/7 230/23/7
f 233/28/7 232/27/7 231/27/7
f 232/27/7 233/28/7 234/26/7
f 237/29/2 236/30/2 235/29/2
f 236/30/2 237/29/2 238/30/2
f 241/31/6 240/32/6 239/32/6
f 240/32/6 241/31/6 242/33/6
f 245/33/5 244/32/5 243/33/5
f 244/32/5 245/33/5 246/32/5
f 249/22/7 248/30/7 247/29/7
f 248/30/7 249/22/7 250/21/7
f 253/28/5 252/27/5 251/28/5
f 252/27/5 253/28/5 254/27/5
f 257/27/2 256/26/2 255/27/2
f 256/26/2 257/27/2 258/26/2
f 261/30/6 260/22/6 259/29/6
f 260/22/6 261/30/6 262/21/6
f 265/24/2 264/23/2 263/24/2
f 264/23/2 265/24/2 266/23/2
f 269/33/7 268/32/7 267/32/7
f 268/32/7 269/33/7 270/31/7
f 273/20/6 272/19/6 271/19/6
f 272/19/6 273/20/6 274/34/6
f 277/25/5 276/24/5 275/25/5
f 276/24/5 277/25/5 278/24/5
f 281/32/2 280/31/2 279/32/2
f 280/31/2 281/32/2 282/31/2
f 285/30/9 284/21/9 283/30/9
f 284/21/9 285/30/9 286/21/9
f 289/34/7 288/19/7 287/19/7
f 288/19/7 289/34/7 290/20/7
f 293/34/5 292/19/5 291/34/5
f 292/19/5 293/34/5 294/19/5
f 297/30/6 296/22/6 295/29/6
f 296/22/6 297/30/6 298/21/6
f 301/22/7 300/30/7 299/29/7
f 300/30/7 301/22/7 302/21/7
f 305/25/7 304/24/7 303/24/7
f 304/24/7 305/25/7 306/23/7
f 309/28/7 308/27/7 307/27/7
f 308/27/7 309/28/7 310/26/7
f 313/21/5 312/22/5 311/21/5
f 312/22/5 313/21/5 314/22/5
f 317/26/6 316/27/6 315/27/6
f 316/27/6 317/26/6 318/28/6
f 321/23/6 320/24/6 319/24/6
f 320/24/6 321/23/6 322/25/6
f 325/24/2 324/23/2 323/24/2
f 324/23/2 325/24/2 326/23/2
f 329/31/6 328/32/6 327/32/6
f 328/32/6 329/31/6 330/33/6
f 333/30/9 332/21/9 331/30/9
f 332/21/9 333/30/9 334/21/9
f 337/34/7 336/19/7 335/19/7
f 336/19/7 337/34/7 338/20/7
f 341/34/5 340/19/5 339/34/5
f 340/19/5 341/34/5 342/19/5
f 345/32/2 344/31/2 343/32/2
f 344/31/2 345/32/2 346/31/2
f 349/29/2 348/30/2 347/29/2
f 348/30/2 349/29/2 350/30/2
f 353/19/2 352/20/2 351/19/2
f 352/20/2 353/19/2 354/20/2
f 357/33/7 356/32/7 355/32/7
f 356/32/7 357/33/7 358/31/7
f 361/27/2 360/26/2 359/27/2
f 360/26/2 361/27/2 362/26/2
f 365/25/5 364/24/5 363/25/5
f 364/24/5 365/25/5 366/24/5
f 369/20/6 368/19/6 367/19/6
f 368/19/6 369/20/6 370/34/6
f 373/28/5 372/27/5 371/28/5
f 372/27/5 373/28/5 374/27/5
f 377/33/5 376/32/5 375/33/5
f 376/32/5 377/33/5 378/32/5
f 381/29/8 380/23/8 379/29/8
f 380/23/8 381/29/8 382/22/8
f 379/29/8 380/23/8 383/23/8
f 383/23/8 384/22/8 379/29/8
f 385/25/10 384/22/10 383/23/10
f 384/22/8 386/33/8 382/22/8
f 380/23/8 382/22/8 386/33/8
f 386/33/8 384/22/8 387/33/8
s 1
f 380/23/11 386/33/12 388/31/13
s 0
f 387/33/8 384/22/8 389/31/8
f 389/31/8 390/28/8 388/31/8
s 1
f 380/23/11 388/31/13 390/28/14
s 0
f 390/28/8 389/31/8 391/28/8
f 389/31/8 384/22/8 391/28/8
s 1
f 380/23/11 390/28/14 392/26/15
s 0
f 391/28/8 384/22/8 393/26/8
f 394/20/8 384/22/8 385/25/8
f 395/25/8 394/20/8 385/25/8
f 396/34/16 384/22/16 394/20/16
f 393/26/8 384/22/8 396/34/8
f 394/20/8 395/25/8 397/20/8
s 1
f 380/23/11 397/20/17 395/25/8
s 0
f 398/34/8 393/26/8 396/34/8
f 393/26/8 398/34/8 392/26/8
s 1
f 380/23/11 398/34/8 397/20/17
f 380/23/11 392/26/15 398/34/8
s 0
f 401/29/8 400/23/8 399/29/8
f 400/23/8 401/29/8 402/22/8
f 399/29/8 400/23/8 403/23/8
f 403/23/8 404/22/8 399/29/8
f 405/25/10 404/22/10 403/23/10
f 404/22/8 406/33/8 402/22/8
f 400/23/8 402/22/8 406/33/8
f 406/33/8 404/22/8 407/33/8
s 1
f 400/23/18 406/33/8 408/31/8
s 0
f 407/33/8 404/22/8 409/31/8
f 409/31/8 410/28/8 408/31/8
s 1
f 400/23/18 408/31/8 410/28/19
s 0
f 410/28/8 409/31/8 411/28/8
f 409/31/8 404/22/8 411/28/8
s 1
f 400/23/18 410/28/19 412/26/20
s 0
f 411/28/8 404/22/8 413/26/8
s 1
f 414/20/8 404/22/8 405/25/8
s 0
f 415/25/8 414/20/8 405/25/8
f 416/34/8 404/22/8 414/20/8
f 413/26/8 404/22/8 416/34/8
f 414/20/8 415/25/8 417/20/8
s 1
f 400/23/18 417/20/21 415/25/8
s 0
f 418/34/8 413/26/8 416/34/8
f 413/26/8 418/34/8 412/26/8
s 1
f 400/23/18 418/34/22 417/20/21
f 400/23/18 412/26/20 418/34/22
