# Blender 5.1.0
# www.blender.org
mtllib stairs_full_corner_outer.mtl
o stairs-full-corner-outer-col
v 0.432534 -0.116759 -0.587466
v 0.432534 -0.079259 -0.587466
v -0.587466 -0.116759 -0.587466
v -0.587466 -0.079259 -0.587466
v 0.432534 0.295741 0.432534
v -0.212466 0.295741 0.432534
v 0.432534 0.295741 -0.212466
v -0.212466 0.295741 -0.212466
v -0.192466 0.170741 -0.192466
v -0.192466 0.258241 -0.192466
v -0.192466 0.170741 0.432534
v -0.192466 0.258241 0.432534
v -0.212466 0.258241 -0.212466
v 0.432534 0.258241 -0.212466
v -0.212466 0.295741 -0.212466
v 0.432534 0.295741 -0.212466
v -0.212466 0.258241 -0.212466
v -0.212466 0.295741 -0.212466
v -0.212466 0.258241 0.432534
v -0.212466 0.295741 0.432534
v 0.432534 0.045741 -0.317466
v -0.317466 0.045741 -0.317466
v 0.432534 0.045741 -0.462466
v -0.462466 0.045741 -0.462466
v -0.462466 0.045741 0.432534
v -0.317466 0.045741 0.432534
v 0.432534 0.133241 -0.337466
v 0.432534 0.170741 -0.337466
v -0.337466 0.133241 -0.337466
v -0.337466 0.170741 -0.337466
v -0.462466 0.008241 -0.462466
v 0.432534 0.008241 -0.462466
v -0.462466 0.045741 -0.462466
v 0.432534 0.045741 -0.462466
v 0.432534 -0.204259 0.432534
v 0.432534 -0.204259 -0.492466
v -0.492466 -0.204259 0.432534
v 0.432534 -0.204259 -0.567466
v -0.567466 -0.204259 -0.567466
v -0.567466 -0.204259 0.432534
v -0.317466 0.133241 0.432534
v -0.317466 0.133241 -0.317466
v -0.337466 0.133241 0.432534
v -0.337466 0.133241 -0.337466
v 0.432534 0.133241 -0.337466
v 0.432534 0.133241 -0.317466
v -0.567466 -0.204259 -0.567466
v 0.432534 -0.204259 -0.567466
v -0.567466 -0.116759 -0.567466
v 0.432534 -0.116759 -0.567466
v 0.432534 0.170741 -0.192466
v -0.192466 0.170741 -0.192466
v 0.432534 0.170741 -0.337466
v -0.337466 0.170741 -0.337466
v -0.337466 0.170741 0.432534
v -0.192466 0.170741 0.432534
v -0.567466 -0.204259 -0.567466
v -0.567466 -0.116759 -0.567466
v -0.567466 -0.204259 0.432534
v -0.567466 -0.116759 0.432534
v -0.587466 -0.116759 -0.587466
v -0.587466 -0.079259 -0.587466
v -0.587466 -0.116759 0.432534
v -0.587466 -0.079259 0.432534
v 0.432534 0.045741 -0.462466
v 0.432534 0.008241 -0.462466
v 0.432534 0.045741 -0.317466
v 0.432534 0.008241 -0.442466
v 0.432534 -0.079259 -0.442466
v 0.432534 -0.204259 0.432534
v 0.432534 0.170741 -0.192466
v 0.432534 0.133241 -0.317466
v 0.432534 0.133241 -0.337466
v 0.432534 0.170741 -0.337466
v 0.432534 0.258241 -0.192466
v 0.432534 0.295741 0.432534
v 0.432534 0.258241 -0.212466
v 0.432534 0.295741 -0.212466
v 0.432534 -0.204259 -0.492466
v 0.432534 -0.116759 -0.567466
v 0.432534 -0.204259 -0.567466
v 0.432534 -0.116759 -0.587466
v 0.432534 -0.079259 -0.587466
v -0.442466 -0.079259 -0.442466
v 0.432534 -0.079259 -0.442466
v -0.442466 0.008241 -0.442466
v 0.432534 0.008241 -0.442466
v -0.442466 0.008241 0.432534
v -0.442466 0.008241 -0.442466
v -0.462466 0.008241 0.432534
v -0.462466 0.008241 -0.462466
v 0.432534 0.008241 -0.462466
v 0.432534 0.008241 -0.442466
v -0.567466 -0.116759 0.432534
v -0.567466 -0.116759 -0.567466
v -0.587466 -0.116759 0.432534
v -0.587466 -0.116759 -0.587466
v 0.432534 -0.116759 -0.587466
v 0.432534 -0.116759 -0.567466
v -0.442466 -0.079259 -0.442466
v -0.442466 0.008241 -0.442466
v -0.442466 -0.079259 0.432534
v -0.442466 0.008241 0.432534
v -0.462466 0.008241 -0.462466
v -0.462466 0.045741 -0.462466
v -0.462466 0.008241 0.432534
v -0.462466 0.045741 0.432534
v -0.317466 0.045741 -0.317466
v 0.432534 0.045741 -0.317466
v -0.317466 0.133241 -0.317466
v 0.432534 0.133241 -0.317466
v -0.192466 0.258241 0.432534
v -0.192466 0.258241 -0.192466
v -0.212466 0.258241 0.432534
v -0.212466 0.258241 -0.212466
v 0.432534 0.258241 -0.212466
v 0.432534 0.258241 -0.192466
v 0.432534 -0.079259 -0.442466
v -0.442466 -0.079259 -0.442466
v 0.432534 -0.079259 -0.587466
v -0.587466 -0.079259 -0.587466
v -0.587466 -0.079259 0.432534
v -0.442466 -0.079259 0.432534
v -0.337466 0.133241 -0.337466
v -0.337466 0.170741 -0.337466
v -0.337466 0.133241 0.432534
v -0.337466 0.170741 0.432534
v 0.432534 -0.204259 0.432534
v -0.492466 -0.204259 0.432534
v 0.432534 0.295741 0.432534
v -0.442466 -0.079259 0.432534
v -0.567466 -0.116759 0.432534
v -0.567466 -0.204259 0.432534
v -0.587466 -0.079259 0.432534
v -0.587466 -0.116759 0.432534
v -0.317466 0.045741 0.432534
v -0.442466 0.008241 0.432534
v -0.462466 0.045741 0.432534
v -0.462466 0.008241 0.432534
v -0.317466 0.133241 0.432534
v -0.192466 0.170741 0.432534
v -0.337466 0.170741 0.432534
v -0.337466 0.133241 0.432534
v -0.192466 0.258241 0.432534
v -0.212466 0.295741 0.432534
v -0.212466 0.258241 0.432534
v -0.192466 0.170741 -0.192466
v 0.432534 0.170741 -0.192466
v -0.192466 0.258241 -0.192466
v 0.432534 0.258241 -0.192466
v -0.317466 0.133241 -0.317466
v -0.317466 0.133241 0.432534
v -0.317466 0.045741 -0.317466
v -0.317466 0.045741 0.432534
vn -0.5774 -0.5773 -0.5774
vn -0.0000 -0.0000 -1.0000
vn -0.0000 -0.7071 -0.7071
vn -0.0000 1.0000 -0.0000
vn -1.0000 -0.0000 -0.0000
vn -0.7071 -0.7071 -0.0000
vn -0.5774 -0.5774 -0.5773
vn -0.0000 -1.0000 -0.0000
vn -0.5773 -0.5774 -0.5774
vn 1.0000 -0.0000 -0.0000
vn -0.0000 -0.0000 1.0000
vt 0.218750 0.310000
vt 0.218750 0.325000
vt 0.218750 0.475000
vt 0.218750 0.425000
vt 0.218750 0.460000
vt 0.218750 0.375000
vt 0.218750 0.410000
vt 0.218750 0.360000
vt 0.218750 0.275000
s 1
usemtl colormap.078
f 3/1/1 2/2/2 1/1/3
f 2/2/2 3/1/1 4/2/2
s 0
f 7/3/4 6/3/4 5/3/4
f 6/3/4 7/3/4 8/3/4
f 11/4/5 10/5/5 9/4/5
f 10/5/5 11/4/5 12/5/5
s 1
f 15/3/2 14/5/3 13/5/1
f 14/5/3 15/3/2 16/3/2
f 19/5/6 18/3/5 17/5/7
f 18/3/5 19/5/6 20/3/5
s 0
f 23/6/4 22/6/4 21/6/4
f 22/6/4 23/6/4 24/6/4
f 22/6/4 24/6/4 25/6/4
f 25/6/4 26/6/4 22/6/4
s 1
f 29/7/1 28/4/2 27/7/3
f 28/4/2 29/7/1 30/4/2
f 33/6/2 32/8/3 31/8/1
f 32/8/3 33/6/2 34/6/2
s 0
f 37/9/8 36/9/8 35/9/8
f 36/9/8 37/9/8 38/9/8
f 38/9/8 37/9/8 39/9/8
f 39/9/8 37/9/8 40/9/8
s 1
f 43/7/6 42/7/8 41/7/8
f 44/7/9 42/7/8 43/7/6
f 45/7/3 42/7/8 44/7/9
f 42/7/8 45/7/3 46/7/8
s 0
f 49/1/2 48/9/2 47/9/2
f 48/9/2 49/1/2 50/1/2
f 53/4/4 52/4/4 51/4/4
f 52/4/4 53/4/4 54/4/4
f 52/4/4 54/4/4 55/4/4
f 55/4/4 56/4/4 52/4/4
f 59/9/5 58/1/5 57/9/5
f 58/1/5 59/9/5 60/1/5
s 1
f 63/1/6 62/2/5 61/1/7
f 62/2/5 63/1/6 64/2/5
s 0
f 67/6/10 66/8/10 65/6/10
f 66/8/10 67/6/10 68/8/10
f 68/8/10 67/6/10 69/2/10
f 70/9/10 69/2/10 67/6/10
f 70/9/10 67/6/10 71/4/10
f 72/7/10 71/4/10 67/6/10
f 73/7/10 71/4/10 72/7/10
f 71/4/10 73/7/10 74/4/10
f 70/9/10 71/4/10 75/5/10
f 70/9/10 75/5/10 76/3/10
f 77/5/10 76/3/10 75/5/10
f 76/3/10 77/5/10 78/3/10
f 79/9/10 69/2/10 70/9/10
f 80/1/10 69/2/10 79/9/10
f 79/9/10 81/9/10 80/1/10
f 82/1/10 69/2/10 80/1/10
f 69/2/10 82/1/10 83/2/10
f 86/8/2 85/2/2 84/2/2
f 85/2/2 86/8/2 87/8/2
s 1
f 90/8/6 89/8/8 88/8/8
f 91/8/9 89/8/8 90/8/6
f 92/8/3 89/8/8 91/8/9
f 89/8/8 92/8/3 93/8/8
f 96/1/6 95/1/8 94/1/8
f 97/1/9 95/1/8 96/1/6
f 98/1/3 95/1/8 97/1/9
f 95/1/8 98/1/3 99/1/8
s 0
f 102/2/5 101/8/5 100/2/5
f 101/8/5 102/2/5 103/8/5
s 1
f 106/8/6 105/6/5 104/8/7
f 105/6/5 106/8/6 107/6/5
s 0
f 110/7/2 109/6/2 108/6/2
f 109/6/2 110/7/2 111/7/2
s 1
f 114/5/6 113/5/8 112/5/8
f 115/5/9 113/5/8 114/5/6
f 116/5/3 113/5/8 115/5/9
f 113/5/8 116/5/3 117/5/8
s 0
f 120/2/4 119/2/4 118/2/4
f 119/2/4 120/2/4 121/2/4
f 119/2/4 121/2/4 122/2/4
f 122/2/4 123/2/4 119/2/4
s 1
f 126/7/6 125/4/5 124/7/7
f 125/4/5 126/7/6 127/4/5
s 0
f 130/3/11 129/9/11 128/9/11
f 129/9/11 130/3/11 131/2/11
f 129/9/11 131/2/11 132/1/11
f 132/1/11 133/9/11 129/9/11
f 132/1/11 131/2/11 134/2/11
f 134/2/11 135/1/11 132/1/11
f 131/2/11 130/3/11 136/6/11
f 131/2/11 136/6/11 137/8/11
f 137/8/11 136/6/11 138/6/11
f 138/6/11 139/8/11 137/8/11
f 136/6/11 130/3/11 140/7/11
f 140/7/11 130/3/11 141/4/11
f 140/7/11 141/4/11 142/4/11
f 142/4/11 143/7/11 140/7/11
f 141/4/11 130/3/11 144/5/11
f 144/5/11 130/3/11 145/3/11
f 145/3/11 146/5/11 144/5/11
f 149/5/2 148/4/2 147/4/2
f 148/4/2 149/5/2 150/5/2
f 153/6/5 152/7/5 151/7/5
f 152/7/5 153/6/5 154/6/5
