# Blender 5.1.0
# www.blender.org
mtllib stairs_stone_round.mtl
o stairs-stone-round-col
v 0.049190 0.478054 -0.214796
v 0.049190 0.478054 -0.136402
v -0.061675 0.478054 -0.214796
v 0.016718 0.478054 -0.103930
v -0.029204 0.478054 -0.103930
v -0.061675 0.478054 -0.136402
v -0.061675 0.478054 -0.214796
v 0.049190 0.478054 -0.136402
v 0.049190 0.478054 -0.214796
v 0.016718 0.478054 -0.103930
v -0.029204 0.478054 -0.103930
v -0.061675 0.478054 -0.136402
v 0.049190 -0.521946 -0.136402
v 0.049190 -0.521946 -0.214796
v 0.016718 -0.521946 -0.103930
v -0.061675 -0.521946 -0.214796
v -0.029204 -0.521946 -0.103930
v -0.061675 -0.521946 -0.136402
v 0.016718 -0.521946 -0.103930
v 0.049190 -0.521946 -0.214796
v 0.049190 -0.521946 -0.136402
v -0.061675 -0.521946 -0.214796
v -0.029204 -0.521946 -0.103930
v -0.061675 -0.521946 -0.136402
v -0.061675 -0.521946 -0.214796
v -0.061675 0.478054 -0.214796
v -0.061675 -0.521946 -0.136402
v -0.061675 0.478054 -0.136402
v -0.061675 -0.521946 -0.136402
v -0.061675 0.478054 -0.214796
v -0.061675 -0.521946 -0.214796
v -0.061675 0.478054 -0.136402
v -0.061675 -0.521946 -0.136402
v -0.061675 0.478054 -0.136402
v -0.029204 -0.521946 -0.103930
v -0.029204 0.478054 -0.103930
v -0.029204 -0.521946 -0.103930
v -0.061675 0.478054 -0.136402
v -0.061675 -0.521946 -0.136402
v -0.029204 0.478054 -0.103930
v 0.016718 -0.521946 -0.103930
v -0.029204 -0.521946 -0.103930
v 0.016718 0.478054 -0.103930
v -0.029204 0.478054 -0.103930
v 0.016718 0.478054 -0.103930
v -0.029204 -0.521946 -0.103930
v 0.016718 -0.521946 -0.103930
v -0.029204 0.478054 -0.103930
v 0.049190 -0.521946 -0.136402
v 0.016718 -0.521946 -0.103930
v 0.049190 0.478054 -0.136402
v 0.016718 0.478054 -0.103930
v 0.049190 0.478054 -0.136402
v 0.016718 -0.521946 -0.103930
v 0.049190 -0.521946 -0.136402
v 0.016718 0.478054 -0.103930
v 0.049190 -0.521946 -0.214796
v 0.049190 -0.521946 -0.136402
v 0.049190 0.478054 -0.214796
v 0.049190 0.478054 -0.136402
v 0.049190 0.478054 -0.214796
v 0.049190 -0.521946 -0.136402
v 0.049190 -0.521946 -0.214796
v 0.049190 0.478054 -0.136402
v 0.049190 -0.521946 -0.214796
v 0.049190 0.478054 -0.214796
v -0.061675 -0.521946 -0.214796
v -0.061675 0.478054 -0.214796
v -0.061675 -0.521946 -0.214796
v 0.049190 0.478054 -0.214796
v 0.049190 -0.521946 -0.214796
v -0.061675 0.478054 -0.214796
v 0.387926 0.324208 0.040192
v 0.424559 0.324208 -0.063927
v 0.049190 0.324208 -0.136402
v -0.197398 -0.214253 0.226405
v -0.029204 -0.214253 -0.103930
v -0.292333 -0.214253 0.167599
v 0.424559 0.401131 -0.063927
v 0.387926 0.401131 0.040192
v 0.049190 0.401131 -0.136402
v 0.387926 0.324208 0.040192
v 0.329119 0.324208 0.135127
v 0.049190 0.324208 -0.136402
v -0.364009 -0.368099 0.071837
v -0.061675 -0.368099 -0.136402
v -0.411729 -0.368099 -0.027690
v 0.233357 0.170362 0.206803
v 0.133830 0.170362 0.254523
v 0.016718 0.170362 -0.103930
v 0.133830 0.093439 0.254523
v 0.025118 0.093439 0.280070
v 0.016718 0.093439 -0.103930
v -0.061675 -0.291176 -0.136402
v -0.364009 -0.291176 0.071837
v -0.411729 -0.291176 -0.027690
v 0.329119 0.247285 0.135127
v 0.387926 0.247285 0.040192
v 0.049190 0.247285 -0.136402
v 0.025118 0.016516 0.280070
v 0.133830 0.016516 0.254523
v 0.016718 0.016516 -0.103930
v 0.133830 0.093439 0.254523
v 0.233357 0.093439 0.206803
v 0.016718 0.093439 -0.103930
v -0.029204 -0.137330 -0.103930
v -0.197398 -0.137330 0.226405
v -0.292333 -0.137330 0.167599
v -0.411729 -0.445023 -0.027690
v -0.061675 -0.445023 -0.136402
v -0.437275 -0.445023 -0.136402
v -0.061675 -0.368099 -0.136402
v -0.411729 -0.368099 -0.027690
v -0.437275 -0.368099 -0.136402
v -0.029204 -0.060407 -0.103930
v -0.093278 -0.060407 0.263039
v -0.197398 -0.060407 0.226405
v -0.093278 -0.137330 0.263039
v -0.029204 -0.137330 -0.103930
v -0.197398 -0.137330 0.226405
v 0.424559 0.401131 -0.063927
v 0.424559 0.324208 -0.063927
v 0.387926 0.401131 0.040192
v 0.387926 0.324208 0.040192
v 0.025118 -0.060407 0.280070
v 0.016718 -0.060407 -0.103930
v -0.093278 -0.060407 0.263039
v -0.029204 -0.060407 -0.103930
v 0.424559 0.478054 -0.214796
v 0.424559 0.478054 -0.063927
v 0.049190 0.478054 -0.214796
v 0.049190 0.478054 -0.136402
v 0.025118 0.016516 0.280070
v -0.093278 0.016516 0.263039
v 0.016718 0.016516 -0.103930
v -0.029204 0.016516 -0.103930
v -0.437275 -0.521946 -0.214796
v -0.061675 -0.521946 -0.214796
v -0.437275 -0.445023 -0.214796
v -0.061675 -0.445023 -0.214796
v 0.049190 0.324208 -0.136402
v 0.424559 0.324208 -0.063927
v 0.049190 0.401131 -0.136402
v 0.424559 0.401131 -0.063927
v 0.049190 0.401131 -0.214796
v 0.424559 0.401131 -0.214796
v 0.049190 0.478054 -0.214796
v 0.424559 0.478054 -0.214796
v 0.329119 0.170362 0.135127
v 0.049190 0.170362 -0.136402
v 0.233357 0.170362 0.206803
v 0.016718 0.170362 -0.103930
v 0.233357 0.170362 0.206803
v 0.233357 0.247285 0.206803
v 0.329119 0.170362 0.135127
v 0.329119 0.247285 0.135127
v -0.411729 -0.445023 -0.027690
v -0.411729 -0.368099 -0.027690
v -0.061675 -0.445023 -0.136402
v -0.061675 -0.368099 -0.136402
v -0.061675 -0.521946 -0.136402
v -0.437275 -0.521946 -0.136402
v -0.061675 -0.445023 -0.136402
v -0.437275 -0.445023 -0.136402
v -0.437275 -0.445023 -0.136402
v -0.061675 -0.445023 -0.136402
v -0.437275 -0.368099 -0.136402
v -0.061675 -0.368099 -0.136402
v 0.049190 0.170362 -0.136402
v 0.329119 0.170362 0.135127
v 0.049190 0.247285 -0.136402
v 0.329119 0.247285 0.135127
v 0.329119 0.247285 0.135127
v 0.049190 0.247285 -0.136402
v 0.329119 0.324208 0.135127
v 0.049190 0.324208 -0.136402
v 0.016718 0.093439 -0.103930
v 0.016718 0.170362 -0.103930
v 0.133830 0.093439 0.254523
v 0.133830 0.170362 0.254523
v 0.016718 0.093439 -0.103930
v 0.016718 0.016516 -0.103930
v 0.133830 0.093439 0.254523
v 0.133830 0.016516 0.254523
v 0.387926 0.324208 0.040192
v 0.049190 0.324208 -0.136402
v 0.387926 0.401131 0.040192
v 0.049190 0.401131 -0.136402
v 0.016718 0.016516 -0.103930
v 0.016718 -0.060407 -0.103930
v 0.025118 0.016516 0.280070
v 0.025118 -0.060407 0.280070
v 0.016718 0.170362 -0.103930
v 0.016718 0.247285 -0.103930
v 0.233357 0.170362 0.206803
v 0.233357 0.247285 0.206803
v 0.424559 0.478054 -0.214796
v 0.424559 0.401131 -0.214796
v 0.424559 0.478054 -0.063927
v 0.424559 0.401131 -0.063927
v 0.016718 0.016516 -0.103930
v 0.016718 0.093439 -0.103930
v 0.025118 0.016516 0.280070
v 0.025118 0.093439 0.280070
v 0.025118 -0.060407 0.280070
v -0.093278 -0.060407 0.263039
v 0.025118 0.016516 0.280070
v -0.093278 0.016516 0.263039
v -0.197398 -0.214253 0.226405
v -0.292333 -0.214253 0.167599
v -0.197398 -0.137330 0.226405
v -0.292333 -0.137330 0.167599
v -0.029204 -0.137330 -0.103930
v -0.029204 -0.060407 -0.103930
v -0.197398 -0.137330 0.226405
v -0.197398 -0.060407 0.226405
v -0.029204 -0.060407 -0.103930
v -0.029204 0.016516 -0.103930
v -0.093278 -0.060407 0.263039
v -0.093278 0.016516 0.263039
v -0.364009 -0.291176 0.071837
v -0.061675 -0.291176 -0.136402
v -0.364009 -0.214253 0.071837
v -0.061675 -0.214253 -0.136402
v -0.029204 -0.214253 -0.103930
v -0.292333 -0.214253 0.167599
v -0.061675 -0.214253 -0.136402
v -0.364009 -0.214253 0.071837
v 0.133830 0.016516 0.254523
v 0.025118 0.016516 0.280070
v 0.133830 0.093439 0.254523
v 0.025118 0.093439 0.280070
v -0.437275 -0.445023 -0.136402
v -0.437275 -0.368099 -0.136402
v -0.411729 -0.445023 -0.027690
v -0.411729 -0.368099 -0.027690
v -0.029204 -0.060407 -0.103930
v -0.029204 -0.137330 -0.103930
v -0.093278 -0.060407 0.263039
v -0.093278 -0.137330 0.263039
v 0.387926 0.324208 0.040192
v 0.387926 0.247285 0.040192
v 0.329119 0.324208 0.135127
v 0.329119 0.247285 0.135127
v 0.424559 0.401131 -0.063927
v 0.049190 0.401131 -0.136402
v 0.424559 0.478054 -0.063927
v 0.049190 0.478054 -0.136402
v -0.029204 -0.291176 -0.103930
v -0.061675 -0.291176 -0.136402
v -0.292333 -0.291176 0.167599
v -0.364009 -0.291176 0.071837
v -0.061675 -0.445023 -0.136402
v -0.437275 -0.445023 -0.136402
v -0.061675 -0.445023 -0.214796
v -0.437275 -0.445023 -0.214796
v 0.329119 0.247285 0.135127
v 0.233357 0.247285 0.206803
v 0.049190 0.247285 -0.136402
v 0.016718 0.247285 -0.103930
v 0.233357 0.093439 0.206803
v 0.133830 0.093439 0.254523
v 0.233357 0.170362 0.206803
v 0.133830 0.170362 0.254523
v -0.411729 -0.368099 -0.027690
v -0.411729 -0.291176 -0.027690
v -0.364009 -0.368099 0.071837
v -0.364009 -0.291176 0.071837
v 0.424559 0.401131 -0.214796
v 0.049190 0.401131 -0.214796
v 0.424559 0.401131 -0.063927
v 0.049190 0.401131 -0.136402
v -0.437275 -0.521946 -0.214796
v -0.437275 -0.445023 -0.214796
v -0.437275 -0.521946 -0.136402
v -0.437275 -0.445023 -0.136402
v 0.016718 0.170362 -0.103930
v 0.016718 0.093439 -0.103930
v 0.233357 0.170362 0.206803
v 0.233357 0.093439 0.206803
v -0.029204 -0.137330 -0.103930
v -0.029204 -0.214253 -0.103930
v -0.197398 -0.137330 0.226405
v -0.197398 -0.214253 0.226405
v -0.364009 -0.214253 0.071837
v -0.292333 -0.214253 0.167599
v -0.364009 -0.291176 0.071837
v -0.292333 -0.291176 0.167599
v -0.411729 -0.368099 -0.027690
v -0.061675 -0.368099 -0.136402
v -0.411729 -0.291176 -0.027690
v -0.061675 -0.291176 -0.136402
v -0.093278 -0.137330 0.263039
v -0.197398 -0.137330 0.226405
v -0.093278 -0.060407 0.263039
v -0.197398 -0.060407 0.226405
v 0.049190 0.247285 -0.136402
v 0.387926 0.247285 0.040192
v 0.049190 0.324208 -0.136402
v 0.387926 0.324208 0.040192
v -0.061675 -0.368099 -0.136402
v -0.364009 -0.368099 0.071837
v -0.061675 -0.291176 -0.136402
v -0.364009 -0.291176 0.071837
v -0.029204 -0.214253 -0.103930
v -0.029204 -0.291176 -0.103930
v -0.292333 -0.214253 0.167599
v -0.292333 -0.291176 0.167599
v -0.029204 -0.214253 -0.103930
v -0.029204 -0.137330 -0.103930
v -0.292333 -0.214253 0.167599
v -0.292333 -0.137330 0.167599
v -0.061675 -0.521946 -0.136402
v -0.061675 -0.521946 -0.214796
v -0.437275 -0.521946 -0.136402
v -0.437275 -0.521946 -0.214796
vn -0.0000 1.0000 -0.0000
vn -0.0000 -1.0000 -0.0000
vn -0.9239 -0.0000 0.3827
vn -1.0000 -0.0000 -0.0000
vn 1.0000 -0.0000 -0.0000
vn 0.9239 -0.0000 -0.3827
vn -0.3827 -0.0000 0.9239
vn 0.3827 -0.0000 -0.9239
vn 0.3827 -0.0000 0.9239
vn -0.3827 -0.0000 -0.9239
vn 0.9239 -0.0000 0.3827
vn -0.9239 -0.0000 -0.3827
vn -0.0000 -0.0000 -1.0000
vn -0.0000 -0.0000 1.0000
vn -0.4546 0.1814 0.8720
vn -0.3420 0.6728 0.6560
vn -0.6847 0.1813 0.7060
vn -0.5271 0.6532 0.5435
vn -0.9344 0.1834 0.3054
vn -0.7008 0.6756 0.2290
vn -0.9827 0.1839 0.0214
vn -0.7554 0.6550 0.0166
vn -0.2197 0.6718 -0.7074
vn -0.2913 0.1888 -0.9378
vn -0.5437 0.6533 -0.5268
vn -0.7054 0.1868 -0.6837
vn -0.0001 0.6490 -0.7608
vn -0.0000 0.1883 -0.9821
vn -0.6573 0.6753 -0.3347
vn -0.8755 0.1864 -0.4458
vn 0.9433 -0.0000 0.3319
vn -0.1424 0.6600 0.7377
vn -0.1262 0.7463 0.6535
vn -0.7033 0.7002 -0.1228
vn -0.6594 0.7430 -0.1151
vn -0.0000 0.7071 -0.7071
vn 0.1896 -0.0000 -0.9819
vn 0.5992 -0.0000 0.8006
vn 0.2966 -0.0000 0.9550
vn -0.0000 0.6490 -0.7608
vn -0.0000 0.1882 -0.9821
vn 0.6963 -0.0000 -0.7178
vn -0.5272 0.6533 0.5434
vn -0.6963 -0.0000 0.7178
vn -0.6847 0.1813 0.7059
vn -0.9506 -0.0000 0.3106
vn -0.9344 0.1834 0.3053
vn -0.7008 0.6757 0.2289
vn 0.9506 -0.0000 -0.3106
vn -0.3420 0.6729 0.6560
vn -0.4623 -0.0000 0.8867
vn 0.9998 -0.0000 -0.0219
vn -0.8203 -0.0000 0.5719
vn -0.5484 0.7437 0.3824
vn -0.5863 0.6994 0.4087
vn -0.9998 -0.0000 0.0219
vn -0.9827 0.1839 0.0215
vn -0.7554 0.6551 0.0165
vn -0.1424 -0.0000 0.9898
vn -0.5266 -0.0000 0.8501
vn -0.8911 -0.0000 -0.4537
vn -0.6572 0.6753 -0.3347
vn -0.9851 -0.0000 -0.1720
vn -0.6593 0.7430 -0.1151
vn -0.7032 0.7003 -0.1228
vn -0.4061 0.6981 -0.5897
vn -0.5672 -0.0000 -0.8236
vn -0.3786 0.7448 -0.5495
vn -0.3785 0.7447 -0.5496
vn -0.4062 0.6980 -0.5897
vn 0.2288 -0.0000 0.9735
vn -0.9735 -0.0000 0.2288
vn 0.9851 -0.0000 0.1720
vn 0.8501 -0.0000 0.5266
vn -0.1424 0.6601 0.7376
vn -0.1896 -0.0000 0.9819
vn -0.1261 0.7464 0.6535
vn -0.5863 0.6994 0.4088
vn -0.5484 0.7436 0.3824
vn 0.4323 -0.0000 0.9017
vn -0.9017 -0.0000 0.4323
vn 0.8203 -0.0000 -0.5719
vn 0.8911 -0.0000 0.4537
vn -0.8006 -0.0000 0.5992
vn -0.2196 0.6719 -0.7073
vn -0.2966 -0.0000 -0.9550
vn -0.3319 -0.0000 0.9433
vn 0.4623 -0.0000 -0.8867
vn 0.5672 -0.0000 0.8236
vn 0.7181 -0.0000 0.6959
vn -0.7181 -0.0000 -0.6959
vn -0.7055 0.1868 -0.6837
vn -0.5436 0.6534 -0.5268
vt 0.968750 0.175000
vt 0.968750 0.075000
vt 0.218750 0.409615
vt 0.218750 0.355769
vt 0.218750 0.417308
vt 0.218750 0.340385
vt 0.218750 0.394231
vt 0.218750 0.386538
vt 0.218750 0.348077
vt 0.218750 0.401923
vt 0.218750 0.378846
vt 0.218750 0.363461
vt 0.218750 0.332692
vt 0.218750 0.371154
vt 0.218750 0.425000
vt 0.218750 0.325000
s 0
usemtl colormap.082
f 3/1/1 2/1/1 1/1/1
f 2/1/1 3/1/1 4/1/1
f 4/1/1 3/1/1 5/1/1
f 5/1/1 3/1/1 6/1/1
f 9/1/2 8/1/2 7/1/2
f 10/1/2 7/1/2 8/1/2
f 11/1/2 7/1/2 10/1/2
f 12/1/2 7/1/2 11/1/2
f 15/2/2 14/2/2 13/2/2
f 14/2/2 15/2/2 16/2/2
f 16/2/2 15/2/2 17/2/2
f 16/2/2 17/2/2 18/2/2
f 21/2/1 20/2/1 19/2/1
f 22/2/1 19/2/1 20/2/1
f 23/2/1 19/2/1 22/2/1
f 24/2/1 23/2/1 22/2/1
s 1
f 27/2/3 26/1/4 25/2/4
f 26/1/4 27/2/3 28/1/3
f 31/2/5 30/1/5 29/2/6
f 32/1/6 29/2/6 30/1/5
f 35/2/7 34/1/3 33/2/3
f 34/1/3 35/2/7 36/1/7
f 39/2/6 38/1/6 37/2/8
f 40/1/8 37/2/8 38/1/6
f 43/1/9 42/2/7 41/2/9
f 42/2/7 43/1/9 44/1/7
f 47/2/10 46/2/8 45/1/10
f 48/1/8 45/1/10 46/2/8
f 51/1/11 50/2/9 49/2/11
f 50/2/9 51/1/11 52/1/9
f 55/2/12 54/2/10 53/1/12
f 56/1/10 53/1/12 54/2/10
f 59/1/5 58/2/11 57/2/5
f 58/2/11 59/1/5 60/1/11
f 63/2/4 62/2/12 61/1/4
f 64/1/12 61/1/4 62/2/12
s 0
f 67/2/13 66/1/13 65/2/13
f 66/1/13 67/2/13 68/1/13
f 71/2/14 70/1/14 69/2/14
f 72/1/14 69/2/14 70/1/14
f 75/3/2 74/3/2 73/3/2
f 78/4/2 77/4/2 76/4/2
s 1
f 81/5/15 80/5/16 79/5/1
f 84/3/17 83/3/18 82/3/1
s 0
f 87/6/2 86/6/2 85/6/2
s 1
f 90/7/19 89/7/20 88/7/1
f 93/8/21 92/8/22 91/8/1
f 96/9/23 95/9/1 94/9/24
s 0
f 99/10/2 98/10/2 97/10/2
f 102/11/2 101/11/2 100/11/2
f 105/8/2 104/8/2 103/8/2
s 1
f 108/12/25 107/12/1 106/12/26
s 0
f 111/13/2 110/13/2 109/13/2
s 1
f 114/6/27 113/6/1 112/6/28
f 117/14/29 116/14/1 115/14/30
s 0
f 120/12/2 119/12/2 118/12/2
f 123/5/31 122/3/31 121/5/31
f 122/3/31 123/5/31 124/3/31
f 127/14/2 126/14/2 125/14/2
f 126/14/2 127/14/2 128/14/2
s 1
f 131/15/1 130/15/32 129/15/1
f 130/15/32 131/15/1 132/15/33
f 135/11/1 134/11/34 133/11/1
f 134/11/34 135/11/1 136/11/35
f 139/13/36 138/16/13 137/16/13
f 138/16/13 139/13/36 140/13/36
s 0
f 143/5/37 142/3/37 141/3/37
f 142/3/37 143/5/37 144/5/37
f 147/15/13 146/5/13 145/5/13
f 146/5/13 147/15/13 148/15/13
f 151/7/2 150/7/2 149/7/2
f 150/7/2 151/7/2 152/7/2
f 155/7/38 154/10/38 153/7/38
f 154/10/38 155/7/38 156/10/38
f 159/13/39 158/6/39 157/13/39
f 158/6/39 159/13/39 160/6/39
f 163/13/14 162/16/14 161/16/14
f 162/16/14 163/13/14 164/13/14
s 1
f 167/6/40 166/13/13 165/13/13
f 166/13/13 167/6/40 168/6/41
s 0
f 171/10/42 170/7/42 169/7/42
s 1
f 170/7/42 171/10/42 172/10/42
f 175/3/43 174/10/44 173/10/44
f 174/10/44 175/3/43 176/3/45
f 179/8/46 178/7/47 177/8/46
f 178/7/47 179/8/46 180/7/48
s 0
f 183/8/49 182/11/49 181/8/49
f 182/11/49 183/8/49 184/11/49
s 1
f 187/5/50 186/3/51 185/3/51
f 186/3/51 187/5/50 188/5/15
s 0
f 191/11/52 190/14/52 189/11/52
f 190/14/52 191/11/52 192/14/52
s 1
f 195/7/53 194/10/54 193/7/53
f 194/10/54 195/7/53 196/10/55
s 0
f 199/15/5 198/5/5 197/15/5
f 198/5/5 199/15/5 200/5/5
s 1
f 203/11/56 202/8/57 201/11/56
f 202/8/57 203/11/56 204/8/58
s 0
f 207/11/59 206/14/59 205/14/59
f 206/14/59 207/11/59 208/11/59
s 1
f 211/12/60 210/4/60 209/4/60
s 0
f 210/4/60 211/12/60 212/12/60
s 1
f 215/12/61 214/14/30 213/12/61
f 214/14/30 215/12/61 216/14/62
f 219/14/63 218/11/64 217/14/63
f 218/11/64 219/14/63 220/11/65
f 223/4/66 222/9/67 221/9/67
f 222/9/67 223/4/66 224/4/68
f 227/4/69 226/4/1 225/4/1
f 226/4/1 227/4/69 228/4/70
f 231/8/71 230/11/71 229/11/71
f 230/11/71 231/8/71 232/8/71
f 235/13/72 234/6/72 233/13/72
s 0
f 234/6/72 235/13/72 236/6/72
f 239/14/73 238/12/73 237/14/73
f 238/12/73 239/14/73 240/12/73
f 243/3/74 242/10/74 241/3/74
f 242/10/74 243/3/74 244/10/74
s 1
f 247/15/75 246/5/76 245/5/76
f 246/5/76 247/15/75 248/15/77
s 0
f 251/9/2 250/9/2 249/9/2
f 250/9/2 251/9/2 252/9/2
s 1
f 255/13/36 254/13/1 253/13/1
f 254/13/1 255/13/36 256/13/36
f 259/10/1 258/10/78 257/10/1
f 258/10/78 259/10/1 260/10/79
s 0
f 263/7/80 262/8/80 261/8/80
f 262/8/80 263/7/80 264/7/80
f 267/6/81 266/9/81 265/6/81
f 266/9/81 267/6/81 268/9/81
f 271/5/2 270/5/2 269/5/2
f 270/5/2 271/5/2 272/5/2
f 275/16/4 274/13/4 273/16/4
f 274/13/4 275/16/4 276/13/4
f 279/7/82 278/8/82 277/7/82
f 278/8/82 279/7/82 280/8/82
f 283/12/83 282/4/83 281/12/83
f 282/4/83 283/12/83 284/4/83
f 287/9/84 286/4/84 285/4/84
f 286/4/84 287/9/84 288/9/84
s 1
f 291/9/85 290/6/86 289/6/86
f 290/6/86 291/9/85 292/9/24
s 0
f 295/14/87 294/12/87 293/12/87
f 294/12/87 295/14/87 296/14/87
f 299/3/88 298/10/88 297/10/88
f 298/10/88 299/3/88 300/3/88
f 303/9/89 302/6/89 301/6/89
f 302/6/89 303/9/89 304/9/89
f 307/4/90 306/9/90 305/4/90
f 306/9/90 307/4/90 308/9/90
s 1
f 311/4/91 310/12/92 309/4/91
f 310/12/92 311/4/91 312/12/93
s 0
f 315/16/2 314/16/2 313/16/2
f 314/16/2 315/16/2 316/16/2
