# Blender 5.1.0
# www.blender.org
mtllib stairs_full.mtl
o stairs-full-col
v -0.223768 0.236042 -0.500000
v -0.223768 0.273542 -0.500000
v -0.223768 0.236042 0.500000
v -0.223768 0.273542 0.500000
v -0.453768 -0.013958 0.500000
v -0.453768 -0.013958 -0.500000
v -0.473768 -0.013958 0.500000
v -0.473768 -0.013958 -0.500000
v -0.328768 0.023542 -0.500000
v -0.328768 0.111042 -0.500000
v -0.328768 0.023542 0.500000
v -0.328768 0.111042 0.500000
v 0.421232 -0.226458 0.500000
v 0.421232 -0.226458 -0.500000
v -0.578768 -0.226458 0.500000
v -0.578768 -0.226458 -0.500000
v -0.203768 0.236042 0.500000
v -0.203768 0.236042 -0.500000
v -0.223768 0.236042 0.500000
v -0.223768 0.236042 -0.500000
v -0.328768 0.023542 0.500000
v -0.473768 0.023542 0.500000
v -0.328768 0.023542 -0.500000
v -0.473768 0.023542 -0.500000
v -0.473768 -0.013958 -0.500000
v -0.473768 0.023542 -0.500000
v -0.473768 -0.013958 0.500000
v -0.473768 0.023542 0.500000
v -0.453768 -0.101458 0.500000
v -0.598768 -0.101458 0.500000
v -0.453768 -0.101458 -0.500000
v -0.598768 -0.101458 -0.500000
v 0.421232 -0.226458 -0.500000
v 0.421232 -0.226458 0.500000
v 0.421232 0.273542 -0.500000
v 0.421232 0.273542 0.500000
v -0.203768 0.148542 -0.500000
v -0.203768 0.236042 -0.500000
v -0.203768 0.148542 0.500000
v -0.203768 0.236042 0.500000
v -0.328768 0.111042 0.500000
v -0.328768 0.111042 -0.500000
v -0.348768 0.111042 0.500000
v -0.348768 0.111042 -0.500000
v -0.598768 -0.138958 -0.500000
v -0.598768 -0.101458 -0.500000
v -0.598768 -0.138958 0.500000
v -0.598768 -0.101458 0.500000
v -0.453768 -0.101458 -0.500000
v -0.453768 -0.013958 -0.500000
v -0.453768 -0.101458 0.500000
v -0.453768 -0.013958 0.500000
v -0.578768 -0.226458 -0.500000
v -0.578768 -0.138958 -0.500000
v -0.578768 -0.226458 0.500000
v -0.578768 -0.138958 0.500000
v -0.598768 -0.138958 -0.500000
v -0.578768 -0.138958 -0.500000
v -0.598768 -0.101458 -0.500000
v -0.453768 -0.101458 -0.500000
v 0.421232 -0.226458 -0.500000
v -0.578768 -0.226458 -0.500000
v 0.421232 0.273542 -0.500000
v -0.328768 0.023542 -0.500000
v -0.453768 -0.013958 -0.500000
v -0.473768 0.023542 -0.500000
v -0.473768 -0.013958 -0.500000
v -0.328768 0.111042 -0.500000
v -0.203768 0.148542 -0.500000
v -0.348768 0.148542 -0.500000
v -0.348768 0.111042 -0.500000
v -0.203768 0.236042 -0.500000
v -0.223768 0.273542 -0.500000
v -0.223768 0.236042 -0.500000
v -0.578768 -0.138958 0.500000
v -0.578768 -0.138958 -0.500000
v -0.598768 -0.138958 0.500000
v -0.598768 -0.138958 -0.500000
v 0.421232 -0.226458 0.500000
v -0.578768 -0.226458 0.500000
v 0.421232 0.273542 0.500000
v -0.453768 -0.101458 0.500000
v -0.578768 -0.138958 0.500000
v -0.598768 -0.101458 0.500000
v -0.598768 -0.138958 0.500000
v -0.328768 0.023542 0.500000
v -0.453768 -0.013958 0.500000
v -0.473768 0.023542 0.500000
v -0.473768 -0.013958 0.500000
v -0.328768 0.111042 0.500000
v -0.203768 0.148542 0.500000
v -0.348768 0.148542 0.500000
v -0.348768 0.111042 0.500000
v -0.203768 0.236042 0.500000
v -0.223768 0.273542 0.500000
v -0.223768 0.236042 0.500000
v -0.348768 0.111042 -0.500000
v -0.348768 0.148542 -0.500000
v -0.348768 0.111042 0.500000
v -0.348768 0.148542 0.500000
v -0.203768 0.148542 0.500000
v -0.348768 0.148542 0.500000
v -0.203768 0.148542 -0.500000
v -0.348768 0.148542 -0.500000
v 0.421232 0.273542 -0.500000
v 0.421232 0.273542 0.500000
v -0.223768 0.273542 -0.500000
v -0.223768 0.273542 0.500000
vn -0.7071 -0.7071 -0.0000
vn -1.0000 -0.0000 -0.0000
vn -0.0000 -1.0000 -0.0000
vn -0.0000 1.0000 -0.0000
vn 1.0000 -0.0000 -0.0000
vn -0.0000 -0.0000 -1.0000
vn -0.0000 -0.0000 1.0000
vt 0.218750 0.460000
vt 0.218750 0.475000
vt 0.218750 0.360000
vt 0.218750 0.375000
vt 0.218750 0.410000
vt 0.218750 0.275000
vt 0.218750 0.325000
vt 0.218750 0.425000
vt 0.218750 0.310000
s 1
usemtl colormap.079
f 3/1/1 2/2/2 1/1/1
f 2/2/2 3/1/1 4/2/2
f 7/3/1 6/3/3 5/3/3
f 6/3/3 7/3/1 8/3/1
s 0
f 11/4/2 10/5/2 9/4/2
f 10/5/2 11/4/2 12/5/2
f 15/6/3 14/6/3 13/6/3
f 14/6/3 15/6/3 16/6/3
s 1
f 19/1/1 18/1/3 17/1/3
f 18/1/3 19/1/1 20/1/1
s 0
f 23/4/4 22/4/4 21/4/4
f 22/4/4 23/4/4 24/4/4
s 1
f 27/3/1 26/4/2 25/3/1
f 26/4/2 27/3/1 28/4/2
s 0
f 31/7/4 30/7/4 29/7/4
f 30/7/4 31/7/4 32/7/4
f 35/2/5 34/6/5 33/6/5
f 34/6/5 35/2/5 36/2/5
f 39/8/2 38/1/2 37/8/2
f 38/1/2 39/8/2 40/1/2
s 1
f 43/5/1 42/5/3 41/5/3
f 42/5/3 43/5/1 44/5/1
f 47/9/1 46/7/2 45/9/1
f 46/7/2 47/9/1 48/7/2
s 0
f 51/7/2 50/3/2 49/7/2
f 50/3/2 51/7/2 52/3/2
f 55/6/2 54/9/2 53/6/2
f 54/9/2 55/6/2 56/9/2
f 59/7/6 58/9/6 57/9/6
f 60/7/6 58/9/6 59/7/6
f 61/6/6 58/9/6 60/7/6
f 58/9/6 61/6/6 62/6/6
f 61/6/6 60/7/6 63/2/6
f 63/2/6 60/7/6 64/4/6
f 64/4/6 60/7/6 65/3/6
f 64/4/6 65/3/6 66/4/6
f 66/4/6 65/3/6 67/3/6
f 63/2/6 64/4/6 68/5/6
f 63/2/6 68/5/6 69/8/6
f 69/8/6 68/5/6 70/8/6
f 70/8/6 68/5/6 71/5/6
f 63/2/6 69/8/6 72/1/6
f 72/1/6 73/2/6 63/2/6
f 73/2/6 72/1/6 74/1/6
s 1
f 77/9/1 76/9/3 75/9/3
f 76/9/3 77/9/1 78/9/1
s 0
f 81/2/7 80/6/7 79/6/7
f 80/6/7 81/2/7 82/7/7
f 80/6/7 82/7/7 83/9/7
f 83/9/7 82/7/7 84/7/7
f 84/7/7 85/9/7 83/9/7
f 82/7/7 81/2/7 86/4/7
f 82/7/7 86/4/7 87/3/7
f 87/3/7 86/4/7 88/4/7
f 88/4/7 89/3/7 87/3/7
f 86/4/7 81/2/7 90/5/7
f 90/5/7 81/2/7 91/8/7
f 90/5/7 91/8/7 92/8/7
f 92/8/7 93/5/7 90/5/7
f 91/8/7 81/2/7 94/1/7
f 94/1/7 81/2/7 95/2/7
f 95/2/7 96/1/7 94/1/7
s 1
f 99/5/1 98/8/2 97/5/1
f 98/8/2 99/5/1 100/8/2
s 0
f 103/8/4 102/8/4 101/8/4
f 102/8/4 103/8/4 104/8/4
f 107/2/4 106/2/4 105/2/4
f 106/2/4 107/2/4 108/2/4
