# Blender 5.1.0
# www.blender.org
mtllib stairs_stone.mtl
o stairs-stone-col
v -0.142149 -0.039125 -0.250000
v -0.142149 -0.001625 -0.250000
v -0.142149 -0.039125 0.250000
v -0.142149 -0.001625 0.250000
v -0.372149 -0.289125 0.250000
v -0.372149 -0.289125 -0.250000
v -0.392149 -0.289125 0.250000
v -0.392149 -0.289125 -0.250000
v 0.252851 0.248375 -0.250000
v 0.252851 0.335875 -0.250000
v 0.252851 0.248375 0.250000
v 0.252851 0.335875 0.250000
v 0.377851 0.460875 0.250000
v 0.377851 0.460875 -0.250000
v 0.357851 0.460875 0.250000
v 0.357851 0.460875 -0.250000
v 0.377851 0.373375 -0.250000
v 0.377851 0.460875 -0.250000
v 0.377851 0.373375 0.250000
v 0.377851 0.460875 0.250000
v 0.357851 0.460875 -0.250000
v 0.357851 0.498375 -0.250000
v 0.357851 0.460875 0.250000
v 0.357851 0.498375 0.250000
v -0.247149 -0.251625 -0.250000
v -0.247149 -0.164125 -0.250000
v -0.247149 -0.251625 0.250000
v -0.247149 -0.164125 0.250000
v -0.422149 -0.501625 0.250000
v -0.422149 -0.501625 -0.250000
v -0.497149 -0.501625 0.250000
v -0.497149 -0.501625 -0.250000
v -0.122149 -0.039125 0.250000
v -0.122149 -0.039125 -0.250000
v -0.142149 -0.039125 0.250000
v -0.142149 -0.039125 -0.250000
v -0.017149 0.085875 -0.250000
v -0.017149 0.123375 -0.250000
v -0.017149 0.085875 0.250000
v -0.017149 0.123375 0.250000
v -0.247149 -0.251625 -0.250000
v -0.247149 -0.251625 0.250000
v -0.392149 -0.251625 -0.250000
v -0.392149 -0.251625 0.250000
v 0.127851 0.123375 -0.250000
v 0.127851 0.123375 0.250000
v -0.017149 0.123375 -0.250000
v -0.017149 0.123375 0.250000
v -0.392149 -0.289125 -0.250000
v -0.392149 -0.251625 -0.250000
v -0.392149 -0.289125 0.250000
v -0.392149 -0.251625 0.250000
v 0.002851 -0.001625 -0.250000
v 0.002851 0.085875 -0.250000
v 0.002851 -0.001625 0.250000
v 0.002851 0.085875 0.250000
v -0.372149 -0.376625 -0.250000
v -0.372149 -0.376625 0.250000
v -0.517149 -0.376625 -0.250000
v -0.517149 -0.376625 0.250000
v 0.502851 0.498375 -0.250000
v 0.502851 0.423375 -0.250000
v 0.502851 0.498375 0.250000
v 0.502851 0.423375 0.250000
v -0.122149 -0.126625 -0.250000
v -0.122149 -0.039125 -0.250000
v -0.122149 -0.126625 0.250000
v -0.122149 -0.039125 0.250000
v 0.127851 0.123375 -0.250000
v 0.127851 0.210875 -0.250000
v 0.127851 0.123375 0.250000
v 0.127851 0.210875 0.250000
v 0.252851 0.335875 0.250000
v 0.252851 0.335875 -0.250000
v 0.232851 0.335875 0.250000
v 0.232851 0.335875 -0.250000
v 0.252851 0.248375 -0.250000
v 0.252851 0.248375 0.250000
v 0.107851 0.248375 -0.250000
v 0.107851 0.248375 0.250000
v 0.232851 0.335875 -0.250000
v 0.232851 0.373375 -0.250000
v 0.232851 0.335875 0.250000
v 0.232851 0.373375 0.250000
v -0.247149 -0.164125 0.250000
v -0.247149 -0.164125 -0.250000
v -0.267149 -0.164125 0.250000
v -0.267149 -0.164125 -0.250000
v -0.517149 -0.414125 -0.250000
v -0.517149 -0.376625 -0.250000
v -0.517149 -0.414125 0.250000
v -0.517149 -0.376625 0.250000
v -0.372149 -0.376625 -0.250000
v -0.372149 -0.289125 -0.250000
v -0.372149 -0.376625 0.250000
v -0.372149 -0.289125 0.250000
v 0.377851 0.373375 -0.250000
v 0.377851 0.373375 0.250000
v 0.232851 0.373375 -0.250000
v 0.232851 0.373375 0.250000
v -0.497149 -0.501625 -0.250000
v -0.497149 -0.414125 -0.250000
v -0.497149 -0.501625 0.250000
v -0.497149 -0.414125 0.250000
v 0.002851 -0.001625 -0.250000
v 0.002851 -0.001625 0.250000
v -0.142149 -0.001625 -0.250000
v -0.142149 -0.001625 0.250000
v 0.002851 0.085875 0.250000
v 0.002851 0.085875 -0.250000
v -0.017149 0.085875 0.250000
v -0.017149 0.085875 -0.250000
v 0.502851 0.498375 -0.250000
v 0.502851 0.498375 0.250000
v 0.357851 0.498375 -0.250000
v 0.357851 0.498375 0.250000
v -0.517149 -0.414125 -0.250000
v -0.497149 -0.414125 -0.250000
v -0.517149 -0.376625 -0.250000
v -0.372149 -0.376625 -0.250000
v -0.422149 -0.501625 -0.250000
v -0.497149 -0.501625 -0.250000
v 0.502851 0.423375 -0.250000
v -0.247149 -0.251625 -0.250000
v -0.372149 -0.289125 -0.250000
v -0.392149 -0.251625 -0.250000
v -0.392149 -0.289125 -0.250000
v -0.122149 -0.126625 -0.250000
v -0.247149 -0.164125 -0.250000
v -0.267149 -0.126625 -0.250000
v -0.267149 -0.164125 -0.250000
v 0.002851 -0.001625 -0.250000
v -0.122149 -0.039125 -0.250000
v -0.142149 -0.001625 -0.250000
v -0.142149 -0.039125 -0.250000
v 0.127851 0.123375 -0.250000
v 0.002851 0.085875 -0.250000
v -0.017149 0.123375 -0.250000
v -0.017149 0.085875 -0.250000
v 0.252851 0.248375 -0.250000
v 0.127851 0.210875 -0.250000
v 0.107851 0.248375 -0.250000
v 0.107851 0.210875 -0.250000
v 0.377851 0.373375 -0.250000
v 0.252851 0.335875 -0.250000
v 0.232851 0.373375 -0.250000
v 0.232851 0.335875 -0.250000
v 0.377851 0.460875 -0.250000
v 0.502851 0.498375 -0.250000
v 0.357851 0.498375 -0.250000
v 0.357851 0.460875 -0.250000
v -0.497149 -0.414125 0.250000
v -0.497149 -0.414125 -0.250000
v -0.517149 -0.414125 0.250000
v -0.517149 -0.414125 -0.250000
v -0.497149 -0.501625 0.250000
v -0.497149 -0.414125 0.250000
v -0.422149 -0.501625 0.250000
v -0.372149 -0.376625 0.250000
v 0.502851 0.423375 0.250000
v -0.247149 -0.251625 0.250000
v -0.517149 -0.376625 0.250000
v -0.517149 -0.414125 0.250000
v -0.372149 -0.289125 0.250000
v -0.392149 -0.251625 0.250000
v -0.392149 -0.289125 0.250000
v -0.122149 -0.126625 0.250000
v -0.247149 -0.164125 0.250000
v -0.267149 -0.126625 0.250000
v -0.267149 -0.164125 0.250000
v 0.002851 -0.001625 0.250000
v -0.122149 -0.039125 0.250000
v -0.142149 -0.001625 0.250000
v -0.142149 -0.039125 0.250000
v 0.127851 0.123375 0.250000
v 0.002851 0.085875 0.250000
v -0.017149 0.123375 0.250000
v -0.017149 0.085875 0.250000
v 0.252851 0.248375 0.250000
v 0.127851 0.210875 0.250000
v 0.107851 0.248375 0.250000
v 0.107851 0.210875 0.250000
v 0.377851 0.373375 0.250000
v 0.252851 0.335875 0.250000
v 0.232851 0.373375 0.250000
v 0.232851 0.335875 0.250000
v 0.377851 0.460875 0.250000
v 0.502851 0.498375 0.250000
v 0.357851 0.498375 0.250000
v 0.357851 0.460875 0.250000
v -0.267149 -0.164125 -0.250000
v -0.267149 -0.126625 -0.250000
v -0.267149 -0.164125 0.250000
v -0.267149 -0.126625 0.250000
v -0.422149 -0.501625 -0.250000
v -0.422149 -0.501625 0.250000
v 0.502851 0.423375 -0.250000
v 0.502851 0.423375 0.250000
v -0.122149 -0.126625 -0.250000
v -0.122149 -0.126625 0.250000
v -0.267149 -0.126625 -0.250000
v -0.267149 -0.126625 0.250000
v 0.127851 0.210875 0.250000
v 0.127851 0.210875 -0.250000
v 0.107851 0.210875 0.250000
v 0.107851 0.210875 -0.250000
v 0.107851 0.210875 -0.250000
v 0.107851 0.248375 -0.250000
v 0.107851 0.210875 0.250000
v 0.107851 0.248375 0.250000
vn -0.7071 -0.7071 -0.0000
vn -1.0000 -0.0000 -0.0000
vn -0.0000 -1.0000 -0.0000
vn -0.0000 1.0000 -0.0000
vn 1.0000 -0.0000 -0.0000
vn -0.0000 -0.0000 -1.0000
vn -0.0000 -0.0000 1.0000
vn 0.7071 -0.7071 -0.0000
vt 0.218750 0.367500
vt 0.218750 0.375000
vt 0.218750 0.317500
vt 0.218750 0.425000
vt 0.218750 0.442500
vt 0.218750 0.467500
vt 0.218750 0.450000
vt 0.218750 0.475000
vt 0.218750 0.325000
vt 0.218750 0.342500
vt 0.218750 0.275000
vt 0.218750 0.392500
vt 0.218750 0.400000
vt 0.218750 0.300000
vt 0.218750 0.460000
vt 0.218750 0.350000
vt 0.218750 0.417500
vt 0.218750 0.292500
s 1
usemtl colormap.083
f 3/1/1 2/2/2 1/1/1
f 2/2/2 3/1/1 4/2/2
f 7/3/1 6/3/3 5/3/3
f 6/3/3 7/3/1 8/3/1
s 0
f 11/4/2 10/5/2 9/4/2
f 10/5/2 11/4/2 12/5/2
s 1
f 15/6/1 14/6/1 13/6/1
f 14/6/1 15/6/1 16/6/1
f 19/7/2 18/6/1 17/7/2
f 18/6/1 19/7/2 20/6/1
f 23/6/1 22/8/2 21/6/1
f 22/8/2 23/6/1 24/8/2
s 0
f 27/9/2 26/10/2 25/9/2
f 26/10/2 27/9/2 28/10/2
f 31/11/3 30/11/3 29/11/3
f 30/11/3 31/11/3 32/11/3
s 1
f 35/1/1 34/1/3 33/1/3
f 34/1/3 35/1/1 36/1/1
f 39/12/1 38/13/2 37/12/1
f 38/13/2 39/12/1 40/13/2
s 0
f 43/9/4 42/9/4 41/9/4
f 42/9/4 43/9/4 44/9/4
f 47/13/4 46/13/4 45/13/4
f 46/13/4 47/13/4 48/13/4
s 1
f 51/3/1 50/9/2 49/3/1
f 50/9/2 51/3/1 52/9/2
s 0
f 55/2/2 54/12/2 53/2/2
f 54/12/2 55/2/2 56/12/2
f 59/14/4 58/14/4 57/14/4
f 58/14/4 59/14/4 60/14/4
f 63/8/5 62/15/5 61/8/5
f 62/15/5 63/8/5 64/15/5
f 67/16/2 66/1/2 65/16/2
f 66/1/2 67/16/2 68/1/2
f 71/13/2 70/17/2 69/13/2
f 70/17/2 71/13/2 72/17/2
s 1
f 75/5/1 74/5/3 73/5/3
f 74/5/3 75/5/1 76/5/1
s 0
f 79/4/4 78/4/4 77/4/4
f 78/4/4 79/4/4 80/4/4
s 1
f 83/5/1 82/7/2 81/5/1
f 82/7/2 83/5/1 84/7/2
f 87/10/1 86/10/3 85/10/3
f 86/10/3 87/10/1 88/10/1
f 91/18/1 90/14/2 89/18/1
f 90/14/2 91/18/1 92/14/2
s 0
f 95/14/2 94/3/2 93/14/2
f 94/3/2 95/14/2 96/3/2
f 99/7/4 98/7/4 97/7/4
f 98/7/4 99/7/4 100/7/4
f 103/11/2 102/18/2 101/11/2
f 102/18/2 103/11/2 104/18/2
f 107/2/4 106/2/4 105/2/4
f 106/2/4 107/2/4 108/2/4
s 1
f 111/12/1 110/12/3 109/12/3
f 110/12/3 111/12/1 112/12/1
s 0
f 115/8/4 114/8/4 113/8/4
f 114/8/4 115/8/4 116/8/4
f 119/14/6 118/18/6 117/18/6
f 120/14/6 118/18/6 119/14/6
f 121/11/6 118/18/6 120/14/6
f 118/18/6 121/11/6 122/11/6
f 121/11/6 120/14/6 123/15/6
f 123/15/6 120/14/6 124/9/6
f 124/9/6 120/14/6 125/3/6
f 124/9/6 125/3/6 126/9/6
f 126/9/6 125/3/6 127/3/6
f 123/15/6 124/9/6 128/16/6
f 128/16/6 124/9/6 129/10/6
f 128/16/6 129/10/6 130/16/6
f 130/16/6 129/10/6 131/10/6
f 123/15/6 128/16/6 132/2/6
f 132/2/6 128/16/6 133/1/6
f 132/2/6 133/1/6 134/2/6
f 134/2/6 133/1/6 135/1/6
f 123/15/6 132/2/6 136/13/6
f 136/13/6 132/2/6 137/12/6
f 136/13/6 137/12/6 138/13/6
f 138/13/6 137/12/6 139/12/6
f 123/15/6 136/13/6 140/4/6
f 140/4/6 136/13/6 141/17/6
f 140/4/6 141/17/6 142/4/6
f 142/4/6 141/17/6 143/17/6
f 123/15/6 140/4/6 144/7/6
f 144/7/6 140/4/6 145/5/6
f 144/7/6 145/5/6 146/7/6
f 146/7/6 145/5/6 147/5/6
f 123/15/6 144/7/6 148/6/6
f 123/15/6 148/6/6 149/8/6
f 149/8/6 148/6/6 150/8/6
f 150/8/6 148/6/6 151/6/6
s 1
f 154/18/1 153/18/3 152/18/3
f 153/18/3 154/18/1 155/18/1
s 0
f 158/11/7 157/18/7 156/11/7
f 157/18/7 158/11/7 159/14/7
f 159/14/7 158/11/7 160/15/7
f 159/14/7 160/15/7 161/9/7
f 157/18/7 159/14/7 162/14/7
f 162/14/7 163/18/7 157/18/7
f 159/14/7 161/9/7 164/3/7
f 164/3/7 161/9/7 165/9/7
f 165/9/7 166/3/7 164/3/7
f 161/9/7 160/15/7 167/16/7
f 161/9/7 167/16/7 168/10/7
f 168/10/7 167/16/7 169/16/7
f 169/16/7 170/10/7 168/10/7
f 167/16/7 160/15/7 171/2/7
f 167/16/7 171/2/7 172/1/7
f 172/1/7 171/2/7 173/2/7
f 173/2/7 174/1/7 172/1/7
f 171/2/7 160/15/7 175/13/7
f 171/2/7 175/13/7 176/12/7
f 176/12/7 175/13/7 177/13/7
f 177/13/7 178/12/7 176/12/7
f 175/13/7 160/15/7 179/4/7
f 175/13/7 179/4/7 180/17/7
f 180/17/7 179/4/7 181/4/7
f 181/4/7 182/17/7 180/17/7
f 179/4/7 160/15/7 183/7/7
f 179/4/7 183/7/7 184/5/7
f 184/5/7 183/7/7 185/7/7
f 185/7/7 186/5/7 184/5/7
f 183/7/7 160/15/7 187/6/7
f 187/6/7 160/15/7 188/8/7
f 187/6/7 188/8/7 189/8/7
f 189/8/7 190/6/7 187/6/7
s 1
f 193/10/1 192/16/2 191/10/1
f 192/16/2 193/10/1 194/16/2
s 0
f 197/15/8 196/11/8 195/11/8
f 196/11/8 197/15/8 198/15/8
f 201/16/4 200/16/4 199/16/4
f 200/16/4 201/16/4 202/16/4
s 1
f 205/17/1 204/17/3 203/17/3
f 204/17/3 205/17/1 206/17/1
f 209/17/1 208/4/2 207/17/1
f 208/4/2 209/17/1 210/4/2
