# Blender 5.1.0
# www.blender.org
mtllib stairs_stone_corner.mtl
o stairs-stone-corner-col
v 0.331865 -0.342414 0.482537
v -0.168135 -0.342414 0.482537
v 0.331865 0.657586 0.482537
v -0.168135 0.657586 0.482537
v -0.168135 -0.342414 -0.017463
v -0.593135 -0.342414 -0.017463
v -0.168135 0.157586 -0.017463
v -0.543135 -0.217414 -0.017463
v -0.668135 -0.254914 -0.017463
v -0.668135 -0.342414 -0.017463
v -0.688135 -0.217414 -0.017463
v -0.688135 -0.254914 -0.017463
v -0.418135 -0.092414 -0.017463
v -0.543135 -0.129914 -0.017463
v -0.563135 -0.092414 -0.017463
v -0.563135 -0.129914 -0.017463
v -0.293135 0.032586 -0.017463
v -0.418135 -0.004914 -0.017463
v -0.438135 0.032586 -0.017463
v -0.438135 -0.004914 -0.017463
v -0.293135 0.120086 -0.017463
v -0.313135 0.157586 -0.017463
v -0.313135 0.120086 -0.017463
v 0.331865 0.532586 0.137537
v 0.331865 0.532586 0.282537
v -0.168135 0.532586 0.137537
v -0.168135 0.532586 0.282537
v -0.543135 -0.217414 -0.517463
v -0.543135 -0.217414 -0.017463
v -0.688135 -0.217414 -0.517463
v -0.688135 -0.217414 -0.017463
v 0.331865 0.245086 -0.112463
v -0.168135 0.245086 -0.112463
v 0.331865 0.245086 -0.092463
v -0.168135 0.245086 -0.092463
v -0.168135 0.495086 0.137537
v 0.331865 0.495086 0.137537
v -0.168135 0.532586 0.137537
v 0.331865 0.532586 0.137537
v -0.168135 0.370086 0.012537
v 0.331865 0.370086 0.012537
v -0.168135 0.407586 0.012537
v 0.331865 0.407586 0.012537
v -0.168135 0.282586 0.032537
v 0.331865 0.282586 0.032537
v -0.168135 0.370086 0.032537
v 0.331865 0.370086 0.032537
v -0.418135 -0.092414 -0.517463
v -0.418135 -0.004914 -0.517463
v -0.418135 -0.092414 -0.017463
v -0.418135 -0.004914 -0.017463
v 0.331865 0.407586 0.012537
v 0.331865 0.407586 0.157537
v -0.168135 0.407586 0.012537
v -0.168135 0.407586 0.157537
v -0.293135 0.032586 -0.517463
v -0.293135 0.032586 -0.017463
v -0.438135 0.032586 -0.517463
v -0.438135 0.032586 -0.017463
v -0.313135 0.120086 -0.517463
v -0.313135 0.157586 -0.517463
v -0.313135 0.120086 -0.017463
v -0.313135 0.157586 -0.017463
v -0.168135 0.157586 -0.092463
v 0.331865 0.157586 -0.092463
v -0.168135 0.245086 -0.092463
v 0.331865 0.245086 -0.092463
v 0.331865 0.657586 0.262537
v 0.331865 0.657586 0.482537
v -0.168135 0.657586 0.262537
v -0.168135 0.657586 0.482537
v 0.331865 0.157586 -0.517463
v 0.331865 0.157586 -0.092463
v -0.313135 0.157586 -0.517463
v -0.168135 0.157586 -0.092463
v -0.168135 0.157586 -0.017463
v -0.313135 0.157586 -0.017463
v -0.563135 -0.129914 -0.517463
v -0.563135 -0.092414 -0.517463
v -0.563135 -0.129914 -0.017463
v -0.563135 -0.092414 -0.017463
v 0.331865 0.282586 -0.112463
v 0.331865 0.282586 0.032537
v -0.168135 0.282586 -0.112463
v -0.168135 0.282586 0.032537
v 0.331865 0.620086 0.262537
v -0.168135 0.620086 0.262537
v 0.331865 0.620086 0.282537
v -0.168135 0.620086 0.282537
v -0.168135 0.532586 0.282537
v 0.331865 0.532586 0.282537
v -0.168135 0.620086 0.282537
v 0.331865 0.620086 0.282537
v 0.331865 0.495086 0.137537
v -0.168135 0.495086 0.137537
v 0.331865 0.495086 0.157537
v -0.168135 0.495086 0.157537
v -0.168135 0.157586 -0.092463
v -0.168135 0.245086 -0.092463
v -0.168135 0.157586 -0.017463
v -0.168135 0.282586 0.032537
v -0.168135 -0.342414 -0.017463
v -0.168135 0.245086 -0.112463
v -0.168135 0.282586 -0.112463
v -0.168135 -0.342414 0.482537
v -0.168135 0.370086 0.032537
v -0.168135 0.407586 0.157537
v -0.168135 0.370086 0.012537
v -0.168135 0.407586 0.012537
v -0.168135 0.532586 0.282537
v -0.168135 0.495086 0.157537
v -0.168135 0.495086 0.137537
v -0.168135 0.532586 0.137537
v -0.168135 0.620086 0.282537
v -0.168135 0.657586 0.482537
v -0.168135 0.657586 0.262537
v -0.168135 0.620086 0.262537
v -0.543135 -0.217414 -0.517463
v -0.543135 -0.129914 -0.517463
v -0.543135 -0.217414 -0.017463
v -0.543135 -0.129914 -0.017463
v -0.168135 0.620086 0.262537
v 0.331865 0.620086 0.262537
v -0.168135 0.657586 0.262537
v 0.331865 0.657586 0.262537
v -0.168135 0.407586 0.157537
v 0.331865 0.407586 0.157537
v -0.168135 0.495086 0.157537
v 0.331865 0.495086 0.157537
v -0.293135 0.120086 -0.017463
v -0.293135 0.120086 -0.517463
v -0.313135 0.120086 -0.017463
v -0.313135 0.120086 -0.517463
v -0.168135 0.245086 -0.112463
v 0.331865 0.245086 -0.112463
v -0.168135 0.282586 -0.112463
v 0.331865 0.282586 -0.112463
v -0.293135 0.032586 -0.517463
v -0.293135 0.120086 -0.517463
v -0.293135 0.032586 -0.017463
v -0.293135 0.120086 -0.017463
v 0.331865 0.370086 0.012537
v -0.168135 0.370086 0.012537
v 0.331865 0.370086 0.032537
v -0.168135 0.370086 0.032537
v -0.543135 -0.129914 -0.017463
v -0.543135 -0.129914 -0.517463
v -0.563135 -0.129914 -0.017463
v -0.563135 -0.129914 -0.517463
v 0.331865 0.282586 -0.112463
v 0.331865 0.245086 -0.112463
v 0.331865 0.282586 0.032537
v 0.331865 0.245086 -0.092463
v 0.331865 -0.342414 0.482537
v 0.331865 0.157586 -0.092463
v 0.331865 0.157586 -0.517463
v 0.331865 -0.342414 -0.517463
v 0.331865 0.407586 0.157537
v 0.331865 0.370086 0.032537
v 0.331865 0.370086 0.012537
v 0.331865 0.407586 0.012537
v 0.331865 0.532586 0.282537
v 0.331865 0.495086 0.157537
v 0.331865 0.495086 0.137537
v 0.331865 0.532586 0.137537
v 0.331865 0.620086 0.282537
v 0.331865 0.657586 0.482537
v 0.331865 0.620086 0.262537
v 0.331865 0.657586 0.262537
v -0.668135 -0.342414 -0.517463
v -0.593135 -0.342414 -0.517463
v -0.668135 -0.254914 -0.517463
v -0.543135 -0.217414 -0.517463
v -0.688135 -0.217414 -0.517463
v -0.688135 -0.254914 -0.517463
v 0.331865 0.157586 -0.517463
v 0.331865 -0.342414 -0.517463
v -0.418135 -0.092414 -0.517463
v -0.543135 -0.129914 -0.517463
v -0.563135 -0.092414 -0.517463
v -0.563135 -0.129914 -0.517463
v -0.418135 -0.004914 -0.517463
v -0.293135 0.032586 -0.517463
v -0.438135 0.032586 -0.517463
v -0.438135 -0.004914 -0.517463
v -0.293135 0.120086 -0.517463
v -0.313135 0.157586 -0.517463
v -0.313135 0.120086 -0.517463
v -0.668135 -0.342414 -0.517463
v -0.668135 -0.254914 -0.517463
v -0.668135 -0.342414 -0.017463
v -0.668135 -0.254914 -0.017463
v -0.418135 -0.092414 -0.517463
v -0.418135 -0.092414 -0.017463
v -0.563135 -0.092414 -0.517463
v -0.563135 -0.092414 -0.017463
v -0.593135 -0.342414 -0.017463
v -0.593135 -0.342414 -0.517463
v -0.668135 -0.342414 -0.017463
v -0.668135 -0.342414 -0.517463
v -0.688135 -0.254914 -0.517463
v -0.688135 -0.217414 -0.517463
v -0.688135 -0.254914 -0.017463
v -0.688135 -0.217414 -0.017463
v -0.418135 -0.004914 -0.017463
v -0.418135 -0.004914 -0.517463
v -0.438135 -0.004914 -0.017463
v -0.438135 -0.004914 -0.517463
v -0.438135 -0.004914 -0.517463
v -0.438135 0.032586 -0.517463
v -0.438135 -0.004914 -0.017463
v -0.438135 0.032586 -0.017463
v -0.668135 -0.254914 -0.017463
v -0.668135 -0.254914 -0.517463
v -0.688135 -0.254914 -0.017463
v -0.688135 -0.254914 -0.517463
v 0.331865 -0.342414 0.482537
v 0.331865 -0.342414 -0.517463
v -0.168135 -0.342414 0.482537
v -0.168135 -0.342414 -0.017463
v -0.593135 -0.342414 -0.517463
v -0.593135 -0.342414 -0.017463
vn -0.0000 -0.0000 1.0000
vn 0.7071 -0.7071 -0.0000
vn 0.5774 -0.8130 -0.0749
vn 0.7071 -0.7071 -0.0001
vn -0.0000 -0.0000 -1.0000
vn -0.0000 1.0000 -0.0000
vn -0.0000 -1.0000 -0.0000
vn -0.0000 -0.7071 -0.7071
vn -1.0000 -0.0000 -0.0000
vn -0.7071 -0.7071 -0.0000
vn 1.0000 -0.0000 -0.0000
vt 0.218750 0.475000
vt 0.218750 0.275000
vt 0.218750 0.375000
vt 0.218750 0.300000
vt 0.218750 0.292500
vt 0.218750 0.325000
vt 0.218750 0.317500
vt 0.218750 0.350000
vt 0.218750 0.342500
vt 0.218750 0.367500
vt 0.218750 0.450000
vt 0.218750 0.392500
vt 0.218750 0.442500
vt 0.218750 0.425000
vt 0.218750 0.417500
vt 0.218750 0.400000
vt 0.218750 0.467500
vt 0.343750 0.275000
s 0
usemtl colormap.080
f 3/1/1 2/2/1 1/2/1
f 2/2/1 3/1/1 4/1/1
f 7/3/1 6/2/1 5/2/1
f 6/2/1 7/3/1 8/4/1
f 6/2/1 8/4/1 9/5/1
f 9/5/1 10/2/1 6/2/1
f 9/5/1 8/4/1 11/4/1
f 11/4/1 12/5/1 9/5/1
s 1
f 8/4/2 7/3/3 13/6/4
s 0
f 8/4/1 13/6/1 14/7/1
f 14/7/1 13/6/1 15/6/1
f 15/6/1 16/7/1 14/7/1
s 1
f 13/6/4 7/3/3 17/8/5
s 0
f 13/6/1 17/8/1 18/9/1
f 18/9/1 17/8/1 19/8/1
f 19/8/1 20/9/1 18/9/1
f 17/8/1 7/3/1 21/10/1
f 21/10/1 7/3/1 22/3/1
f 22/3/1 23/10/1 21/10/1
f 26/11/6 25/11/6 24/11/6
f 25/11/6 26/11/6 27/11/6
f 30/4/6 29/4/6 28/4/6
f 29/4/6 30/4/6 31/4/6
s 1
f 34/12/7 33/12/8 32/12/8
f 33/12/8 34/12/7 35/12/7
f 38/11/5 37/13/8 36/13/8
f 37/13/8 38/11/5 39/11/5
f 42/14/5 41/15/8 40/15/8
f 41/15/8 42/14/5 43/14/5
s 0
f 46/15/5 45/16/5 44/16/5
f 45/16/5 46/15/5 47/15/5
f 50/6/9 49/9/9 48/6/9
f 49/9/9 50/6/9 51/9/9
f 54/14/6 53/14/6 52/14/6
f 53/14/6 54/14/6 55/14/6
f 58/8/6 57/8/6 56/8/6
f 57/8/6 58/8/6 59/8/6
s 1
f 62/10/10 61/3/9 60/10/10
f 61/3/9 62/10/10 63/3/9
s 0
f 66/12/5 65/3/5 64/3/5
f 65/3/5 66/12/5 67/12/5
f 70/1/6 69/1/6 68/1/6
f 69/1/6 70/1/6 71/1/6
f 74/3/6 73/3/6 72/3/6
f 73/3/6 74/3/6 75/3/6
f 75/3/6 74/3/6 76/3/6
f 76/3/6 74/3/6 77/3/6
s 1
f 80/7/10 79/6/9 78/7/10
f 79/6/9 80/7/10 81/6/9
s 0
f 84/16/6 83/16/6 82/16/6
f 83/16/6 84/16/6 85/16/6
s 1
f 88/17/7 87/17/8 86/17/8
f 87/17/8 88/17/7 89/17/7
s 0
f 92/17/5 91/11/5 90/11/5
f 91/11/5 92/17/5 93/17/5
s 1
f 96/13/7 95/13/8 94/13/8
f 95/13/8 96/13/7 97/13/7
s 0
f 100/3/9 99/12/9 98/3/9
f 101/16/9 99/12/9 100/3/9
f 101/16/9 100/3/9 102/2/9
f 101/16/9 103/12/9 99/12/9
f 103/12/9 101/16/9 104/16/9
f 101/16/9 102/2/9 105/2/9
f 101/16/9 105/2/9 106/15/9
f 106/15/9 105/2/9 107/14/9
f 107/14/9 108/15/9 106/15/9
f 108/15/9 107/14/9 109/14/9
f 107/14/9 105/2/9 110/11/9
f 110/11/9 111/13/9 107/14/9
f 110/11/9 112/13/9 111/13/9
f 112/13/9 110/11/9 113/11/9
f 110/11/9 105/2/9 114/17/9
f 114/17/9 105/2/9 115/1/9
f 116/1/9 114/17/9 115/1/9
f 114/17/9 116/1/9 117/17/9
f 120/4/9 119/7/9 118/4/9
f 119/7/9 120/4/9 121/7/9
s 1
f 124/1/5 123/17/8 122/17/8
f 123/17/8 124/1/5 125/1/5
s 0
f 128/13/5 127/14/5 126/14/5
f 127/14/5 128/13/5 129/13/5
s 1
f 132/10/10 131/10/7 130/10/7
f 131/10/7 132/10/10 133/10/10
f 136/16/5 135/12/8 134/12/8
f 135/12/8 136/16/5 137/16/5
s 0
f 140/8/9 139/10/9 138/8/9
f 139/10/9 140/8/9 141/10/9
s 1
f 144/15/7 143/15/8 142/15/8
f 143/15/8 144/15/7 145/15/7
f 148/7/10 147/7/7 146/7/7
f 147/7/7 148/7/10 149/7/10
s 0
f 152/16/11 151/12/11 150/16/11
f 151/12/11 152/16/11 153/12/11
f 154/2/11 153/12/11 152/16/11
f 154/2/11 155/3/11 153/12/11
f 154/2/11 156/3/11 155/3/11
f 156/3/11 154/2/11 157/2/11
f 154/2/11 152/16/11 158/14/11
f 159/15/11 158/14/11 152/16/11
f 160/15/11 158/14/11 159/15/11
f 158/14/11 160/15/11 161/14/11
f 154/2/11 158/14/11 162/11/11
f 163/13/11 162/11/11 158/14/11
f 164/13/11 162/11/11 163/13/11
f 162/11/11 164/13/11 165/11/11
f 154/2/11 162/11/11 166/17/11
f 154/2/11 166/17/11 167/1/11
f 168/17/11 167/1/11 166/17/11
f 167/1/11 168/17/11 169/1/11
f 172/5/5 171/2/5 170/2/5
f 173/4/5 171/2/5 172/5/5
f 173/4/5 172/5/5 174/4/5
f 174/4/5 172/5/5 175/5/5
f 176/3/5 171/2/5 173/4/5
f 171/2/5 176/3/5 177/2/5
f 176/3/5 173/4/5 178/6/5
f 178/6/5 173/4/5 179/7/5
f 178/6/5 179/7/5 180/6/5
f 180/6/5 179/7/5 181/7/5
f 176/3/5 178/6/5 182/9/5
f 176/3/5 182/9/5 183/8/5
f 183/8/5 182/9/5 184/8/5
f 184/8/5 182/9/5 185/9/5
f 176/3/5 183/8/5 186/10/5
f 176/3/5 186/10/5 187/3/5
f 187/3/5 186/10/5 188/10/5
f 191/2/9 190/5/9 189/2/9
f 190/5/9 191/2/9 192/5/9
f 195/6/6 194/6/6 193/6/6
f 194/6/6 195/6/6 196/6/6
f 199/2/7 198/2/7 197/2/7
f 198/2/7 199/2/7 200/2/7
s 1
f 203/5/10 202/4/9 201/5/10
f 202/4/9 203/5/10 204/4/9
f 207/9/10 206/9/7 205/9/7
f 206/9/7 207/9/10 208/9/10
f 211/9/10 210/8/9 209/9/10
f 210/8/9 211/9/10 212/8/9
f 215/5/10 214/5/7 213/5/7
f 214/5/7 215/5/10 216/5/10
s 0
f 219/18/7 218/18/7 217/18/7
f 218/18/7 219/18/7 220/18/7
f 218/18/7 220/18/7 221/18/7
f 221/18/7 220/18/7 222/18/7
