# Blender 5.1.0
# www.blender.org
mtllib stairs_stone_handrail.mtl
o stairs-stone-handrail-col
v -0.144394 -0.079561 -0.250000
v -0.144394 -0.042061 -0.250000
v -0.144394 -0.079561 0.250000
v -0.144394 -0.042061 0.250000
v -0.374394 -0.329561 0.250000
v -0.374394 -0.329561 -0.250000
v -0.394394 -0.329561 0.250000
v -0.394394 -0.329561 -0.250000
v 0.250606 0.207939 -0.250000
v 0.250606 0.295439 -0.250000
v 0.250606 0.207939 0.250000
v 0.250606 0.295439 0.250000
v 0.375606 0.420439 0.250000
v 0.375606 0.420439 -0.250000
v 0.355606 0.420439 0.250000
v 0.355606 0.420439 -0.250000
v 0.375606 0.332939 -0.250000
v 0.375606 0.420439 -0.250000
v 0.375606 0.332939 0.250000
v 0.375606 0.420439 0.250000
v 0.355606 0.420439 -0.250000
v 0.355606 0.457939 -0.250000
v 0.355606 0.420439 0.250000
v 0.355606 0.457939 0.250000
v -0.249394 -0.292061 -0.250000
v -0.249394 -0.204561 -0.250000
v -0.249394 -0.292061 0.250000
v -0.249394 -0.204561 0.250000
v -0.424394 -0.542061 0.250000
v -0.424394 -0.542061 -0.250000
v -0.499394 -0.542061 0.250000
v -0.499394 -0.542061 -0.250000
v -0.124394 -0.079561 0.250000
v -0.124394 -0.079561 -0.250000
v -0.144394 -0.079561 0.250000
v -0.144394 -0.079561 -0.250000
v -0.019394 0.045439 -0.250000
v -0.019394 0.082939 -0.250000
v -0.019394 0.045439 0.250000
v -0.019394 0.082939 0.250000
v -0.249394 -0.292061 -0.250000
v -0.249394 -0.292061 0.250000
v -0.394394 -0.292061 -0.250000
v -0.394394 -0.292061 0.250000
v 0.125606 0.082939 -0.250000
v 0.125606 0.082939 0.250000
v -0.019394 0.082939 -0.250000
v -0.019394 0.082939 0.250000
v -0.394394 -0.329561 -0.250000
v -0.394394 -0.292061 -0.250000
v -0.394394 -0.329561 0.250000
v -0.394394 -0.292061 0.250000
v 0.000606 -0.042061 -0.250000
v 0.000606 0.045439 -0.250000
v 0.000606 -0.042061 0.250000
v 0.000606 0.045439 0.250000
v -0.374394 -0.417061 -0.250000
v -0.374394 -0.417061 0.250000
v -0.519394 -0.417061 -0.250000
v -0.519394 -0.417061 0.250000
v 0.500606 0.457939 -0.250000
v 0.500606 0.382939 -0.250000
v 0.500606 0.457939 0.250000
v 0.500606 0.382939 0.250000
v -0.124394 -0.167061 -0.250000
v -0.124394 -0.079561 -0.250000
v -0.124394 -0.167061 0.250000
v -0.124394 -0.079561 0.250000
v 0.125606 0.082939 -0.250000
v 0.125606 0.170439 -0.250000
v 0.125606 0.082939 0.250000
v 0.125606 0.170439 0.250000
v 0.250606 0.295439 0.250000
v 0.250606 0.295439 -0.250000
v 0.230606 0.295439 0.250000
v 0.230606 0.295439 -0.250000
v 0.250606 0.207939 -0.250000
v 0.250606 0.207939 0.250000
v 0.105606 0.207939 -0.250000
v 0.105606 0.207939 0.250000
v 0.230606 0.295439 -0.250000
v 0.230606 0.332939 -0.250000
v 0.230606 0.295439 0.250000
v 0.230606 0.332939 0.250000
v -0.249394 -0.204561 0.250000
v -0.249394 -0.204561 -0.250000
v -0.269394 -0.204561 0.250000
v -0.269394 -0.204561 -0.250000
v -0.519394 -0.454561 -0.250000
v -0.519394 -0.417061 -0.250000
v -0.519394 -0.454561 0.250000
v -0.519394 -0.417061 0.250000
v -0.374394 -0.417061 -0.250000
v -0.374394 -0.329561 -0.250000
v -0.374394 -0.417061 0.250000
v -0.374394 -0.329561 0.250000
v 0.375606 0.332939 -0.250000
v 0.375606 0.332939 0.250000
v 0.230606 0.332939 -0.250000
v 0.230606 0.332939 0.250000
v -0.499394 -0.542061 -0.250000
v -0.499394 -0.454561 -0.250000
v -0.499394 -0.542061 0.250000
v -0.499394 -0.454561 0.250000
v 0.000606 -0.042061 -0.250000
v 0.000606 -0.042061 0.250000
v -0.144394 -0.042061 -0.250000
v -0.144394 -0.042061 0.250000
v 0.000606 0.045439 0.250000
v 0.000606 0.045439 -0.250000
v -0.019394 0.045439 0.250000
v -0.019394 0.045439 -0.250000
v 0.500606 0.457939 -0.250000
v 0.500606 0.457939 0.250000
v 0.355606 0.457939 -0.250000
v 0.355606 0.457939 0.250000
v -0.519394 -0.454561 -0.250000
v -0.499394 -0.454561 -0.250000
v -0.519394 -0.417061 -0.250000
v -0.374394 -0.417061 -0.250000
v -0.424394 -0.542061 -0.250000
v -0.499394 -0.542061 -0.250000
v 0.500606 0.382939 -0.250000
v -0.249394 -0.292061 -0.250000
v -0.374394 -0.329561 -0.250000
v -0.394394 -0.292061 -0.250000
v -0.394394 -0.329561 -0.250000
v -0.124394 -0.167061 -0.250000
v -0.249394 -0.204561 -0.250000
v -0.269394 -0.167061 -0.250000
v -0.269394 -0.204561 -0.250000
v 0.000606 -0.042061 -0.250000
v -0.124394 -0.079561 -0.250000
v -0.144394 -0.042061 -0.250000
v -0.144394 -0.079561 -0.250000
v 0.125606 0.082939 -0.250000
v 0.000606 0.045439 -0.250000
v -0.019394 0.082939 -0.250000
v -0.019394 0.045439 -0.250000
v 0.250606 0.207939 -0.250000
v 0.125606 0.170439 -0.250000
v 0.105606 0.207939 -0.250000
v 0.105606 0.170439 -0.250000
v 0.375606 0.332939 -0.250000
v 0.250606 0.295439 -0.250000
v 0.230606 0.332939 -0.250000
v 0.230606 0.295439 -0.250000
v 0.375606 0.420439 -0.250000
v 0.500606 0.457939 -0.250000
v 0.355606 0.457939 -0.250000
v 0.355606 0.420439 -0.250000
v -0.499394 -0.454561 0.250000
v -0.499394 -0.454561 -0.250000
v -0.519394 -0.454561 0.250000
v -0.519394 -0.454561 -0.250000
v -0.499394 -0.542061 0.250000
v -0.499394 -0.454561 0.250000
v -0.424394 -0.542061 0.250000
v -0.374394 -0.417061 0.250000
v 0.500606 0.382939 0.250000
v -0.249394 -0.292061 0.250000
v -0.519394 -0.417061 0.250000
v -0.519394 -0.454561 0.250000
v -0.374394 -0.329561 0.250000
v -0.394394 -0.292061 0.250000
v -0.394394 -0.329561 0.250000
v -0.124394 -0.167061 0.250000
v -0.249394 -0.204561 0.250000
v -0.269394 -0.167061 0.250000
v -0.269394 -0.204561 0.250000
v 0.000606 -0.042061 0.250000
v -0.124394 -0.079561 0.250000
v -0.144394 -0.042061 0.250000
v -0.144394 -0.079561 0.250000
v 0.125606 0.082939 0.250000
v 0.000606 0.045439 0.250000
v -0.019394 0.082939 0.250000
v -0.019394 0.045439 0.250000
v 0.250606 0.207939 0.250000
v 0.125606 0.170439 0.250000
v 0.105606 0.207939 0.250000
v 0.105606 0.170439 0.250000
v 0.375606 0.332939 0.250000
v 0.250606 0.295439 0.250000
v 0.230606 0.332939 0.250000
v 0.230606 0.295439 0.250000
v 0.375606 0.420439 0.250000
v 0.500606 0.457939 0.250000
v 0.355606 0.457939 0.250000
v 0.355606 0.420439 0.250000
v -0.269394 -0.204561 -0.250000
v -0.269394 -0.167061 -0.250000
v -0.269394 -0.204561 0.250000
v -0.269394 -0.167061 0.250000
v -0.424394 -0.542061 -0.250000
v -0.424394 -0.542061 0.250000
v 0.500606 0.382939 -0.250000
v 0.500606 0.382939 0.250000
v -0.124394 -0.167061 -0.250000
v -0.124394 -0.167061 0.250000
v -0.269394 -0.167061 -0.250000
v -0.269394 -0.167061 0.250000
v 0.125606 0.170439 0.250000
v 0.125606 0.170439 -0.250000
v 0.105606 0.170439 0.250000
v 0.105606 0.170439 -0.250000
v 0.105606 0.170439 -0.250000
v 0.105606 0.207939 -0.250000
v 0.105606 0.170439 0.250000
v 0.105606 0.207939 0.250000
v -0.519394 -0.197061 -0.210000
v -0.519394 -0.117061 -0.210000
v 0.500606 0.822939 -0.210000
v 0.500606 0.902939 -0.210000
v 0.448106 0.457939 -0.220000
v 0.408106 0.457939 -0.220000
v 0.448106 0.770439 -0.220000
v 0.408106 0.730439 -0.220000
v 0.408106 0.457939 -0.240000
v 0.408106 0.730439 -0.240000
v 0.408106 0.457939 -0.220000
v 0.408106 0.730439 -0.220000
v 0.198106 0.207939 -0.220000
v 0.158106 0.207939 -0.220000
v 0.198106 0.520439 -0.220000
v 0.158106 0.480439 -0.220000
v -0.051894 -0.042061 -0.220000
v -0.091894 -0.042061 -0.220000
v -0.051894 0.270439 -0.220000
v -0.091894 0.230439 -0.220000
v -0.051894 0.270439 -0.240000
v -0.051894 -0.042061 -0.240000
v -0.051894 0.270439 -0.220000
v -0.051894 -0.042061 -0.220000
v 0.158106 0.207939 -0.240000
v 0.198106 0.207939 -0.240000
v 0.158106 0.480439 -0.240000
v 0.198106 0.520439 -0.240000
v -0.341894 -0.292061 -0.240000
v -0.301894 -0.292061 -0.240000
v -0.341894 -0.019561 -0.240000
v -0.301894 0.020439 -0.240000
v -0.091894 -0.042061 -0.240000
v -0.051894 -0.042061 -0.240000
v -0.091894 0.230439 -0.240000
v -0.051894 0.270439 -0.240000
v 0.500606 0.902939 -0.250000
v 0.500606 0.822939 -0.250000
v 0.500606 0.902939 -0.210000
v 0.500606 0.822939 -0.210000
v -0.301894 0.020439 -0.240000
v -0.301894 -0.292061 -0.240000
v -0.301894 0.020439 -0.220000
v -0.301894 -0.292061 -0.220000
v -0.519394 -0.117061 -0.250000
v 0.500606 0.902939 -0.250000
v -0.519394 -0.117061 -0.210000
v 0.500606 0.902939 -0.210000
v -0.341894 -0.292061 -0.240000
v -0.341894 -0.019561 -0.240000
v -0.341894 -0.292061 -0.220000
v -0.341894 -0.019561 -0.220000
v 0.158106 0.207939 -0.240000
v 0.158106 0.480439 -0.240000
v 0.158106 0.207939 -0.220000
v 0.158106 0.480439 -0.220000
v -0.091894 -0.042061 -0.240000
v -0.091894 0.230439 -0.240000
v -0.091894 -0.042061 -0.220000
v -0.091894 0.230439 -0.220000
v 0.198106 0.520439 -0.240000
v 0.198106 0.207939 -0.240000
v 0.198106 0.520439 -0.220000
v 0.198106 0.207939 -0.220000
v -0.301894 -0.292061 -0.220000
v -0.341894 -0.292061 -0.220000
v -0.301894 0.020439 -0.220000
v -0.341894 -0.019561 -0.220000
v 0.448106 0.770439 -0.240000
v 0.448106 0.457939 -0.240000
v 0.448106 0.770439 -0.220000
v 0.448106 0.457939 -0.220000
v -0.519394 -0.197061 -0.250000
v 0.500606 0.822939 -0.250000
v -0.519394 -0.117061 -0.250000
v 0.500606 0.902939 -0.250000
v -0.519394 -0.197061 -0.250000
v -0.519394 -0.117061 -0.250000
v -0.519394 -0.197061 -0.210000
v -0.519394 -0.117061 -0.210000
v 0.408106 0.457939 -0.240000
v 0.448106 0.457939 -0.240000
v 0.408106 0.730439 -0.240000
v 0.448106 0.770439 -0.240000
v -0.301894 0.020439 0.220000
v -0.301894 -0.292061 0.220000
v -0.301894 0.020439 0.240000
v -0.301894 -0.292061 0.240000
v -0.091894 -0.042061 0.220000
v -0.051894 -0.042061 0.220000
v -0.091894 0.230439 0.220000
v -0.051894 0.270439 0.220000
v 0.500606 0.902939 0.210000
v 0.500606 0.822939 0.210000
v 0.500606 0.902939 0.250000
v 0.500606 0.822939 0.250000
v -0.341894 -0.292061 0.220000
v -0.301894 -0.292061 0.220000
v -0.341894 -0.019561 0.220000
v -0.301894 0.020439 0.220000
v -0.519394 -0.117061 0.210000
v 0.500606 0.902939 0.210000
v -0.519394 -0.117061 0.250000
v 0.500606 0.902939 0.250000
v 0.448106 0.770439 0.220000
v 0.448106 0.457939 0.220000
v 0.448106 0.770439 0.240000
v 0.448106 0.457939 0.240000
v -0.091894 -0.042061 0.220000
v -0.091894 0.230439 0.220000
v -0.091894 -0.042061 0.240000
v -0.091894 0.230439 0.240000
v -0.519394 -0.197061 0.210000
v -0.519394 -0.117061 0.210000
v -0.519394 -0.197061 0.250000
v -0.519394 -0.117061 0.250000
v -0.341894 -0.292061 0.220000
v -0.341894 -0.019561 0.220000
v -0.341894 -0.292061 0.240000
v -0.341894 -0.019561 0.240000
v 0.198106 0.520439 0.220000
v 0.198106 0.207939 0.220000
v 0.198106 0.520439 0.240000
v 0.198106 0.207939 0.240000
v 0.158106 0.207939 0.220000
v 0.158106 0.480439 0.220000
v 0.158106 0.207939 0.240000
v 0.158106 0.480439 0.240000
v 0.158106 0.207939 0.220000
v 0.198106 0.207939 0.220000
v 0.158106 0.480439 0.220000
v 0.198106 0.520439 0.220000
v 0.198106 0.207939 0.240000
v 0.158106 0.207939 0.240000
v 0.198106 0.520439 0.240000
v 0.158106 0.480439 0.240000
v 0.408106 0.457939 0.220000
v 0.408106 0.730439 0.220000
v 0.408106 0.457939 0.240000
v 0.408106 0.730439 0.240000
v -0.051894 -0.042061 0.240000
v -0.091894 -0.042061 0.240000
v -0.051894 0.270439 0.240000
v -0.091894 0.230439 0.240000
v -0.051894 0.270439 0.220000
v -0.051894 -0.042061 0.220000
v -0.051894 0.270439 0.240000
v -0.051894 -0.042061 0.240000
v -0.519394 -0.197061 0.250000
v -0.519394 -0.117061 0.250000
v 0.500606 0.822939 0.250000
v 0.500606 0.902939 0.250000
v -0.519394 -0.197061 0.210000
v 0.500606 0.822939 0.210000
v -0.519394 -0.117061 0.210000
v 0.500606 0.902939 0.210000
v 0.448106 0.457939 0.240000
v 0.408106 0.457939 0.240000
v 0.448106 0.770439 0.240000
v 0.408106 0.730439 0.240000
v -0.301894 -0.292061 0.240000
v -0.341894 -0.292061 0.240000
v -0.301894 0.020439 0.240000
v -0.341894 -0.019561 0.240000
v 0.408106 0.457939 0.220000
v 0.448106 0.457939 0.220000
v 0.408106 0.730439 0.220000
v 0.448106 0.770439 0.220000
v -0.519394 -0.197061 0.250000
v -0.341894 -0.019561 0.220000
v -0.519394 -0.197061 0.210000
v 0.500606 0.822939 0.210000
v -0.341894 -0.019561 0.240000
v 0.500606 0.822939 0.250000
v -0.301894 0.020439 0.240000
v 0.448106 0.770439 0.220000
v 0.448106 0.770439 0.240000
v 0.408106 0.730439 0.220000
v 0.408106 0.730439 0.240000
v 0.198106 0.520439 0.220000
v 0.198106 0.520439 0.240000
v 0.158106 0.480439 0.220000
v 0.158106 0.480439 0.240000
v -0.091894 0.230439 0.240000
v -0.301894 0.020439 0.220000
v -0.051894 0.270439 0.240000
v -0.091894 0.230439 0.220000
v -0.051894 0.270439 0.220000
v 0.448106 0.770439 -0.220000
v 0.500606 0.822939 -0.210000
v 0.448106 0.770439 -0.240000
v 0.408106 0.730439 -0.220000
v 0.500606 0.822939 -0.250000
v -0.341894 -0.019561 -0.240000
v -0.519394 -0.197061 -0.250000
v 0.408106 0.730439 -0.240000
v -0.519394 -0.197061 -0.210000
v 0.198106 0.520439 -0.240000
v 0.198106 0.520439 -0.220000
v 0.158106 0.480439 -0.240000
v 0.158106 0.480439 -0.220000
v -0.341894 -0.019561 -0.220000
v -0.301894 0.020439 -0.220000
v -0.051894 0.270439 -0.240000
v -0.091894 0.230439 -0.240000
v -0.051894 0.270439 -0.220000
v -0.301894 0.020439 -0.240000
v -0.091894 0.230439 -0.220000
vn -0.7071 -0.7071 -0.0000
vn -1.0000 -0.0000 -0.0000
vn -0.0000 -1.0000 -0.0000
vn -0.0000 1.0000 -0.0000
vn 1.0000 -0.0000 -0.0000
vn -0.0000 -0.0000 -1.0000
vn -0.0000 -0.0000 1.0000
vn 0.7071 -0.7071 -0.0000
vn -0.7071 0.7071 -0.0000
vn 0.7071 -0.7071 0.0001
vn 0.5731 -0.5721 -0.5867
vn 0.7443 -0.6679 -0.0018
vn 0.8389 -0.5291 -0.1278
vn 0.7270 -0.6782 -0.1074
vn 0.5266 -0.7466 -0.4066
vn 0.7071 -0.7071 -0.0001
vn 0.6998 -0.7138 0.0274
vn 0.7164 -0.6977 -0.0035
vn 0.6941 -0.7092 -0.1237
vn 0.6863 -0.7100 -0.1575
vn 0.6628 -0.7107 0.2357
vn 0.7007 -0.7082 0.0858
vt 0.218750 0.367500
vt 0.218750 0.375000
vt 0.218750 0.317500
vt 0.218750 0.425000
vt 0.218750 0.442500
vt 0.218750 0.467500
vt 0.218750 0.450000
vt 0.218750 0.475000
vt 0.218750 0.325000
vt 0.218750 0.342500
vt 0.218750 0.275000
vt 0.218750 0.392500
vt 0.218750 0.400000
vt 0.218750 0.300000
vt 0.218750 0.460000
vt 0.218750 0.350000
vt 0.218750 0.417500
vt 0.218750 0.292500
vt 0.593750 0.211611
vt 0.593750 0.054289
vt 0.593750 0.040900
vt 0.593750 0.225000
vt 0.593750 0.202824
vt 0.593750 0.150523
vt 0.593750 0.196130
vt 0.593750 0.160983
vt 0.593750 0.108682
vt 0.593750 0.154289
vt 0.593750 0.119142
vt 0.593750 0.066841
vt 0.593750 0.112448
vt 0.593750 0.070607
vt 0.593750 0.025000
vt 0.593750 0.077301
s 1
usemtl colormap.081
f 3/1/1 2/2/2 1/1/1
f 2/2/2 3/1/1 4/2/2
f 7/3/1 6/3/3 5/3/3
f 6/3/3 7/3/1 8/3/1
s 0
f 11/4/2 10/5/2 9/4/2
f 10/5/2 11/4/2 12/5/2
s 1
f 15/6/1 14/6/1 13/6/1
f 14/6/1 15/6/1 16/6/1
f 19/7/2 18/6/1 17/7/2
f 18/6/1 19/7/2 20/6/1
f 23/6/1 22/8/2 21/6/1
f 22/8/2 23/6/1 24/8/2
s 0
f 27/9/2 26/10/2 25/9/2
f 26/10/2 27/9/2 28/10/2
f 31/11/3 30/11/3 29/11/3
f 30/11/3 31/11/3 32/11/3
s 1
f 35/1/1 34/1/3 33/1/3
f 34/1/3 35/1/1 36/1/1
f 39/12/1 38/13/2 37/12/1
f 38/13/2 39/12/1 40/13/2
s 0
f 43/9/4 42/9/4 41/9/4
f 42/9/4 43/9/4 44/9/4
f 47/13/4 46/13/4 45/13/4
f 46/13/4 47/13/4 48/13/4
s 1
f 51/3/1 50/9/2 49/3/1
f 50/9/2 51/3/1 52/9/2
s 0
f 55/2/2 54/12/2 53/2/2
f 54/12/2 55/2/2 56/12/2
f 59/14/4 58/14/4 57/14/4
f 58/14/4 59/14/4 60/14/4
f 63/8/5 62/15/5 61/8/5
f 62/15/5 63/8/5 64/15/5
f 67/16/2 66/1/2 65/16/2
f 66/1/2 67/16/2 68/1/2
f 71/13/2 70/17/2 69/13/2
f 70/17/2 71/13/2 72/17/2
s 1
f 75/5/1 74/5/3 73/5/3
f 74/5/3 75/5/1 76/5/1
s 0
f 79/4/4 78/4/4 77/4/4
f 78/4/4 79/4/4 80/4/4
s 1
f 83/5/1 82/7/2 81/5/1
f 82/7/2 83/5/1 84/7/2
f 87/10/1 86/10/3 85/10/3
f 86/10/3 87/10/1 88/10/1
f 91/18/1 90/14/2 89/18/1
f 90/14/2 91/18/1 92/14/2
s 0
f 95/14/2 94/3/2 93/14/2
f 94/3/2 95/14/2 96/3/2
f 99/7/4 98/7/4 97/7/4
f 98/7/4 99/7/4 100/7/4
f 103/11/2 102/18/2 101/11/2
f 102/18/2 103/11/2 104/18/2
f 107/2/4 106/2/4 105/2/4
f 106/2/4 107/2/4 108/2/4
s 1
f 111/12/1 110/12/3 109/12/3
f 110/12/3 111/12/1 112/12/1
s 0
f 115/8/4 114/8/4 113/8/4
f 114/8/4 115/8/4 116/8/4
f 119/14/6 118/18/6 117/18/6
f 120/14/6 118/18/6 119/14/6
f 121/11/6 118/18/6 120/14/6
f 118/18/6 121/11/6 122/11/6
f 121/11/6 120/14/6 123/15/6
f 123/15/6 120/14/6 124/9/6
f 124/9/6 120/14/6 125/3/6
f 124/9/6 125/3/6 126/9/6
f 126/9/6 125/3/6 127/3/6
f 123/15/6 124/9/6 128/16/6
f 128/16/6 124/9/6 129/10/6
f 128/16/6 129/10/6 130/16/6
f 130/16/6 129/10/6 131/10/6
f 123/15/6 128/16/6 132/2/6
f 132/2/6 128/16/6 133/1/6
f 132/2/6 133/1/6 134/2/6
f 134/2/6 133/1/6 135/1/6
f 123/15/6 132/2/6 136/13/6
f 136/13/6 132/2/6 137/12/6
f 136/13/6 137/12/6 138/13/6
f 138/13/6 137/12/6 139/12/6
f 123/15/6 136/13/6 140/4/6
f 140/4/6 136/13/6 141/17/6
f 140/4/6 141/17/6 142/4/6
f 142/4/6 141/17/6 143/17/6
f 123/15/6 140/4/6 144/7/6
f 144/7/6 140/4/6 145/5/6
f 144/7/6 145/5/6 146/7/6
f 146/7/6 145/5/6 147/5/6
f 123/15/6 144/7/6 148/6/6
f 123/15/6 148/6/6 149/8/6
f 149/8/6 148/6/6 150/8/6
f 150/8/6 148/6/6 151/6/6
s 1
f 154/18/1 153/18/3 152/18/3
f 153/18/3 154/18/1 155/18/1
s 0
f 158/11/7 157/18/7 156/11/7
f 157/18/7 158/11/7 159/14/7
f 159/14/7 158/11/7 160/15/7
f 159/14/7 160/15/7 161/9/7
f 157/18/7 159/14/7 162/14/7
f 162/14/7 163/18/7 157/18/7
f 159/14/7 161/9/7 164/3/7
f 164/3/7 161/9/7 165/9/7
f 165/9/7 166/3/7 164/3/7
f 161/9/7 160/15/7 167/16/7
f 161/9/7 167/16/7 168/10/7
f 168/10/7 167/16/7 169/16/7
f 169/16/7 170/10/7 168/10/7
f 167/16/7 160/15/7 171/2/7
f 167/16/7 171/2/7 172/1/7
f 172/1/7 171/2/7 173/2/7
f 173/2/7 174/1/7 172/1/7
f 171/2/7 160/15/7 175/13/7
f 171/2/7 175/13/7 176/12/7
f 176/12/7 175/13/7 177/13/7
f 177/13/7 178/12/7 176/12/7
f 175/13/7 160/15/7 179/4/7
f 175/13/7 179/4/7 180/17/7
f 180/17/7 179/4/7 181/4/7
f 181/4/7 182/17/7 180/17/7
f 179/4/7 160/15/7 183/7/7
f 179/4/7 183/7/7 184/5/7
f 184/5/7 183/7/7 185/7/7
f 185/7/7 186/5/7 184/5/7
f 183/7/7 160/15/7 187/6/7
f 187/6/7 160/15/7 188/8/7
f 187/6/7 188/8/7 189/8/7
f 189/8/7 190/6/7 187/6/7
s 1
f 193/10/1 192/16/2 191/10/1
f 192/16/2 193/10/1 194/16/2
s 0
f 197/15/8 196/11/8 195/11/8
f 196/11/8 197/15/8 198/15/8
f 201/16/4 200/16/4 199/16/4
f 200/16/4 201/16/4 202/16/4
s 1
f 205/17/1 204/17/3 203/17/3
f 204/17/3 205/17/1 206/17/1
f 209/17/1 208/4/2 207/17/1
f 208/4/2 209/17/1 210/4/2
s 0
f 213/19/7 212/20/7 211/21/7
f 212/20/7 213/19/7 214/22/7
f 217/23/7 216/24/7 215/24/7
f 216/24/7 217/23/7 218/25/7
f 221/24/2 220/25/2 219/24/2
f 220/25/2 221/24/2 222/25/2
f 225/26/7 224/27/7 223/27/7
f 224/27/7 225/26/7 226/28/7
f 229/29/7 228/30/7 227/30/7
f 228/30/7 229/29/7 230/31/7
f 233/29/5 232/30/5 231/29/5
f 232/30/5 233/29/5 234/30/5
f 237/28/6 236/27/6 235/27/6
f 236/27/6 237/28/6 238/26/6
f 241/32/6 240/33/6 239/33/6
f 240/33/6 241/32/6 242/34/6
f 245/31/6 244/30/6 243/30/6
f 244/30/6 245/31/6 246/29/6
f 249/22/5 248/19/5 247/22/5
f 248/19/5 249/22/5 250/19/5
f 253/34/5 252/33/5 251/34/5
f 252/33/5 253/34/5 254/33/5
f 257/20/9 256/22/9 255/20/9
f 256/22/9 257/20/9 258/22/9
f 261/33/2 260/32/2 259/33/2
f 260/32/2 261/33/2 262/32/2
f 265/27/2 264/28/2 263/27/2
f 264/28/2 265/27/2 266/28/2
f 269/30/2 268/31/2 267/30/2
f 268/31/2 269/30/2 270/31/2
f 273/26/5 272/27/5 271/26/5
f 272/27/5 273/26/5 274/27/5
f 277/34/7 276/33/7 275/33/7
f 276/33/7 277/34/7 278/32/7
f 281/23/5 280/24/5 279/23/5
f 280/24/5 281/23/5 282/24/5
f 285/20/6 284/19/6 283/21/6
f 284/19/6 285/20/6 286/22/6
f 289/21/2 288/20/2 287/21/2
f 288/20/2 289/21/2 290/20/2
f 293/25/6 292/24/6 291/24/6
f 292/24/6 293/25/6 294/23/6
f 297/34/5 296/33/5 295/34/5
f 296/33/5 297/34/5 298/33/5
f 301/31/6 300/30/6 299/30/6
f 300/30/6 301/31/6 302/29/6
f 305/22/5 304/19/5 303/22/5
f 304/19/5 305/22/5 306/19/5
f 309/32/6 308/33/6 307/33/6
f 308/33/6 309/32/6 310/34/6
f 313/20/9 312/22/9 311/20/9
f 312/22/9 313/20/9 314/22/9
f 317/23/5 316/24/5 315/23/5
f 316/24/5 317/23/5 318/24/5
f 321/30/2 320/31/2 319/30/2
f 320/31/2 321/30/2 322/31/2
f 325/21/2 324/20/2 323/21/2
f 324/20/2 325/21/2 326/20/2
f 329/33/2 328/32/2 327/33/2
f 328/32/2 329/33/2 330/32/2
f 333/26/5 332/27/5 331/26/5
f 332/27/5 333/26/5 334/27/5
f 337/27/2 336/28/2 335/27/2
f 336/28/2 337/27/2 338/28/2
f 341/28/6 340/27/6 339/27/6
f 340/27/6 341/28/6 342/26/6
f 345/26/7 344/27/7 343/27/7
f 344/27/7 345/26/7 346/28/7
f 349/24/2 348/25/2 347/24/2
f 348/25/2 349/24/2 350/25/2
f 353/29/7 352/30/7 351/30/7
f 352/30/7 353/29/7 354/31/7
f 357/29/5 356/30/5 355/29/5
f 356/30/5 357/29/5 358/30/5
f 361/19/7 360/20/7 359/21/7
f 360/20/7 361/19/7 362/22/7
f 365/20/6 364/19/6 363/21/6
f 364/19/6 365/20/6 366/22/6
f 369/23/7 368/24/7 367/24/7
f 368/24/7 369/23/7 370/25/7
f 373/34/7 372/33/7 371/33/7
f 372/33/7 373/34/7 374/32/7
f 377/25/6 376/24/6 375/24/6
f 376/24/6 377/25/6 378/23/6
f 381/21/8 380/32/8 379/21/8
f 380/32/8 381/21/8 382/19/8
f 379/21/8 380/32/8 383/32/8
f 383/32/8 384/19/8 379/21/8
f 385/34/10 384/19/10 383/32/10
f 384/19/8 386/23/8 382/19/8
f 380/32/8 382/19/8 386/23/8
f 386/23/8 384/19/8 387/23/8
s 1
f 380/32/11 386/23/12 388/25/13
s 0
f 387/23/8 384/19/8 389/25/8
s 1
f 389/25/8 390/26/14 388/25/13
f 380/32/11 388/25/13 390/26/14
s 0
f 390/26/8 389/25/8 391/26/8
f 389/25/8 384/19/8 391/26/8
s 1
f 380/32/11 390/26/14 392/28/15
f 391/26/8 384/19/8 393/28/8
s 0
f 394/31/8 384/19/8 385/34/8
s 1
f 395/34/8 394/31/8 385/34/8
s 0
f 396/29/16 384/19/16 394/31/16
f 393/28/8 384/19/8 396/29/8
f 394/31/8 395/34/8 397/31/8
s 1
f 380/32/11 397/31/17 395/34/8
s 0
f 398/29/8 393/28/8 396/29/8
f 393/28/8 398/29/8 392/28/8
s 1
f 380/32/11 398/29/8 397/31/17
f 380/32/11 392/28/15 398/29/8
s 0
f 401/23/8 400/19/8 399/23/8
f 399/23/8 400/19/8 402/25/8
s 1
f 400/19/8 401/23/8 403/19/8
f 404/32/18 403/19/8 401/23/8
s 0
f 404/32/8 405/21/8 403/19/8
s 1
f 404/32/18 401/23/8 406/25/19
s 0
f 405/21/8 404/32/8 407/21/8
f 402/25/8 408/26/8 406/25/8
s 1
f 404/32/18 406/25/19 408/26/20
s 0
f 408/26/8 402/25/8 409/26/8
f 402/25/8 400/19/8 409/26/8
s 1
f 404/32/18 408/26/20 410/28/21
s 0
f 409/26/8 400/19/8 411/28/8
f 412/32/8 400/19/8 407/21/8
f 407/21/8 404/32/8 412/32/8
f 413/34/10 400/19/10 412/32/10
s 1
f 404/32/18 410/28/21 414/29/8
s 0
f 411/28/8 414/29/8 410/28/8
s 1
f 404/32/18 414/29/8 415/31/22
s 0
f 414/29/8 411/28/8 416/29/8
f 411/28/8 400/19/8 416/29/8
s 1
f 404/32/18 415/31/22 417/34/8
s 0
f 416/29/16 400/19/16 418/31/16
f 418/31/8 400/19/8 413/34/8
f 418/31/8 417/34/8 415/31/8
s 1
f 417/34/8 418/31/8 413/34/8
