# Blender 5.1.0
# www.blender.org
mtllib stall_red.mtl
o stall-red-col
v 0.338652 0.539102 -0.499989
v 0.338652 0.539102 0.500011
v 0.197388 0.612127 -0.499989
v 0.197388 0.612127 0.500011
v 0.197388 0.612127 -0.499989
v 0.338652 0.539102 0.500011
v 0.338652 0.539102 -0.499989
v 0.197388 0.612127 0.500011
v -0.000032 0.809624 -0.499989
v 0.082722 0.703716 -0.499989
v -0.000032 0.809624 0.500011
v 0.082722 0.703716 0.500011
v -0.000032 0.809624 0.500011
v 0.082722 0.703716 -0.499989
v -0.000032 0.809624 -0.499989
v 0.082722 0.703716 0.500011
v 0.197388 0.612127 -0.499989
v 0.197388 0.612127 0.500011
v 0.082722 0.703716 -0.499989
v 0.082722 0.703716 0.500011
v 0.082722 0.703716 -0.499989
v 0.197388 0.612127 0.500011
v 0.197388 0.612127 -0.499989
v 0.082722 0.703716 0.500011
v 0.499968 0.448840 -0.277767
v 0.499968 0.409656 -0.277767
v 0.499968 0.370472 -0.222211
v 0.499968 0.448840 -0.166655
v 0.499968 0.409656 -0.166655
v 0.499968 0.488024 0.500011
v 0.499968 0.448840 -0.055544
v 0.499968 0.448840 -0.388878
v 0.499968 0.448840 0.055567
v 0.499968 0.409656 -0.055544
v 0.499968 0.370472 0.000011
v 0.499968 0.409656 0.055567
v 0.499968 0.448840 0.166678
v 0.499968 0.488024 -0.499989
v 0.499968 0.370472 -0.444433
v 0.499968 0.409656 -0.388878
v 0.499968 0.409656 -0.499989
v 0.499968 0.448840 0.277789
v 0.499968 0.370472 0.222233
v 0.499968 0.409656 0.166678
v 0.499968 0.409656 0.277789
v 0.499968 0.448840 0.388900
v 0.499968 0.370472 0.444456
v 0.499968 0.409656 0.388900
v 0.499968 0.448840 0.500011
v 0.499968 0.409656 0.500011
v 0.499968 0.370472 -0.222211
v 0.499968 0.409656 -0.277767
v 0.499968 0.448840 -0.277767
v 0.499968 0.448840 -0.166655
v 0.499968 0.409656 -0.166655
v 0.499968 0.488024 0.500011
v 0.499968 0.448840 -0.055544
v 0.499968 0.448840 -0.388878
v 0.499968 0.448840 0.055567
v 0.499968 0.409656 -0.055544
v 0.499968 0.370472 0.000011
v 0.499968 0.409656 0.055567
v 0.499968 0.448840 0.166678
v 0.499968 0.488024 -0.499989
v 0.499968 0.370472 -0.444433
v 0.499968 0.409656 -0.499989
v 0.499968 0.409656 -0.388878
v 0.499968 0.448840 0.277789
v 0.499968 0.370472 0.222233
v 0.499968 0.409656 0.166678
v 0.499968 0.409656 0.277789
v 0.499968 0.448840 0.388900
v 0.499968 0.370472 0.444456
v 0.499968 0.409656 0.388900
v 0.499968 0.448840 0.500011
v 0.499968 0.409656 0.500011
v 0.499968 0.488024 -0.499989
v 0.499968 0.488024 0.500011
v 0.338652 0.539102 -0.499989
v 0.338652 0.539102 0.500011
v 0.338652 0.539102 -0.499989
v 0.499968 0.488024 0.500011
v 0.499968 0.488024 -0.499989
v 0.338652 0.539102 0.500011
v -0.338715 0.539102 -0.499989
v -0.338715 0.539102 0.500011
v -0.500032 0.488024 -0.499989
v -0.500032 0.488024 0.500011
v -0.500032 0.488024 -0.499989
v -0.338715 0.539102 0.500011
v -0.338715 0.539102 -0.499989
v -0.500032 0.488024 0.500011
v -0.500032 0.409656 -0.277767
v -0.500032 0.448840 -0.277767
v -0.500032 0.370472 -0.222211
v -0.500032 0.448840 -0.166655
v -0.500032 0.409656 -0.166655
v -0.500032 0.488024 0.500011
v -0.500032 0.448840 -0.055544
v -0.500032 0.448840 -0.388878
v -0.500032 0.448840 0.055567
v -0.500032 0.409656 -0.055544
v -0.500032 0.370472 0.000011
v -0.500032 0.409656 0.055567
v -0.500032 0.448840 0.166678
v -0.500032 0.488024 -0.499989
v -0.500032 0.370472 -0.444433
v -0.500032 0.409656 -0.388878
v -0.500032 0.409656 -0.499989
v -0.500032 0.448840 0.277789
v -0.500032 0.370472 0.222233
v -0.500032 0.409656 0.166678
v -0.500032 0.409656 0.277789
v -0.500032 0.448840 0.388900
v -0.500032 0.370472 0.444456
v -0.500032 0.409656 0.388900
v -0.500032 0.448840 0.500011
v -0.500032 0.409656 0.500011
v -0.500032 0.370472 -0.222211
v -0.500032 0.448840 -0.277767
v -0.500032 0.409656 -0.277767
v -0.500032 0.448840 -0.166655
v -0.500032 0.409656 -0.166655
v -0.500032 0.488024 0.500011
v -0.500032 0.448840 -0.055544
v -0.500032 0.448840 -0.388878
v -0.500032 0.448840 0.055567
v -0.500032 0.409656 -0.055544
v -0.500032 0.370472 0.000011
v -0.500032 0.409656 0.055567
v -0.500032 0.448840 0.166678
v -0.500032 0.488024 -0.499989
v -0.500032 0.370472 -0.444433
v -0.500032 0.409656 -0.499989
v -0.500032 0.409656 -0.388878
v -0.500032 0.448840 0.277789
v -0.500032 0.370472 0.222233
v -0.500032 0.409656 0.166678
v -0.500032 0.409656 0.277789
v -0.500032 0.448840 0.388900
v -0.500032 0.370472 0.444456
v -0.500032 0.409656 0.388900
v -0.500032 0.448840 0.500011
v -0.500032 0.409656 0.500011
v -0.082786 0.703716 -0.499989
v -0.000032 0.809624 -0.499989
v -0.082786 0.703716 0.500011
v -0.000032 0.809624 0.500011
v -0.082786 0.703716 0.500011
v -0.000032 0.809624 -0.499989
v -0.082786 0.703716 -0.499989
v -0.000032 0.809624 0.500011
v -0.082786 0.703716 -0.499989
v -0.082786 0.703716 0.500011
v -0.197451 0.612127 -0.499989
v -0.197451 0.612127 0.500011
v -0.197451 0.612127 -0.499989
v -0.082786 0.703716 0.500011
v -0.082786 0.703716 -0.499989
v -0.197451 0.612127 0.500011
v -0.197451 0.612127 -0.499989
v -0.197451 0.612127 0.500011
v -0.338715 0.539102 -0.499989
v -0.338715 0.539102 0.500011
v -0.338715 0.539102 -0.499989
v -0.197451 0.612127 0.500011
v -0.197451 0.612127 -0.499989
v -0.338715 0.539102 0.500011
v 0.024968 0.835006 0.450011
v 0.024968 0.835006 0.500011
v -0.025032 0.835006 0.450011
v -0.025032 0.835006 0.500011
v 0.024968 0.835006 0.450011
v 0.024968 -0.036475 0.450011
v 0.024968 0.835006 0.500011
v 0.024968 -0.036475 0.500011
v 0.024968 -0.036475 0.500011
v -0.025032 -0.036475 0.500011
v 0.024968 0.835006 0.500011
v -0.025032 0.835006 0.500011
v -0.025032 -0.036475 0.450011
v -0.025032 0.835006 0.450011
v -0.025032 -0.036475 0.500011
v -0.025032 0.835006 0.500011
v -0.025032 -0.036475 0.450011
v 0.024968 -0.036475 0.450011
v -0.025032 0.835006 0.450011
v 0.024968 0.835006 0.450011
v 0.024968 0.835006 -0.499989
v 0.024968 0.835006 -0.449989
v -0.025032 0.835006 -0.499989
v -0.025032 0.835006 -0.449989
v 0.024968 0.835006 -0.499989
v 0.024968 -0.036475 -0.499989
v 0.024968 0.835006 -0.449989
v 0.024968 -0.036475 -0.449989
v 0.024968 -0.036475 -0.449989
v -0.025032 -0.036475 -0.449989
v 0.024968 0.835006 -0.449989
v -0.025032 0.835006 -0.449989
v -0.025032 -0.036475 -0.499989
v -0.025032 0.835006 -0.499989
v -0.025032 -0.036475 -0.449989
v -0.025032 0.835006 -0.449989
v -0.025032 -0.036475 -0.499989
v 0.024968 -0.036475 -0.499989
v -0.025032 0.835006 -0.499989
v 0.024968 0.835006 -0.499989
v -0.250032 -0.401976 0.400011
v -0.250032 -0.086475 0.400011
v -0.250032 -0.401976 0.450011
v -0.250032 -0.086475 0.450011
v -0.200032 -0.401976 -0.399989
v -0.200032 -0.401976 -0.449989
v -0.250032 -0.401976 -0.399989
v -0.250032 -0.401976 -0.449989
v 0.199968 -0.401976 0.400011
v 0.199968 -0.086475 0.400011
v 0.199968 -0.401976 0.410011
v 0.199968 -0.086475 0.450011
v 0.199968 -0.401976 0.450011
v -0.200032 -0.086475 0.400011
v -0.200032 -0.401976 0.400011
v -0.200032 -0.086475 0.410011
v -0.200032 -0.401976 0.450011
v -0.200032 -0.086475 0.450011
v 0.249968 -0.401976 0.450011
v 0.249968 -0.401976 0.400011
v 0.199968 -0.401976 0.450011
v 0.199968 -0.401976 0.400011
v 0.199968 -0.401976 0.410011
v -0.200032 -0.401976 0.400011
v -0.200032 -0.086475 0.400011
v -0.250032 -0.401976 0.400011
v -0.250032 -0.086475 0.400011
v 0.249968 -0.401976 0.400011
v 0.249968 -0.086475 0.400011
v 0.199968 -0.401976 0.400011
v 0.199968 -0.086475 0.400011
v -0.250032 -0.401976 -0.449989
v -0.250032 -0.086475 -0.449989
v -0.250032 -0.401976 -0.399989
v -0.250032 -0.086475 -0.399989
v 0.249968 -0.401976 -0.399989
v 0.199968 -0.401976 -0.399989
v 0.249968 -0.086475 -0.399989
v 0.199968 -0.086475 -0.399989
v -0.200032 -0.086475 -0.449989
v -0.200032 -0.401976 -0.449989
v -0.200032 -0.086475 -0.409989
v -0.200032 -0.401976 -0.399989
v -0.200032 -0.086475 -0.399989
v -0.200032 -0.401976 0.450011
v -0.250032 -0.401976 0.450011
v -0.200032 -0.086475 0.450011
v -0.250032 -0.086475 0.450011
v 0.249968 -0.401976 0.450011
v 0.199968 -0.401976 0.450011
v 0.249968 -0.086475 0.450011
v 0.199968 -0.086475 0.450011
v 0.249968 -0.401976 -0.449989
v 0.249968 -0.086475 -0.449989
v 0.199968 -0.401976 -0.449989
v 0.199968 -0.086475 -0.449989
v 0.249968 -0.086475 -0.449989
v 0.249968 -0.401976 -0.449989
v 0.249968 -0.086475 -0.399989
v 0.249968 -0.401976 -0.399989
v 0.249968 -0.086475 0.400011
v 0.249968 -0.401976 0.400011
v 0.249968 -0.086475 0.450011
v 0.249968 -0.401976 0.450011
v -0.200032 -0.401976 -0.399989
v -0.250032 -0.401976 -0.399989
v -0.200032 -0.086475 -0.399989
v -0.250032 -0.086475 -0.399989
v 0.249968 -0.401976 -0.399989
v 0.249968 -0.401976 -0.449989
v 0.199968 -0.401976 -0.399989
v 0.199968 -0.401976 -0.449989
v 0.199968 -0.401976 -0.409989
v 0.199968 -0.401976 -0.449989
v 0.199968 -0.086475 -0.449989
v 0.199968 -0.401976 -0.409989
v 0.199968 -0.086475 -0.399989
v 0.199968 -0.401976 -0.399989
v -0.200032 -0.401976 0.450011
v -0.200032 -0.401976 0.400011
v -0.250032 -0.401976 0.450011
v -0.250032 -0.401976 0.400011
v -0.200032 -0.401976 -0.449989
v -0.200032 -0.086475 -0.449989
v -0.250032 -0.401976 -0.449989
v -0.250032 -0.086475 -0.449989
v 0.299968 -0.086475 0.500011
v -0.300032 -0.086475 0.500011
v 0.299968 -0.036475 0.500011
v -0.300032 -0.036475 0.500011
v 0.324968 -0.036475 -0.474989
v 0.324968 -0.086475 -0.474989
v 0.324968 -0.036475 0.475011
v 0.324968 -0.086475 0.475011
v 0.299968 -0.086475 -0.499989
v 0.299968 -0.036475 -0.499989
v -0.300032 -0.086475 -0.499989
v -0.300032 -0.036475 -0.499989
v -0.325032 -0.086475 -0.474989
v -0.325032 -0.036475 -0.474989
v -0.325032 -0.086475 0.475011
v -0.325032 -0.036475 0.475011
v 0.299968 -0.036475 -0.499989
v 0.299968 -0.086475 -0.499989
v 0.324968 -0.036475 -0.474989
v 0.324968 -0.086475 -0.474989
v -0.300032 -0.086475 -0.499989
v -0.300032 -0.036475 -0.499989
v -0.325032 -0.086475 -0.474989
v -0.325032 -0.036475 -0.474989
v -0.325032 -0.086475 0.475011
v -0.325032 -0.036475 0.475011
v -0.300032 -0.086475 0.500011
v -0.300032 -0.036475 0.500011
v 0.324968 -0.036475 0.475011
v 0.324968 -0.086475 0.475011
v 0.299968 -0.036475 0.500011
v 0.299968 -0.086475 0.500011
v 0.324968 -0.036475 -0.474989
v 0.324968 -0.036475 0.475011
v 0.299968 -0.036475 -0.499989
v 0.299968 -0.036475 0.500011
v -0.300032 -0.036475 -0.499989
v -0.300032 -0.036475 0.500011
v -0.325032 -0.036475 -0.474989
v -0.325032 -0.036475 0.475011
v 0.324968 -0.086475 0.475011
v 0.324968 -0.086475 -0.474989
v 0.299968 -0.086475 0.500011
v 0.299968 -0.086475 -0.499989
v -0.300032 -0.086475 0.500011
v -0.300032 -0.086475 -0.499989
v -0.325032 -0.086475 0.475011
v -0.325032 -0.086475 -0.474989
v 0.212468 -0.219226 -0.399989
v 0.212468 -0.219226 0.400011
v 0.212468 -0.269226 -0.399989
v 0.212468 -0.269226 0.400011
v 0.199968 -0.219226 -0.412489
v -0.200032 -0.219226 -0.412489
v 0.199968 -0.219226 -0.437489
v -0.200032 -0.219226 -0.437489
v 0.199968 -0.269226 0.412511
v 0.199968 -0.219226 0.412511
v -0.200032 -0.269226 0.412511
v -0.200032 -0.219226 0.412511
v 0.199968 -0.269226 0.437511
v -0.200032 -0.269226 0.437511
v 0.199968 -0.219226 0.437511
v -0.200032 -0.219226 0.437511
v -0.212532 -0.269226 0.400011
v -0.212532 -0.269226 -0.399989
v -0.237532 -0.269226 0.400011
v -0.237532 -0.269226 -0.399989
v -0.212532 -0.219226 -0.399989
v -0.212532 -0.219226 0.400011
v -0.237532 -0.219226 -0.399989
v -0.237532 -0.219226 0.400011
v 0.237468 -0.219226 -0.399989
v 0.237468 -0.269226 -0.399989
v 0.237468 -0.219226 0.400011
v 0.237468 -0.269226 0.400011
v 0.237468 -0.219226 -0.399989
v 0.237468 -0.219226 0.400011
v 0.212468 -0.219226 -0.399989
v 0.212468 -0.219226 0.400011
v 0.199968 -0.269226 -0.412489
v -0.200032 -0.269226 -0.412489
v 0.199968 -0.219226 -0.412489
v -0.200032 -0.219226 -0.412489
v 0.199968 -0.269226 -0.412489
v 0.199968 -0.269226 -0.437489
v -0.200032 -0.269226 -0.412489
v -0.200032 -0.269226 -0.437489
v 0.199968 -0.219226 0.437511
v -0.200032 -0.219226 0.437511
v 0.199968 -0.219226 0.412511
v -0.200032 -0.219226 0.412511
v 0.199968 -0.269226 0.437511
v 0.199968 -0.269226 0.412511
v -0.200032 -0.269226 0.437511
v -0.200032 -0.269226 0.412511
v -0.237532 -0.219226 -0.399989
v -0.237532 -0.219226 0.400011
v -0.237532 -0.269226 -0.399989
v -0.237532 -0.269226 0.400011
v -0.212532 -0.219226 -0.399989
v -0.212532 -0.269226 -0.399989
v -0.212532 -0.219226 0.400011
v -0.212532 -0.269226 0.400011
v 0.237468 -0.269226 0.400011
v 0.237468 -0.269226 -0.399989
v 0.212468 -0.269226 0.400011
v 0.212468 -0.269226 -0.399989
v 0.199968 -0.269226 -0.437489
v 0.199968 -0.219226 -0.437489
v -0.200032 -0.269226 -0.437489
v -0.200032 -0.219226 -0.437489
v 0.499968 0.438024 -0.449989
v 0.499968 0.488024 -0.449989
v -0.500032 0.438024 -0.449989
v -0.500032 0.488024 -0.449989
v 0.499968 0.438024 -0.399989
v -0.500032 0.438024 -0.399989
v 0.499968 0.488024 -0.399989
v -0.500032 0.488024 -0.399989
v 0.499968 0.488024 -0.449989
v 0.499968 0.488024 -0.399989
v -0.500032 0.488024 -0.449989
v -0.500032 0.488024 -0.399989
v 0.499968 0.438024 -0.399989
v 0.499968 0.438024 -0.449989
v -0.500032 0.438024 -0.399989
v -0.500032 0.438024 -0.449989
v 0.499968 0.438024 0.400011
v 0.499968 0.488024 0.400011
v -0.500032 0.438024 0.400011
v -0.500032 0.488024 0.400011
v 0.499968 0.438024 0.450011
v -0.500032 0.438024 0.450011
v 0.499968 0.488024 0.450011
v -0.500032 0.488024 0.450011
v 0.499968 0.488024 0.400011
v 0.499968 0.488024 0.450011
v -0.500032 0.488024 0.400011
v -0.500032 0.488024 0.450011
v 0.499968 0.438024 0.450011
v 0.499968 0.438024 0.400011
v -0.500032 0.438024 0.450011
v -0.500032 0.438024 0.400011
vn 0.5443 0.8389 -0.0000
vn 0.3820 0.9242 -0.0000
vn -0.3820 -0.9242 -0.0000
vn -0.5443 -0.8389 -0.0000
vn 0.7880 0.6157 -0.0000
vn 0.7109 0.7033 -0.0000
vn -0.7880 -0.6157 -0.0000
vn -0.7109 -0.7033 -0.0000
vn 0.7108 0.7033 -0.0000
vn -0.7108 -0.7033 -0.0000
vn 1.0000 -0.0000 -0.0000
vn 0.8068 0.5909 -0.0000
vn -1.0000 -0.0000 -0.0000
vn -0.8068 -0.5909 -0.0000
vn 0.3819 0.9242 -0.0000
vn 0.8068 0.5908 -0.0000
vn -0.8068 -0.5908 -0.0000
vn -0.3819 -0.9242 -0.0000
vn -0.8068 0.5908 -0.0000
vn -0.3819 0.9242 -0.0000
vn 0.3819 -0.9242 -0.0000
vn 0.8068 -0.5908 -0.0000
vn -0.8068 0.5909 -0.0000
vn 0.8068 -0.5909 -0.0000
vn -0.7109 0.7033 -0.0000
vn -0.7880 0.6157 -0.0000
vn 0.7109 -0.7033 -0.0000
vn 0.7880 -0.6157 -0.0000
vn -0.5443 0.8389 -0.0000
vn -0.7108 0.7033 -0.0000
vn 0.7108 -0.7033 -0.0000
vn 0.5443 -0.8389 -0.0000
vn -0.3820 0.9242 -0.0000
vn 0.3820 -0.9242 -0.0000
vn -0.0000 1.0000 -0.0000
vn -0.0000 -0.0000 1.0000
vn -0.0000 -0.0000 -1.0000
vn -0.0000 -1.0000 -0.0000
vn 0.3827 -0.0000 0.9239
vn -0.3827 -0.0000 0.9239
vn 0.9239 -0.0000 0.3827
vn 0.9239 -0.0000 -0.3827
vn -0.3827 -0.0000 -0.9239
vn 0.3827 -0.0000 -0.9239
vn -0.9239 -0.0000 0.3827
vn -0.9239 -0.0000 -0.3827
vn 0.3827 -0.0001 -0.9239
vn -0.3827 0.0001 -0.9239
vn -0.3827 -0.0001 0.9239
vn 0.3827 0.0001 0.9239
vt 0.093750 0.135055
vt 0.093750 0.101798
vt 0.093750 0.225000
vt 0.093750 0.176767
vt 0.093750 0.025000
vt 0.093750 0.042845
vt 0.093750 0.060691
vt 0.093750 0.078536
vt 0.593750 0.225000
vt 0.593750 0.025000
vt 0.593750 0.175000
vt 0.593750 0.075000
s 1
usemtl colormap.092
f 3/1/1 2/2/2 1/2/2
f 2/2/2 3/1/1 4/1/1
f 7/2/3 6/2/3 5/1/4
f 8/1/4 5/1/4 6/2/3
f 11/3/5 10/4/6 9/3/5
f 10/4/6 11/3/5 12/4/6
f 15/3/7 14/4/8 13/3/7
f 16/4/8 13/3/7 14/4/8
f 19/4/9 18/1/1 17/1/1
f 18/1/1 19/4/9 20/4/9
f 23/1/4 22/1/4 21/4/10
f 24/4/10 21/4/10 22/1/4
s 0
f 27/5/11 26/6/11 25/7/11
f 25/7/11 28/7/11 27/5/11
f 29/6/11 27/5/11 28/7/11
s 1
f 25/7/11 30/8/12 28/7/11
f 28/7/11 30/8/12 31/7/11
f 32/7/11 30/8/12 25/7/11
f 31/7/11 30/8/12 33/7/11
s 0
f 31/7/11 33/7/11 34/6/11
f 34/6/11 33/7/11 35/5/11
f 36/6/11 35/5/11 33/7/11
s 1
f 33/7/11 30/8/12 37/7/11
f 32/7/11 38/8/12 30/8/12
f 39/5/11 38/8/12 32/7/11
s 0
f 40/6/11 39/5/11 32/7/11
s 1
f 38/8/12 39/5/11 41/6/11
f 37/7/11 30/8/12 42/7/11
s 0
f 37/7/11 42/7/11 43/5/11
f 43/5/11 44/6/11 37/7/11
f 45/6/11 43/5/11 42/7/11
s 1
f 42/7/11 30/8/12 46/7/11
f 46/7/11 30/8/12 47/5/11
s 0
f 47/5/11 48/6/11 46/7/11
s 1
f 47/5/11 30/8/12 49/7/11
s 0
f 50/6/11 47/5/11 49/7/11
f 53/7/13 52/6/13 51/5/13
f 51/5/13 54/7/13 53/7/13
f 54/7/13 51/5/13 55/6/13
s 1
f 54/7/13 56/8/14 53/7/13
f 57/7/13 56/8/14 54/7/13
f 53/7/13 56/8/14 58/7/13
f 59/7/13 56/8/14 57/7/13
s 0
f 60/6/13 59/7/13 57/7/13
f 61/5/13 59/7/13 60/6/13
f 59/7/13 61/5/13 62/6/13
s 1
f 63/7/13 56/8/14 59/7/13
f 56/8/14 64/8/14 58/7/13
f 58/7/13 64/8/14 65/5/13
f 66/6/13 65/5/13 64/8/14
s 0
f 58/7/13 65/5/13 67/6/13
s 1
f 68/7/13 56/8/14 63/7/13
s 0
f 69/5/13 68/7/13 63/7/13
f 63/7/13 70/6/13 69/5/13
f 68/7/13 69/5/13 71/6/13
s 1
f 72/7/13 56/8/14 68/7/13
f 73/5/13 56/8/14 72/7/13
s 0
f 72/7/13 74/6/13 73/5/13
s 1
f 75/7/13 56/8/14 73/5/13
s 0
f 75/7/13 73/5/13 76/6/13
s 1
f 79/2/15 78/8/16 77/8/16
f 78/8/16 79/2/15 80/2/15
f 83/8/17 82/8/17 81/2/18
f 84/2/18 81/2/18 82/8/17
f 87/8/19 86/2/20 85/2/20
f 86/2/20 87/8/19 88/8/19
f 91/2/21 90/2/21 89/8/22
f 92/8/22 89/8/22 90/2/21
s 0
f 95/5/13 94/7/13 93/6/13
f 96/7/13 94/7/13 95/5/13
f 96/7/13 95/5/13 97/6/13
s 1
f 98/8/23 94/7/13 96/7/13
f 98/8/23 96/7/13 99/7/13
f 98/8/23 100/7/13 94/7/13
f 98/8/23 99/7/13 101/7/13
s 0
f 101/7/13 99/7/13 102/6/13
f 101/7/13 102/6/13 103/5/13
f 101/7/13 103/5/13 104/6/13
s 1
f 98/8/23 101/7/13 105/7/13
f 106/8/23 100/7/13 98/8/23
f 106/8/23 107/5/13 100/7/13
s 0
f 100/7/13 107/5/13 108/6/13
s 1
f 107/5/13 106/8/23 109/6/13
f 98/8/23 105/7/13 110/7/13
s 0
f 110/7/13 105/7/13 111/5/13
f 111/5/13 105/7/13 112/6/13
f 110/7/13 111/5/13 113/6/13
s 1
f 98/8/23 110/7/13 114/7/13
f 98/8/23 114/7/13 115/5/13
s 0
f 115/5/13 114/7/13 116/6/13
s 1
f 98/8/23 115/5/13 117/7/13
s 0
f 117/7/13 115/5/13 118/6/13
f 121/6/11 120/7/11 119/5/11
f 119/5/11 120/7/11 122/7/11
f 123/6/11 119/5/11 122/7/11
s 1
f 122/7/11 120/7/11 124/8/24
f 125/7/11 122/7/11 124/8/24
f 120/7/11 126/7/11 124/8/24
f 127/7/11 125/7/11 124/8/24
s 0
f 128/6/11 125/7/11 127/7/11
f 129/5/11 128/6/11 127/7/11
f 130/6/11 129/5/11 127/7/11
s 1
f 131/7/11 127/7/11 124/8/24
f 124/8/24 126/7/11 132/8/24
f 126/7/11 133/5/11 132/8/24
f 134/6/11 132/8/24 133/5/11
s 0
f 135/6/11 133/5/11 126/7/11
s 1
f 136/7/11 131/7/11 124/8/24
s 0
f 137/5/11 131/7/11 136/7/11
f 138/6/11 131/7/11 137/5/11
f 139/6/11 137/5/11 136/7/11
s 1
f 140/7/11 136/7/11 124/8/24
f 141/5/11 140/7/11 124/8/24
s 0
f 142/6/11 140/7/11 141/5/11
s 1
f 143/7/11 141/5/11 124/8/24
s 0
f 144/6/11 141/5/11 143/7/11
s 1
f 147/4/25 146/3/26 145/4/25
f 146/3/26 147/4/25 148/3/26
f 151/4/27 150/3/28 149/4/27
f 152/3/28 149/4/27 150/3/28
f 155/1/29 154/4/30 153/4/30
f 154/4/30 155/1/29 156/1/29
f 159/4/31 158/4/31 157/1/32
f 160/1/32 157/1/32 158/4/31
f 163/2/33 162/1/29 161/1/29
f 162/1/29 163/2/33 164/2/33
f 167/1/32 166/1/32 165/2/34
f 168/2/34 165/2/34 166/1/32
s 0
f 171/9/35 170/9/35 169/9/35
f 170/9/35 171/9/35 172/9/35
f 175/9/11 174/10/11 173/9/11
f 174/10/11 175/9/11 176/10/11
f 179/9/36 178/10/36 177/10/36
f 178/10/36 179/9/36 180/9/36
f 183/10/13 182/9/13 181/10/13
f 182/9/13 183/10/13 184/9/13
f 187/9/37 186/10/37 185/10/37
f 186/10/37 187/9/37 188/9/37
f 191/9/35 190/9/35 189/9/35
f 190/9/35 191/9/35 192/9/35
f 195/9/11 194/10/11 193/9/11
f 194/10/11 195/9/11 196/10/11
f 199/9/36 198/10/36 197/10/36
f 198/10/36 199/9/36 200/9/36
f 203/10/13 202/9/13 201/10/13
f 202/9/13 203/10/13 204/9/13
f 207/9/37 206/10/37 205/10/37
f 206/10/37 207/9/37 208/9/37
f 211/9/13 210/10/13 209/9/13
f 210/10/13 211/9/13 212/10/13
f 215/9/38 214/9/38 213/9/38
f 214/9/38 215/9/38 216/9/38
f 219/9/13 218/10/13 217/9/13
f 218/10/13 219/9/13 220/10/13
f 220/10/13 219/9/13 221/9/13
f 224/10/11 223/9/11 222/10/11
f 223/9/11 224/10/11 225/9/11
f 225/9/11 224/10/11 226/10/11
f 229/9/38 228/9/38 227/9/38
f 228/9/38 229/9/38 230/9/38
s 1
f 230/9/38 229/9/38 231/9/38
s 0
f 234/9/37 233/10/37 232/9/37
f 233/10/37 234/9/37 235/10/37
f 238/9/37 237/10/37 236/9/37
f 237/10/37 238/9/37 239/10/37
f 242/9/13 241/10/13 240/9/13
f 241/10/13 242/9/13 243/10/13
f 246/10/36 245/9/36 244/9/36
f 245/9/36 246/10/36 247/10/36
f 250/10/11 249/9/11 248/10/11
f 249/9/11 250/10/11 251/9/11
f 251/9/11 250/10/11 252/10/11
f 255/10/36 254/9/36 253/9/36
f 254/9/36 255/10/36 256/10/36
f 259/10/36 258/9/36 257/9/36
f 258/9/36 259/10/36 260/10/36
f 263/9/37 262/10/37 261/9/37
f 262/10/37 263/9/37 264/10/37
f 267/10/11 266/9/11 265/10/11
f 266/9/11 267/10/11 268/9/11
f 271/10/11 270/9/11 269/10/11
f 270/9/11 271/10/11 272/9/11
f 275/10/36 274/9/36 273/9/36
f 274/9/36 275/10/36 276/10/36
f 279/9/38 278/9/38 277/9/38
f 278/9/38 279/9/38 280/9/38
s 1
f 280/9/35 279/9/35 281/9/35
s 0
f 284/9/13 283/10/13 282/9/13
f 283/10/13 284/9/13 285/10/13
f 285/10/13 284/9/13 286/9/13
f 289/9/38 288/9/38 287/9/38
f 288/9/38 289/9/38 290/9/38
f 293/9/37 292/10/37 291/9/37
f 292/10/37 293/9/37 294/10/37
s 1
f 297/11/39 296/12/40 295/12/39
f 296/12/40 297/11/39 298/11/40
f 301/11/41 300/12/42 299/11/42
f 300/12/42 301/11/41 302/12/41
f 305/12/43 304/11/44 303/12/44
f 304/11/44 305/12/43 306/11/43
f 309/12/45 308/11/46 307/12/46
f 308/11/46 309/12/45 310/11/45
f 313/11/42 312/12/44 311/11/47
f 312/12/44 313/11/42 314/12/42
f 317/12/46 316/11/43 315/12/48
f 316/11/43 317/12/46 318/11/46
f 321/12/40 320/11/45 319/12/45
f 320/11/45 321/12/40 322/11/49
f 325/11/39 324/12/41 323/11/41
f 324/12/41 325/11/39 326/12/50
s 0
f 329/11/35 328/11/35 327/11/35
f 328/11/35 329/11/35 330/11/35
f 330/11/35 329/11/35 331/11/35
f 330/11/35 331/11/35 332/11/35
f 332/11/35 331/11/35 333/11/35
f 332/11/35 333/11/35 334/11/35
f 337/12/38 336/12/38 335/12/38
f 336/12/38 337/12/38 338/12/38
f 338/12/38 337/12/38 339/12/38
f 338/12/38 339/12/38 340/12/38
f 340/12/38 339/12/38 341/12/38
f 340/12/38 341/12/38 342/12/38
f 345/12/13 344/11/13 343/11/13
f 344/11/13 345/12/13 346/12/13
f 349/11/35 348/11/35 347/11/35
f 348/11/35 349/11/35 350/11/35
f 353/12/37 352/11/37 351/12/37
f 352/11/37 353/12/37 354/11/37
f 357/11/36 356/12/36 355/12/36
f 356/12/36 357/11/36 358/11/36
f 361/12/38 360/12/38 359/12/38
f 360/12/38 361/12/38 362/12/38
f 365/11/35 364/11/35 363/11/35
f 364/11/35 365/11/35 366/11/35
f 369/11/11 368/12/11 367/11/11
f 368/12/11 369/11/11 370/12/11
f 373/11/35 372/11/35 371/11/35
f 372/11/35 373/11/35 374/11/35
f 377/11/36 376/12/36 375/12/36
f 376/12/36 377/11/36 378/11/36
f 381/12/38 380/12/38 379/12/38
f 380/12/38 381/12/38 382/12/38
f 385/11/35 384/11/35 383/11/35
f 384/11/35 385/11/35 386/11/35
f 389/12/38 388/12/38 387/12/38
f 388/12/38 389/12/38 390/12/38
f 393/12/13 392/11/13 391/11/13
f 392/11/13 393/12/13 394/12/13
f 397/11/11 396/12/11 395/11/11
f 396/12/11 397/11/11 398/12/11
f 401/12/38 400/12/38 399/12/38
f 400/12/38 401/12/38 402/12/38
f 405/12/37 404/11/37 403/12/37
f 404/11/37 405/12/37 406/11/37
f 409/12/37 408/11/37 407/12/37
f 408/11/37 409/12/37 410/11/37
f 413/11/36 412/12/36 411/12/36
f 412/12/36 413/11/36 414/11/36
f 417/11/35 416/11/35 415/11/35
f 416/11/35 417/11/35 418/11/35
f 421/12/38 420/12/38 419/12/38
f 420/12/38 421/12/38 422/12/38
f 425/12/37 424/11/37 423/12/37
f 424/11/37 425/12/37 426/11/37
f 429/11/36 428/12/36 427/12/36
f 428/12/36 429/11/36 430/11/36
f 433/11/35 432/11/35 431/11/35
f 432/11/35 433/11/35 434/11/35
f 437/12/38 436/12/38 435/12/38
f 436/12/38 437/12/38 438/12/38
