# Blender 5.1.0
# www.blender.org
mtllib tree_high_round.mtl
o tree-high-round-col
v 0.000060 -0.609069 -0.394854
v 0.279226 -0.609069 -0.279219
v 0.000060 -0.315069 -0.509346
v 0.360184 -0.315069 -0.360177
v 0.000060 -0.315069 -0.509346
v 0.360184 -0.315069 -0.360177
v 0.000060 0.558531 -0.370818
v 0.262231 0.558531 -0.262224
v -0.360063 -0.315069 -0.360177
v 0.000060 -0.315069 -0.509346
v -0.262110 0.558531 -0.262224
v 0.000060 0.558531 -0.370818
v 0.186926 1.003731 -0.000054
v 0.083482 1.096131 -0.000054
v 0.132194 1.003731 -0.132187
v 0.059049 1.096131 -0.059042
v 0.509352 -0.315069 -0.000054
v 0.394860 -0.609069 -0.000054
v 0.360184 -0.315069 0.360070
v 0.279226 -0.609069 0.279112
v 0.000060 -0.609069 0.394746
v -0.279105 -0.609069 0.279112
v 0.000060 -0.315069 0.509238
v -0.360063 -0.315069 0.360070
v 0.262231 0.558531 0.262116
v 0.000060 0.558531 0.370711
v 0.132194 1.003731 0.132080
v 0.000060 1.003731 0.186812
v -0.509232 -0.315069 -0.000054
v -0.360063 -0.315069 0.360070
v -0.394740 -0.609069 -0.000054
v -0.279105 -0.609069 0.279112
v 0.132194 1.003731 -0.132187
v 0.059049 1.096131 -0.059042
v 0.000060 1.003731 -0.186919
v 0.000060 1.096131 -0.083476
v -0.262110 0.558531 -0.262224
v 0.000060 0.558531 -0.370818
v -0.132073 1.003731 -0.132187
v 0.000060 1.003731 -0.186919
v 0.000060 -0.315069 0.509238
v -0.360063 -0.315069 0.360070
v 0.000060 0.558531 0.370711
v -0.262110 0.558531 0.262116
v 0.394860 -0.609069 -0.000054
v 0.279226 -0.609069 -0.279219
v 0.279226 -0.609069 0.279112
v 0.000060 -0.609069 0.394746
v 0.000060 -0.609069 -0.394854
v -0.279105 -0.609069 0.279112
v -0.279105 -0.609069 -0.279219
v -0.394740 -0.609069 -0.000054
v 0.186926 1.003731 -0.000054
v 0.370825 0.558531 -0.000054
v 0.132194 1.003731 0.132080
v 0.262231 0.558531 0.262116
v 0.000060 1.096131 -0.083476
v -0.058928 1.096131 -0.059042
v 0.000060 1.003731 -0.186919
v -0.132073 1.003731 -0.132187
v 0.360184 -0.315069 -0.360177
v 0.509352 -0.315069 -0.000054
v 0.262231 0.558531 -0.262224
v 0.370825 0.558531 -0.000054
v -0.360063 -0.315069 -0.360177
v -0.509232 -0.315069 -0.000054
v -0.279105 -0.609069 -0.279219
v -0.394740 -0.609069 -0.000054
v 0.083482 1.096131 -0.000054
v 0.059049 1.096131 0.058935
v 0.059049 1.096131 -0.059042
v 0.000060 1.096131 -0.083476
v 0.000060 1.096131 0.083368
v -0.058928 1.096131 -0.059042
v -0.058928 1.096131 0.058935
v -0.083362 1.096131 -0.000054
v -0.058928 1.096131 0.058935
v -0.132073 1.003731 0.132080
v -0.083362 1.096131 -0.000054
v -0.186805 1.003731 -0.000054
v -0.058928 1.096131 -0.059042
v -0.083362 1.096131 -0.000054
v -0.132073 1.003731 -0.132187
v -0.186805 1.003731 -0.000054
v 0.000060 0.558531 -0.370818
v 0.262231 0.558531 -0.262224
v 0.000060 1.003731 -0.186919
v 0.132194 1.003731 -0.132187
v 0.370825 0.558531 -0.000054
v 0.509352 -0.315069 -0.000054
v 0.262231 0.558531 0.262116
v 0.360184 -0.315069 0.360070
v 0.279226 -0.609069 0.279112
v 0.000060 -0.609069 0.394746
v 0.360184 -0.315069 0.360070
v 0.000060 -0.315069 0.509238
v 0.132194 1.003731 0.132080
v 0.000060 1.003731 0.186812
v 0.059049 1.096131 0.058935
v 0.000060 1.096131 0.083368
v -0.279105 -0.609069 -0.279219
v 0.000060 -0.609069 -0.394854
v -0.360063 -0.315069 -0.360177
v 0.000060 -0.315069 -0.509346
v -0.360063 -0.315069 -0.360177
v -0.262110 0.558531 -0.262224
v -0.509232 -0.315069 -0.000054
v -0.370704 0.558531 -0.000054
v 0.360184 -0.315069 -0.360177
v 0.279226 -0.609069 -0.279219
v 0.509352 -0.315069 -0.000054
v 0.394860 -0.609069 -0.000054
v -0.370704 0.558531 -0.000054
v -0.262110 0.558531 0.262116
v -0.509232 -0.315069 -0.000054
v -0.360063 -0.315069 0.360070
v 0.186926 1.003731 -0.000054
v 0.132194 1.003731 0.132080
v 0.083482 1.096131 -0.000054
v 0.059049 1.096131 0.058935
v -0.186805 1.003731 -0.000054
v -0.132073 1.003731 0.132080
v -0.370704 0.558531 -0.000054
v -0.262110 0.558531 0.262116
v 0.360184 -0.315069 0.360070
v 0.000060 -0.315069 0.509238
v 0.262231 0.558531 0.262116
v 0.000060 0.558531 0.370711
v 0.262231 0.558531 -0.262224
v 0.370825 0.558531 -0.000054
v 0.132194 1.003731 -0.132187
v 0.186926 1.003731 -0.000054
v -0.262110 0.558531 -0.262224
v -0.132073 1.003731 -0.132187
v -0.370704 0.558531 -0.000054
v -0.186805 1.003731 -0.000054
v 0.000060 0.558531 0.370711
v -0.262110 0.558531 0.262116
v 0.000060 1.003731 0.186812
v -0.132073 1.003731 0.132080
v 0.000060 1.096131 0.083368
v 0.000060 1.003731 0.186812
v -0.058928 1.096131 0.058935
v -0.132073 1.003731 0.132080
v -0.093748 -1.478029 -0.093862
v 0.093868 -1.478029 -0.093862
v -0.055521 -0.609069 -0.055635
v 0.055642 -0.609069 -0.055635
v 0.029606 -0.904400 0.068520
v 0.029606 -0.968338 0.071332
v 0.016806 -0.912265 0.180974
v 0.016806 -0.950628 0.182662
v 0.016806 -0.950628 0.182662
v -0.021594 -0.950628 0.182662
v 0.016806 -0.912265 0.180974
v -0.021594 -0.912265 0.180974
v -0.144260 -1.654509 -0.144374
v -0.093748 -1.478029 -0.093862
v -0.144260 -1.654509 0.144266
v -0.093748 -1.478029 0.093754
v -0.087221 -1.329658 0.037186
v -0.087221 -1.329658 -0.026814
v -0.182460 -1.310254 0.025026
v -0.182460 -1.310254 -0.014654
v -0.034394 -0.904400 0.068520
v -0.021594 -0.912265 0.180974
v -0.034394 -0.968338 0.071332
v -0.021594 -0.950628 0.182662
v 0.144380 -1.654509 0.144266
v -0.144260 -1.654509 0.144266
v 0.093868 -1.478029 0.093754
v -0.093748 -1.478029 0.093754
v -0.182460 -1.310254 -0.014654
v -0.180280 -1.260702 -0.014654
v -0.182460 -1.310254 0.025026
v -0.180280 -1.260702 0.025026
v -0.144260 -1.654509 -0.144374
v 0.144380 -1.654509 -0.144374
v -0.093748 -1.478029 -0.093862
v 0.093868 -1.478029 -0.093862
v -0.087221 -1.329658 -0.026814
v -0.083705 -1.249735 -0.026814
v -0.182460 -1.310254 -0.014654
v -0.180280 -1.260702 -0.014654
v 0.144380 -1.654509 -0.144374
v 0.144380 -1.654509 0.144266
v 0.093868 -1.478029 -0.093862
v 0.093868 -1.478029 0.093754
v -0.083705 -1.249735 -0.026814
v -0.083705 -1.249735 0.037186
v -0.180280 -1.260702 -0.014654
v -0.180280 -1.260702 0.025026
v -0.087221 -1.329658 0.037186
v -0.182460 -1.310254 0.025026
v -0.083705 -1.249735 0.037186
v -0.180280 -1.260702 0.025026
v 0.093868 -1.478029 -0.093862
v 0.093868 -1.478029 0.093754
v 0.055642 -0.609069 -0.055635
v 0.055642 -0.609069 0.055528
v 0.029606 -0.968338 0.071332
v -0.034394 -0.968338 0.071332
v 0.016806 -0.950628 0.182662
v -0.021594 -0.950628 0.182662
v 0.029606 -0.904400 0.068520
v 0.016806 -0.912265 0.180974
v -0.034394 -0.904400 0.068520
v -0.021594 -0.912265 0.180974
v 0.144380 -1.654509 0.144266
v 0.144380 -1.654509 -0.144374
v -0.144260 -1.654509 0.144266
v -0.144260 -1.654509 -0.144374
v -0.087221 -1.329658 0.037186
v -0.093748 -1.478029 0.093754
v -0.087221 -1.329658 -0.026814
v -0.083705 -1.249735 0.037186
v -0.093748 -1.478029 -0.093862
v -0.055521 -0.609069 0.055528
v -0.055521 -0.609069 -0.055635
v -0.083705 -1.249735 -0.026814
v 0.029606 -0.904400 0.068520
v 0.055642 -0.609069 0.055528
v 0.029606 -0.968338 0.071332
v -0.034394 -0.904400 0.068520
v 0.093868 -1.478029 0.093754
v -0.055521 -0.609069 0.055528
v -0.093748 -1.478029 0.093754
v -0.034394 -0.968338 0.071332
vn -0.0000 -0.1007 -0.9949
vn 0.6589 -0.3629 -0.6589
vn 0.0001 -0.3629 -0.9318
vn 0.7035 -0.1007 -0.7035
vn -0.0000 0.2639 -0.9646
vn 0.7035 -0.1006 -0.7035
vn -0.0000 -0.1006 -0.9949
vn 0.6820 0.2639 -0.6821
vn -0.6820 0.2639 -0.6821
vn -0.7035 -0.1006 -0.7035
vn -0.0000 0.2639 -0.9645
vn 0.5887 0.5539 -0.5887
vn 0.4290 0.9033 -0.0000
vn 0.8326 0.5539 -0.0000
vn 0.3034 0.9033 -0.3034
vn 0.7035 -0.1007 0.7035
vn 0.9318 -0.3629 0.0001
vn 0.9949 -0.1007 -0.0000
vn 0.6589 -0.3629 0.6589
vn -0.0000 -0.1007 0.9949
vn -0.6589 -0.3629 0.6589
vn -0.0001 -0.3629 0.9318
vn -0.7035 -0.1007 0.7035
vn 0.5887 0.5539 0.5888
vn -0.0000 0.2639 0.9646
vn 0.6820 0.2639 0.6821
vn -0.0000 0.5539 0.8326
vn -0.9318 -0.3629 0.0001
vn -0.9949 -0.1007 -0.0000
vn -0.0000 0.5539 -0.8326
vn 0.5887 0.5539 -0.5888
vn -0.0000 0.9033 -0.4290
vn -0.5887 0.5539 -0.5888
vn -0.7035 -0.1006 0.7035
vn -0.0000 -0.1006 0.9949
vn -0.6820 0.2639 0.6821
vn -0.0000 -1.0000 -0.0000
vn 0.5888 0.5539 0.5887
vn 0.9646 0.2639 -0.0000
vn 0.6820 0.2639 0.6820
vn -0.3034 0.9033 -0.3034
vn -0.5887 0.5539 -0.5887
vn 0.6821 0.2639 -0.6820
vn 0.9949 -0.1006 -0.0000
vn 0.9645 0.2639 -0.0000
vn -0.6589 -0.3629 -0.6589
vn -0.7035 -0.1007 -0.7035
vn -0.9318 -0.3629 -0.0001
vn 0.3033 0.9033 -0.3033
vn 0.3033 0.9033 0.3033
vn 0.4289 0.9033 -0.0000
vn -0.0000 0.9033 0.4290
vn -0.3033 0.9033 -0.3033
vn -0.3033 0.9033 0.3033
vn -0.4289 0.9033 -0.0000
vn -0.4290 0.9033 -0.0000
vn -0.5887 0.5539 0.5887
vn -0.3034 0.9033 0.3034
vn -0.8326 0.5539 -0.0000
vn -0.5888 0.5539 -0.5887
vn 0.6820 0.2639 -0.6820
vn 0.6821 0.2639 0.6820
vn 0.7035 -0.1006 0.7035
vn 0.0001 -0.3629 0.9318
vn 0.3034 0.9033 0.3034
vn 0.5887 0.5539 0.5887
vn -0.0001 -0.3629 -0.9318
vn -0.9949 -0.1006 -0.0000
vn -0.6821 0.2639 -0.6820
vn -0.9646 0.2639 -0.0000
vn 0.9318 -0.3629 -0.0001
vn -0.6821 0.2639 0.6820
vn -0.9645 0.2639 -0.0000
vn -0.5888 0.5539 0.5887
vn -0.0000 0.2639 0.9645
vn 0.5888 0.5539 -0.5887
vn -0.6820 0.2639 -0.6820
vn -0.6820 0.2639 0.6820
vn -0.5887 0.5539 0.5888
vn -0.0000 0.0439 -0.9990
vn -0.0000 0.1714 -0.9852
vn 0.9935 0.0050 0.1134
vn -0.0000 0.0439 0.9990
vn -0.9614 0.2752 -0.0000
vn -0.9852 0.1715 -0.0000
vn -0.1996 -0.9799 -0.0000
vn -0.9935 0.0050 0.1134
vn -0.0000 0.1715 0.9852
vn -0.0000 0.2752 0.9614
vn -0.9990 0.0439 -0.0000
vn -0.0000 0.1715 -0.9852
vn -0.0000 0.2752 -0.9614
vn -0.1255 0.0055 -0.9921
vn 0.9852 0.1715 -0.0000
vn 0.9614 0.2752 -0.0000
vn -0.1128 0.9936 -0.0000
vn -0.1255 0.0055 0.9921
vn 0.9990 0.0439 -0.0000
vn 0.9852 0.1714 -0.0000
vn -0.0000 -0.9876 0.1571
vn -0.0000 0.9976 0.0698
vn -0.9852 0.1714 -0.0000
vn -0.0000 0.1714 0.9852
vt 0.468750 0.059483
vt 0.468750 0.025000
vt 0.468750 0.161946
vt 0.468750 0.214163
vt 0.468750 0.225000
vt 0.593750 0.025000
vt 0.593750 0.191238
vt 0.593750 0.083004
vt 0.593750 0.093731
vt 0.593750 0.081499
vt 0.593750 0.090343
vt 0.593750 0.225000
vt 0.593750 0.159142
vt 0.593750 0.162854
vt 0.593750 0.149662
vt 0.593750 0.147564
s 1
usemtl colormap.097
f 3/1/1 2/2/2 1/2/3
f 2/2/2 3/1/1 4/1/4
f 7/3/5 6/1/6 5/1/7
f 6/1/6 7/3/5 8/3/8
f 11/3/9 10/1/7 9/1/10
f 10/1/7 11/3/9 12/3/11
f 15/4/12 14/5/13 13/4/14
f 14/5/13 15/4/12 16/5/15
f 19/1/16 18/2/17 17/1/18
f 18/2/17 19/1/16 20/2/19
f 23/1/20 22/2/21 21/2/22
f 22/2/21 23/1/20 24/1/23
f 27/4/24 26/3/25 25/3/26
f 26/3/25 27/4/24 28/4/27
f 31/2/28 30/1/23 29/1/29
f 30/1/23 31/2/28 32/2/21
f 35/4/30 34/5/15 33/4/31
f 34/5/15 35/4/30 36/5/32
f 39/4/33 38/3/5 37/3/9
f 38/3/5 39/4/33 40/4/30
f 43/3/25 42/1/34 41/1/35
f 42/1/34 43/3/25 44/3/36
s 0
f 47/2/37 46/2/37 45/2/37
f 46/2/37 47/2/37 48/2/37
f 46/2/37 48/2/37 49/2/37
f 49/2/37 48/2/37 50/2/37
f 49/2/37 50/2/37 51/2/37
f 51/2/37 50/2/37 52/2/37
s 1
f 55/4/38 54/3/39 53/4/14
f 54/3/39 55/4/38 56/3/40
f 59/4/30 58/5/41 57/5/32
f 58/5/41 59/4/30 60/4/42
f 63/3/43 62/1/44 61/1/6
f 62/1/44 63/3/43 64/3/45
f 67/2/46 66/1/29 65/1/47
f 66/1/29 67/2/46 68/2/48
f 71/5/49 70/5/50 69/5/51
f 70/5/50 71/5/49 72/5/32
f 70/5/50 72/5/32 73/5/52
f 73/5/52 72/5/32 74/5/53
f 73/5/52 74/5/53 75/5/54
f 75/5/54 74/5/53 76/5/55
f 79/5/56 78/4/57 77/5/58
f 78/4/57 79/5/56 80/4/59
f 83/4/60 82/5/56 81/5/41
f 82/5/56 83/4/60 84/4/59
f 87/4/30 86/3/61 85/3/5
f 86/3/61 87/4/30 88/4/31
f 91/3/62 90/1/44 89/3/39
f 90/1/44 91/3/62 92/1/63
f 95/1/16 94/2/64 93/2/19
f 94/2/64 95/1/16 96/1/20
f 99/5/65 98/4/27 97/4/66
f 98/4/27 99/5/65 100/5/52
f 103/1/47 102/2/67 101/2/46
f 102/2/67 103/1/47 104/1/1
f 107/1/68 106/3/69 105/1/10
f 106/3/69 107/1/68 108/3/70
f 111/1/18 110/2/2 109/1/4
f 110/2/2 111/1/18 112/2/71
f 115/1/68 114/3/72 113/3/73
f 114/3/72 115/1/68 116/1/34
f 119/5/13 118/4/38 117/4/14
f 118/4/38 119/5/13 120/5/65
f 123/3/70 122/4/74 121/4/59
f 122/4/74 123/3/70 124/3/72
f 127/3/26 126/1/35 125/1/63
f 126/1/35 127/3/26 128/3/75
f 131/4/76 130/3/39 129/3/43
f 130/3/39 131/4/76 132/4/14
f 135/3/70 134/4/60 133/3/77
f 134/4/60 135/3/70 136/4/59
f 139/4/27 138/3/78 137/3/25
f 138/3/78 139/4/27 140/4/79
f 143/5/58 142/4/27 141/5/52
f 142/4/27 143/5/58 144/4/79
f 147/6/80 146/7/81 145/7/81
f 146/7/81 147/6/80 148/6/80
s 0
f 151/8/82 150/9/82 149/10/82
f 150/9/82 151/8/82 152/11/82
f 155/8/83 154/11/83 153/11/83
f 154/11/83 155/8/83 156/8/83
s 1
f 159/12/84 158/7/85 157/12/84
f 158/7/85 159/12/84 160/7/85
s 0
f 163/13/86 162/14/86 161/14/86
s 1
f 162/14/86 163/13/86 164/13/86
s 0
f 167/9/87 166/8/87 165/10/87
f 166/8/87 167/9/87 168/11/87
s 1
f 171/7/88 170/12/89 169/12/89
f 170/12/89 171/7/88 172/7/88
s 0
f 175/13/90 174/15/90 173/13/90
f 174/15/90 175/13/90 176/15/90
s 1
f 179/7/91 178/12/92 177/12/92
f 178/12/92 179/7/91 180/7/91
f 183/13/93 182/16/93 181/14/93
s 0
f 182/16/93 183/13/93 184/15/93
s 1
f 187/7/94 186/12/95 185/12/95
f 186/12/95 187/7/94 188/7/94
s 0
f 191/15/96 190/16/96 189/16/96
f 190/16/96 191/15/96 192/15/96
s 1
f 195/16/97 194/13/97 193/14/97
s 0
f 194/13/97 195/16/97 196/15/97
s 1
f 199/6/98 198/7/99 197/7/99
f 198/7/99 199/6/98 200/6/98
s 0
f 203/11/100 202/9/100 201/9/100
f 202/9/100 203/11/100 204/11/100
f 207/10/101 206/8/101 205/10/101
f 206/8/101 207/10/101 208/8/101
f 211/12/37 210/12/37 209/12/37
f 210/12/37 211/12/37 212/12/37
s 1
f 215/14/90 214/7/102 213/14/90
f 213/14/90 214/7/102 216/16/90
f 215/14/90 217/7/102 214/7/102
f 216/16/90 214/7/102 218/6/90
f 217/7/102 215/14/90 219/6/90
s 0
f 218/6/90 220/16/90 216/16/90
f 219/6/90 220/16/90 218/6/90
f 220/16/90 219/6/90 215/14/90
f 223/9/83 222/6/83 221/10/83
f 221/10/83 222/6/83 224/10/83
s 1
f 223/9/83 225/7/103 222/6/83
s 0
f 226/6/83 224/10/83 222/6/83
s 1
f 225/7/103 223/9/83 227/7/103
s 0
f 226/6/83 228/9/83 224/10/83
s 1
f 227/7/103 228/9/83 226/6/83
f 228/9/83 227/7/103 223/9/83
