# Blender 5.1.0
# www.blender.org
mtllib tree_crooked.mtl
o tree-crooked-col
v -0.142545 -0.904867 -0.141942
v 0.146095 -0.904867 -0.141942
v -0.092033 -0.768387 -0.091430
v 0.095583 -0.768387 -0.091430
v 0.095583 -0.768387 -0.091430
v 0.095583 -0.768387 0.096186
v 0.075883 -0.419427 -0.071730
v 0.075883 -0.419427 0.076486
v -0.092033 -0.768387 -0.091430
v 0.095583 -0.768387 -0.091430
v -0.072334 -0.419427 -0.071730
v 0.075883 -0.419427 -0.071730
v 0.146095 -0.904867 0.146698
v -0.142545 -0.904867 0.146698
v 0.095583 -0.768387 0.096186
v -0.092033 -0.768387 0.096186
v -0.092033 -0.768387 -0.091430
v -0.072334 -0.419427 -0.071730
v -0.092033 -0.768387 0.096186
v -0.072334 -0.419427 0.076486
v 0.032348 -0.613964 0.087468
v 0.032348 -0.701824 0.092428
v 0.015188 -0.624333 0.208245
v 0.015188 -0.677928 0.211270
v -0.055652 -0.613964 0.087468
v -0.038492 -0.624333 0.208245
v -0.055652 -0.701824 0.092428
v -0.038492 -0.677928 0.211270
v 0.032348 -0.613964 0.087468
v 0.015188 -0.624333 0.208245
v -0.055652 -0.613964 0.087468
v -0.038492 -0.624333 0.208245
v 0.032348 -0.701824 0.092428
v -0.055652 -0.701824 0.092428
v 0.015188 -0.677928 0.211270
v -0.038492 -0.677928 0.211270
v 0.015188 -0.677928 0.211270
v -0.038492 -0.677928 0.211270
v 0.015188 -0.624333 0.208245
v -0.038492 -0.624333 0.208245
v 0.146095 -0.904867 0.146698
v 0.146095 -0.904867 -0.141942
v -0.142545 -0.904867 0.146698
v -0.142545 -0.904867 -0.141942
v 0.146095 -0.904867 -0.141942
v 0.146095 -0.904867 0.146698
v 0.095583 -0.768387 -0.091430
v 0.095583 -0.768387 0.096186
v -0.142545 -0.904867 -0.141942
v -0.092033 -0.768387 -0.091430
v -0.142545 -0.904867 0.146698
v -0.092033 -0.768387 0.096186
v 0.032348 -0.613964 0.087468
v 0.075883 -0.419427 0.076486
v 0.032348 -0.701824 0.092428
v -0.055652 -0.613964 0.087468
v 0.095583 -0.768387 0.096186
v -0.072334 -0.419427 0.076486
v -0.092033 -0.768387 0.096186
v -0.055652 -0.701824 0.092428
v 0.001775 0.982936 -0.133543
v 0.102418 0.984318 -0.091878
v 0.001775 1.507713 -0.008541
v -0.098869 0.984318 -0.091878
v 0.001775 1.507713 -0.008541
v -0.140557 0.987655 0.008711
v 0.001775 0.992374 0.150964
v -0.098869 0.990992 0.109299
v 0.001775 1.507713 -0.008541
v -0.098869 0.984318 -0.091878
v 0.001775 0.982936 -0.133543
v 0.001775 1.507713 -0.008541
v 0.001775 1.507713 -0.008541
v 0.102418 0.984318 -0.091878
v 0.144106 0.987655 0.008711
v 0.001775 1.507713 -0.008541
v 0.144106 0.987655 0.008711
v 0.102418 0.990992 0.109299
v 0.102418 0.990992 0.109299
v 0.001775 0.992374 0.150964
v 0.001775 1.507713 -0.008541
v -0.140557 0.987655 0.008711
v 0.001775 1.507713 -0.008541
v -0.098869 0.990992 0.109299
v 0.144106 0.987655 0.008711
v 0.202242 0.849394 0.013297
v 0.102418 0.990992 0.109299
v 0.143526 0.854094 0.154971
v 0.202242 0.849394 0.013297
v 0.143526 0.844694 -0.128376
v 0.143526 0.854094 0.154971
v 0.001775 0.856041 0.213654
v 0.001775 0.842748 -0.187060
v -0.139977 0.854094 0.154971
v -0.139977 0.844694 -0.128376
v -0.198692 0.849394 0.013297
v 0.143526 0.854094 0.154971
v 0.001775 0.856041 0.213654
v 0.102418 0.990992 0.109299
v 0.001775 0.992374 0.150964
v 0.001775 0.842748 -0.187060
v 0.001775 0.982936 -0.133543
v -0.139977 0.844694 -0.128376
v -0.098869 0.984318 -0.091878
v -0.139977 0.854094 0.154971
v -0.098869 0.990992 0.109299
v 0.001775 0.856041 0.213654
v 0.001775 0.992374 0.150964
v 0.143526 0.844694 -0.128376
v 0.202242 0.849394 0.013297
v 0.102418 0.984318 -0.091878
v 0.144106 0.987655 0.008711
v -0.140557 0.987655 0.008711
v -0.098869 0.990992 0.109299
v -0.198692 0.849394 0.013297
v -0.139977 0.854094 0.154971
v 0.001775 0.842748 -0.187060
v 0.143526 0.844694 -0.128376
v 0.001775 0.982936 -0.133543
v 0.102418 0.984318 -0.091878
v -0.139977 0.844694 -0.128376
v -0.098869 0.984318 -0.091878
v -0.198692 0.849394 0.013297
v -0.140557 0.987655 0.008711
v -0.138432 0.629620 0.144129
v -0.111832 0.852225 0.098612
v 0.002802 0.641728 0.202845
v -0.015363 0.853614 0.140484
v 0.002802 0.641728 -0.198089
v 0.144035 0.653836 -0.139374
v -0.014570 0.844360 -0.138452
v 0.086793 0.845678 -0.098727
v 0.002802 0.641728 0.202845
v -0.015363 0.853614 0.140484
v 0.144035 0.653836 0.144129
v 0.084805 0.852339 0.102071
v 0.301918 0.458216 0.002378
v 0.219522 0.451152 -0.197272
v 0.219522 0.451152 0.202028
v 0.020602 0.434099 0.284726
v 0.020602 0.434099 -0.279970
v -0.178319 0.417045 0.202028
v -0.178319 0.417045 -0.197272
v -0.260714 0.409982 0.002378
v 0.020602 0.434099 0.284726
v 0.002802 0.641728 0.202845
v 0.219522 0.451152 0.202028
v 0.144035 0.653836 0.144129
v 0.202536 0.658852 0.002378
v 0.144035 0.653836 0.144129
v 0.128605 0.849032 0.002378
v 0.084805 0.852339 0.102071
v -0.138432 0.629620 -0.139374
v -0.112600 0.845796 -0.095171
v -0.196933 0.624605 0.002378
v -0.151505 0.849032 0.002378
v -0.178319 0.417045 -0.197272
v -0.138432 0.629620 -0.139374
v -0.260714 0.409982 0.002378
v -0.196933 0.624605 0.002378
v 0.202536 0.658852 0.002378
v 0.301918 0.458216 0.002378
v 0.144035 0.653836 0.144129
v 0.219522 0.451152 0.202028
v -0.196933 0.624605 0.002378
v -0.151505 0.849032 0.002378
v -0.138432 0.629620 0.144129
v -0.111832 0.852225 0.098612
v -0.178319 0.417045 0.202028
v -0.138432 0.629620 0.144129
v 0.020602 0.434099 0.284726
v 0.002802 0.641728 0.202845
v -0.178319 0.417045 -0.197272
v 0.020602 0.434099 -0.279970
v -0.138432 0.629620 -0.139374
v 0.002802 0.641728 -0.198089
v 0.020602 0.434099 -0.279970
v 0.219522 0.451152 -0.197272
v 0.002802 0.641728 -0.198089
v 0.144035 0.653836 -0.139374
v 0.219522 0.451152 -0.197272
v 0.301918 0.458216 0.002378
v 0.144035 0.653836 -0.139374
v 0.202536 0.658852 0.002378
v 0.144035 0.653836 -0.139374
v 0.202536 0.658852 0.002378
v 0.086793 0.845678 -0.098727
v 0.128605 0.849032 0.002378
v -0.196933 0.624605 0.002378
v -0.138432 0.629620 0.144129
v -0.260714 0.409982 0.002378
v -0.178319 0.417045 0.202028
v -0.138432 0.629620 -0.139374
v 0.002802 0.641728 -0.198089
v -0.112600 0.845796 -0.095171
v -0.014570 0.844360 -0.138452
v 0.263294 0.053276 -0.311268
v 0.204585 0.280854 -0.205470
v -0.024361 0.095666 -0.427647
v 0.000349 0.310950 -0.288100
v 0.382445 0.013159 -0.024422
v 0.263294 -0.001184 0.264860
v 0.289182 0.252371 -0.001810
v 0.204585 0.242187 0.203580
v 0.263294 -0.001184 0.264860
v -0.024361 0.018647 0.387121
v 0.204585 0.242187 0.203580
v 0.000349 0.256267 0.290386
v -0.312017 0.115497 -0.305386
v -0.203886 0.325031 -0.201295
v -0.431168 0.101154 -0.016104
v -0.288484 0.314847 0.004096
v 0.204585 0.280854 -0.205470
v 0.177054 0.447512 -0.143595
v 0.000349 0.310950 -0.288100
v 0.014239 0.433553 -0.226508
v 0.204585 0.242187 0.203580
v 0.000349 0.256267 0.290386
v 0.172402 0.447113 0.169035
v 0.019051 0.433966 0.239856
v 0.000349 0.256267 0.290386
v -0.203886 0.286364 0.207756
v 0.019051 0.433966 0.239856
v -0.152665 0.419245 0.183269
v -0.024361 0.095666 -0.427647
v 0.000349 0.310950 -0.288100
v -0.312017 0.115497 -0.305386
v -0.203886 0.325031 -0.201295
v 0.263294 0.053276 -0.311268
v 0.382445 0.013159 -0.024422
v 0.204585 0.280854 -0.205470
v 0.289182 0.252371 -0.001810
v -0.024361 0.018647 0.387121
v -0.312017 0.061037 0.270742
v 0.000349 0.256267 0.290386
v -0.203886 0.286364 0.207756
v 0.000349 0.310950 -0.288100
v 0.014239 0.433553 -0.226508
v -0.203886 0.325031 -0.201295
v -0.166034 0.418099 -0.165119
v -0.203886 0.325031 -0.201295
v -0.166034 0.418099 -0.165119
v -0.288484 0.314847 0.004096
v -0.238024 0.411927 0.013273
v 0.289182 0.252371 -0.001810
v 0.204585 0.242187 0.203580
v 0.235463 0.452519 0.017110
v 0.172402 0.447113 0.169035
v 0.382445 0.013159 -0.024422
v 0.263294 0.053276 -0.311268
v 0.263294 -0.001184 0.264860
v -0.024361 0.018647 0.387121
v -0.024361 0.095666 -0.427647
v -0.312017 0.061037 0.270742
v -0.312017 0.115497 -0.305386
v -0.431168 0.101154 -0.016104
v -0.288484 0.314847 0.004096
v -0.238024 0.411927 0.013273
v -0.203886 0.286364 0.207756
v -0.152665 0.419245 0.183269
v -0.431168 0.101154 -0.016104
v -0.288484 0.314847 0.004096
v -0.312017 0.061037 0.270742
v -0.203886 0.286364 0.207756
v 0.204585 0.280854 -0.205470
v 0.289182 0.252371 -0.001810
v 0.177054 0.447512 -0.143595
v 0.235463 0.452519 0.017110
v 0.258571 -0.133427 0.259174
v 0.001775 -0.133427 0.365543
v 0.219934 0.007737 0.220538
v 0.001775 0.023580 0.304770
v -0.361390 -0.133427 0.002378
v -0.255022 -0.133427 0.259174
v -0.509725 -0.419427 0.002378
v -0.359910 -0.419427 0.364063
v 0.001775 -0.419427 0.513878
v -0.359910 -0.419427 0.364063
v 0.001775 -0.133427 0.365543
v -0.255022 -0.133427 0.259174
v -0.359910 -0.419427 -0.359307
v -0.255022 -0.133427 -0.254419
v -0.509725 -0.419427 0.002378
v -0.361390 -0.133427 0.002378
v -0.359910 -0.419427 -0.359307
v 0.001775 -0.419427 -0.509122
v -0.255022 -0.133427 -0.254419
v 0.001775 -0.133427 -0.360787
v 0.001775 -0.419427 -0.509122
v 0.363460 -0.419427 -0.359307
v 0.001775 -0.133427 -0.360787
v 0.258571 -0.133427 -0.254419
v 0.363460 -0.419427 0.364063
v 0.001775 -0.419427 0.513878
v 0.258571 -0.133427 0.259174
v 0.001775 -0.133427 0.365543
v 0.001775 -0.133427 0.365543
v -0.255022 -0.133427 0.259174
v 0.001775 0.023580 0.304770
v -0.203406 0.055158 0.207558
v 0.513275 -0.419427 0.002378
v 0.363460 -0.419427 -0.359307
v 0.363460 -0.419427 0.364063
v 0.001775 -0.419427 0.513878
v 0.001775 -0.419427 -0.509122
v -0.359910 -0.419427 0.364063
v -0.359910 -0.419427 -0.359307
v -0.509725 -0.419427 0.002378
v 0.364940 -0.133427 0.002378
v 0.513275 -0.419427 0.002378
v 0.258571 -0.133427 0.259174
v 0.363460 -0.419427 0.364063
v 0.364940 -0.133427 0.002378
v 0.258571 -0.133427 0.259174
v 0.305950 0.018973 0.002378
v 0.219934 0.007737 0.220538
v -0.255022 -0.133427 -0.254419
v 0.001775 -0.133427 -0.360787
v -0.193349 0.091901 -0.192746
v 0.001775 0.078731 -0.278667
v 0.001775 -0.133427 -0.360787
v 0.258571 -0.133427 -0.254419
v 0.001775 0.078731 -0.278667
v 0.208601 0.049147 -0.204448
v 0.258571 -0.133427 -0.254419
v 0.364940 -0.133427 0.002378
v 0.208601 0.049147 -0.204448
v 0.305950 0.018973 0.002378
v 0.363460 -0.419427 -0.359307
v 0.513275 -0.419427 0.002378
v 0.258571 -0.133427 -0.254419
v 0.364940 -0.133427 0.002378
v -0.255022 -0.133427 -0.254419
v -0.193349 0.091901 -0.192746
v -0.361390 -0.133427 0.002378
v -0.277747 0.082666 0.002378
v -0.361390 -0.133427 0.002378
v -0.277747 0.082666 0.002378
v -0.255022 -0.133427 0.259174
v -0.203406 0.055158 0.207558
vn -0.0000 0.2208 -0.9753
vn -0.0000 0.3471 -0.9378
vn 0.9984 0.0564 -0.0000
vn 0.9753 0.2207 -0.0000
vn -0.0000 0.0564 -0.9984
vn -0.0000 0.2207 -0.9753
vn -0.0000 0.2208 0.9753
vn -0.0000 0.3471 0.9378
vn -0.9753 0.2207 -0.0000
vn -0.9984 0.0564 -0.0000
vn 0.9899 0.0080 0.1413
vn -0.9899 0.0080 0.1413
vn -0.0000 0.9963 0.0855
vn -0.0000 -0.9804 0.1971
vn -0.0000 0.0564 0.9984
vn -0.0000 -1.0000 -0.0000
vn 0.9753 0.2208 -0.0000
vn 0.9378 0.3471 -0.0000
vn -0.9378 0.3471 -0.0000
vn -0.9753 0.2208 -0.0000
vn -0.0000 0.2207 0.9753
vn 0.3710 0.2152 -0.9034
vn 0.6671 0.3091 -0.6778
vn -0.0000 0.2999 -0.9540
vn -0.9435 0.3312 -0.0110
vn -0.8957 0.2326 -0.3789
vn -0.6672 0.3091 -0.6778
vn -0.3710 0.2746 0.8871
vn -0.6671 0.3533 0.6558
vn -0.0000 0.3625 0.9320
vn -0.3710 0.2152 -0.9034
vn -0.6671 0.3091 -0.6778
vn 0.9435 0.3312 -0.0110
vn 0.6672 0.3091 -0.6778
vn 0.8957 0.2326 -0.3789
vn 0.6672 0.3533 0.6558
vn 0.8957 0.2572 0.3627
vn 0.3710 0.2746 0.8871
vn 0.6671 0.3533 0.6558
vn -0.6672 0.3533 0.6558
vn -0.8957 0.2572 0.3627
vn 0.9219 0.3872 -0.0128
vn 0.9435 0.3312 -0.0109
vn 0.6519 0.4088 0.6386
vn -0.0000 -0.9995 0.0332
vn 0.0001 0.4178 0.9086
vn 0.6518 0.4088 0.6387
vn -0.6518 0.3656 -0.6644
vn -0.0001 0.2999 -0.9540
vn -0.0001 0.3566 -0.9342
vn -0.0001 0.4178 0.9085
vn -0.6518 0.4088 0.6387
vn 0.6672 0.3091 -0.6777
vn 0.9219 0.3872 -0.0129
vn 0.6519 0.3656 -0.6643
vn -0.9219 0.3872 -0.0128
vn -0.9435 0.3312 -0.0109
vn -0.6519 0.4088 0.6386
vn 0.0001 0.2999 -0.9540
vn 0.6518 0.3656 -0.6644
vn 0.0001 0.3566 -0.9342
vn -0.9219 0.3872 -0.0129
vn -0.6672 0.3091 -0.6777
vn -0.6519 0.3656 -0.6643
vn -0.0280 0.3261 0.9449
vn -0.7060 0.2219 0.6726
vn -0.6937 0.2690 0.6682
vn -0.0434 0.2787 0.9594
vn -0.0433 0.2786 -0.9594
vn 0.6378 0.3831 -0.6682
vn -0.0279 0.3261 -0.9449
vn 0.6461 0.3378 -0.6844
vn 0.6378 0.3831 0.6682
vn -0.0433 0.2786 0.9594
vn -0.0279 0.3260 0.9449
vn 0.6385 0.3371 0.6919
vn 0.0854 -0.9963 -0.0000
vn 0.6245 0.4206 0.6581
vn -0.0279 0.3261 0.9449
vn -0.0312 0.3644 0.9307
vn 0.6377 0.3831 0.6682
vn 0.9320 0.3623 0.0076
vn 0.9135 0.4068 -0.0000
vn 0.6385 0.3371 0.6918
vn -0.9694 0.2453 -0.0000
vn -0.7134 0.2212 -0.6649
vn -0.6937 0.2690 -0.6682
vn -0.9801 0.1984 0.0075
vn -0.9586 0.2849 -0.0000
vn -0.6937 0.2690 -0.6681
vn -0.6870 0.3082 -0.6581
vn -0.9694 0.2453 -0.0001
vn 0.6378 0.3831 0.6681
vn 0.8961 0.4439 -0.0000
vn 0.9135 0.4068 0.0001
vn -0.9801 0.1984 0.0076
vn -0.0313 0.3644 0.9307
vn -0.6936 0.2690 0.6682
vn -0.6869 0.3082 0.6581
vn -0.0280 0.3260 0.9449
vn -0.6936 0.2690 -0.6682
vn -0.0313 0.3644 -0.9307
vn -0.6869 0.3082 -0.6581
vn -0.0280 0.3261 -0.9449
vn 0.6245 0.4206 -0.6581
vn -0.0312 0.3644 -0.9307
vn 0.6377 0.3831 -0.6682
vn 0.6378 0.3831 -0.6681
vn 0.9135 0.4068 -0.0001
vn 0.9320 0.3623 0.0075
vn -0.6937 0.2690 0.6681
vn -0.9694 0.2453 0.0001
vn -0.6870 0.3082 0.6581
vn -0.7134 0.2212 -0.6650
vn -0.0280 0.3260 -0.9449
vn -0.0434 0.2787 -0.9594
vn 0.0498 0.5392 -0.8407
vn 0.6841 0.4035 -0.6076
vn 0.6737 0.4473 -0.5883
vn 0.0450 0.4977 -0.8662
vn 0.9488 0.3143 0.0298
vn 0.6738 0.3291 0.6616
vn 0.9322 0.3602 0.0341
vn 0.6841 0.2825 0.6724
vn 0.6841 0.2825 0.6725
vn 0.0498 0.3721 0.9268
vn 0.6737 0.3291 0.6617
vn 0.0450 0.3266 0.9441
vn -0.8328 0.5511 0.0520
vn -0.5942 0.5418 -0.5945
vn -0.5744 0.5822 -0.5754
vn -0.8589 0.5099 0.0481
vn 0.7256 0.3416 -0.5973
vn 0.6841 0.4035 -0.6077
vn 0.0820 0.4400 -0.8943
vn 0.7054 0.2241 0.6725
vn 0.0450 0.3265 0.9441
vn 0.0817 0.2646 0.9609
vn 0.0816 0.2647 0.9609
vn -0.5942 0.4207 0.6856
vn 0.0449 0.3265 0.9441
vn -0.5839 0.3593 0.7280
vn -0.5743 0.5822 -0.5755
vn 0.0449 0.4977 -0.8662
vn 0.0497 0.5392 -0.8407
vn -0.5941 0.5417 -0.5946
vn 0.9322 0.3602 0.0340
vn 0.6738 0.4472 -0.5882
vn 0.9488 0.3144 0.0297
vn -0.5743 0.4641 0.6744
vn 0.0497 0.3721 0.9268
vn -0.5941 0.4208 0.6855
vn 0.0819 0.4400 -0.8943
vn -0.6054 0.4900 -0.6272
vn -0.8589 0.5099 0.0482
vn -0.6055 0.4900 -0.6271
vn -0.5942 0.5417 -0.5945
vn -0.8879 0.4554 0.0643
vn 0.9659 0.2550 0.0452
vn 0.9488 0.3143 0.0297
vn 0.7054 0.2242 0.6724
vn -0.1080 -0.9897 -0.0936
vn -0.5942 0.4207 0.6855
vn -0.8879 0.4555 0.0644
vn -0.8589 0.5098 0.0482
vn -0.5840 0.3593 0.7279
vn -0.5744 0.4641 0.6743
vn -0.8328 0.5511 0.0522
vn 0.7257 0.3416 -0.5973
vn 0.9659 0.2550 0.0451
vn 0.6578 0.3610 0.6611
vn -0.0000 0.4164 0.9092
vn 0.6429 0.4164 0.6429
vn -0.0241 0.3609 0.9323
vn -0.8877 0.4604 0.0001
vn -0.6429 0.4164 0.6429
vn -0.9092 0.4164 -0.0000
vn -0.6277 0.4604 0.6277
vn -0.0001 0.4604 0.8877
vn -0.8877 0.4604 -0.0001
vn -0.6429 0.4164 -0.6429
vn -0.6277 0.4604 -0.6277
vn -0.0001 0.4604 -0.8877
vn -0.0000 0.4164 -0.9092
vn 0.6277 0.4604 -0.6277
vn 0.0001 0.4604 -0.8877
vn 0.6429 0.4164 -0.6429
vn 0.0001 0.4604 0.8877
vn 0.6277 0.4604 0.6277
vn -0.0242 0.3609 0.9323
vn -0.6815 0.3608 0.6367
vn 0.8877 0.4604 0.0001
vn 0.9092 0.4164 -0.0000
vn 0.9324 0.3609 -0.0209
vn 0.6578 0.3610 0.6610
vn -0.6610 0.3609 -0.6579
vn -0.0240 0.3609 -0.9323
vn 0.6366 0.3608 -0.6816
vn 0.6366 0.3608 -0.6815
vn 0.9324 0.3609 -0.0210
vn 0.8877 0.4604 -0.0001
vn -0.6610 0.3610 -0.6578
vn -0.9324 0.3609 -0.0208
vn -0.6816 0.3608 0.6366
vt 0.593750 0.168771
vt 0.593750 0.225000
vt 0.593750 0.025000
vt 0.593750 0.109421
vt 0.593750 0.141347
vt 0.593750 0.105149
vt 0.593750 0.131502
vt 0.468750 0.175000
vt 0.468750 0.096290
vt 0.468750 0.096082
vt 0.468750 0.096792
vt 0.468750 0.097293
vt 0.468750 0.097501
vt 0.468750 0.075999
vt 0.468750 0.076706
vt 0.468750 0.075293
vt 0.468750 0.076999
vt 0.468750 0.075000
vt 0.468750 0.127239
vt 0.468750 0.174687
vt 0.468750 0.124509
vt 0.468750 0.172914
vt 0.468750 0.129968
vt 0.468750 0.173211
vt 0.468750 0.174713
vt 0.468750 0.084280
vt 0.468750 0.085873
vt 0.468750 0.080436
vt 0.468750 0.076592
vt 0.468750 0.173967
vt 0.468750 0.131098
vt 0.468750 0.123379
vt 0.468750 0.173238
vt 0.468750 0.096347
vt 0.468750 0.137163
vt 0.468750 0.087003
vt 0.468750 0.143797
vt 0.468750 0.130886
vt 0.468750 0.078161
vt 0.468750 0.128641
vt 0.468750 0.079371
vt 0.468750 0.131745
vt 0.468750 0.097556
vt 0.468750 0.146901
vt 0.468750 0.100718
vt 0.468750 0.144656
vt 0.468750 0.173896
vt 0.468750 0.170820
vt 0.468750 0.173808
vt 0.468750 0.170911
vt 0.468750 0.138378
vt 0.468750 0.167666
vt 0.468750 0.088714
vt 0.468750 0.167413
vt 0.468750 0.166053
vt 0.468750 0.158540
vt 0.468750 0.130933
vt 0.468750 0.161638
vt 0.468750 0.167814
vt 0.468750 0.160738
vt 0.468750 0.172424
vt 0.468750 0.166639
vt 0.468750 0.173194
s 1
usemtl colormap.095
f 3/1/1 2/2/2 1/2/2
f 2/2/2 3/1/1 4/1/1
f 7/3/3 6/1/4 5/1/4
f 6/1/4 7/3/3 8/3/3
f 11/3/5 10/1/6 9/1/6
f 10/1/6 11/3/5 12/3/5
f 15/1/7 14/2/8 13/2/8
f 14/2/8 15/1/7 16/1/7
f 19/1/9 18/3/10 17/1/9
f 18/3/10 19/1/9 20/3/10
s 0
f 23/4/11 22/5/11 21/6/11
f 22/5/11 23/4/11 24/7/11
f 27/5/12 26/4/12 25/6/12
f 26/4/12 27/5/12 28/7/12
f 31/6/13 30/4/13 29/6/13
f 30/4/13 31/6/13 32/4/13
f 35/7/14 34/5/14 33/5/14
f 34/5/14 35/7/14 36/7/14
s 1
f 39/4/15 38/7/15 37/7/15
s 0
f 38/7/15 39/4/15 40/4/15
f 43/2/16 42/2/16 41/2/16
f 42/2/16 43/2/16 44/2/16
s 1
f 47/1/17 46/2/18 45/2/18
f 46/2/18 47/1/17 48/1/17
f 51/2/19 50/1/20 49/2/19
f 50/1/20 51/2/19 52/1/20
s 0
f 55/5/15 54/3/15 53/6/15
f 53/6/15 54/3/15 56/6/15
s 1
f 55/5/15 57/1/21 54/3/15
s 0
f 58/3/15 56/6/15 54/3/15
s 1
f 57/1/21 55/5/15 59/1/21
s 0
f 58/3/15 60/5/15 56/6/15
s 1
f 59/1/21 60/5/15 58/3/15
f 60/5/15 59/1/21 55/5/15
f 63/8/22 62/9/23 61/10/24
f 66/11/25 65/8/26 64/9/27
f 69/8/28 68/12/29 67/13/30
f 72/8/31 71/10/24 70/9/32
f 75/11/33 74/9/34 73/8/35
f 78/12/36 77/11/33 76/8/37
f 81/8/38 80/13/30 79/12/39
f 84/12/40 83/8/41 82/11/25
f 87/12/36 86/14/42 85/11/43
f 86/14/42 87/12/36 88/15/44
s 0
f 91/15/45 90/16/45 89/14/45
f 90/16/45 91/15/45 92/17/45
f 90/16/45 92/17/45 93/18/45
f 93/18/45 92/17/45 94/15/45
f 93/18/45 94/15/45 95/16/45
f 95/16/45 94/15/45 96/14/45
s 1
f 99/12/39 98/17/46 97/15/47
f 98/17/46 99/12/39 100/13/30
f 103/16/48 102/10/49 101/18/50
f 102/10/49 103/16/48 104/9/32
f 107/17/51 106/12/29 105/15/52
f 106/12/29 107/17/51 108/13/30
f 111/9/53 110/14/54 109/16/55
f 110/14/54 111/9/53 112/11/33
f 115/14/56 114/12/40 113/11/57
f 114/12/40 115/14/56 116/15/58
f 119/10/59 118/16/60 117/18/61
f 118/16/60 119/10/59 120/9/23
f 123/14/62 122/9/63 121/16/64
f 122/9/63 123/14/62 124/11/25
f 127/19/65 126/20/66 125/21/67
f 126/20/66 127/19/65 128/8/68
f 131/22/69 130/23/70 129/19/71
f 130/23/70 131/22/69 132/24/72
f 135/23/73 134/8/74 133/19/75
f 134/8/74 135/23/73 136/25/76
s 0
f 139/26/77 138/26/77 137/27/77
s 1
f 138/26/77 139/26/77 140/28/77
f 138/26/77 140/28/77 141/28/77
f 141/28/77 140/28/77 142/29/77
s 0
f 141/28/77 142/29/77 143/29/77
f 143/29/77 142/29/77 144/18/77
s 1
f 147/26/78 146/19/79 145/28/80
f 146/19/79 147/26/78 148/23/81
f 151/30/82 150/23/73 149/31/83
f 150/23/73 151/30/82 152/25/84
f 155/32/85 154/33/86 153/21/87
f 154/33/86 155/32/85 156/30/88
f 159/18/89 158/21/90 157/29/91
f 158/21/90 159/18/89 160/32/92
f 163/23/93 162/27/94 161/31/95
f 162/27/94 163/23/93 164/26/78
f 167/21/67 166/30/96 165/32/85
f 166/30/96 167/21/67 168/20/66
f 171/28/97 170/21/98 169/29/99
f 170/21/98 171/28/97 172/19/100
f 175/21/101 174/28/102 173/29/103
f 174/28/102 175/21/101 176/19/104
f 179/19/71 178/26/105 177/28/106
f 178/26/105 179/19/71 180/23/107
f 183/23/108 182/27/94 181/26/105
f 182/27/94 183/23/108 184/31/109
f 187/24/72 186/31/83 185/23/70
f 186/31/83 187/24/72 188/30/110
f 191/18/89 190/21/111 189/32/112
f 190/21/111 191/18/89 192/29/113
f 195/33/114 194/19/115 193/21/87
f 194/19/115 195/33/114 196/22/116
f 199/34/117 198/35/118 197/36/119
f 198/35/118 199/34/117 200/37/120
f 203/38/121 202/18/122 201/39/123
f 202/18/122 203/38/121 204/40/124
f 207/40/125 206/41/126 205/18/127
f 206/41/126 207/40/125 208/42/128
f 211/43/129 210/44/130 209/45/131
f 210/44/130 211/43/129 212/46/132
f 215/37/120 214/47/133 213/35/134
f 214/47/133 215/37/120 216/48/135
f 219/49/136 218/42/137 217/40/125
f 218/42/137 219/49/136 220/50/138
f 223/50/139 222/51/140 221/42/141
f 222/51/140 223/50/139 224/52/142
f 227/45/143 226/37/144 225/34/145
f 226/37/144 227/45/143 228/44/146
f 231/35/118 230/39/147 229/36/148
f 230/39/147 231/35/118 232/38/149
f 235/42/141 234/53/150 233/41/151
f 234/53/150 235/42/141 236/51/152
f 239/44/146 238/48/153 237/37/144
f 238/48/153 239/44/146 240/54/154
f 243/46/155 242/54/156 241/44/157
f 242/54/156 243/46/155 244/55/158
f 247/8/159 246/40/124 245/38/160
f 246/40/124 247/8/159 248/49/161
s 0
f 251/18/162 250/36/162 249/39/162
f 250/36/162 251/18/162 252/41/162
f 250/36/162 252/41/162 253/34/162
f 253/34/162 252/41/162 254/53/162
f 253/34/162 254/53/162 255/45/162
f 255/45/162 254/53/162 256/43/162
s 1
f 259/51/163 258/55/164 257/46/165
f 258/55/164 259/51/163 260/52/166
f 263/53/167 262/46/155 261/43/168
f 262/46/155 263/53/167 264/51/163
f 267/47/169 266/38/160 265/35/118
f 266/38/160 267/47/169 268/8/170
f 271/56/171 270/57/172 269/57/173
f 270/57/172 271/56/171 272/58/174
f 275/18/175 274/57/176 273/57/177
f 274/57/176 275/18/175 276/18/178
f 279/57/172 278/18/178 277/18/179
f 278/18/178 279/57/172 280/57/176
f 283/18/180 282/57/181 281/18/182
f 282/57/181 283/18/180 284/57/177
f 287/57/181 286/18/183 285/18/182
f 286/18/183 287/57/181 288/57/184
f 291/57/184 290/18/185 289/18/186
f 290/18/185 291/57/184 292/57/187
f 295/57/173 294/18/188 293/18/189
f 294/18/188 295/57/173 296/57/172
f 299/58/190 298/57/176 297/57/172
f 298/57/176 299/58/190 300/59/191
s 0
f 303/18/16 302/18/16 301/18/16
f 302/18/16 303/18/16 304/18/16
f 302/18/16 304/18/16 305/18/16
f 305/18/16 304/18/16 306/18/16
f 305/18/16 306/18/16 307/18/16
f 307/18/16 306/18/16 308/18/16
s 1
f 311/57/173 310/18/192 309/57/193
f 310/18/192 311/57/173 312/18/189
f 315/60/194 314/57/173 313/57/193
f 314/57/173 315/60/194 316/56/195
f 319/8/196 318/57/184 317/57/181
f 318/57/184 319/8/196 320/61/197
f 323/61/197 322/57/187 321/57/184
f 322/57/187 323/61/197 324/62/198
f 327/62/199 326/57/193 325/57/187
f 326/57/193 327/62/199 328/60/200
f 331/57/187 330/18/201 329/18/185
f 330/18/201 331/57/187 332/57/193
f 335/57/177 334/8/202 333/57/181
f 334/8/202 335/57/177 336/63/203
f 339/57/176 338/63/203 337/57/177
f 338/63/203 339/57/176 340/59/204
