# Blender 5.1.0
# www.blender.org
mtllib tree_high.mtl
o tree-high-col
v 0.144164 -1.405568 0.144444
v -0.144476 -1.405568 0.144444
v 0.093652 -1.229088 0.093932
v -0.093964 -1.229088 0.093932
v -0.144476 -1.405568 -0.144196
v -0.093964 -1.229088 -0.093684
v -0.144476 -1.405568 0.144444
v -0.093964 -1.229088 0.093932
v -0.144476 -1.405568 -0.144196
v 0.144164 -1.405568 -0.144196
v -0.093964 -1.229088 -0.093684
v 0.093652 -1.229088 -0.093684
v 0.144164 -1.405568 -0.144196
v 0.144164 -1.405568 0.144444
v 0.093652 -1.229088 -0.093684
v 0.093652 -1.229088 0.093932
v 0.144164 -1.405568 0.144444
v 0.144164 -1.405568 -0.144196
v -0.144476 -1.405568 0.144444
v -0.144476 -1.405568 -0.144196
v -0.182676 -1.061313 -0.044476
v -0.180496 -1.011761 -0.044476
v -0.182676 -1.061313 -0.004796
v -0.180496 -1.011761 -0.004796
v -0.087437 -1.080717 -0.056636
v -0.083921 -1.000795 -0.056636
v -0.182676 -1.061313 -0.044476
v -0.180496 -1.011761 -0.044476
v -0.083921 -1.000795 -0.056636
v -0.083921 -1.000795 0.007364
v -0.180496 -1.011761 -0.044476
v -0.180496 -1.011761 -0.004796
v -0.087437 -1.080717 0.007364
v -0.182676 -1.061313 -0.004796
v -0.083921 -1.000795 0.007364
v -0.180496 -1.011761 -0.004796
v -0.087437 -1.080717 0.007364
v -0.087437 -1.080717 -0.056636
v -0.182676 -1.061313 -0.004796
v -0.182676 -1.061313 -0.044476
v -0.093964 -1.229088 -0.093684
v 0.093652 -1.229088 -0.093684
v -0.055737 -0.360128 -0.055457
v 0.055425 -0.360128 -0.055457
v 0.093652 -1.229088 -0.093684
v 0.093652 -1.229088 0.093932
v 0.055425 -0.360128 -0.055457
v 0.055425 -0.360128 0.055705
v 0.035330 -0.659111 0.068858
v -0.028670 -0.659111 0.068858
v 0.022530 -0.641401 0.180187
v -0.015870 -0.641401 0.180187
v 0.035330 -0.595173 0.066045
v 0.022530 -0.603038 0.178500
v -0.028670 -0.595173 0.066045
v -0.015870 -0.603038 0.178500
v -0.028670 -0.595173 0.066045
v -0.015870 -0.603038 0.178500
v -0.028670 -0.659111 0.068858
v -0.015870 -0.641401 0.180187
v 0.035330 -0.595173 0.066045
v 0.035330 -0.659111 0.068858
v 0.022530 -0.603038 0.178500
v 0.022530 -0.641401 0.180187
v 0.022530 -0.641401 0.180187
v -0.015870 -0.641401 0.180187
v 0.022530 -0.603038 0.178500
v -0.015870 -0.603038 0.178500
v -0.093964 -1.229088 0.093932
v 0.035330 -0.659111 0.068858
v 0.093652 -1.229088 0.093932
v 0.055425 -0.360128 0.055705
v -0.028670 -0.659111 0.068858
v 0.035330 -0.595173 0.066045
v -0.055737 -0.360128 0.055705
v -0.028670 -0.595173 0.066045
v -0.087437 -1.080717 0.007364
v -0.093964 -1.229088 0.093932
v -0.087437 -1.080717 -0.056636
v -0.083921 -1.000795 0.007364
v -0.093964 -1.229088 -0.093684
v -0.055737 -0.360128 0.055705
v -0.083921 -1.000795 -0.056636
v -0.055737 -0.360128 -0.055457
v -0.363321 -0.074128 0.000124
v -0.256952 -0.074128 0.256920
v -0.511656 -0.360128 0.000124
v -0.361841 -0.360128 0.361809
v 0.363009 -0.074128 0.000124
v 0.511344 -0.360128 0.000124
v 0.256641 -0.074128 0.256920
v 0.361529 -0.360128 0.361809
v 0.361529 -0.360128 -0.361561
v 0.511344 -0.360128 0.000124
v 0.256641 -0.074128 -0.256672
v 0.363009 -0.074128 0.000124
v 0.511344 -0.360128 0.000124
v 0.361529 -0.360128 -0.361561
v 0.361529 -0.360128 0.361809
v -0.000156 -0.360128 0.511624
v 0.073952 -0.360128 0.074232
v -0.074264 -0.360128 0.074232
v 0.073952 -0.360128 -0.073984
v -0.000156 -0.360128 -0.511376
v -0.361841 -0.360128 0.361809
v -0.074264 -0.360128 -0.073984
v -0.361841 -0.360128 -0.361561
v -0.511656 -0.360128 0.000124
v -0.256952 -0.074128 -0.256672
v -0.000156 -0.074128 -0.363041
v -0.205469 0.113972 -0.205189
v -0.000156 0.113972 -0.290233
v 0.361529 -0.360128 0.361809
v -0.000156 -0.360128 0.511624
v 0.256641 -0.074128 0.256920
v -0.000156 -0.074128 0.363289
v -0.000156 -0.074128 0.363289
v -0.256952 -0.074128 0.256920
v -0.000156 0.113972 0.290481
v -0.205469 0.113972 0.205437
v -0.000156 -0.360128 -0.511376
v 0.361529 -0.360128 -0.361561
v -0.000156 -0.074128 -0.363041
v 0.256641 -0.074128 -0.256672
v 0.256641 -0.074128 -0.256672
v 0.363009 -0.074128 0.000124
v 0.205157 0.113972 -0.205189
v 0.290201 0.113972 0.000124
v -0.361841 -0.360128 -0.361561
v -0.000156 -0.360128 -0.511376
v -0.256952 -0.074128 -0.256672
v -0.000156 -0.074128 -0.363041
v -0.256952 -0.074128 -0.256672
v -0.205469 0.113972 -0.205189
v -0.363321 -0.074128 0.000124
v -0.290513 0.113972 0.000124
v 0.290201 0.113972 0.000124
v 0.363009 -0.074128 0.000124
v 0.205157 0.113972 0.205437
v 0.256641 -0.074128 0.256920
v -0.000156 -0.360128 0.511624
v -0.361841 -0.360128 0.361809
v -0.000156 -0.074128 0.363289
v -0.256952 -0.074128 0.256920
v 0.256641 -0.074128 0.256920
v -0.000156 -0.074128 0.363289
v 0.205157 0.113972 0.205437
v -0.000156 0.113972 0.290481
v -0.363321 -0.074128 0.000124
v -0.290513 0.113972 0.000124
v -0.256952 -0.074128 0.256920
v -0.205469 0.113972 0.205437
v -0.361841 -0.360128 -0.361561
v -0.256952 -0.074128 -0.256672
v -0.511656 -0.360128 0.000124
v -0.363321 -0.074128 0.000124
v -0.000156 -0.074128 -0.363041
v 0.256641 -0.074128 -0.256672
v -0.000156 0.113972 -0.290233
v 0.205157 0.113972 -0.205189
v 0.100488 1.046849 0.100768
v -0.000156 1.046849 0.142456
v -0.000156 1.567193 0.000124
v -0.142488 1.046849 0.000124
v -0.000156 1.567193 0.000124
v -0.100800 1.046849 0.100768
v -0.100800 1.046849 -0.100520
v -0.000156 1.046849 -0.142208
v -0.000156 1.567193 0.000124
v -0.000156 1.046849 -0.142208
v 0.100488 1.046849 -0.100520
v -0.000156 1.567193 0.000124
v -0.142488 1.046849 0.000124
v -0.100800 1.046849 -0.100520
v -0.000156 1.567193 0.000124
v -0.000156 1.046849 0.142456
v -0.100800 1.046849 0.100768
v -0.000156 1.567193 0.000124
v -0.000156 1.567193 0.000124
v 0.142176 1.046849 0.000124
v 0.100488 1.046849 0.100768
v -0.000156 1.567193 0.000124
v 0.100488 1.046849 -0.100520
v 0.142176 1.046849 0.000124
v -0.000156 0.908512 -0.200343
v 0.141596 0.908512 -0.141628
v -0.000156 1.046849 -0.142208
v 0.100488 1.046849 -0.100520
v 0.141596 0.908512 -0.141628
v 0.200311 0.908512 0.000124
v 0.100488 1.046849 -0.100520
v 0.142176 1.046849 0.000124
v -0.141908 0.908512 -0.141628
v -0.100800 1.046849 -0.100520
v -0.200623 0.908512 0.000124
v -0.142488 1.046849 0.000124
v -0.000156 0.908512 0.200591
v -0.141908 0.908512 0.141876
v -0.000156 1.046849 0.142456
v -0.100800 1.046849 0.100768
v -0.142488 1.046849 0.000124
v -0.100800 1.046849 0.100768
v -0.200623 0.908512 0.000124
v -0.141908 0.908512 0.141876
v 0.200311 0.908512 0.000124
v 0.141596 0.908512 -0.141628
v 0.141596 0.908512 0.141876
v -0.000156 0.908512 0.200591
v -0.000156 0.908512 -0.200343
v -0.141908 0.908512 0.141876
v -0.141908 0.908512 -0.141628
v -0.200623 0.908512 0.000124
v -0.141908 0.908512 -0.141628
v -0.000156 0.908512 -0.200343
v -0.100800 1.046849 -0.100520
v -0.000156 1.046849 -0.142208
v 0.142176 1.046849 0.000124
v 0.200311 0.908512 0.000124
v 0.100488 1.046849 0.100768
v 0.141596 0.908512 0.141876
v 0.141596 0.908512 0.141876
v -0.000156 0.908512 0.200591
v 0.100488 1.046849 0.100768
v -0.000156 1.046849 0.142456
v 0.199494 0.492592 -0.199526
v 0.282192 0.492592 0.000124
v 0.141596 0.700983 -0.141628
v 0.200311 0.700983 0.000124
v -0.141908 0.700983 -0.141628
v -0.098876 0.908512 -0.098597
v -0.200623 0.700983 0.000124
v -0.139768 0.908512 0.000124
v -0.141908 0.700983 -0.141628
v -0.000156 0.700983 -0.200343
v -0.098876 0.908512 -0.098597
v -0.000156 0.908512 -0.139488
v 0.141596 0.700983 -0.141628
v 0.200311 0.700983 0.000124
v 0.098565 0.908512 -0.098597
v 0.139456 0.908512 0.000124
v 0.282192 0.492592 0.000124
v 0.199494 0.492592 -0.199526
v 0.199494 0.492592 0.199774
v -0.000156 0.492592 0.282472
v -0.000156 0.492592 -0.282224
v -0.199806 0.492592 0.199774
v -0.199806 0.492592 -0.199526
v -0.282504 0.492592 0.000124
v 0.199494 0.492592 0.199774
v -0.000156 0.492592 0.282472
v 0.141596 0.700983 0.141876
v -0.000156 0.700983 0.200591
v -0.000156 0.492592 0.282472
v -0.199806 0.492592 0.199774
v -0.000156 0.700983 0.200591
v -0.141908 0.700983 0.141876
v -0.200623 0.700983 0.000124
v -0.141908 0.700983 0.141876
v -0.282504 0.492592 0.000124
v -0.199806 0.492592 0.199774
v -0.200623 0.700983 0.000124
v -0.139768 0.908512 0.000124
v -0.141908 0.700983 0.141876
v -0.098876 0.908512 0.098845
v 0.141596 0.700983 0.141876
v -0.000156 0.700983 0.200591
v 0.098565 0.908512 0.098845
v -0.000156 0.908512 0.139736
v -0.199806 0.492592 -0.199526
v -0.000156 0.492592 -0.282224
v -0.141908 0.700983 -0.141628
v -0.000156 0.700983 -0.200343
v -0.000156 0.700983 0.200591
v -0.141908 0.700983 0.141876
v -0.000156 0.908512 0.139736
v -0.098876 0.908512 0.098845
v -0.199806 0.492592 -0.199526
v -0.141908 0.700983 -0.141628
v -0.282504 0.492592 0.000124
v -0.200623 0.700983 0.000124
v -0.000156 0.492592 -0.282224
v 0.199494 0.492592 -0.199526
v -0.000156 0.700983 -0.200343
v 0.141596 0.700983 -0.141628
v 0.139456 0.908512 0.000124
v 0.200311 0.700983 0.000124
v 0.098565 0.908512 0.098845
v 0.141596 0.700983 0.141876
v 0.200311 0.700983 0.000124
v 0.282192 0.492592 0.000124
v 0.141596 0.700983 0.141876
v 0.199494 0.492592 0.199774
v -0.000156 0.700983 -0.200343
v 0.141596 0.700983 -0.141628
v -0.000156 0.908512 -0.139488
v 0.098565 0.908512 -0.098597
v -0.000156 0.342772 0.290656
v -0.205593 0.342772 0.205561
v -0.000156 0.492592 0.232665
v -0.164587 0.492592 0.164555
v 0.289192 0.113972 0.289472
v -0.000156 0.113972 0.409324
v 0.205281 0.342772 0.205561
v -0.000156 0.342772 0.290656
v -0.289504 0.113972 -0.289224
v -0.000156 0.113972 -0.409076
v -0.205593 0.342772 -0.205313
v -0.000156 0.342772 -0.290408
v 0.289192 0.113972 -0.289224
v 0.409044 0.113972 0.000124
v 0.205281 0.342772 -0.205313
v 0.290376 0.342772 0.000124
v -0.000156 0.113972 -0.409076
v 0.289192 0.113972 -0.289224
v -0.000156 0.342772 -0.290408
v 0.205281 0.342772 -0.205313
v -0.290688 0.342772 0.000124
v -0.205593 0.342772 0.205561
v -0.409356 0.113972 0.000124
v -0.289504 0.113972 0.289472
v -0.232697 0.492592 0.000124
v -0.164587 0.492592 0.164555
v -0.290688 0.342772 0.000124
v -0.205593 0.342772 0.205561
v 0.232385 0.492592 0.000124
v 0.290376 0.342772 0.000124
v 0.164275 0.492592 0.164555
v 0.205281 0.342772 0.205561
v 0.409044 0.113972 0.000124
v 0.289192 0.113972 -0.289224
v 0.289192 0.113972 0.289472
v -0.000156 0.113972 0.409324
v -0.000156 0.113972 -0.409076
v -0.289504 0.113972 0.289472
v -0.289504 0.113972 -0.289224
v -0.409356 0.113972 0.000124
v 0.290376 0.342772 0.000124
v 0.409044 0.113972 0.000124
v 0.205281 0.342772 0.205561
v 0.289192 0.113972 0.289472
v -0.205593 0.342772 -0.205313
v -0.164587 0.492592 -0.164307
v -0.290688 0.342772 0.000124
v -0.232697 0.492592 0.000124
v -0.000156 0.342772 -0.290408
v 0.205281 0.342772 -0.205313
v -0.000156 0.492592 -0.232417
v 0.164275 0.492592 -0.164307
v 0.205281 0.342772 -0.205313
v 0.290376 0.342772 0.000124
v 0.164275 0.492592 -0.164307
v 0.232385 0.492592 0.000124
v -0.205593 0.342772 -0.205313
v -0.000156 0.342772 -0.290408
v -0.164587 0.492592 -0.164307
v -0.000156 0.492592 -0.232417
v -0.000156 0.113972 0.409324
v -0.289504 0.113972 0.289472
v -0.000156 0.342772 0.290656
v -0.205593 0.342772 0.205561
v -0.289504 0.113972 -0.289224
v -0.205593 0.342772 -0.205313
v -0.409356 0.113972 0.000124
v -0.290688 0.342772 0.000124
v 0.205281 0.342772 0.205561
v -0.000156 0.342772 0.290656
v 0.164275 0.492592 0.164555
v -0.000156 0.492592 0.232665
vn -0.0000 0.1715 0.9852
vn -0.0000 0.2752 0.9614
vn -0.9614 0.2752 -0.0000
vn -0.9852 0.1715 -0.0000
vn -0.0000 0.1715 -0.9852
vn -0.0000 0.2752 -0.9614
vn 0.9852 0.1715 -0.0000
vn 0.9614 0.2752 -0.0000
vn -0.0000 -1.0000 -0.0000
vn -0.9990 0.0439 -0.0000
vn -0.1255 0.0055 -0.9921
vn -0.1128 0.9936 -0.0000
vn -0.1255 0.0055 0.9921
vn -0.1996 -0.9799 -0.0000
vn -0.0000 0.0439 -0.9990
vn -0.0000 0.1714 -0.9852
vn 0.9990 0.0439 -0.0000
vn 0.9852 0.1714 -0.0000
vn -0.0000 -0.9876 0.1571
vn -0.0000 0.9976 0.0698
vn -0.9935 0.0050 0.1134
vn 0.9935 0.0050 0.1134
vn -0.0000 0.0439 0.9990
vn -0.0000 0.1714 0.9852
vn -0.9852 0.1714 -0.0000
vn -0.8877 0.4604 0.0001
vn -0.6429 0.4164 0.6429
vn -0.9092 0.4164 -0.0000
vn -0.6277 0.4604 0.6277
vn 0.6429 0.4164 0.6429
vn 0.8877 0.4604 0.0001
vn 0.9092 0.4164 -0.0000
vn 0.6277 0.4604 0.6277
vn 0.6429 0.4164 -0.6429
vn 0.8877 0.4604 -0.0001
vn 0.6277 0.4604 -0.6277
vn -0.6594 0.3610 -0.6595
vn -0.0000 0.4164 -0.9092
vn -0.6429 0.4164 -0.6429
vn -0.0000 0.3610 -0.9326
vn 0.0001 0.4604 0.8877
vn -0.0000 0.4164 0.9092
vn -0.0000 0.3610 0.9326
vn -0.6594 0.3610 0.6595
vn 0.0001 0.4604 -0.8877
vn 0.6595 0.3610 -0.6594
vn 0.9326 0.3610 -0.0000
vn -0.0001 0.4604 -0.8877
vn -0.6277 0.4604 -0.6277
vn -0.6595 0.3610 -0.6594
vn -0.9326 0.3610 -0.0000
vn 0.6595 0.3610 0.6594
vn -0.0001 0.4604 0.8877
vn 0.6594 0.3610 0.6595
vn -0.6595 0.3610 0.6594
vn -0.8877 0.4604 -0.0001
vn 0.6594 0.3610 -0.6595
vn 0.3710 0.2450 0.8957
vn -0.0000 0.3314 0.9435
vn 0.6671 0.3314 0.6672
vn -0.6672 0.3314 0.6671
vn -0.8957 0.2450 0.3710
vn -0.9435 0.3314 -0.0000
vn -0.3710 0.2450 -0.8957
vn -0.0000 0.3314 -0.9435
vn -0.6671 0.3314 -0.6672
vn 0.3710 0.2450 -0.8957
vn 0.6671 0.3314 -0.6672
vn -0.8957 0.2450 -0.3710
vn -0.6672 0.3314 -0.6671
vn -0.3710 0.2450 0.8957
vn -0.6671 0.3314 0.6672
vn 0.6672 0.3314 0.6671
vn 0.9435 0.3314 -0.0000
vn 0.8957 0.2450 0.3710
vn 0.6672 0.3314 -0.6671
vn 0.8957 0.2450 -0.3710
vn 0.0001 0.3314 -0.9435
vn 0.6518 0.3874 -0.6519
vn 0.0001 0.3874 -0.9219
vn 0.9219 0.3874 -0.0001
vn 0.6519 0.3874 -0.6518
vn 0.9435 0.3314 -0.0001
vn -0.9219 0.3874 -0.0001
vn -0.6519 0.3874 -0.6518
vn -0.9435 0.3314 -0.0001
vn -0.0001 0.3314 0.9435
vn -0.6518 0.3874 0.6519
vn -0.0001 0.3874 0.9219
vn -0.9219 0.3874 0.0001
vn -0.9435 0.3314 0.0001
vn -0.6519 0.3874 0.6518
vn -0.0001 0.3874 -0.9219
vn -0.6518 0.3874 -0.6519
vn 0.9219 0.3874 0.0001
vn 0.9435 0.3314 0.0001
vn 0.6519 0.3874 0.6518
vn 0.0001 0.3874 0.9219
vn 0.6518 0.3874 0.6519
vn 0.6682 0.3272 -0.6681
vn 0.9307 0.3657 -0.0000
vn 0.6581 0.3657 -0.6581
vn 0.9449 0.3273 -0.0001
vn -0.9449 0.3273 -0.0000
vn -0.6786 0.2814 -0.6785
vn -0.6682 0.3272 -0.6682
vn -0.9596 0.2814 -0.0000
vn -0.6785 0.2814 -0.6786
vn -0.0000 0.3272 -0.9449
vn -0.6682 0.3273 -0.6682
vn -0.0000 0.2814 -0.9596
vn 0.6786 0.2814 -0.6785
vn 0.9449 0.3272 -0.0000
vn 0.6682 0.3273 -0.6682
vn 0.9596 0.2814 -0.0000
vn 0.6681 0.3272 0.6682
vn -0.0000 0.3657 0.9307
vn 0.6581 0.3657 0.6581
vn 0.0001 0.3273 0.9449
vn -0.0001 0.3272 0.9449
vn -0.6581 0.3657 0.6581
vn -0.6681 0.3273 0.6682
vn -0.9307 0.3657 -0.0000
vn -0.6682 0.3272 0.6681
vn -0.9449 0.3273 0.0001
vn -0.6682 0.3273 0.6682
vn -0.9449 0.3272 -0.0000
vn -0.6786 0.2814 0.6785
vn 0.6785 0.2814 0.6786
vn -0.0000 0.3272 0.9449
vn 0.6682 0.3273 0.6682
vn -0.0000 0.2814 0.9596
vn -0.6681 0.3272 -0.6682
vn -0.0000 0.3657 -0.9307
vn -0.6581 0.3657 -0.6581
vn -0.0001 0.3273 -0.9449
vn -0.6682 0.3272 0.6682
vn -0.0000 0.3273 0.9449
vn -0.6785 0.2814 0.6786
vn -0.6682 0.3273 -0.6681
vn -0.6582 0.3657 -0.6581
vn -0.9449 0.3272 -0.0001
vn 0.0001 0.3272 -0.9449
vn 0.6581 0.3657 -0.6582
vn 0.6681 0.3273 -0.6682
vn 0.6786 0.2814 0.6785
vn 0.9449 0.3273 -0.0000
vn 0.6682 0.3272 0.6682
vn 0.6682 0.3273 0.6681
vn 0.9449 0.3272 0.0001
vn 0.6682 0.3272 -0.6682
vn -0.0000 0.3273 -0.9449
vn 0.6785 0.2814 -0.6786
vt 0.593750 0.058762
vt 0.593750 0.025000
vt 0.593750 0.090858
vt 0.593750 0.100338
vt 0.593750 0.102436
vt 0.593750 0.087146
vt 0.593750 0.225000
vt 0.593750 0.171190
vt 0.593750 0.167802
vt 0.593750 0.180034
vt 0.593750 0.178530
vt 0.468750 0.075000
vt 0.468750 0.135325
vt 0.468750 0.175000
vt 0.468750 0.096002
vt 0.468750 0.125104
vt 0.468750 0.135430
s 1
usemtl colormap.098
f 3/1/1 2/2/2 1/2/2
f 2/2/2 3/1/1 4/1/1
f 7/2/3 6/1/4 5/2/3
f 6/1/4 7/2/3 8/1/4
f 11/1/5 10/2/6 9/2/6
f 10/2/6 11/1/5 12/1/5
f 15/1/7 14/2/8 13/2/8
f 14/2/8 15/1/7 16/1/7
s 0
f 19/2/9 18/2/9 17/2/9
f 18/2/9 19/2/9 20/2/9
f 23/3/10 22/4/10 21/3/10
f 22/4/10 23/3/10 24/4/10
s 1
f 27/3/11 26/5/11 25/6/11
s 0
f 26/5/11 27/3/11 28/4/11
f 31/4/12 30/5/12 29/5/12
f 30/5/12 31/4/12 32/4/12
s 1
f 35/5/13 34/3/13 33/6/13
s 0
f 34/3/13 35/5/13 36/4/13
f 39/3/14 38/6/14 37/6/14
f 38/6/14 39/3/14 40/3/14
s 1
f 43/7/15 42/1/16 41/1/16
f 42/1/16 43/7/15 44/7/15
f 47/7/17 46/1/18 45/1/18
f 46/1/18 47/7/17 48/7/17
s 0
f 51/8/19 50/9/19 49/9/19
f 50/9/19 51/8/19 52/8/19
f 55/10/20 54/11/20 53/10/20
f 54/11/20 55/10/20 56/11/20
f 59/9/21 58/11/21 57/10/21
f 58/11/21 59/9/21 60/8/21
f 63/11/22 62/9/22 61/10/22
f 62/9/22 63/11/22 64/8/22
f 67/11/23 66/8/23 65/8/23
f 66/8/23 67/11/23 68/11/23
s 1
f 71/1/24 70/9/23 69/1/24
f 70/9/23 71/1/24 72/7/23
f 73/9/23 69/1/24 70/9/23
s 0
f 70/9/23 72/7/23 74/10/23
s 1
f 69/1/24 73/9/23 75/7/23
s 0
f 74/10/23 72/7/23 76/10/23
f 75/7/23 73/9/23 76/10/23
f 75/7/23 76/10/23 72/7/23
s 1
f 79/6/10 78/1/25 77/6/10
f 77/6/10 78/1/25 80/5/10
f 78/1/25 79/6/10 81/1/25
f 80/5/10 78/1/25 82/7/10
f 83/5/10 81/1/25 79/6/10
s 0
f 84/7/10 80/5/10 82/7/10
s 1
f 81/1/25 83/5/10 84/7/10
s 0
f 84/7/10 83/5/10 80/5/10
s 1
f 87/12/26 86/13/27 85/13/28
f 86/13/27 87/12/26 88/12/29
f 91/13/30 90/12/31 89/13/32
f 90/12/31 91/13/30 92/12/33
f 95/13/34 94/12/35 93/12/36
f 94/12/35 95/13/34 96/13/32
s 0
f 99/12/9 98/12/9 97/12/9
f 98/12/9 99/12/9 100/12/9
f 98/12/9 100/12/9 101/12/9
f 101/12/9 100/12/9 102/12/9
f 103/12/9 98/12/9 101/12/9
f 98/12/9 103/12/9 104/12/9
f 102/12/9 100/12/9 105/12/9
f 104/12/9 103/12/9 106/12/9
f 102/12/9 105/12/9 106/12/9
f 104/12/9 106/12/9 107/12/9
f 107/12/9 106/12/9 105/12/9
f 107/12/9 105/12/9 108/12/9
s 1
f 111/14/37 110/13/38 109/13/39
f 110/13/38 111/14/37 112/14/40
f 115/13/30 114/12/41 113/12/33
f 114/12/41 115/13/30 116/13/42
f 119/14/43 118/13/27 117/13/42
f 118/13/27 119/14/43 120/14/44
f 123/13/38 122/12/36 121/12/45
f 122/12/36 123/13/38 124/13/34
f 127/14/46 126/13/32 125/13/34
f 126/13/32 127/14/46 128/14/47
f 131/13/39 130/12/48 129/12/49
f 130/12/48 131/13/39 132/13/38
f 135/13/28 134/14/50 133/13/39
f 134/14/50 135/13/28 136/14/51
f 139/14/52 138/13/32 137/14/47
f 138/13/32 139/14/52 140/13/30
f 143/13/42 142/12/29 141/12/53
f 142/12/29 143/13/42 144/13/27
f 147/14/54 146/13/42 145/13/30
f 146/13/42 147/14/54 148/14/43
f 151/13/27 150/14/51 149/13/28
f 150/14/51 151/13/27 152/14/55
f 155/12/56 154/13/39 153/12/49
f 154/13/39 155/12/56 156/13/28
f 159/14/40 158/13/34 157/13/38
f 158/13/34 159/14/40 160/14/57
f 163/14/58 162/15/59 161/15/60
f 166/15/61 165/14/62 164/15/63
f 169/14/64 168/15/65 167/15/66
f 172/14/67 171/15/68 170/15/65
f 175/14/69 174/15/70 173/15/63
f 178/14/71 177/15/72 176/15/59
f 181/15/73 180/15/74 179/14/75
f 184/15/74 183/15/76 182/14/77
f 187/15/78 186/12/79 185/12/80
f 186/12/79 187/15/78 188/15/68
f 191/15/76 190/12/81 189/12/82
f 190/12/81 191/15/76 192/15/83
f 195/12/84 194/15/70 193/12/85
f 194/15/70 195/12/84 196/15/86
f 199/15/87 198/12/88 197/12/89
f 198/12/88 199/15/87 200/15/72
f 203/12/90 202/15/61 201/15/91
f 202/15/61 203/12/90 204/12/92
s 0
f 207/12/9 206/12/9 205/12/9
f 206/12/9 207/12/9 208/12/9
f 206/12/9 208/12/9 209/12/9
f 209/12/9 208/12/9 210/12/9
f 209/12/9 210/12/9 211/12/9
f 211/12/9 210/12/9 212/12/9
s 1
f 215/15/66 214/12/93 213/12/94
f 214/12/93 215/15/66 216/15/65
f 219/15/73 218/12/95 217/15/96
f 218/12/95 219/15/73 220/12/97
f 223/15/60 222/12/98 221/12/99
f 222/12/98 223/15/60 224/15/59
f 227/16/100 226/12/101 225/12/102
f 226/12/101 227/16/100 228/16/103
f 231/16/104 230/14/105 229/16/106
f 230/14/105 231/16/104 232/14/107
f 235/14/108 234/16/109 233/16/110
f 234/16/109 235/14/108 236/14/111
f 239/14/112 238/16/113 237/16/114
f 238/16/113 239/14/112 240/14/115
s 0
f 243/12/9 242/12/9 241/12/9
f 242/12/9 243/12/9 244/12/9
f 242/12/9 244/12/9 245/12/9
f 245/12/9 244/12/9 246/12/9
f 245/12/9 246/12/9 247/12/9
f 247/12/9 246/12/9 248/12/9
s 1
f 251/16/116 250/12/117 249/12/118
f 250/12/117 251/16/116 252/16/119
f 255/16/120 254/12/121 253/12/117
f 254/12/121 255/16/120 256/16/122
f 259/12/123 258/16/124 257/16/125
f 258/16/124 259/12/123 260/12/121
f 263/16/126 262/14/107 261/16/127
f 262/14/107 263/16/126 264/14/128
f 267/14/129 266/16/130 265/16/131
f 266/16/130 267/14/129 268/14/132
f 271/16/133 270/12/134 269/12/135
f 270/12/134 271/16/133 272/16/136
f 275/14/132 274/16/137 273/16/138
f 274/16/137 275/14/132 276/14/139
f 279/12/123 278/16/140 277/12/141
f 278/16/140 279/12/123 280/16/142
f 283/16/143 282/12/144 281/12/134
f 282/12/144 283/16/143 284/16/145
f 287/14/146 286/16/147 285/14/115
f 286/16/147 287/14/146 288/16/148
f 291/16/149 290/12/101 289/16/150
f 290/12/101 291/16/149 292/12/118
f 295/14/111 294/16/151 293/16/152
f 294/16/151 295/14/111 296/14/153
f 299/14/43 298/17/27 297/17/42
f 298/17/27 299/14/43 300/14/44
f 303/17/30 302/12/41 301/12/33
f 302/12/41 303/17/30 304/17/42
f 307/17/39 306/12/48 305/12/49
f 306/12/48 307/17/39 308/17/38
f 311/17/34 310/12/35 309/12/36
f 310/12/35 311/17/34 312/17/32
f 315/17/38 314/12/36 313/12/45
f 314/12/36 315/17/38 316/17/34
f 319/12/26 318/17/27 317/17/28
f 318/17/27 319/12/26 320/12/29
f 323/17/28 322/14/55 321/14/51
f 322/14/55 323/17/28 324/17/27
f 327/14/52 326/17/32 325/14/47
f 326/17/32 327/14/52 328/17/30
s 0
f 331/12/9 330/12/9 329/12/9
f 330/12/9 331/12/9 332/12/9
f 330/12/9 332/12/9 333/12/9
f 333/12/9 332/12/9 334/12/9
f 333/12/9 334/12/9 335/12/9
f 335/12/9 334/12/9 336/12/9
s 1
f 339/17/30 338/12/31 337/17/32
f 338/12/31 339/17/30 340/12/33
f 343/17/28 342/14/50 341/17/39
f 342/14/50 343/17/28 344/14/51
f 347/14/40 346/17/34 345/17/38
f 346/17/34 347/14/40 348/14/57
f 351/14/46 350/17/32 349/17/34
f 350/17/32 351/14/46 352/14/47
f 355/14/37 354/17/38 353/17/39
f 354/17/38 355/14/37 356/14/40
f 359/17/42 358/12/29 357/12/53
f 358/12/29 359/17/42 360/17/27
f 363/12/56 362/17/39 361/12/49
f 362/17/39 363/12/56 364/17/28
f 367/14/54 366/17/42 365/17/30
f 366/17/42 367/14/54 368/14/43
