# Blender 5.1.0
# www.blender.org
mtllib wall_doorway_round.mtl
o wall-doorway-round-col
v 0.050165 0.476268 -0.500378
v 0.050165 0.476268 -0.400378
v -0.049835 0.476268 -0.500378
v -0.049835 0.476268 -0.400378
v 0.050165 -0.523732 -0.400378
v 0.050165 -0.523732 -0.500378
v -0.049835 -0.523732 -0.400378
v -0.049835 -0.523732 -0.500378
v -0.049835 -0.523732 -0.500378
v 0.050165 -0.523732 -0.500378
v -0.049835 0.476268 -0.500378
v 0.050165 0.476268 -0.500378
v -0.049835 -0.523732 -0.500378
v -0.049835 0.476268 -0.500378
v -0.049835 -0.523732 -0.400378
v -0.049835 0.476268 -0.400378
v 0.050165 -0.523732 -0.400378
v -0.049835 -0.523732 -0.400378
v 0.050165 0.476268 -0.400378
v -0.049835 0.476268 -0.400378
v 0.050165 0.476268 -0.500378
v 0.050165 -0.523732 -0.500378
v 0.050165 0.476268 -0.400378
v 0.050165 -0.523732 -0.400378
v 0.050165 0.476268 0.399622
v 0.050165 0.476268 0.499622
v -0.049835 0.476268 0.399622
v -0.049835 0.476268 0.499622
v 0.050165 -0.523732 0.499622
v 0.050165 -0.523732 0.399622
v -0.049835 -0.523732 0.499622
v -0.049835 -0.523732 0.399622
v -0.049835 -0.523732 0.399622
v 0.050165 -0.523732 0.399622
v -0.049835 0.476268 0.399622
v 0.050165 0.476268 0.399622
v -0.049835 -0.523732 0.399622
v -0.049835 0.476268 0.399622
v -0.049835 -0.523732 0.499622
v -0.049835 0.476268 0.499622
v 0.050165 -0.523732 0.499622
v -0.049835 -0.523732 0.499622
v 0.050165 0.476268 0.499622
v -0.049835 0.476268 0.499622
v 0.050165 0.476268 0.399622
v 0.050165 -0.523732 0.399622
v 0.050165 0.476268 0.499622
v 0.050165 -0.523732 0.499622
v -0.024835 -0.523732 0.299622
v -0.024835 0.026268 0.299622
v -0.024835 -0.523732 0.399622
v -0.024835 0.476268 0.399622
v -0.024835 0.326268 -0.000378
v -0.024835 0.476268 -0.400378
v -0.024835 0.026268 -0.300378
v -0.024835 -0.523732 -0.300378
v -0.024835 -0.523732 -0.400378
v 0.025165 -0.523732 0.299622
v 0.025165 -0.523732 0.399622
v 0.025165 0.026268 0.299622
v 0.025165 0.476268 0.399622
v 0.025165 0.060187 0.286071
v 0.025165 0.093016 0.270059
v 0.025165 0.124577 0.251673
v 0.025165 0.154699 0.231014
v 0.025165 0.183218 0.208193
v 0.025165 0.209980 0.183334
v 0.025165 0.234839 0.156573
v 0.025165 0.257660 0.128053
v 0.025165 0.278319 0.097932
v 0.025165 0.296705 0.066370
v 0.025165 0.312717 0.033541
v 0.025165 0.326268 -0.000378
v 0.025165 0.476268 -0.400378
v 0.025165 0.312717 -0.034297
v 0.025165 0.296705 -0.067126
v 0.025165 0.278319 -0.098687
v 0.025165 0.257660 -0.128809
v 0.025165 0.234839 -0.157328
v 0.025165 0.209980 -0.184089
v 0.025165 0.183218 -0.208948
v 0.025165 0.154699 -0.231769
v 0.025165 0.124577 -0.252428
v 0.025165 0.093016 -0.270814
v 0.025165 0.060187 -0.286826
v 0.025165 0.026268 -0.300378
v 0.025165 -0.523732 -0.400378
v 0.025165 -0.523732 -0.300378
v 0.025165 -0.523732 0.399622
v 0.025165 -0.523732 0.299622
v -0.024835 -0.523732 0.399622
v -0.024835 -0.523732 0.299622
v 0.025165 0.476268 -0.400378
v 0.025165 0.476268 0.399622
v -0.024835 0.476268 -0.400378
v -0.024835 0.476268 0.399622
v 0.025165 -0.523732 -0.300378
v 0.025165 -0.523732 -0.400378
v -0.024835 -0.523732 -0.300378
v -0.024835 -0.523732 -0.400378
v 0.050165 -0.523732 0.199622
v 0.050165 -0.523732 0.299622
v 0.050165 0.003181 0.199622
v 0.050165 0.124577 0.251673
v 0.050165 0.026268 0.299622
v 0.050165 0.209980 0.183334
v 0.050165 0.070764 0.166659
v 0.050165 0.138835 0.112189
v 0.050165 0.278319 0.097932
v 0.050165 0.193305 0.044118
v 0.050165 0.326268 -0.000378
v 0.050165 0.215008 -0.000378
v 0.050165 0.193305 -0.044874
v 0.050165 0.278319 -0.098687
v 0.050165 0.138835 -0.112944
v 0.050165 0.070764 -0.167415
v 0.050165 0.209980 -0.184089
v 0.050165 0.003181 -0.200378
v 0.050165 0.124577 -0.252428
v 0.050165 -0.523732 -0.200378
v 0.050165 -0.523732 -0.300378
v 0.050165 0.026268 -0.300378
v -0.049835 -0.523732 0.199622
v -0.049835 0.003181 0.199622
v -0.049835 -0.523732 0.299622
v -0.049835 0.124577 0.251673
v -0.049835 0.026268 0.299622
v -0.049835 0.209980 0.183334
v -0.049835 0.070764 0.166659
v -0.049835 0.138835 0.112189
v -0.049835 0.278319 0.097932
v -0.049835 0.193305 0.044118
v -0.049835 0.326268 -0.000378
v -0.049835 0.215008 -0.000378
v -0.049835 0.193305 -0.044874
v -0.049835 0.278319 -0.098687
v -0.049835 0.138835 -0.112944
v -0.049835 0.070764 -0.167415
v -0.049835 0.209980 -0.184089
v -0.049835 0.003181 -0.200378
v -0.049835 0.124577 -0.252428
v -0.049835 -0.523732 -0.200378
v -0.049835 0.026268 -0.300378
v -0.049835 -0.523732 -0.300378
v 0.050165 -0.523732 0.299622
v -0.049835 -0.523732 0.299622
v 0.050165 0.026268 0.299622
v -0.049835 0.026268 0.299622
v 0.050165 0.026268 0.299622
v -0.049835 0.026268 0.299622
v 0.050165 0.124577 0.251673
v -0.049835 0.124577 0.251673
v 0.050165 0.124577 0.251673
v -0.049835 0.124577 0.251673
v 0.050165 0.209980 0.183334
v -0.049835 0.209980 0.183334
v 0.050165 0.278319 0.097932
v 0.050165 0.209980 0.183334
v -0.049835 0.278319 0.097932
v -0.049835 0.209980 0.183334
v 0.050165 0.326268 -0.000378
v 0.050165 0.278319 0.097932
v -0.049835 0.326268 -0.000378
v -0.049835 0.278319 0.097932
v 0.050165 0.278319 -0.098687
v 0.050165 0.326268 -0.000378
v -0.049835 0.278319 -0.098687
v -0.049835 0.326268 -0.000378
v 0.050165 0.209980 -0.184089
v 0.050165 0.278319 -0.098687
v -0.049835 0.209980 -0.184089
v -0.049835 0.278319 -0.098687
v -0.049835 0.124577 -0.252428
v 0.050165 0.124577 -0.252428
v -0.049835 0.209980 -0.184089
v 0.050165 0.209980 -0.184089
v -0.049835 0.026268 -0.300378
v 0.050165 0.026268 -0.300378
v -0.049835 0.124577 -0.252428
v 0.050165 0.124577 -0.252428
v -0.049835 -0.523732 -0.300378
v 0.050165 -0.523732 -0.300378
v -0.049835 0.026268 -0.300378
v 0.050165 0.026268 -0.300378
v 0.050165 -0.523732 -0.200378
v 0.050165 -0.523732 -0.300378
v -0.049835 -0.523732 -0.200378
v -0.049835 -0.523732 -0.300378
v 0.050165 -0.523732 -0.200378
v -0.049835 -0.523732 -0.200378
v 0.050165 0.003181 -0.200378
v -0.049835 0.003181 -0.200378
v 0.050165 0.003181 -0.200378
v -0.049835 0.003181 -0.200378
v 0.050165 0.070764 -0.167415
v -0.049835 0.070764 -0.167415
v 0.050165 0.070764 -0.167415
v -0.049835 0.070764 -0.167415
v 0.050165 0.138835 -0.112944
v -0.049835 0.138835 -0.112944
v 0.050165 0.193305 -0.044874
v 0.050165 0.138835 -0.112944
v -0.049835 0.193305 -0.044874
v -0.049835 0.138835 -0.112944
v 0.050165 0.215008 -0.000378
v 0.050165 0.193305 -0.044874
v -0.049835 0.215008 -0.000378
v -0.049835 0.193305 -0.044874
v 0.050165 0.193305 0.044118
v 0.050165 0.215008 -0.000378
v -0.049835 0.193305 0.044118
v -0.049835 0.215008 -0.000378
v 0.050165 0.138835 0.112189
v 0.050165 0.193305 0.044118
v -0.049835 0.138835 0.112189
v -0.049835 0.193305 0.044118
v -0.049835 0.070764 0.166659
v 0.050165 0.070764 0.166659
v -0.049835 0.138835 0.112189
v 0.050165 0.138835 0.112189
v -0.049835 0.003181 0.199622
v 0.050165 0.003181 0.199622
v -0.049835 0.070764 0.166659
v 0.050165 0.070764 0.166659
v -0.049835 -0.523732 0.199622
v 0.050165 -0.523732 0.199622
v -0.049835 0.003181 0.199622
v 0.050165 0.003181 0.199622
v 0.050165 -0.523732 0.299622
v 0.050165 -0.523732 0.199622
v -0.049835 -0.523732 0.299622
v -0.049835 -0.523732 0.199622
vn -0.0000 1.0000 -0.0000
vn -0.0000 -1.0000 -0.0000
vn -0.0000 -0.0000 -1.0000
vn -1.0000 -0.0000 -0.0000
vn -0.0000 -0.0000 1.0000
vn 1.0000 -0.0000 -0.0000
vn -0.0000 0.2249 0.9744
vn -0.0000 0.5348 0.8450
vn -0.0000 0.2250 0.9744
vn -0.0000 0.7071 0.7071
vn -0.0000 0.5349 0.8449
vn -0.0000 0.8449 0.5349
vn -0.0000 0.8988 0.4384
vn -0.0000 0.8450 0.5348
vn -0.0000 0.8450 -0.5348
vn -0.0000 0.8988 -0.4384
vn -0.0000 0.7071 -0.7071
vn -0.0000 0.8449 -0.5349
vn -0.0000 0.5349 -0.8449
vn -0.0000 0.5348 -0.8450
vn -0.0000 0.2250 -0.9744
vn -0.0000 0.2249 -0.9744
vn -0.0000 -0.2249 0.9744
vn -0.0000 -0.5348 0.8450
vn -0.0000 -0.2250 0.9744
vn -0.0000 -0.7071 0.7071
vn -0.0000 -0.5349 0.8449
vn -0.0000 -0.8449 0.5349
vn -0.0000 -0.8988 0.4384
vn -0.0000 -0.8450 0.5348
vn -0.0000 -0.8450 -0.5348
vn -0.0000 -0.8988 -0.4384
vn -0.0000 -0.7071 -0.7071
vn -0.0000 -0.8449 -0.5349
vn -0.0000 -0.5349 -0.8449
vn -0.0000 -0.5348 -0.8450
vn -0.0000 -0.2250 -0.9744
vn -0.0000 -0.2249 -0.9744
vt 0.593750 0.175000
vt 0.593750 0.075000
vt 0.218750 0.325000
vt 0.218750 0.380000
vt 0.218750 0.425000
vt 0.218750 0.410000
vt 0.218750 0.383392
vt 0.218750 0.386675
vt 0.218750 0.389831
vt 0.218750 0.392843
vt 0.218750 0.395695
vt 0.218750 0.398371
vt 0.218750 0.400857
vt 0.218750 0.403139
vt 0.218750 0.405205
vt 0.218750 0.407044
vt 0.218750 0.408645
vt 0.968750 0.136990
vt 0.968750 0.075000
vt 0.968750 0.151272
vt 0.968750 0.139706
vt 0.968750 0.161319
vt 0.968750 0.144941
vt 0.968750 0.152949
vt 0.968750 0.169359
vt 0.968750 0.159357
vt 0.968750 0.175000
vt 0.968750 0.161911
s 0
usemtl colormap.118
f 3/1/1 2/1/1 1/1/1
f 2/1/1 3/1/1 4/1/1
f 7/2/2 6/2/2 5/2/2
f 6/2/2 7/2/2 8/2/2
f 11/1/3 10/2/3 9/2/3
f 10/2/3 11/1/3 12/1/3
f 15/2/4 14/1/4 13/2/4
f 14/1/4 15/2/4 16/1/4
f 19/1/5 18/2/5 17/2/5
f 18/2/5 19/1/5 20/1/5
f 23/1/6 22/2/6 21/1/6
f 22/2/6 23/1/6 24/2/6
f 27/1/1 26/1/1 25/1/1
f 26/1/1 27/1/1 28/1/1
f 31/2/2 30/2/2 29/2/2
f 30/2/2 31/2/2 32/2/2
f 35/1/3 34/2/3 33/2/3
f 34/2/3 35/1/3 36/1/3
f 39/2/4 38/1/4 37/2/4
f 38/1/4 39/2/4 40/1/4
f 43/1/5 42/2/5 41/2/5
f 42/2/5 43/1/5 44/1/5
f 47/1/6 46/2/6 45/1/6
f 46/2/6 47/1/6 48/2/6
f 51/3/4 50/4/4 49/3/4
f 52/5/4 50/4/4 51/3/4
f 52/5/4 53/6/4 50/4/4
f 54/5/4 53/6/4 52/5/4
f 54/5/4 55/4/4 53/6/4
f 54/5/4 56/3/4 55/4/4
f 56/3/4 54/5/4 57/3/4
f 60/4/6 59/3/6 58/3/6
f 59/3/6 60/4/6 61/5/6
f 62/7/6 61/5/6 60/4/6
f 60/4/6 63/8/6 62/7/6
f 63/8/6 61/5/6 62/7/6
f 60/4/6 64/9/6 63/8/6
f 64/9/6 61/5/6 63/8/6
f 60/4/6 65/10/6 64/9/6
f 65/10/6 61/5/6 64/9/6
f 60/4/6 66/11/6 65/10/6
f 66/11/6 61/5/6 65/10/6
f 67/12/6 61/5/6 66/11/6
f 60/4/6 67/12/6 66/11/6
f 68/13/6 61/5/6 67/12/6
f 60/4/6 68/13/6 67/12/6
f 69/14/6 61/5/6 68/13/6
f 60/4/6 69/14/6 68/13/6
f 70/15/6 61/5/6 69/14/6
f 60/4/6 70/15/6 69/14/6
f 60/4/6 71/16/6 70/15/6
f 71/16/6 61/5/6 70/15/6
f 60/4/6 72/17/6 71/16/6
f 72/17/6 61/5/6 71/16/6
f 72/17/6 60/4/6 73/6/6
f 73/6/6 61/5/6 72/17/6
f 73/6/6 74/5/6 61/5/6
f 75/17/6 74/5/6 73/6/6
f 73/6/6 76/16/6 75/17/6
f 76/16/6 74/5/6 75/17/6
f 73/6/6 77/15/6 76/16/6
f 77/15/6 74/5/6 76/16/6
f 73/6/6 78/14/6 77/15/6
f 78/14/6 74/5/6 77/15/6
f 73/6/6 79/13/6 78/14/6
f 79/13/6 74/5/6 78/14/6
f 80/12/6 74/5/6 79/13/6
f 73/6/6 80/12/6 79/13/6
f 81/11/6 74/5/6 80/12/6
f 73/6/6 81/11/6 80/12/6
f 82/10/6 74/5/6 81/11/6
f 73/6/6 82/10/6 81/11/6
f 83/9/6 74/5/6 82/10/6
f 73/6/6 83/9/6 82/10/6
f 73/6/6 84/8/6 83/9/6
f 84/8/6 74/5/6 83/9/6
f 73/6/6 85/7/6 84/8/6
f 85/7/6 74/5/6 84/8/6
f 85/7/6 73/6/6 86/4/6
f 86/4/6 74/5/6 85/7/6
f 74/5/6 86/4/6 87/3/6
f 88/3/6 87/3/6 86/4/6
f 91/3/2 90/3/2 89/3/2
f 90/3/2 91/3/2 92/3/2
f 95/5/1 94/5/1 93/5/1
f 94/5/1 95/5/1 96/5/1
f 99/3/2 98/3/2 97/3/2
f 98/3/2 99/3/2 100/3/2
f 103/18/6 102/19/6 101/19/6
f 102/19/6 103/18/6 104/20/6
f 102/19/6 104/20/6 105/21/6
f 103/18/6 106/22/6 104/20/6
f 107/23/6 106/22/6 103/18/6
f 108/24/6 106/22/6 107/23/6
f 108/24/6 109/25/6 106/22/6
f 110/26/6 109/25/6 108/24/6
f 110/26/6 111/27/6 109/25/6
f 112/28/6 111/27/6 110/26/6
f 113/26/6 111/27/6 112/28/6
f 113/26/6 114/25/6 111/27/6
f 115/24/6 114/25/6 113/26/6
f 116/23/6 114/25/6 115/24/6
f 116/23/6 117/22/6 114/25/6
f 118/18/6 117/22/6 116/23/6
f 117/22/6 118/18/6 119/20/6
f 120/19/6 119/20/6 118/18/6
f 121/19/6 119/20/6 120/19/6
f 119/20/6 121/19/6 122/21/6
f 125/19/4 124/18/4 123/19/4
f 124/18/4 125/19/4 126/20/4
f 126/20/4 125/19/4 127/21/4
f 128/22/4 124/18/4 126/20/4
f 128/22/4 129/23/4 124/18/4
f 128/22/4 130/24/4 129/23/4
f 131/25/4 130/24/4 128/22/4
f 131/25/4 132/26/4 130/24/4
f 133/27/4 132/26/4 131/25/4
f 133/27/4 134/28/4 132/26/4
f 133/27/4 135/26/4 134/28/4
f 136/25/4 135/26/4 133/27/4
f 136/25/4 137/24/4 135/26/4
f 136/25/4 138/23/4 137/24/4
f 139/22/4 138/23/4 136/25/4
f 139/22/4 140/18/4 138/23/4
f 141/20/4 140/18/4 139/22/4
f 141/20/4 142/19/4 140/18/4
f 143/21/4 142/19/4 141/20/4
f 142/19/4 143/21/4 144/19/4
s 1
f 147/21/7 146/19/5 145/19/5
f 146/19/5 147/21/7 148/21/7
f 151/20/8 150/21/9 149/21/9
f 150/21/9 151/20/8 152/20/8
f 155/22/10 154/20/11 153/20/11
f 154/20/11 155/22/10 156/22/10
f 159/25/12 158/22/10 157/25/12
f 158/22/10 159/25/12 160/22/10
f 163/27/13 162/25/14 161/27/13
f 162/25/14 163/27/13 164/25/14
f 167/25/15 166/27/16 165/25/15
f 166/27/16 167/25/15 168/27/16
f 171/22/17 170/25/18 169/22/17
f 170/25/18 171/22/17 172/25/18
f 175/22/17 174/20/19 173/20/19
f 174/20/19 175/22/17 176/22/17
f 179/20/20 178/21/21 177/21/21
f 178/21/21 179/20/20 180/20/20
f 183/21/22 182/19/3 181/19/3
f 182/19/3 183/21/22 184/21/22
s 0
f 187/19/2 186/19/2 185/19/2
f 186/19/2 187/19/2 188/19/2
s 1
f 191/18/23 190/19/5 189/19/5
f 190/19/5 191/18/23 192/18/23
f 195/23/24 194/18/25 193/18/25
f 194/18/25 195/23/24 196/23/24
f 199/24/26 198/23/27 197/23/27
f 198/23/27 199/24/26 200/24/26
f 203/26/28 202/24/26 201/26/28
f 202/24/26 203/26/28 204/24/26
f 207/28/29 206/26/30 205/28/29
f 206/26/30 207/28/29 208/26/30
f 211/26/31 210/28/32 209/26/31
f 210/28/32 211/26/31 212/28/32
f 215/24/33 214/26/34 213/24/33
f 214/26/34 215/24/33 216/26/34
f 219/24/33 218/23/35 217/23/35
f 218/23/35 219/24/33 220/24/33
f 223/23/36 222/18/37 221/18/37
f 222/18/37 223/23/36 224/23/36
f 227/18/38 226/19/3 225/19/3
f 226/19/3 227/18/38 228/18/38
s 0
f 231/19/2 230/19/2 229/19/2
f 230/19/2 231/19/2 232/19/2
