# Blender 5.1.0
# www.blender.org
mtllib wall_wood_corner_edge.mtl
o wall-wood-corner-edge-col
v 0.402656 0.500000 -0.597432
v 0.402656 0.500000 -0.497432
v 0.302656 0.500000 -0.597432
v 0.302656 0.500000 -0.497432
v 0.402656 -0.500000 -0.497432
v 0.402656 -0.500000 -0.597432
v 0.302656 -0.500000 -0.497432
v 0.302656 -0.500000 -0.597432
v 0.302656 -0.500000 -0.597432
v 0.402656 -0.500000 -0.597432
v 0.302656 0.500000 -0.597432
v 0.402656 0.500000 -0.597432
v 0.302656 -0.500000 -0.597432
v 0.302656 0.500000 -0.597432
v 0.302656 -0.500000 -0.497432
v 0.302656 0.500000 -0.497432
v 0.402656 -0.500000 -0.497432
v 0.302656 -0.500000 -0.497432
v 0.402656 0.500000 -0.497432
v 0.302656 0.500000 -0.497432
v 0.402656 0.500000 -0.597432
v 0.402656 -0.500000 -0.597432
v 0.402656 0.500000 -0.497432
v 0.402656 -0.500000 -0.497432
v -0.497344 0.500000 0.302568
v -0.497344 0.500000 0.402568
v -0.597344 0.500000 0.302568
v -0.597344 0.500000 0.402568
v -0.497344 -0.500000 0.402568
v -0.497344 -0.500000 0.302568
v -0.597344 -0.500000 0.402568
v -0.597344 -0.500000 0.302568
v -0.597344 -0.500000 0.302568
v -0.497344 -0.500000 0.302568
v -0.597344 0.500000 0.302568
v -0.497344 0.500000 0.302568
v -0.597344 -0.500000 0.302568
v -0.597344 0.500000 0.302568
v -0.597344 -0.500000 0.402568
v -0.597344 0.500000 0.402568
v -0.497344 -0.500000 0.402568
v -0.597344 -0.500000 0.402568
v -0.497344 0.500000 0.402568
v -0.597344 0.500000 0.402568
v -0.497344 0.500000 0.302568
v -0.497344 -0.500000 0.302568
v -0.497344 0.500000 0.402568
v -0.497344 -0.500000 0.402568
v 0.377656 0.500000 -0.497432
v 0.121375 0.500000 0.121287
v 0.327656 0.500000 -0.497432
v 0.086019 0.500000 0.085931
v -0.497344 0.500000 0.377568
v -0.497344 0.500000 0.327568
v 0.377656 -0.500000 -0.497432
v 0.327656 -0.500000 -0.497432
v 0.121375 -0.500000 0.121287
v 0.086019 -0.500000 0.085931
v -0.497344 -0.500000 0.377568
v -0.497344 -0.500000 0.327568
v 0.121375 -0.500000 0.121287
v -0.497344 -0.500000 0.377568
v 0.121375 0.500000 0.121287
v -0.497344 0.500000 0.377568
v 0.377656 0.500000 -0.497432
v 0.377656 -0.500000 -0.497432
v 0.121375 0.500000 0.121287
v 0.121375 -0.500000 0.121287
v 0.327656 -0.500000 -0.497432
v 0.327656 0.500000 -0.497432
v 0.086019 -0.500000 0.085931
v 0.086019 0.500000 0.085931
v -0.497344 -0.500000 0.327568
v 0.086019 -0.500000 0.085931
v -0.497344 0.500000 0.327568
v 0.086019 0.500000 0.085931
vn -0.0000 1.0000 -0.0000
vn -0.0000 -1.0000 -0.0000
vn -0.0000 -0.0000 -1.0000
vn -1.0000 -0.0000 -0.0000
vn -0.0000 -0.0000 1.0000
vn 1.0000 -0.0000 -0.0000
vn 0.3827 -0.0000 0.9239
vn 0.9239 -0.0000 0.3827
vn -0.9239 -0.0000 -0.3827
vn -0.3827 -0.0000 -0.9239
vt 0.593750 0.175000
vt 0.593750 0.075000
vt 0.718750 0.175000
vt 0.718750 0.075000
s 0
usemtl colormap.139
f 3/1/1 2/1/1 1/1/1
f 2/1/1 3/1/1 4/1/1
f 7/2/2 6/2/2 5/2/2
f 6/2/2 7/2/2 8/2/2
f 11/1/3 10/2/3 9/2/3
f 10/2/3 11/1/3 12/1/3
f 15/2/4 14/1/4 13/2/4
f 14/1/4 15/2/4 16/1/4
f 19/1/5 18/2/5 17/2/5
f 18/2/5 19/1/5 20/1/5
f 23/1/6 22/2/6 21/1/6
f 22/2/6 23/1/6 24/2/6
f 27/1/1 26/1/1 25/1/1
f 26/1/1 27/1/1 28/1/1
f 31/2/2 30/2/2 29/2/2
f 30/2/2 31/2/2 32/2/2
f 35/1/3 34/2/3 33/2/3
f 34/2/3 35/1/3 36/1/3
f 39/2/4 38/1/4 37/2/4
f 38/1/4 39/2/4 40/1/4
f 43/1/5 42/2/5 41/2/5
f 42/2/5 43/1/5 44/1/5
f 47/1/6 46/2/6 45/1/6
f 46/2/6 47/1/6 48/2/6
f 51/3/1 50/3/1 49/3/1
f 50/3/1 51/3/1 52/3/1
f 50/3/1 52/3/1 53/3/1
f 53/3/1 52/3/1 54/3/1
f 57/4/2 56/4/2 55/4/2
f 56/4/2 57/4/2 58/4/2
f 58/4/2 57/4/2 59/4/2
f 58/4/2 59/4/2 60/4/2
f 63/3/7 62/4/7 61/4/7
f 62/4/7 63/3/7 64/3/7
f 67/3/8 66/4/8 65/3/8
f 66/4/8 67/3/8 68/4/8
f 71/4/9 70/3/9 69/4/9
f 70/3/9 71/4/9 72/3/9
f 75/3/10 74/4/10 73/4/10
f 74/4/10 75/3/10 76/3/10
