# Blender 5.1.0
# www.blender.org
mtllib wall_wood_window_round.mtl
o wall-wood-window-round-col
v 0.049988 0.516051 -0.500539
v 0.049988 0.516051 -0.400539
v -0.050012 0.516051 -0.500539
v -0.050012 0.516051 -0.400539
v 0.049988 -0.483949 -0.400539
v 0.049988 -0.483949 -0.500539
v -0.050012 -0.483949 -0.400539
v -0.050012 -0.483949 -0.500539
v -0.050012 -0.483949 -0.500539
v 0.049988 -0.483949 -0.500539
v -0.050012 0.516051 -0.500539
v 0.049988 0.516051 -0.500539
v -0.050012 -0.483949 -0.500539
v -0.050012 0.516051 -0.500539
v -0.050012 -0.483949 -0.400539
v -0.050012 0.516051 -0.400539
v 0.049988 -0.483949 -0.400539
v -0.050012 -0.483949 -0.400539
v 0.049988 0.516051 -0.400539
v -0.050012 0.516051 -0.400539
v 0.049988 0.516051 -0.500539
v 0.049988 -0.483949 -0.500539
v 0.049988 0.516051 -0.400539
v 0.049988 -0.483949 -0.400539
v 0.049988 0.516051 0.399461
v 0.049988 0.516051 0.499461
v -0.050012 0.516051 0.399461
v -0.050012 0.516051 0.499461
v 0.049988 -0.483949 0.499461
v 0.049988 -0.483949 0.399461
v -0.050012 -0.483949 0.499461
v -0.050012 -0.483949 0.399461
v -0.050012 -0.483949 0.399461
v 0.049988 -0.483949 0.399461
v -0.050012 0.516051 0.399461
v 0.049988 0.516051 0.399461
v -0.050012 -0.483949 0.399461
v -0.050012 0.516051 0.399461
v -0.050012 -0.483949 0.499461
v -0.050012 0.516051 0.499461
v 0.049988 -0.483949 0.499461
v -0.050012 -0.483949 0.499461
v 0.049988 0.516051 0.499461
v -0.050012 0.516051 0.499461
v 0.049988 0.516051 0.399461
v 0.049988 -0.483949 0.399461
v 0.049988 0.516051 0.499461
v 0.049988 -0.483949 0.499461
v 0.049988 -0.233949 0.059461
v 0.049988 0.216051 0.059461
v -0.050012 -0.233949 0.059461
v -0.050012 0.216051 0.059461
v -0.050012 -0.233949 0.059461
v -0.050012 0.216051 0.059461
v -0.050012 -0.233949 0.109461
v -0.050012 0.287314 0.073791
v -0.050012 0.229528 0.055334
v -0.050012 0.266757 0.091461
v -0.050012 0.242516 0.103594
v -0.050012 0.216051 0.109461
v -0.050012 0.302951 0.051648
v -0.050012 0.241698 0.048225
v -0.050012 0.251912 0.038512
v -0.050012 0.259624 0.026714
v -0.050012 0.312726 0.026364
v -0.050012 0.264422 0.013461
v -0.050012 0.316051 -0.000539
v -0.050012 0.266051 -0.000539
v -0.050012 0.264422 -0.014540
v -0.050012 0.312726 -0.027442
v -0.050012 0.259624 -0.027793
v -0.050012 0.251912 -0.039590
v -0.050012 0.241698 -0.049303
v -0.050012 0.302951 -0.052726
v -0.050012 0.229528 -0.056413
v -0.050012 0.216051 -0.060539
v -0.050012 0.287314 -0.074870
v -0.050012 -0.233949 -0.060539
v -0.050012 0.266757 -0.092540
v -0.050012 0.242516 -0.104673
v -0.050012 0.216051 -0.110539
v -0.050012 -0.233949 -0.110539
v 0.049988 0.216051 -0.060539
v -0.050012 0.216051 -0.060539
v 0.049988 0.229528 -0.056413
v -0.050012 0.229528 -0.056413
v 0.024988 0.216051 -0.160539
v 0.024988 -0.333949 -0.160539
v 0.024988 0.255474 -0.152956
v 0.024988 -0.283949 -0.110539
v 0.024988 0.291778 -0.135818
v 0.024988 -0.333949 0.159461
v 0.024988 0.216051 -0.110539
v 0.024988 0.322686 -0.110198
v 0.024988 0.242516 -0.104673
v 0.024988 0.346261 -0.077703
v 0.024988 0.266757 -0.092540
v 0.024988 0.287314 -0.074870
v 0.024988 0.361024 -0.040369
v 0.024988 0.302951 -0.052726
v 0.024988 0.312726 -0.027442
v 0.024988 0.366051 -0.000539
v 0.024988 0.316051 -0.000539
v 0.024988 0.361024 0.039291
v 0.024988 0.312726 0.026364
v 0.024988 0.302951 0.051648
v 0.024988 0.346261 0.076624
v 0.024988 0.287314 0.073791
v 0.024988 0.266757 0.091461
v 0.024988 0.322686 0.109119
v 0.024988 0.242516 0.103594
v 0.024988 0.216051 0.109461
v 0.024988 0.291778 0.134739
v 0.024988 -0.283949 0.109461
v 0.024988 0.255474 0.151878
v 0.024988 0.216051 0.159461
v 0.024988 -0.283949 0.159461
v -0.025012 0.316051 -0.000539
v -0.025012 0.312726 0.026364
v -0.050012 0.316051 -0.000539
v -0.050012 0.312726 0.026364
v 0.049988 0.266757 0.091461
v 0.024988 0.266757 0.091461
v 0.049988 0.287314 0.073791
v 0.024988 0.287314 0.073791
v 0.049988 0.312726 -0.027442
v 0.049988 0.316051 -0.000539
v 0.024988 0.312726 -0.027442
v 0.024988 0.316051 -0.000539
v 0.049988 -0.233949 -0.060539
v -0.050012 -0.233949 -0.060539
v 0.049988 0.216051 -0.060539
v -0.050012 0.216051 -0.060539
v -0.025012 -0.283949 0.159461
v -0.025012 -0.333949 0.159461
v -0.025012 0.216051 0.159461
v -0.025012 0.255474 0.151878
v -0.025012 0.291778 0.134739
v -0.025012 0.216051 0.109461
v -0.025012 0.322686 0.109119
v -0.025012 -0.283949 0.109461
v -0.025012 0.242516 0.103594
v -0.025012 0.266757 0.091461
v -0.025012 -0.283949 -0.110539
v -0.025012 0.346261 0.076624
v -0.025012 0.287314 0.073791
v -0.025012 0.302951 0.051648
v -0.025012 0.361024 0.039291
v -0.025012 0.312726 0.026364
v -0.025012 -0.333949 -0.160539
v -0.025012 0.366051 -0.000539
v -0.025012 0.316051 -0.000539
v -0.025012 0.312726 -0.027442
v -0.025012 0.216051 -0.160539
v -0.025012 0.255474 -0.152956
v -0.025012 0.291778 -0.135818
v -0.025012 0.216051 -0.110539
v -0.025012 0.322686 -0.110198
v -0.025012 0.242516 -0.104673
v -0.025012 0.361024 -0.040369
v -0.025012 0.302951 -0.052726
v -0.025012 0.287314 -0.074870
v -0.025012 0.346261 -0.077703
v -0.025012 0.266757 -0.092540
v -0.025012 0.302951 -0.052726
v -0.025012 0.312726 -0.027442
v -0.050012 0.302951 -0.052726
v -0.050012 0.312726 -0.027442
v -0.025012 0.312726 0.026364
v -0.025012 0.302951 0.051648
v -0.050012 0.312726 0.026364
v -0.050012 0.302951 0.051648
v -0.050012 0.216051 0.109461
v -0.025012 0.216051 0.109461
v -0.050012 -0.233949 0.109461
v -0.025012 -0.283949 0.109461
v -0.100012 -0.283949 0.109461
v -0.100012 -0.233949 0.109461
v -0.025012 0.302951 0.051648
v -0.025012 0.287314 0.073791
v -0.050012 0.302951 0.051648
v -0.050012 0.287314 0.073791
v 0.049988 0.264422 -0.014540
v 0.049988 0.259624 -0.027793
v -0.050012 0.264422 -0.014540
v -0.050012 0.259624 -0.027793
v 0.049988 0.316051 -0.000539
v 0.049988 0.312726 0.026364
v 0.024988 0.316051 -0.000539
v 0.024988 0.312726 0.026364
v -0.050012 0.242516 -0.104673
v -0.025012 0.242516 -0.104673
v -0.050012 0.266757 -0.092540
v -0.025012 0.266757 -0.092540
v 0.049988 0.216051 0.059461
v 0.049988 0.229528 0.055334
v -0.050012 0.216051 0.059461
v -0.050012 0.229528 0.055334
v 0.049988 0.266051 -0.000539
v 0.049988 0.264422 -0.014540
v -0.050012 0.266051 -0.000539
v -0.050012 0.264422 -0.014540
v 0.099988 -0.283949 0.109461
v 0.024988 -0.283949 0.109461
v 0.099988 -0.233949 0.109461
v 0.049988 -0.233949 0.109461
v 0.024988 0.216051 0.109461
v 0.049988 0.216051 0.109461
v -0.025012 0.216051 0.109461
v -0.050012 0.216051 0.109461
v -0.025012 0.242516 0.103594
v -0.050012 0.242516 0.103594
v 0.049988 0.302951 -0.052726
v 0.049988 0.312726 -0.027442
v 0.024988 0.302951 -0.052726
v 0.024988 0.312726 -0.027442
v -0.025012 0.242516 0.103594
v -0.050012 0.242516 0.103594
v -0.025012 0.266757 0.091461
v -0.050012 0.266757 0.091461
v 0.049988 0.264422 0.013461
v 0.049988 0.266051 -0.000539
v -0.050012 0.264422 0.013461
v -0.050012 0.266051 -0.000539
v -0.025012 0.266757 0.091461
v -0.050012 0.266757 0.091461
v -0.025012 0.287314 0.073791
v -0.050012 0.287314 0.073791
v 0.049988 0.216051 0.109461
v 0.049988 0.242516 0.103594
v 0.049988 -0.233949 0.109461
v 0.049988 0.266757 0.091461
v 0.049988 0.287314 0.073791
v 0.049988 -0.233949 0.059461
v 0.049988 0.216051 0.059461
v 0.049988 0.229528 0.055334
v 0.049988 0.302951 0.051648
v 0.049988 0.241698 0.048225
v 0.049988 0.251912 0.038512
v 0.049988 0.259624 0.026714
v 0.049988 0.312726 0.026364
v 0.049988 0.264422 0.013461
v 0.049988 0.266051 -0.000539
v 0.049988 0.316051 -0.000539
v 0.049988 0.264422 -0.014540
v 0.049988 0.312726 -0.027442
v 0.049988 0.259624 -0.027793
v 0.049988 0.251912 -0.039590
v 0.049988 0.241698 -0.049303
v 0.049988 0.302951 -0.052726
v 0.049988 0.229528 -0.056413
v 0.049988 0.216051 -0.060539
v 0.049988 0.287314 -0.074870
v 0.049988 -0.233949 -0.060539
v 0.049988 0.266757 -0.092540
v 0.049988 0.242516 -0.104673
v 0.049988 -0.233949 -0.110539
v 0.049988 0.216051 -0.110539
v 0.049988 0.312726 0.026364
v 0.049988 0.302951 0.051648
v 0.024988 0.312726 0.026364
v 0.024988 0.302951 0.051648
v -0.050012 0.266757 -0.092540
v -0.025012 0.266757 -0.092540
v -0.050012 0.287314 -0.074870
v -0.025012 0.287314 -0.074870
v 0.099988 -0.283949 0.109461
v 0.099988 -0.283949 -0.110539
v 0.024988 -0.283949 0.109461
v 0.024988 -0.283949 -0.110539
v 0.049988 0.251912 0.038512
v 0.049988 0.259624 0.026714
v -0.050012 0.251912 0.038512
v -0.050012 0.259624 0.026714
v 0.049988 0.266757 -0.092540
v 0.049988 0.287314 -0.074870
v 0.024988 0.266757 -0.092540
v 0.024988 0.287314 -0.074870
v 0.049988 0.229528 -0.056413
v -0.050012 0.229528 -0.056413
v 0.049988 0.241698 -0.049303
v -0.050012 0.241698 -0.049303
v -0.100012 -0.233949 -0.110539
v -0.100012 -0.283949 -0.110539
v -0.050012 -0.233949 -0.110539
v -0.025012 -0.283949 -0.110539
v -0.025012 0.216051 -0.110539
v -0.050012 0.216051 -0.110539
v 0.049988 0.241698 0.048225
v 0.049988 0.251912 0.038512
v -0.050012 0.241698 0.048225
v -0.050012 0.251912 0.038512
v 0.049988 0.216051 -0.110539
v 0.024988 0.216051 -0.110539
v 0.049988 -0.233949 -0.110539
v 0.024988 -0.283949 -0.110539
v 0.099988 -0.233949 -0.110539
v 0.099988 -0.283949 -0.110539
v 0.049988 0.216051 -0.110539
v 0.049988 0.242516 -0.104673
v 0.024988 0.216051 -0.110539
v 0.024988 0.242516 -0.104673
v 0.049988 0.229528 0.055334
v 0.049988 0.241698 0.048225
v -0.050012 0.229528 0.055334
v -0.050012 0.241698 0.048225
v 0.049988 0.259624 -0.027793
v 0.049988 0.251912 -0.039590
v -0.050012 0.259624 -0.027793
v -0.050012 0.251912 -0.039590
v 0.049988 0.259624 0.026714
v 0.049988 0.264422 0.013461
v -0.050012 0.259624 0.026714
v -0.050012 0.264422 0.013461
v 0.049988 0.241698 -0.049303
v -0.050012 0.241698 -0.049303
v 0.049988 0.251912 -0.039590
v -0.050012 0.251912 -0.039590
v 0.049988 0.242516 -0.104673
v 0.049988 0.266757 -0.092540
v 0.024988 0.242516 -0.104673
v 0.024988 0.266757 -0.092540
v -0.050012 -0.233949 -0.110539
v -0.050012 -0.233949 -0.060539
v -0.100012 -0.233949 -0.110539
v -0.050012 -0.233949 0.059461
v -0.050012 -0.233949 0.109461
v -0.100012 -0.233949 0.109461
v 0.049988 -0.233949 0.059461
v 0.049988 -0.233949 -0.060539
v 0.049988 -0.233949 0.109461
v 0.049988 -0.233949 -0.110539
v 0.099988 -0.233949 0.109461
v 0.099988 -0.233949 -0.110539
v 0.099988 -0.233949 -0.110539
v 0.099988 -0.283949 -0.110539
v 0.099988 -0.233949 0.109461
v 0.099988 -0.283949 0.109461
v -0.050012 0.216051 -0.110539
v -0.025012 0.216051 -0.110539
v -0.050012 0.242516 -0.104673
v -0.025012 0.242516 -0.104673
v 0.049988 0.302951 -0.052726
v 0.024988 0.302951 -0.052726
v 0.049988 0.287314 -0.074870
v 0.024988 0.287314 -0.074870
v -0.100012 -0.283949 -0.110539
v -0.100012 -0.233949 -0.110539
v -0.100012 -0.283949 0.109461
v -0.100012 -0.233949 0.109461
v -0.025012 0.287314 -0.074870
v -0.025012 0.302951 -0.052726
v -0.050012 0.287314 -0.074870
v -0.050012 0.302951 -0.052726
v 0.049988 0.242516 0.103594
v 0.024988 0.242516 0.103594
v 0.049988 0.266757 0.091461
v 0.024988 0.266757 0.091461
v 0.049988 0.216051 0.109461
v 0.024988 0.216051 0.109461
v 0.049988 0.242516 0.103594
v 0.024988 0.242516 0.103594
v -0.025012 0.312726 -0.027442
v -0.025012 0.316051 -0.000539
v -0.050012 0.312726 -0.027442
v -0.050012 0.316051 -0.000539
v -0.025012 -0.283949 0.109461
v -0.025012 -0.283949 -0.110539
v -0.100012 -0.283949 0.109461
v -0.100012 -0.283949 -0.110539
v 0.049988 0.302951 0.051648
v 0.049988 0.287314 0.073791
v 0.024988 0.302951 0.051648
v 0.024988 0.287314 0.073791
v 0.024988 -0.483949 0.399461
v 0.024988 -0.483949 -0.400539
v -0.025012 -0.483949 0.399461
v -0.025012 -0.483949 -0.400539
v 0.024988 0.516051 -0.400539
v 0.024988 0.516051 0.399461
v -0.025012 0.516051 -0.400539
v -0.025012 0.516051 0.399461
v 0.024988 0.216051 0.159461
v 0.024988 0.516051 0.399461
v 0.024988 0.255474 0.151878
v 0.024988 0.291778 0.134739
v 0.024988 0.322686 0.109119
v 0.024988 0.346261 0.076624
v 0.024988 0.361024 0.039291
v 0.024988 0.366051 -0.000539
v 0.024988 -0.333949 0.159461
v 0.024988 0.361024 -0.040369
v 0.024988 -0.483949 0.399461
v 0.024988 -0.333949 -0.160539
v 0.024988 0.516051 -0.400539
v 0.024988 -0.483949 -0.400539
v 0.024988 0.216051 -0.160539
v 0.024988 0.255474 -0.152956
v 0.024988 0.346261 -0.077703
v 0.024988 0.291778 -0.135818
v 0.024988 0.322686 -0.110198
v -0.025012 0.255474 0.151878
v -0.025012 0.291778 0.134739
v -0.025012 0.516051 0.399461
v -0.025012 0.322686 0.109119
v -0.025012 0.346261 0.076624
v -0.025012 0.361024 0.039291
v -0.025012 0.366051 -0.000539
v -0.025012 0.216051 0.159461
v -0.025012 0.361024 -0.040369
v -0.025012 0.516051 -0.400539
v -0.025012 -0.483949 0.399461
v -0.025012 -0.333949 0.159461
v -0.025012 0.346261 -0.077703
v -0.025012 -0.333949 -0.160539
v -0.025012 -0.483949 -0.400539
v -0.025012 0.322686 -0.110198
v -0.025012 0.216051 -0.160539
v -0.025012 0.291778 -0.135818
v -0.025012 0.255474 -0.152956
vn -0.0000 1.0000 -0.0000
vn -0.0000 -1.0000 -0.0000
vn -0.0000 -0.0000 -1.0000
vn -1.0000 -0.0000 -0.0000
vn -0.0000 -0.0000 1.0000
vn 1.0000 -0.0000 -0.0000
vn -0.0000 -0.1480 -0.9890
vn -0.0000 -0.4013 0.9160
vn -0.0000 -0.1481 0.9890
vn -0.0000 -0.0000 -0.0000
vn -0.0000 1.0000 0.0001
vn -0.0000 0.9699 0.2435
vn -0.0000 0.7399 0.6727
vn -0.0000 0.5539 0.8326
vn -0.0000 0.9699 -0.2435
vn -0.0000 1.0000 -0.0001
vn -0.0000 -0.1480 0.9890
vn -0.0000 0.8815 -0.4723
vn -0.0000 0.8815 0.4723
vn -0.0000 0.1088 0.9941
vn -0.0000 0.8814 0.4723
vn -0.0000 0.7400 0.6726
vn -0.0000 -0.9733 0.2295
vn -0.0000 -0.8947 0.4468
vn -0.0000 0.5539 -0.8326
vn -0.0000 0.3345 -0.9424
vn -0.0000 -0.4012 -0.9160
vn -0.0000 -0.1481 -0.9890
vn -0.0000 0.3345 0.9424
vn -0.0000 0.1089 0.9941
vn -0.0000 -0.9733 -0.2295
vn -0.0000 0.7399 -0.6727
vn -0.0000 -0.7682 -0.6402
vn -0.0000 -0.8946 -0.4468
vn -0.0000 -0.6008 0.7994
vn -0.0000 0.1088 -0.9941
vn -0.0000 -0.6008 -0.7994
vn -0.0000 0.1089 -0.9941
vn -0.0000 -0.4013 -0.9160
vn -0.0000 -0.8946 0.4468
vn -0.0000 -0.7682 0.6402
vn -0.0000 -0.8947 -0.4468
vn -0.0000 0.8814 -0.4723
vt 0.593750 0.175000
vt 0.593750 0.075000
vt 0.593750 0.135000
vt 0.593750 0.115000
vt 0.718750 0.075000
vt 0.718750 0.175000
vt 0.718750 0.148942
vt 0.718750 0.145000
vt 0.718750 0.152573
vt 0.718750 0.155664
vt 0.718750 0.158021
vt 0.718750 0.159497
vt 0.718750 0.160000
vt 0.718750 0.090000
s 0
usemtl colormap.157
f 3/1/1 2/1/1 1/1/1
f 2/1/1 3/1/1 4/1/1
f 7/2/2 6/2/2 5/2/2
f 6/2/2 7/2/2 8/2/2
f 11/1/3 10/2/3 9/2/3
f 10/2/3 11/1/3 12/1/3
f 15/2/4 14/1/4 13/2/4
f 14/1/4 15/2/4 16/1/4
f 19/1/5 18/2/5 17/2/5
f 18/2/5 19/1/5 20/1/5
f 23/1/6 22/2/6 21/1/6
f 22/2/6 23/1/6 24/2/6
f 27/1/1 26/1/1 25/1/1
f 26/1/1 27/1/1 28/1/1
f 31/2/2 30/2/2 29/2/2
f 30/2/2 31/2/2 32/2/2
f 35/1/3 34/2/3 33/2/3
f 34/2/3 35/1/3 36/1/3
f 39/2/4 38/1/4 37/2/4
f 38/1/4 39/2/4 40/1/4
f 43/1/5 42/2/5 41/2/5
f 42/2/5 43/1/5 44/1/5
f 47/1/6 46/2/6 45/1/6
f 46/2/6 47/1/6 48/2/6
s 1
f 51/3/3 50/2/7 49/2/3
f 50/2/7 51/3/3 52/3/7
s 0
f 55/3/4 54/3/4 53/3/4
f 54/3/4 55/3/4 56/3/4
f 56/3/4 57/3/4 54/3/4
f 56/3/4 55/3/4 58/3/4
f 58/3/4 55/3/4 59/3/4
f 59/3/4 55/3/4 60/3/4
f 61/3/4 57/3/4 56/3/4
f 61/3/4 62/3/4 57/3/4
f 61/3/4 63/3/4 62/3/4
f 61/3/4 64/3/4 63/3/4
f 65/3/4 64/3/4 61/3/4
f 65/3/4 66/3/4 64/3/4
f 67/3/4 66/3/4 65/3/4
f 67/3/4 68/3/4 66/3/4
f 67/3/4 69/3/4 68/3/4
f 70/3/4 69/3/4 67/3/4
f 70/3/4 71/3/4 69/3/4
f 70/3/4 72/3/4 71/3/4
f 70/3/4 73/3/4 72/3/4
f 74/3/4 73/3/4 70/3/4
f 74/3/4 75/3/4 73/3/4
f 74/3/4 76/3/4 75/3/4
f 77/3/4 76/3/4 74/3/4
f 77/3/4 78/3/4 76/3/4
f 79/3/4 78/3/4 77/3/4
f 80/3/4 78/3/4 79/3/4
f 81/3/4 78/3/4 80/3/4
f 78/3/4 81/3/4 82/3/4
s 1
f 85/2/8 84/3/9 83/2/9
f 84/3/9 85/2/8 86/3/8
s 0
f 89/2/6 88/2/6 87/2/6
f 88/2/6 89/2/6 90/2/6
f 90/2/6 89/2/6 91/2/6
f 88/2/6 90/2/6 92/2/6
f 90/2/6 91/2/6 93/2/6
f 94/2/6 93/2/6 91/2/6
f 93/2/6 94/2/6 95/2/6
f 95/2/6 94/2/6 96/2/6
f 95/2/6 96/2/6 97/2/6
f 97/2/6 96/2/6 98/2/6
f 98/2/6 96/2/6 99/2/6
f 98/2/6 99/2/6 100/2/6
f 100/2/6 99/2/6 101/2/6
f 101/2/6 99/2/6 102/2/6
f 101/2/6 102/2/6 103/2/6
f 103/2/6 102/2/6 104/2/6
f 103/2/6 104/2/6 105/2/6
f 105/2/6 104/2/6 106/2/6
f 106/2/6 104/2/6 107/2/6
f 106/2/6 107/2/6 108/2/6
f 108/2/6 107/2/6 109/2/6
f 109/2/6 107/2/6 110/2/6
f 109/2/6 110/2/6 111/2/6
f 111/2/6 110/2/6 112/2/6
f 112/2/6 110/2/6 113/2/6
f 112/2/6 113/2/6 114/2/6
f 92/2/6 114/2/6 113/2/6
f 92/2/6 90/2/6 114/2/6
f 92/2/6 113/2/6 115/2/6
f 92/2/6 115/2/6 116/2/6
s 1
f 92/2/10 116/2/10 117/2/10
f 120/3/11 119/4/12 118/4/11
f 119/4/12 120/3/11 121/3/12
f 124/2/13 123/2/14 122/2/14
f 123/2/14 124/2/13 125/2/13
f 128/2/15 127/2/16 126/2/15
f 127/2/16 128/2/15 129/2/16
f 132/2/17 131/3/5 130/2/5
f 131/3/5 132/2/17 133/3/17
f 136/4/4 135/4/4 134/4/4
s 0
f 137/4/4 135/4/4 136/4/4
f 138/4/4 135/4/4 137/4/4
f 139/4/4 135/4/4 138/4/4
f 140/4/4 139/4/4 138/4/4
f 141/4/4 135/4/4 139/4/4
f 140/4/4 142/4/4 139/4/4
f 140/4/4 143/4/4 142/4/4
f 144/4/4 135/4/4 141/4/4
f 145/4/4 143/4/4 140/4/4
f 145/4/4 146/4/4 143/4/4
f 145/4/4 147/4/4 146/4/4
f 148/4/4 147/4/4 145/4/4
f 148/4/4 149/4/4 147/4/4
f 144/4/4 150/4/4 135/4/4
f 151/4/4 149/4/4 148/4/4
f 151/4/4 152/4/4 149/4/4
f 151/4/4 153/4/4 152/4/4
f 150/4/4 144/4/4 154/4/4
f 154/4/4 144/4/4 155/4/4
f 155/4/4 144/4/4 156/4/4
f 157/4/4 156/4/4 144/4/4
f 156/4/4 157/4/4 158/4/4
f 158/4/4 157/4/4 159/4/4
f 160/4/4 153/4/4 151/4/4
f 160/4/4 161/4/4 153/4/4
f 160/4/4 162/4/4 161/4/4
f 158/4/4 159/4/4 163/4/4
f 163/4/4 162/4/4 160/4/4
f 163/4/4 159/4/4 164/4/4
f 163/4/4 164/4/4 162/4/4
s 1
f 167/3/18 166/4/15 165/4/18
f 166/4/15 167/3/18 168/3/15
f 171/3/12 170/4/19 169/4/12
f 170/4/19 171/3/12 172/3/19
f 175/3/5 174/4/20 173/3/20
f 175/3/5 176/4/5 174/4/20
s 0
f 176/4/5 175/3/5 177/1/5
f 178/1/5 177/1/5 175/3/5
s 1
f 181/3/21 180/4/22 179/4/21
f 180/4/22 181/3/21 182/3/22
f 185/3/23 184/2/24 183/2/23
f 184/2/24 185/3/23 186/3/24
f 189/2/11 188/2/12 187/2/11
f 188/2/12 189/2/11 190/2/12
f 193/3/25 192/4/26 191/3/26
f 192/4/26 193/3/25 194/4/25
f 197/3/7 196/2/27 195/2/28
f 196/2/27 197/3/7 198/3/27
f 201/3/2 200/2/23 199/2/2
f 200/2/23 201/3/2 202/3/23
s 0
f 205/2/5 204/2/5 203/2/5
f 204/2/5 205/2/5 206/2/5
s 1
f 204/2/5 206/2/5 207/2/20
f 207/2/20 206/2/5 208/2/20
f 211/4/29 210/3/30 209/4/30
f 210/3/30 211/4/29 212/3/29
f 215/2/18 214/2/15 213/2/18
f 214/2/15 215/2/18 216/2/15
f 219/4/14 218/3/29 217/4/29
f 218/3/29 219/4/14 220/3/14
f 223/3/31 222/2/2 221/2/31
f 222/2/2 223/3/31 224/3/2
f 227/4/13 226/3/14 225/4/14
f 226/3/14 227/4/13 228/3/13
s 0
f 231/2/6 230/2/6 229/2/6
f 231/2/6 232/2/6 230/2/6
f 231/2/6 233/2/6 232/2/6
f 234/2/6 233/2/6 231/2/6
f 235/2/6 233/2/6 234/2/6
f 236/2/6 233/2/6 235/2/6
f 236/2/6 237/2/6 233/2/6
f 238/2/6 237/2/6 236/2/6
f 239/2/6 237/2/6 238/2/6
f 240/2/6 237/2/6 239/2/6
f 240/2/6 241/2/6 237/2/6
f 242/2/6 241/2/6 240/2/6
f 243/2/6 241/2/6 242/2/6
f 243/2/6 244/2/6 241/2/6
f 245/2/6 244/2/6 243/2/6
f 245/2/6 246/2/6 244/2/6
f 247/2/6 246/2/6 245/2/6
f 248/2/6 246/2/6 247/2/6
f 249/2/6 246/2/6 248/2/6
f 249/2/6 250/2/6 246/2/6
f 251/2/6 250/2/6 249/2/6
f 252/2/6 250/2/6 251/2/6
f 250/2/6 252/2/6 253/2/6
f 254/2/6 253/2/6 252/2/6
f 254/2/6 255/2/6 253/2/6
f 254/2/6 256/2/6 255/2/6
f 257/2/6 256/2/6 254/2/6
f 256/2/6 257/2/6 258/2/6
s 1
f 261/2/12 260/2/19 259/2/12
f 260/2/19 261/2/12 262/2/19
f 265/3/32 264/4/25 263/3/25
f 264/4/25 265/3/32 266/4/32
s 0
f 269/2/2 268/2/2 267/2/2
f 268/2/2 269/2/2 270/2/2
s 1
f 273/3/33 272/2/34 271/2/33
f 272/2/34 273/3/33 274/3/34
f 277/2/25 276/2/32 275/2/25
f 276/2/32 277/2/25 278/2/32
f 281/2/35 280/3/8 279/2/8
f 280/3/8 281/2/35 282/3/35
s 0
f 285/3/3 284/1/3 283/1/3
f 285/3/3 286/4/3 284/1/3
s 1
f 286/4/3 285/3/3 287/4/36
f 287/4/36 285/3/3 288/3/36
f 291/3/37 290/2/33 289/2/37
f 290/2/33 291/3/37 292/3/33
f 295/2/3 294/2/36 293/2/36
f 294/2/36 295/2/3 296/2/3
s 0
f 297/2/3 296/2/3 295/2/3
f 296/2/3 297/2/3 298/2/3
s 1
f 301/2/38 300/2/26 299/2/38
f 300/2/26 301/2/38 302/2/26
f 305/3/39 304/2/37 303/2/39
f 304/2/37 305/3/39 306/3/37
f 309/3/40 308/2/41 307/2/40
f 308/2/41 309/3/40 310/3/41
f 313/3/42 312/2/31 311/2/42
f 312/2/31 313/3/42 314/3/31
f 317/2/41 316/3/35 315/2/35
f 316/3/35 317/2/41 318/3/41
f 321/2/26 320/2/25 319/2/26
f 320/2/25 321/2/26 322/2/25
s 0
f 325/1/1 324/3/1 323/3/1
f 324/3/1 325/1/1 326/3/1
f 326/3/1 325/1/1 327/3/1
f 327/3/1 325/1/1 328/1/1
f 329/2/1 324/3/1 326/3/1
f 324/3/1 329/2/1 330/2/1
s 1
f 331/2/5 330/2/2 329/2/2
f 331/2/5 332/2/2 330/2/2
s 0
f 333/2/1 332/2/1 331/2/1
f 332/2/1 333/2/1 334/2/1
f 337/2/6 336/2/6 335/2/6
f 336/2/6 337/2/6 338/2/6
s 1
f 341/3/26 340/4/38 339/3/38
f 340/4/38 341/3/26 342/4/26
f 345/2/32 344/2/43 343/2/43
f 344/2/43 345/2/32 346/2/32
s 0
f 349/1/4 348/1/4 347/1/4
f 348/1/4 349/1/4 350/1/4
s 1
f 353/3/32 352/4/43 351/4/32
f 352/4/43 353/3/32 354/3/43
f 357/2/14 356/2/29 355/2/29
f 356/2/29 357/2/14 358/2/14
f 361/2/29 360/2/30 359/2/30
f 360/2/30 361/2/29 362/2/29
f 365/3/15 364/4/16 363/4/15
f 364/4/16 365/3/15 366/3/16
s 0
f 369/1/2 368/4/2 367/4/2
f 368/4/2 369/1/2 370/1/2
s 1
f 373/2/21 372/2/13 371/2/21
f 372/2/13 373/2/21 374/2/13
s 0
f 377/5/2 376/5/2 375/5/2
f 376/5/2 377/5/2 378/5/2
f 381/6/1 380/6/1 379/6/1
f 380/6/1 381/6/1 382/6/1
f 385/7/6 384/6/6 383/8/6
f 386/9/6 384/6/6 385/7/6
f 387/10/6 384/6/6 386/9/6
f 388/11/6 384/6/6 387/10/6
f 389/12/6 384/6/6 388/11/6
f 390/13/6 384/6/6 389/12/6
f 383/8/6 384/6/6 391/14/6
f 392/12/6 384/6/6 390/13/6
f 393/5/6 391/14/6 384/6/6
f 393/5/6 394/14/6 391/14/6
f 392/12/6 395/6/6 384/6/6
f 396/5/6 394/14/6 393/5/6
f 394/14/6 396/5/6 397/8/6
f 396/5/6 398/7/6 397/8/6
f 395/6/6 398/7/6 396/5/6
f 399/11/6 395/6/6 392/12/6
f 398/7/6 395/6/6 400/9/6
f 401/10/6 395/6/6 399/11/6
f 400/9/6 395/6/6 401/10/6
f 404/6/4 403/9/4 402/7/4
f 404/6/4 405/10/4 403/9/4
f 404/6/4 406/11/4 405/10/4
f 404/6/4 407/12/4 406/11/4
f 404/6/4 408/13/4 407/12/4
f 404/6/4 402/7/4 409/8/4
f 404/6/4 410/12/4 408/13/4
f 411/6/4 410/12/4 404/6/4
f 404/6/4 409/8/4 412/5/4
f 413/14/4 412/5/4 409/8/4
f 410/12/4 411/6/4 414/11/4
f 415/14/4 412/5/4 413/14/4
f 415/14/4 416/5/4 412/5/4
f 416/5/4 415/14/4 411/6/4
f 414/11/4 411/6/4 417/10/4
f 418/8/4 411/6/4 415/14/4
f 417/10/4 411/6/4 419/9/4
f 420/7/4 411/6/4 418/8/4
f 419/9/4 411/6/4 420/7/4
