# Blender 5.1.0
# www.blender.org
mtllib wall_corner_diagonal_half.mtl
o wall-corner-diagonal-half-col
v 0.197458 0.500000 -0.510231
v 0.197458 0.500000 -0.410231
v 0.097458 0.500000 -0.510231
v 0.097458 0.500000 -0.410231
v 0.197458 -0.500000 -0.410231
v 0.197458 -0.500000 -0.510231
v 0.097458 -0.500000 -0.410231
v 0.097458 -0.500000 -0.510231
v 0.097458 -0.500000 -0.510231
v 0.197458 -0.500000 -0.510231
v 0.097458 0.500000 -0.510231
v 0.197458 0.500000 -0.510231
v 0.097458 -0.500000 -0.510231
v 0.097458 0.500000 -0.510231
v 0.097458 -0.500000 -0.410231
v 0.097458 0.500000 -0.410231
v 0.197458 -0.500000 -0.410231
v 0.097458 -0.500000 -0.410231
v 0.197458 0.500000 -0.410231
v 0.097458 0.500000 -0.410231
v 0.197458 0.500000 -0.510231
v 0.197458 -0.500000 -0.510231
v 0.197458 0.500000 -0.410231
v 0.197458 -0.500000 -0.410231
v 0.172458 0.500000 -0.410231
v 0.172458 -0.500000 -0.410231
v 0.172458 0.500000 -0.039520
v 0.172458 -0.500000 -0.039520
v 0.122458 -0.500000 -0.410231
v 0.122458 0.500000 -0.410231
v 0.122458 -0.500000 -0.060231
v 0.122458 0.500000 -0.060231
v -0.352542 -0.500000 0.464769
v -0.331832 -0.500000 0.464769
v -0.352542 -0.500000 0.414769
v 0.122458 -0.500000 -0.060231
v 0.172458 -0.500000 -0.039520
v 0.172458 -0.500000 -0.410231
v 0.122458 -0.500000 -0.410231
v 0.172458 -0.500000 -0.039520
v -0.331832 -0.500000 0.464769
v 0.172458 0.500000 -0.039520
v -0.331832 0.500000 0.464769
v -0.352542 -0.500000 0.414769
v 0.122458 -0.500000 -0.060231
v -0.352542 0.500000 0.414769
v 0.122458 0.500000 -0.060231
v 0.172458 0.500000 -0.410231
v 0.172458 0.500000 -0.039520
v 0.122458 0.500000 -0.410231
v 0.122458 0.500000 -0.060231
v -0.331832 0.500000 0.464769
v -0.352542 0.500000 0.414769
v -0.352542 0.500000 0.464769
v -0.331832 -0.500000 0.464769
v -0.352542 -0.500000 0.464769
v -0.331832 0.500000 0.464769
v -0.352542 0.500000 0.464769
v -0.352542 -0.500000 0.414769
v -0.352542 0.500000 0.414769
v -0.352542 -0.500000 0.464769
v -0.352542 0.500000 0.464769
vn -0.0000 1.0000 -0.0000
vn -0.0000 -1.0000 -0.0000
vn -0.0000 -0.0000 -1.0000
vn -1.0000 -0.0000 -0.0000
vn -0.0000 -0.0000 1.0000
vn 1.0000 -0.0000 -0.0000
vn 0.7071 -0.0000 0.7071
vn -0.7071 -0.0000 -0.7071
vt 0.593750 0.175000
vt 0.593750 0.075000
vt 0.218750 0.425000
vt 0.218750 0.325000
s 0
usemtl colormap.107
f 3/1/1 2/1/1 1/1/1
f 2/1/1 3/1/1 4/1/1
f 7/2/2 6/2/2 5/2/2
f 6/2/2 7/2/2 8/2/2
f 11/1/3 10/2/3 9/2/3
f 10/2/3 11/1/3 12/1/3
f 15/2/4 14/1/4 13/2/4
f 14/1/4 15/2/4 16/1/4
f 19/1/5 18/2/5 17/2/5
f 18/2/5 19/1/5 20/1/5
f 23/1/6 22/2/6 21/1/6
f 22/2/6 23/1/6 24/2/6
f 27/3/6 26/4/6 25/3/6
f 26/4/6 27/3/6 28/4/6
f 31/4/4 30/3/4 29/4/4
f 30/3/4 31/4/4 32/3/4
f 35/4/2 34/4/2 33/4/2
f 36/4/2 34/4/2 35/4/2
f 36/4/2 37/4/2 34/4/2
f 37/4/2 36/4/2 38/4/2
f 39/4/2 38/4/2 36/4/2
f 42/3/7 41/4/7 40/4/7
f 41/4/7 42/3/7 43/3/7
f 46/3/8 45/4/8 44/4/8
f 45/4/8 46/3/8 47/3/8
f 50/3/1 49/3/1 48/3/1
f 49/3/1 50/3/1 51/3/1
f 49/3/1 51/3/1 52/3/1
f 52/3/1 51/3/1 53/3/1
f 52/3/1 53/3/1 54/3/1
f 57/3/5 56/4/5 55/4/5
f 56/4/5 57/3/5 58/3/5
f 61/4/4 60/3/4 59/4/4
f 60/3/4 61/4/4 62/3/4
