# Blender 5.1.0
# www.blender.org
mtllib wall_wood_doorway_square.mtl
o wall-wood-doorway-square-col
v 0.050000 0.460342 -0.500123
v 0.050000 0.460342 -0.400123
v -0.050000 0.460342 -0.500123
v -0.050000 0.460342 -0.400123
v 0.050000 -0.539658 -0.400123
v 0.050000 -0.539658 -0.500123
v -0.050000 -0.539658 -0.400123
v -0.050000 -0.539658 -0.500123
v -0.050000 -0.539658 -0.500123
v 0.050000 -0.539658 -0.500123
v -0.050000 0.460342 -0.500123
v 0.050000 0.460342 -0.500123
v -0.050000 -0.539658 -0.500123
v -0.050000 0.460342 -0.500123
v -0.050000 -0.539658 -0.400123
v -0.050000 0.460342 -0.400123
v 0.050000 -0.539658 -0.400123
v -0.050000 -0.539658 -0.400123
v 0.050000 0.460342 -0.400123
v -0.050000 0.460342 -0.400123
v 0.050000 0.460342 -0.500123
v 0.050000 -0.539658 -0.500123
v 0.050000 0.460342 -0.400123
v 0.050000 -0.539658 -0.400123
v 0.050000 0.460342 0.399877
v 0.050000 0.460342 0.499877
v -0.050000 0.460342 0.399877
v -0.050000 0.460342 0.499877
v 0.050000 -0.539658 0.499877
v 0.050000 -0.539658 0.399877
v -0.050000 -0.539658 0.499877
v -0.050000 -0.539658 0.399877
v -0.050000 -0.539658 0.399877
v 0.050000 -0.539658 0.399877
v -0.050000 0.460342 0.399877
v 0.050000 0.460342 0.399877
v -0.050000 -0.539658 0.399877
v -0.050000 0.460342 0.399877
v -0.050000 -0.539658 0.499877
v -0.050000 0.460342 0.499877
v 0.050000 -0.539658 0.499877
v -0.050000 -0.539658 0.499877
v 0.050000 0.460342 0.499877
v -0.050000 0.460342 0.499877
v 0.050000 0.460342 0.399877
v 0.050000 -0.539658 0.399877
v 0.050000 0.460342 0.499877
v 0.050000 -0.539658 0.499877
v -0.050000 -0.539658 0.199877
v -0.050000 0.210342 0.199877
v -0.050000 -0.539658 0.299877
v -0.050000 0.310342 0.249877
v -0.050000 0.260342 0.299877
v -0.050000 0.210342 -0.200123
v -0.050000 0.310342 -0.250123
v -0.050000 -0.539658 -0.200123
v -0.050000 0.260342 -0.300123
v -0.050000 -0.539658 -0.300123
v 0.050000 0.260342 0.299877
v 0.050000 0.310342 0.249877
v 0.050000 -0.539658 0.299877
v 0.050000 -0.539658 0.199877
v 0.050000 0.210342 0.199877
v 0.050000 0.210342 -0.200123
v 0.050000 0.310342 -0.250123
v 0.050000 -0.539658 -0.200123
v 0.050000 -0.539658 -0.300123
v 0.050000 0.260342 -0.300123
v 0.050000 0.210342 0.199877
v 0.050000 0.210342 -0.200123
v -0.050000 0.210342 0.199877
v -0.050000 0.210342 -0.200123
v -0.050000 -0.539658 0.199877
v 0.050000 -0.539658 0.199877
v -0.050000 0.210342 0.199877
v 0.050000 0.210342 0.199877
v -0.050000 -0.539658 -0.300123
v 0.050000 -0.539658 -0.300123
v -0.050000 0.260342 -0.300123
v 0.050000 0.260342 -0.300123
v 0.050000 0.310342 -0.250123
v 0.050000 0.310342 0.249877
v -0.050000 0.310342 -0.250123
v -0.050000 0.310342 0.249877
v 0.050000 -0.539658 -0.200123
v -0.050000 -0.539658 -0.200123
v 0.050000 0.210342 -0.200123
v -0.050000 0.210342 -0.200123
v 0.050000 -0.539658 0.299877
v -0.050000 -0.539658 0.299877
v 0.050000 0.260342 0.299877
v -0.050000 0.260342 0.299877
v 0.050000 -0.539658 -0.200123
v 0.050000 -0.539658 -0.300123
v -0.050000 -0.539658 -0.200123
v -0.050000 -0.539658 -0.300123
v 0.050000 -0.539658 0.299877
v 0.050000 -0.539658 0.199877
v -0.050000 -0.539658 0.299877
v -0.050000 -0.539658 0.199877
v 0.050000 0.260342 -0.300123
v 0.050000 0.310342 -0.250123
v -0.050000 0.260342 -0.300123
v -0.050000 0.310342 -0.250123
v 0.050000 0.260342 0.299877
v -0.050000 0.260342 0.299877
v 0.050000 0.310342 0.249877
v -0.050000 0.310342 0.249877
v 0.025000 -0.539658 0.399877
v 0.025000 0.460342 0.399877
v 0.025000 -0.539658 0.299877
v 0.025000 0.260342 0.299877
v 0.025000 0.310342 0.249877
v 0.025000 0.310342 -0.250123
v 0.025000 0.460342 -0.400123
v 0.025000 0.260342 -0.300123
v 0.025000 -0.539658 -0.400123
v 0.025000 -0.539658 -0.300123
v 0.025000 0.460342 -0.400123
v 0.025000 0.460342 0.399877
v -0.025000 0.460342 -0.400123
v -0.025000 0.460342 0.399877
v 0.025000 -0.539658 0.399877
v 0.025000 -0.539658 0.299877
v -0.025000 -0.539658 0.399877
v -0.025000 -0.539658 0.299877
v 0.025000 -0.539658 -0.300123
v 0.025000 -0.539658 -0.400123
v -0.025000 -0.539658 -0.300123
v -0.025000 -0.539658 -0.400123
v -0.025000 -0.539658 0.299877
v -0.025000 0.260342 0.299877
v -0.025000 -0.539658 0.399877
v -0.025000 0.460342 0.399877
v -0.025000 0.310342 0.249877
v -0.025000 0.310342 -0.250123
v -0.025000 0.460342 -0.400123
v -0.025000 0.260342 -0.300123
v -0.025000 -0.539658 -0.300123
v -0.025000 -0.539658 -0.400123
vn -0.0000 1.0000 -0.0000
vn -0.0000 -1.0000 -0.0000
vn -0.0000 -0.0000 -1.0000
vn -1.0000 -0.0000 -0.0000
vn -0.0000 -0.0000 1.0000
vn 1.0000 -0.0000 -0.0000
vn -0.0000 0.3827 -0.9239
vn -0.0000 0.9239 -0.3827
vn -0.0000 0.9239 0.3827
vn -0.0000 0.3827 0.9239
vt 0.593750 0.175000
vt 0.593750 0.075000
vt 0.593750 0.163235
vt 0.593750 0.169118
vt 0.718750 0.075000
vt 0.718750 0.175000
vt 0.718750 0.155000
vt 0.718750 0.160000
s 0
usemtl colormap.151
f 3/1/1 2/1/1 1/1/1
f 2/1/1 3/1/1 4/1/1
f 7/2/2 6/2/2 5/2/2
f 6/2/2 7/2/2 8/2/2
f 11/1/3 10/2/3 9/2/3
f 10/2/3 11/1/3 12/1/3
f 15/2/4 14/1/4 13/2/4
f 14/1/4 15/2/4 16/1/4
f 19/1/5 18/2/5 17/2/5
f 18/2/5 19/1/5 20/1/5
f 23/1/6 22/2/6 21/1/6
f 22/2/6 23/1/6 24/2/6
f 27/1/1 26/1/1 25/1/1
f 26/1/1 27/1/1 28/1/1
f 31/2/2 30/2/2 29/2/2
f 30/2/2 31/2/2 32/2/2
f 35/1/3 34/2/3 33/2/3
f 34/2/3 35/1/3 36/1/3
f 39/2/4 38/1/4 37/2/4
f 38/1/4 39/2/4 40/1/4
f 43/1/5 42/2/5 41/2/5
f 42/2/5 43/1/5 44/1/5
f 47/1/6 46/2/6 45/1/6
f 46/2/6 47/1/6 48/2/6
f 51/2/4 50/3/4 49/2/4
f 50/3/4 51/2/4 52/1/4
f 52/1/4 51/2/4 53/4/4
f 52/1/4 54/3/4 50/3/4
f 55/1/4 54/3/4 52/1/4
f 55/1/4 56/2/4 54/3/4
f 57/4/4 56/2/4 55/1/4
f 56/2/4 57/4/4 58/2/4
f 61/2/6 60/1/6 59/4/6
f 62/2/6 60/1/6 61/2/6
f 63/3/6 60/1/6 62/2/6
f 64/3/6 60/1/6 63/3/6
f 60/1/6 64/3/6 65/1/6
f 66/2/6 65/1/6 64/3/6
f 67/2/6 65/1/6 66/2/6
f 65/1/6 67/2/6 68/4/6
f 71/3/2 70/3/2 69/3/2
f 70/3/2 71/3/2 72/3/2
f 75/3/3 74/2/3 73/2/3
f 74/2/3 75/3/3 76/3/3
s 1
f 79/4/7 78/2/3 77/2/3
f 78/2/3 79/4/7 80/4/7
f 83/1/8 82/1/9 81/1/8
f 82/1/9 83/1/8 84/1/9
s 0
f 87/3/5 86/2/5 85/2/5
f 86/2/5 87/3/5 88/3/5
s 1
f 91/4/10 90/2/5 89/2/5
f 90/2/5 91/4/10 92/4/10
s 0
f 95/2/2 94/2/2 93/2/2
f 94/2/2 95/2/2 96/2/2
f 99/2/2 98/2/2 97/2/2
f 98/2/2 99/2/2 100/2/2
s 1
f 103/4/7 102/1/8 101/4/7
f 102/1/8 103/4/7 104/1/8
f 107/1/9 106/4/10 105/4/10
f 106/4/10 107/1/9 108/1/9
s 0
f 111/5/6 110/6/6 109/5/6
f 112/7/6 110/6/6 111/5/6
f 113/8/6 110/6/6 112/7/6
f 114/8/6 110/6/6 113/8/6
f 114/8/6 115/6/6 110/6/6
f 116/7/6 115/6/6 114/8/6
f 115/6/6 116/7/6 117/5/6
f 118/5/6 117/5/6 116/7/6
f 121/6/1 120/6/1 119/6/1
f 120/6/1 121/6/1 122/6/1
f 125/5/2 124/5/2 123/5/2
f 124/5/2 125/5/2 126/5/2
f 129/5/2 128/5/2 127/5/2
f 128/5/2 129/5/2 130/5/2
f 133/5/4 132/7/4 131/5/4
f 134/6/4 132/7/4 133/5/4
f 134/6/4 135/8/4 132/7/4
f 134/6/4 136/8/4 135/8/4
f 137/6/4 136/8/4 134/6/4
f 137/6/4 138/7/4 136/8/4
f 137/6/4 139/5/4 138/7/4
f 139/5/4 137/6/4 140/5/4
