# Blender 5.1.0
# www.blender.org
mtllib wall_arch.mtl
o wall-arch-col
v 0.050000 0.500000 0.050000
v 0.050000 0.500000 0.150000
v -0.050000 0.500000 0.050000
v -0.050000 0.500000 0.150000
v 0.050000 -0.500000 0.150000
v 0.050000 -0.500000 0.050000
v -0.050000 -0.500000 0.150000
v -0.050000 -0.500000 0.050000
v -0.050000 -0.500000 0.050000
v 0.050000 -0.500000 0.050000
v -0.050000 0.500000 0.050000
v 0.050000 0.500000 0.050000
v -0.050000 -0.500000 0.050000
v -0.050000 0.500000 0.050000
v -0.050000 -0.500000 0.150000
v -0.050000 0.500000 0.150000
v 0.050000 -0.500000 0.150000
v -0.050000 -0.500000 0.150000
v 0.050000 0.500000 0.150000
v -0.050000 0.500000 0.150000
v 0.050000 0.500000 0.050000
v 0.050000 -0.500000 0.050000
v 0.050000 0.500000 0.150000
v 0.050000 -0.500000 0.150000
v 0.050000 0.500000 -0.150000
v 0.050000 0.500000 -0.050000
v -0.050000 0.500000 -0.150000
v -0.050000 0.500000 -0.050000
v 0.050000 -0.500000 -0.050000
v 0.050000 -0.500000 -0.150000
v -0.050000 -0.500000 -0.050000
v -0.050000 -0.500000 -0.150000
v -0.050000 -0.500000 -0.150000
v 0.050000 -0.500000 -0.150000
v -0.050000 0.500000 -0.150000
v 0.050000 0.500000 -0.150000
v -0.050000 -0.500000 -0.150000
v -0.050000 0.500000 -0.150000
v -0.050000 -0.500000 -0.050000
v -0.050000 0.500000 -0.050000
v 0.050000 -0.500000 -0.050000
v -0.050000 -0.500000 -0.050000
v 0.050000 0.500000 -0.050000
v -0.050000 0.500000 -0.050000
v 0.050000 0.500000 -0.150000
v 0.050000 -0.500000 -0.150000
v 0.050000 0.500000 -0.050000
v 0.050000 -0.500000 -0.050000
v 0.025000 0.500000 -0.050000
v 0.025000 0.500000 0.050000
v -0.025000 0.500000 -0.050000
v -0.025000 0.500000 0.050000
v 0.025000 -0.500000 0.050000
v 0.025000 -0.500000 -0.050000
v -0.025000 -0.500000 0.050000
v -0.025000 -0.500000 -0.050000
v -0.025000 -0.500000 -0.050000
v -0.025000 0.500000 -0.050000
v -0.025000 -0.500000 0.050000
v -0.025000 0.500000 0.050000
v 0.025000 0.500000 -0.050000
v 0.025000 -0.500000 -0.050000
v 0.025000 0.500000 0.050000
v 0.025000 -0.500000 0.050000
vn -0.0000 1.0000 -0.0000
vn -0.0000 -1.0000 -0.0000
vn -0.0000 -0.0000 -1.0000
vn -1.0000 -0.0000 -0.0000
vn -0.0000 -0.0000 1.0000
vn 1.0000 -0.0000 -0.0000
vt 0.593750 0.175000
vt 0.593750 0.075000
vt 0.968750 0.175000
vt 0.968750 0.075000
vt 0.218750 0.425000
vt 0.218750 0.325000
s 0
usemtl colormap.102
f 3/1/1 2/1/1 1/1/1
f 2/1/1 3/1/1 4/1/1
f 7/2/2 6/2/2 5/2/2
f 6/2/2 7/2/2 8/2/2
f 11/1/3 10/2/3 9/2/3
f 10/2/3 11/1/3 12/1/3
f 15/2/4 14/1/4 13/2/4
f 14/1/4 15/2/4 16/1/4
f 19/1/5 18/2/5 17/2/5
f 18/2/5 19/1/5 20/1/5
f 23/1/6 22/2/6 21/1/6
f 22/2/6 23/1/6 24/2/6
f 27/3/1 26/3/1 25/3/1
f 26/3/1 27/3/1 28/3/1
f 31/4/2 30/4/2 29/4/2
f 30/4/2 31/4/2 32/4/2
f 35/3/3 34/4/3 33/4/3
f 34/4/3 35/3/3 36/3/3
f 39/4/4 38/3/4 37/4/4
f 38/3/4 39/4/4 40/3/4
f 43/3/5 42/4/5 41/4/5
f 42/4/5 43/3/5 44/3/5
f 47/3/6 46/4/6 45/3/6
f 46/4/6 47/3/6 48/4/6
f 51/5/1 50/5/1 49/5/1
f 50/5/1 51/5/1 52/5/1
f 55/6/2 54/6/2 53/6/2
f 54/6/2 55/6/2 56/6/2
f 59/6/4 58/5/4 57/6/4
f 58/5/4 59/6/4 60/5/4
f 63/5/6 62/6/6 61/5/6
f 62/6/6 63/5/6 64/6/6
