# Blender 5.1.0
# www.blender.org
mtllib wall_wood_block.mtl
o wall-wood-block-col
v 0.475000 0.500000 -0.400000
v 0.475000 0.500000 0.400000
v 0.400000 0.500000 -0.475000
v 0.400000 0.500000 0.475000
v -0.400000 0.500000 0.475000
v -0.400000 0.500000 -0.475000
v -0.475000 0.500000 0.400000
v -0.475000 0.500000 -0.400000
v 0.400000 -0.500000 0.475000
v -0.400000 -0.500000 0.475000
v 0.400000 0.500000 0.475000
v -0.400000 0.500000 0.475000
v -0.400000 -0.500000 -0.475000
v 0.400000 -0.500000 -0.475000
v -0.400000 0.500000 -0.475000
v 0.400000 0.500000 -0.475000
v -0.475000 -0.500000 -0.400000
v -0.475000 0.500000 -0.400000
v -0.475000 -0.500000 0.400000
v -0.475000 0.500000 0.400000
v 0.475000 0.500000 -0.400000
v 0.475000 -0.500000 -0.400000
v 0.475000 0.500000 0.400000
v 0.475000 -0.500000 0.400000
v 0.475000 -0.500000 0.400000
v 0.475000 -0.500000 -0.400000
v 0.400000 -0.500000 0.475000
v 0.400000 -0.500000 -0.475000
v -0.400000 -0.500000 0.475000
v -0.400000 -0.500000 -0.475000
v -0.475000 -0.500000 0.400000
v -0.475000 -0.500000 -0.400000
v -0.500000 -0.500000 -0.500000
v -0.500000 0.500000 -0.500000
v -0.500000 -0.500000 -0.400000
v -0.500000 0.500000 -0.400000
v -0.400000 0.500000 -0.500000
v -0.400000 -0.500000 -0.500000
v -0.400000 0.500000 -0.475000
v -0.400000 -0.500000 -0.475000
v -0.475000 -0.500000 -0.400000
v -0.500000 -0.500000 -0.400000
v -0.475000 0.500000 -0.400000
v -0.500000 0.500000 -0.400000
v -0.400000 -0.500000 -0.500000
v -0.500000 -0.500000 -0.500000
v -0.400000 -0.500000 -0.475000
v -0.475000 -0.500000 -0.400000
v -0.500000 -0.500000 -0.400000
v -0.500000 -0.500000 -0.500000
v -0.400000 -0.500000 -0.500000
v -0.500000 0.500000 -0.500000
v -0.400000 0.500000 -0.500000
v -0.400000 0.500000 -0.500000
v -0.400000 0.500000 -0.475000
v -0.500000 0.500000 -0.500000
v -0.475000 0.500000 -0.400000
v -0.500000 0.500000 -0.400000
v -0.500000 -0.500000 0.500000
v -0.500000 0.500000 0.500000
v -0.400000 -0.500000 0.500000
v -0.400000 0.500000 0.500000
v -0.500000 0.500000 0.400000
v -0.500000 -0.500000 0.400000
v -0.475000 0.500000 0.400000
v -0.475000 -0.500000 0.400000
v -0.400000 -0.500000 0.475000
v -0.400000 -0.500000 0.500000
v -0.400000 0.500000 0.475000
v -0.400000 0.500000 0.500000
v -0.500000 -0.500000 0.400000
v -0.500000 -0.500000 0.500000
v -0.475000 -0.500000 0.400000
v -0.400000 -0.500000 0.475000
v -0.400000 -0.500000 0.500000
v -0.500000 -0.500000 0.500000
v -0.500000 -0.500000 0.400000
v -0.500000 0.500000 0.500000
v -0.500000 0.500000 0.400000
v -0.500000 0.500000 0.400000
v -0.475000 0.500000 0.400000
v -0.500000 0.500000 0.500000
v -0.400000 0.500000 0.475000
v -0.400000 0.500000 0.500000
v 0.500000 -0.500000 -0.500000
v 0.500000 0.500000 -0.500000
v 0.400000 -0.500000 -0.500000
v 0.400000 0.500000 -0.500000
v 0.500000 0.500000 -0.400000
v 0.500000 -0.500000 -0.400000
v 0.475000 0.500000 -0.400000
v 0.475000 -0.500000 -0.400000
v 0.400000 -0.500000 -0.475000
v 0.400000 -0.500000 -0.500000
v 0.400000 0.500000 -0.475000
v 0.400000 0.500000 -0.500000
v 0.500000 -0.500000 -0.400000
v 0.500000 -0.500000 -0.500000
v 0.475000 -0.500000 -0.400000
v 0.400000 -0.500000 -0.475000
v 0.400000 -0.500000 -0.500000
v 0.500000 -0.500000 -0.500000
v 0.500000 -0.500000 -0.400000
v 0.500000 0.500000 -0.500000
v 0.500000 0.500000 -0.400000
v 0.500000 0.500000 -0.400000
v 0.475000 0.500000 -0.400000
v 0.500000 0.500000 -0.500000
v 0.400000 0.500000 -0.475000
v 0.400000 0.500000 -0.500000
v 0.500000 -0.500000 0.500000
v 0.500000 0.500000 0.500000
v 0.500000 -0.500000 0.400000
v 0.500000 0.500000 0.400000
v 0.400000 0.500000 0.500000
v 0.400000 -0.500000 0.500000
v 0.400000 0.500000 0.475000
v 0.400000 -0.500000 0.475000
v 0.475000 -0.500000 0.400000
v 0.500000 -0.500000 0.400000
v 0.475000 0.500000 0.400000
v 0.500000 0.500000 0.400000
v 0.400000 -0.500000 0.500000
v 0.500000 -0.500000 0.500000
v 0.400000 -0.500000 0.475000
v 0.475000 -0.500000 0.400000
v 0.500000 -0.500000 0.400000
v 0.500000 -0.500000 0.500000
v 0.400000 -0.500000 0.500000
v 0.500000 0.500000 0.500000
v 0.400000 0.500000 0.500000
v 0.400000 0.500000 0.500000
v 0.400000 0.500000 0.475000
v 0.500000 0.500000 0.500000
v 0.475000 0.500000 0.400000
v 0.500000 0.500000 0.400000
vn -0.0000 1.0000 -0.0000
vn -0.0000 -0.0000 1.0000
vn -0.0000 -0.0000 -1.0000
vn -1.0000 -0.0000 -0.0000
vn 1.0000 -0.0000 -0.0000
vn -0.0000 -1.0000 -0.0000
vt 0.718750 0.175000
vt 0.718750 0.075000
vt 0.593750 0.075000
vt 0.593750 0.175000
s 0
usemtl colormap.135
f 3/1/1 2/1/1 1/1/1
f 2/1/1 3/1/1 4/1/1
f 4/1/1 3/1/1 5/1/1
f 5/1/1 3/1/1 6/1/1
f 5/1/1 6/1/1 7/1/1
f 7/1/1 6/1/1 8/1/1
f 11/1/2 10/2/2 9/2/2
f 10/2/2 11/1/2 12/1/2
f 15/1/3 14/2/3 13/2/3
f 14/2/3 15/1/3 16/1/3
f 19/2/4 18/1/4 17/2/4
f 18/1/4 19/2/4 20/1/4
f 23/1/5 22/2/5 21/1/5
f 22/2/5 23/1/5 24/2/5
f 27/2/6 26/2/6 25/2/6
f 26/2/6 27/2/6 28/2/6
f 28/2/6 27/2/6 29/2/6
f 28/2/6 29/2/6 30/2/6
f 30/2/6 29/2/6 31/2/6
f 30/2/6 31/2/6 32/2/6
f 35/3/4 34/4/4 33/3/4
f 34/4/4 35/3/4 36/4/4
f 39/4/5 38/3/5 37/4/5
f 38/3/5 39/4/5 40/3/5
f 43/4/2 42/3/2 41/3/2
f 42/3/2 43/4/2 44/4/2
f 47/3/6 46/3/6 45/3/6
f 46/3/6 47/3/6 48/3/6
f 46/3/6 48/3/6 49/3/6
f 52/4/3 51/3/3 50/3/3
f 51/3/3 52/4/3 53/4/3
f 56/4/1 55/4/1 54/4/1
f 55/4/1 56/4/1 57/4/1
f 57/4/1 56/4/1 58/4/1
f 61/3/2 60/4/2 59/3/2
f 60/4/2 61/3/2 62/4/2
f 65/4/3 64/3/3 63/4/3
f 64/3/3 65/4/3 66/3/3
f 69/4/5 68/3/5 67/3/5
f 68/3/5 69/4/5 70/4/5
f 73/3/6 72/3/6 71/3/6
f 72/3/6 73/3/6 74/3/6
f 72/3/6 74/3/6 75/3/6
f 78/4/4 77/3/4 76/3/4
f 77/3/4 78/4/4 79/4/4
f 82/4/1 81/4/1 80/4/1
f 81/4/1 82/4/1 83/4/1
f 83/4/1 82/4/1 84/4/1
f 87/3/3 86/4/3 85/3/3
f 86/4/3 87/3/3 88/4/3
f 91/4/2 90/3/2 89/4/2
f 90/3/2 91/4/2 92/3/2
f 95/4/4 94/3/4 93/3/4
f 94/3/4 95/4/4 96/4/4
f 99/3/6 98/3/6 97/3/6
f 98/3/6 99/3/6 100/3/6
f 98/3/6 100/3/6 101/3/6
f 104/4/5 103/3/5 102/3/5
f 103/3/5 104/4/5 105/4/5
f 108/4/1 107/4/1 106/4/1
f 107/4/1 108/4/1 109/4/1
f 109/4/1 108/4/1 110/4/1
f 113/3/5 112/4/5 111/3/5
f 112/4/5 113/3/5 114/4/5
f 117/4/4 116/3/4 115/4/4
f 116/3/4 117/4/4 118/3/4
f 121/4/3 120/3/3 119/3/3
f 120/3/3 121/4/3 122/4/3
f 125/3/6 124/3/6 123/3/6
f 124/3/6 125/3/6 126/3/6
f 124/3/6 126/3/6 127/3/6
f 130/4/2 129/3/2 128/3/2
f 129/3/2 130/4/2 131/4/2
f 134/4/1 133/4/1 132/4/1
f 133/4/1 134/4/1 135/4/1
f 135/4/1 134/4/1 136/4/1
