# Blender 5.1.0
# www.blender.org
mtllib wall_arch_top_detail.mtl
o wall-arch-top-detail-col
v 0.050000 0.410035 0.309592
v 0.050000 0.410035 0.409592
v -0.050000 0.410035 0.309592
v -0.050000 0.410035 0.409592
v 0.050000 -0.589965 0.409592
v 0.050000 -0.589965 0.309592
v -0.050000 -0.589965 0.409592
v -0.050000 -0.589965 0.309592
v -0.050000 -0.589965 0.309592
v 0.050000 -0.589965 0.309592
v -0.050000 0.410035 0.309592
v 0.050000 0.410035 0.309592
v -0.050000 -0.589965 0.309592
v -0.050000 0.410035 0.309592
v -0.050000 -0.589965 0.409592
v -0.050000 0.410035 0.409592
v 0.050000 -0.589965 0.409592
v -0.050000 -0.589965 0.409592
v 0.050000 0.410035 0.409592
v -0.050000 0.410035 0.409592
v 0.050000 0.410035 0.309592
v 0.050000 -0.589965 0.309592
v 0.050000 0.410035 0.409592
v 0.050000 -0.589965 0.409592
v -0.025000 0.203191 -0.485987
v -0.025000 0.302336 -0.472934
v -0.025000 0.182776 -0.383353
v -0.025000 0.410035 0.309592
v -0.025000 0.149139 -0.284261
v -0.025000 0.410035 -0.590408
v -0.025000 0.310035 -0.590408
v -0.025000 0.189458 -0.140408
v -0.025000 0.124053 -0.042523
v -0.025000 0.102856 -0.190408
v -0.025000 -0.024279 -0.024722
v -0.025000 0.044718 -0.103399
v -0.025000 -0.102956 0.044275
v -0.025000 -0.189965 0.102412
v -0.025000 -0.283818 0.148696
v -0.025000 -0.245550 0.241084
v -0.025000 -0.357028 0.278925
v -0.025000 -0.589965 0.309592
v -0.025000 -0.589965 0.209592
v -0.025000 -0.485544 0.202748
v -0.025000 -0.382910 0.182333
v 0.025000 0.410035 -0.590408
v 0.025000 0.310035 -0.590408
v 0.025000 0.410035 0.309592
v 0.025000 0.302336 -0.472934
v 0.025000 0.182776 -0.383353
v 0.025000 0.203191 -0.485987
v 0.025000 0.149139 -0.284261
v 0.025000 0.189458 -0.140408
v 0.025000 0.124053 -0.042523
v 0.025000 0.102856 -0.190408
v 0.025000 -0.024279 -0.024722
v 0.025000 0.044718 -0.103399
v 0.025000 -0.102956 0.044275
v 0.025000 -0.189965 0.102412
v 0.025000 -0.283818 0.148696
v 0.025000 -0.245550 0.241084
v 0.025000 -0.357028 0.278925
v 0.025000 -0.589965 0.309592
v 0.025000 -0.589965 0.209592
v 0.025000 -0.485544 0.202748
v 0.025000 -0.382910 0.182333
v 0.025000 0.410035 -0.590408
v 0.025000 0.410035 0.309592
v -0.025000 0.410035 -0.590408
v -0.025000 0.410035 0.309592
v 0.025000 -0.589965 0.309592
v 0.025000 -0.589965 0.209592
v -0.025000 -0.589965 0.309592
v -0.025000 -0.589965 0.209592
v -0.025000 0.310035 -0.590408
v 0.025000 0.310035 -0.590408
v -0.025000 0.410035 -0.590408
v 0.025000 0.410035 -0.590408
v -0.050000 -0.408791 0.085740
v -0.050000 -0.382910 0.182333
v -0.050000 -0.498596 0.103604
v -0.050000 -0.589965 0.109592
v -0.050000 -0.589965 0.209592
v -0.050000 -0.485544 0.202748
v -0.050000 0.104047 -0.499039
v -0.050000 0.203191 -0.485987
v -0.050000 0.086183 -0.409235
v -0.050000 0.182776 -0.383353
v -0.050000 0.056751 -0.322529
v -0.050000 0.149139 -0.284261
v -0.050000 0.016253 -0.240408
v -0.050000 0.102856 -0.190408
v -0.050000 -0.034617 -0.164275
v -0.050000 0.044718 -0.103399
v -0.050000 -0.094990 -0.095433
v -0.050000 -0.024279 -0.024722
v -0.050000 -0.163832 -0.035061
v -0.050000 -0.239965 0.015810
v -0.050000 -0.102956 0.044275
v -0.050000 -0.322086 0.056308
v -0.050000 -0.189965 0.102412
v -0.050000 -0.283818 0.148696
v 0.050000 0.016253 -0.240408
v 0.050000 0.056751 -0.322529
v -0.050000 0.016253 -0.240408
v -0.050000 0.056751 -0.322529
v 0.050000 0.104047 -0.499039
v 0.050000 0.086183 -0.409235
v 0.050000 0.203191 -0.485987
v 0.050000 0.182776 -0.383353
v 0.050000 0.056751 -0.322529
v 0.050000 0.149139 -0.284261
v 0.050000 0.016253 -0.240408
v 0.050000 0.102856 -0.190408
v 0.050000 0.149139 -0.284261
v 0.050000 0.102856 -0.190408
v -0.050000 0.149139 -0.284261
v -0.050000 0.102856 -0.190408
v 0.050000 0.203191 -0.485987
v 0.050000 0.182776 -0.383353
v -0.050000 0.203191 -0.485987
v -0.050000 0.182776 -0.383353
v -0.050000 0.104047 -0.499039
v 0.050000 0.104047 -0.499039
v -0.050000 0.203191 -0.485987
v 0.050000 0.203191 -0.485987
v 0.050000 0.086183 -0.409235
v 0.050000 0.104047 -0.499039
v -0.050000 0.086183 -0.409235
v -0.050000 0.104047 -0.499039
v 0.050000 0.182776 -0.383353
v 0.050000 0.149139 -0.284261
v -0.050000 0.182776 -0.383353
v -0.050000 0.149139 -0.284261
v -0.050000 -0.485544 0.202748
v -0.050000 -0.382910 0.182333
v 0.050000 -0.485544 0.202748
v 0.050000 -0.382910 0.182333
v -0.050000 -0.189965 0.102412
v -0.050000 -0.102956 0.044275
v 0.050000 -0.189965 0.102412
v 0.050000 -0.102956 0.044275
v 0.050000 0.044718 -0.103399
v 0.050000 -0.024279 -0.024722
v -0.050000 0.044718 -0.103399
v -0.050000 -0.024279 -0.024722
v -0.050000 -0.283818 0.148696
v -0.050000 -0.189965 0.102412
v 0.050000 -0.283818 0.148696
v 0.050000 -0.189965 0.102412
v 0.050000 -0.094990 -0.095433
v 0.050000 -0.034617 -0.164275
v -0.050000 -0.094990 -0.095433
v -0.050000 -0.034617 -0.164275
v -0.050000 -0.589965 0.109592
v 0.050000 -0.589965 0.109592
v -0.050000 -0.498596 0.103604
v 0.050000 -0.498596 0.103604
v 0.050000 0.056751 -0.322529
v 0.050000 0.086183 -0.409235
v -0.050000 0.056751 -0.322529
v -0.050000 0.086183 -0.409235
v 0.050000 -0.589965 0.109592
v -0.050000 -0.589965 0.109592
v 0.050000 -0.589965 0.209592
v -0.050000 -0.589965 0.209592
v -0.050000 -0.239965 0.015810
v 0.050000 -0.239965 0.015810
v -0.050000 -0.163832 -0.035061
v 0.050000 -0.163832 -0.035061
v -0.050000 -0.102956 0.044275
v -0.050000 -0.024279 -0.024722
v 0.050000 -0.102956 0.044275
v 0.050000 -0.024279 -0.024722
v 0.050000 -0.408791 0.085740
v 0.050000 -0.498596 0.103604
v 0.050000 -0.382910 0.182333
v 0.050000 -0.589965 0.109592
v 0.050000 -0.589965 0.209592
v 0.050000 -0.485544 0.202748
v -0.050000 -0.322086 0.056308
v 0.050000 -0.322086 0.056308
v -0.050000 -0.239965 0.015810
v 0.050000 -0.239965 0.015810
v 0.050000 -0.034617 -0.164275
v 0.050000 -0.094990 -0.095433
v 0.050000 0.044718 -0.103399
v 0.050000 -0.024279 -0.024722
v 0.050000 -0.163832 -0.035061
v 0.050000 -0.239965 0.015810
v 0.050000 -0.102956 0.044275
v 0.050000 -0.322086 0.056308
v 0.050000 -0.189965 0.102412
v 0.050000 -0.283818 0.148696
v -0.050000 -0.498596 0.103604
v 0.050000 -0.498596 0.103604
v -0.050000 -0.408791 0.085740
v 0.050000 -0.408791 0.085740
v -0.050000 -0.163832 -0.035061
v 0.050000 -0.163832 -0.035061
v -0.050000 -0.094990 -0.095433
v 0.050000 -0.094990 -0.095433
v -0.050000 -0.589965 0.209592
v -0.050000 -0.485544 0.202748
v 0.050000 -0.589965 0.209592
v 0.050000 -0.485544 0.202748
v -0.080000 -0.322086 0.056308
v -0.080000 -0.245550 0.241084
v -0.080000 -0.408791 0.085740
v -0.080000 -0.357028 0.278925
v -0.080000 0.016253 -0.240408
v -0.080000 0.189458 -0.140408
v -0.080000 -0.034617 -0.164275
v -0.080000 0.124053 -0.042523
v -0.080000 0.310035 -0.590408
v -0.080000 0.302336 -0.472934
v -0.080000 0.110035 -0.590408
v -0.080000 0.104047 -0.499040
v -0.080000 -0.357028 0.278925
v -0.080000 -0.245550 0.241084
v 0.080000 -0.357028 0.278925
v 0.080000 -0.245550 0.241084
v 0.080000 -0.322086 0.056308
v 0.080000 -0.408791 0.085740
v 0.080000 -0.245550 0.241084
v 0.080000 -0.357028 0.278925
v 0.080000 -0.408791 0.085740
v -0.080000 -0.408791 0.085740
v 0.080000 -0.357028 0.278925
v -0.080000 -0.357028 0.278925
v 0.080000 0.104047 -0.499040
v -0.080000 0.104047 -0.499040
v 0.080000 0.302336 -0.472934
v -0.080000 0.302336 -0.472934
v 0.080000 -0.322086 0.056308
v 0.080000 -0.245550 0.241084
v -0.080000 -0.322086 0.056308
v -0.080000 -0.245550 0.241084
v -0.080000 0.016253 -0.240408
v 0.080000 0.016253 -0.240408
v -0.080000 0.189458 -0.140408
v 0.080000 0.189458 -0.140408
v -0.080000 -0.408791 0.085740
v 0.080000 -0.408791 0.085740
v -0.080000 -0.322086 0.056308
v 0.080000 -0.322086 0.056308
v 0.080000 0.110035 -0.590408
v -0.080000 0.110035 -0.590408
v 0.080000 0.104047 -0.499040
v -0.080000 0.104047 -0.499040
v 0.080000 -0.034617 -0.164275
v 0.080000 0.016253 -0.240408
v -0.080000 -0.034617 -0.164275
v -0.080000 0.016253 -0.240408
v -0.080000 -0.034617 -0.164275
v -0.080000 0.124053 -0.042523
v 0.080000 -0.034617 -0.164275
v 0.080000 0.124053 -0.042523
v 0.080000 0.016253 -0.240408
v 0.080000 -0.034617 -0.164275
v 0.080000 0.189458 -0.140408
v 0.080000 0.124053 -0.042523
v 0.080000 0.310035 -0.590408
v 0.080000 0.110035 -0.590408
v 0.080000 0.302336 -0.472934
v 0.080000 0.104047 -0.499040
v 0.080000 0.189458 -0.140408
v 0.080000 0.124053 -0.042523
v -0.080000 0.189458 -0.140408
v -0.080000 0.124053 -0.042523
v 0.080000 0.310035 -0.590408
v 0.080000 0.302336 -0.472934
v -0.080000 0.310035 -0.590408
v -0.080000 0.302336 -0.472934
v 0.080000 0.110035 -0.590408
v 0.080000 0.310035 -0.590408
v -0.080000 0.110035 -0.590408
v -0.080000 0.310035 -0.590408
vn -0.0000 1.0000 -0.0000
vn -0.0000 -1.0000 -0.0000
vn -0.0000 -0.0000 -1.0000
vn -1.0000 -0.0000 -0.0000
vn -0.0000 -0.0000 1.0000
vn 1.0000 -0.0000 -0.0000
vn -0.0000 -0.8969 -0.4423
vn -0.0000 -0.9239 -0.3827
vn -0.0000 0.9239 0.3827
vn -0.0000 0.8969 0.4423
vn -0.0000 0.9808 0.1951
vn -0.0000 0.9659 0.2588
vn -0.0000 0.1305 -0.9914
vn -0.0000 -0.9659 -0.2588
vn -0.0000 -0.9808 -0.1951
vn -0.0000 0.1305 0.9914
vn -0.0000 0.1951 0.9808
vn -0.0000 0.5000 0.8660
vn -0.0000 0.6088 0.7934
vn -0.0000 0.7518 0.6593
vn -0.0000 0.7071 0.7071
vn -0.0000 0.4423 0.8969
vn -0.0000 -0.7071 -0.7071
vn -0.0000 -0.7518 -0.6593
vn -0.0000 -0.1305 -0.9914
vn -0.0000 -0.0654 -0.9979
vn -0.0000 -0.6088 -0.7934
vn -0.0000 -0.5000 -0.8660
vn -0.0000 0.6088 0.7933
vn -0.0000 -0.4423 -0.8969
vn -0.0000 -0.1951 -0.9808
vn -0.0000 -0.6088 -0.7933
vn -0.0000 0.0654 0.9979
vn -0.0000 0.3214 0.9469
vn -0.0000 -0.9659 0.2588
vn -0.0000 -0.1305 0.9914
vn -0.0000 0.9239 -0.3827
vn -0.0000 0.5000 -0.8660
vn -0.0000 -0.3214 -0.9469
vn -0.0000 -0.9979 -0.0654
vn -0.0000 -0.8315 -0.5556
vn -0.0000 -0.6088 0.7934
vn -0.0000 0.8315 0.5556
vn -0.0000 0.9979 0.0654
vt 0.593750 0.175000
vt 0.593750 0.075000
vt 0.218750 0.402274
vt 0.218750 0.414230
vt 0.218750 0.404316
vt 0.218750 0.425000
vt 0.218750 0.398910
vt 0.218750 0.415000
vt 0.218750 0.402942
vt 0.218750 0.396402
vt 0.218750 0.394282
vt 0.218750 0.381569
vt 0.218750 0.388468
vt 0.218750 0.373701
vt 0.218750 0.365000
vt 0.218750 0.355615
vt 0.218750 0.359442
vt 0.218750 0.348294
vt 0.218750 0.325000
vt 0.218750 0.335442
vt 0.218750 0.345706
vt 0.968750 0.086520
vt 0.968750 0.101105
vt 0.968750 0.097842
vt 0.968750 0.075000
vt 0.968750 0.088165
vt 0.968750 0.160248
vt 0.968750 0.175000
vt 0.968750 0.162500
vt 0.968750 0.172426
vt 0.968750 0.156537
vt 0.968750 0.168185
vt 0.968750 0.151431
vt 0.968750 0.162350
vt 0.968750 0.137406
vt 0.968750 0.155020
vt 0.968750 0.145017
vt 0.968750 0.146321
vt 0.968750 0.128726
vt 0.968750 0.119128
vt 0.968750 0.136401
vt 0.968750 0.108774
vt 0.968750 0.125431
vt 0.968750 0.113599
vt 0.968750 0.097709
vt 0.968750 0.087062
vt 0.968750 0.082201
vt 0.968750 0.127053
vt 0.968750 0.158226
vt 0.968750 0.134130
vt 0.968750 0.149127
vt 0.968750 0.147177
vt 0.968750 0.173929
vt 0.968750 0.146344
s 0
usemtl colormap.100
f 3/1/1 2/1/1 1/1/1
f 2/1/1 3/1/1 4/1/1
f 7/2/2 6/2/2 5/2/2
f 6/2/2 7/2/2 8/2/2
f 11/1/3 10/2/3 9/2/3
f 10/2/3 11/1/3 12/1/3
f 15/2/4 14/1/4 13/2/4
f 14/1/4 15/2/4 16/1/4
f 19/1/5 18/2/5 17/2/5
f 18/2/5 19/1/5 20/1/5
f 23/1/6 22/2/6 21/1/6
f 22/2/6 23/1/6 24/2/6
f 27/3/4 26/4/4 25/5/4
f 28/6/4 26/4/4 27/3/4
f 28/6/4 27/3/4 29/7/4
f 30/6/4 26/4/4 28/6/4
f 26/4/4 30/6/4 31/8/4
f 28/6/4 29/7/4 32/9/4
f 28/6/4 32/9/4 33/10/4
f 32/9/4 29/7/4 34/11/4
f 28/6/4 33/10/4 35/12/4
f 35/12/4 33/10/4 36/13/4
f 28/6/4 35/12/4 37/14/4
f 28/6/4 37/14/4 38/15/4
f 28/6/4 38/15/4 39/16/4
f 28/6/4 39/16/4 40/17/4
f 28/6/4 40/17/4 41/18/4
f 28/6/4 41/18/4 42/19/4
f 41/18/4 43/19/4 42/19/4
f 41/18/4 44/20/4 43/19/4
f 44/20/4 41/18/4 45/21/4
f 48/6/6 47/8/6 46/6/6
f 47/8/6 48/6/6 49/4/6
f 49/4/6 48/6/6 50/3/6
f 50/3/6 51/5/6 49/4/6
f 50/3/6 48/6/6 52/7/6
f 52/7/6 48/6/6 53/9/6
f 53/9/6 48/6/6 54/10/6
f 52/7/6 53/9/6 55/11/6
f 54/10/6 48/6/6 56/12/6
f 56/12/6 57/13/6 54/10/6
f 56/12/6 48/6/6 58/14/6
f 58/14/6 48/6/6 59/15/6
f 59/15/6 48/6/6 60/16/6
f 60/16/6 48/6/6 61/17/6
f 61/17/6 48/6/6 62/18/6
f 63/19/6 62/18/6 48/6/6
f 64/19/6 62/18/6 63/19/6
f 65/20/6 62/18/6 64/19/6
f 62/18/6 65/20/6 66/21/6
f 69/6/1 68/6/1 67/6/1
f 68/6/1 69/6/1 70/6/1
f 73/19/2 72/19/2 71/19/2
f 72/19/2 73/19/2 74/19/2
f 77/6/3 76/8/3 75/8/3
f 76/8/3 77/6/3 78/6/3
f 81/22/4 80/23/4 79/24/4
f 80/23/4 81/22/4 82/25/4
f 80/23/4 82/25/4 83/25/4
f 80/23/4 83/25/4 84/26/4
f 87/27/4 86/28/4 85/29/4
f 86/28/4 87/27/4 88/30/4
f 88/30/4 87/27/4 89/31/4
f 88/30/4 89/31/4 90/32/4
f 90/32/4 89/31/4 91/33/4
f 90/32/4 91/33/4 92/34/4
f 95/35/4 94/36/4 93/37/4
f 94/36/4 95/35/4 96/38/4
f 96/38/4 95/35/4 97/39/4
f 96/38/4 97/39/4 98/40/4
f 96/38/4 98/40/4 99/41/4
f 99/41/4 98/40/4 100/42/4
f 99/41/4 100/42/4 101/43/4
f 101/43/4 100/42/4 102/44/4
s 1
f 105/33/7 104/31/8 103/33/7
f 104/31/8 105/33/7 106/31/8
s 0
f 109/28/6 108/27/6 107/29/6
f 108/27/6 109/28/6 110/30/6
f 108/27/6 110/30/6 111/31/6
f 111/31/6 110/30/6 112/32/6
f 111/31/6 112/32/6 113/33/6
f 113/33/6 112/32/6 114/34/6
s 1
f 117/32/9 116/34/10 115/32/9
f 116/34/10 117/32/9 118/34/10
f 121/28/11 120/30/12 119/28/11
f 120/30/12 121/28/11 122/30/12
s 0
f 125/28/13 124/29/13 123/29/13
f 124/29/13 125/28/13 126/28/13
s 1
f 129/27/14 128/29/15 127/27/14
f 128/29/15 129/27/14 130/29/15
f 133/30/12 132/32/9 131/30/12
f 132/32/9 133/30/12 134/32/9
f 137/26/16 136/23/17 135/26/16
f 136/23/17 137/26/16 138/23/17
f 141/43/18 140/41/19 139/43/18
f 140/41/19 141/43/18 142/41/19
f 145/36/20 144/38/21 143/36/20
f 144/38/21 145/36/20 146/38/21
f 149/44/22 148/43/18 147/44/22
f 148/43/18 149/44/22 150/43/18
f 153/35/23 152/37/24 151/35/23
f 152/37/24 153/35/23 154/37/24
f 157/22/25 156/25/26 155/25/26
f 156/25/26 157/22/25 158/22/25
f 161/31/8 160/27/14 159/31/8
f 160/27/14 161/31/8 162/27/14
s 0
f 165/25/2 164/25/2 163/25/2
f 164/25/2 165/25/2 166/25/2
s 1
f 169/39/27 168/40/28 167/40/28
f 168/40/28 169/39/27 170/39/27
f 173/41/29 172/38/21 171/41/29
f 172/38/21 173/41/29 174/38/21
s 0
f 177/23/6 176/22/6 175/24/6
f 176/22/6 177/23/6 178/25/6
f 178/25/6 177/23/6 179/25/6
f 179/25/6 177/23/6 180/26/6
s 1
f 183/40/28 182/42/30 181/42/30
f 182/42/30 183/40/28 184/40/28
s 0
f 187/36/6 186/35/6 185/37/6
f 186/35/6 187/36/6 188/38/6
f 186/35/6 188/38/6 189/39/6
f 189/39/6 188/38/6 190/40/6
f 190/40/6 188/38/6 191/41/6
f 190/40/6 191/41/6 192/42/6
f 192/42/6 191/41/6 193/43/6
f 192/42/6 193/43/6 194/44/6
s 1
f 197/24/31 196/22/25 195/22/25
f 196/22/25 197/24/31 198/24/31
f 201/35/23 200/39/32 199/39/32
f 200/39/32 201/35/23 202/35/23
f 205/25/33 204/26/16 203/25/33
f 204/26/16 205/25/33 206/26/16
s 0
f 209/25/4 208/45/4 207/46/4
f 208/45/4 209/25/4 210/47/4
f 213/48/4 212/49/4 211/50/4
f 212/49/4 213/48/4 214/51/4
f 217/52/4 216/53/4 215/28/4
f 216/53/4 217/52/4 218/54/4
f 221/47/34 220/45/34 219/47/34
f 220/45/34 221/47/34 222/45/34
f 225/45/6 224/25/6 223/46/6
f 224/25/6 225/45/6 226/47/6
f 229/47/35 228/25/35 227/25/35
f 228/25/35 229/47/35 230/47/35
f 233/53/36 232/54/36 231/54/36
f 232/54/36 233/53/36 234/53/36
f 237/46/37 236/45/37 235/46/37
f 236/45/37 237/46/37 238/45/37
f 241/49/38 240/50/38 239/50/38
f 240/50/38 241/49/38 242/49/38
f 245/46/39 244/25/39 243/25/39
f 244/25/39 245/46/39 246/46/39
f 249/54/40 248/52/40 247/52/40
f 248/52/40 249/54/40 250/54/40
f 253/48/41 252/50/41 251/48/41
s 1
f 252/50/41 253/48/41 254/50/41
s 0
f 257/48/42 256/51/42 255/48/42
f 256/51/42 257/48/42 258/51/42
f 261/49/6 260/48/6 259/50/6
f 260/48/6 261/49/6 262/51/6
f 265/53/6 264/52/6 263/28/6
f 264/52/6 265/53/6 266/54/6
f 269/49/43 268/51/43 267/49/43
f 268/51/43 269/49/43 270/51/43
f 273/28/44 272/53/44 271/28/44
f 272/53/44 273/28/44 274/53/44
f 277/52/3 276/28/3 275/52/3
f 276/28/3 277/52/3 278/28/3
