# Blender 5.1.0
# www.blender.org
mtllib wall_corner_detail.mtl
o wall-corner-detail-col
v -0.057711 0.300000 -0.072289
v -0.057711 0.500000 -0.072289
v -0.057711 0.300000 0.027711
v -0.057711 0.500000 0.027711
v 0.102289 -0.500000 0.002711
v 0.072289 -0.500000 0.002711
v 0.102289 -0.500000 0.027711
v 0.072289 -0.500000 0.057711
v 0.072289 -0.500000 0.027711
v -0.027711 -0.500000 0.057711
v -0.027711 -0.500000 0.027711
v -0.057711 -0.500000 0.027711
v -0.057711 -0.500000 -0.072289
v -0.027711 -0.500000 -0.072289
v -0.027711 -0.500000 -0.102289
v -0.002711 -0.500000 -0.072289
v -0.002711 -0.500000 -0.102289
v 0.087289 0.100000 0.027711
v 0.072289 0.100000 0.042711
v 0.087289 0.300000 0.027711
v 0.072289 0.300000 0.042711
v 0.072289 0.100000 0.042711
v -0.027711 0.100000 0.042711
v 0.072289 0.300000 0.042711
v -0.027711 0.300000 0.042711
v -0.002711 0.500000 -0.102289
v -0.002711 0.300000 -0.102289
v -0.002711 0.500000 -0.072289
v -0.002711 0.300000 -0.087289
v -0.002711 0.100000 -0.087289
v -0.002711 -0.100000 -0.087289
v -0.002711 -0.100000 -0.102289
v -0.002711 0.100000 -0.102289
v -0.002711 -0.300000 -0.087289
v -0.002711 -0.500000 -0.072289
v -0.002711 -0.500000 -0.102289
v -0.002711 -0.300000 -0.102289
v -0.057711 -0.100000 0.027711
v -0.057711 0.100000 0.027711
v -0.027711 -0.100000 0.057711
v -0.027711 0.100000 0.057711
v -0.002711 -0.500000 -0.072289
v -0.027711 -0.500000 -0.072289
v -0.002711 0.500000 -0.072289
v -0.027711 0.500000 -0.072289
v 0.102289 -0.100000 0.027711
v 0.072289 -0.100000 0.057711
v 0.102289 0.100000 0.027711
v 0.072289 0.100000 0.057711
v -0.002711 0.500000 -0.102289
v -0.002711 0.500000 -0.072289
v -0.027711 0.500000 -0.102289
v -0.027711 0.500000 -0.072289
v -0.057711 0.500000 -0.072289
v -0.027711 0.500000 0.027711
v -0.057711 0.500000 0.027711
v -0.027711 0.500000 0.057711
v 0.072289 0.500000 0.057711
v 0.072289 0.500000 0.027711
v 0.072289 0.500000 0.002711
v 0.102289 0.500000 0.027711
v 0.102289 0.500000 0.002711
v 0.072289 0.300000 0.057711
v -0.027711 0.300000 0.057711
v 0.072289 0.500000 0.057711
v -0.027711 0.500000 0.057711
v 0.102289 -0.300000 0.002711
v 0.102289 -0.500000 0.002711
v 0.102289 -0.300000 0.027711
v 0.102289 -0.500000 0.027711
v 0.102289 0.100000 0.002711
v 0.102289 -0.100000 0.002711
v 0.102289 0.100000 0.027711
v 0.102289 -0.100000 0.027711
v -0.057711 -0.500000 0.027711
v -0.057711 -0.300000 0.027711
v -0.027711 -0.500000 0.057711
v -0.027711 -0.300000 0.057711
v 0.072289 -0.500000 0.027711
v 0.072289 0.500000 0.027711
v -0.027711 -0.500000 0.027711
v -0.027711 0.500000 0.027711
v -0.002711 -0.300000 -0.102289
v -0.002711 -0.300000 -0.087289
v -0.027711 -0.300000 -0.102289
v -0.027711 -0.300000 -0.087289
v -0.057711 -0.300000 -0.072289
v -0.042711 -0.300000 -0.072289
v -0.042711 -0.300000 0.027711
v -0.057711 -0.300000 0.027711
v -0.027711 -0.300000 0.057711
v -0.027711 -0.300000 0.042711
v 0.072289 -0.300000 0.057711
v 0.072289 -0.300000 0.042711
v 0.087289 -0.300000 0.027711
v 0.102289 -0.300000 0.027711
v 0.087289 -0.300000 0.002711
v 0.102289 -0.300000 0.002711
v -0.057711 -0.500000 -0.072289
v -0.057711 -0.300000 -0.072289
v -0.057711 -0.500000 0.027711
v -0.057711 -0.300000 0.027711
v 0.102289 0.300000 0.027711
v 0.072289 0.300000 0.057711
v 0.102289 0.500000 0.027711
v 0.072289 0.500000 0.057711
v -0.027711 0.300000 -0.102289
v -0.002711 0.300000 -0.102289
v -0.027711 0.500000 -0.102289
v -0.002711 0.500000 -0.102289
v -0.042711 0.100000 -0.072289
v -0.027711 0.100000 -0.087289
v -0.042711 0.300000 -0.072289
v -0.027711 0.300000 -0.087289
v -0.027711 0.500000 -0.072289
v -0.027711 -0.500000 -0.072289
v -0.027711 0.500000 0.027711
v -0.027711 -0.500000 0.027711
v -0.027711 0.100000 -0.087289
v -0.002711 0.100000 -0.087289
v -0.027711 0.300000 -0.087289
v -0.002711 0.300000 -0.087289
v -0.057711 0.300000 -0.072289
v -0.027711 0.300000 -0.102289
v -0.057711 0.500000 -0.072289
v -0.027711 0.500000 -0.102289
v -0.042711 0.100000 0.027711
v -0.042711 0.300000 0.027711
v -0.027711 0.100000 0.042711
v -0.027711 0.300000 0.042711
v -0.057711 0.300000 0.027711
v -0.057711 0.500000 0.027711
v -0.027711 0.300000 0.057711
v -0.027711 0.500000 0.057711
v 0.072289 -0.300000 0.042711
v -0.027711 -0.300000 0.042711
v 0.072289 -0.100000 0.042711
v -0.027711 -0.100000 0.042711
v -0.027711 -0.500000 -0.102289
v -0.002711 -0.500000 -0.102289
v -0.027711 -0.300000 -0.102289
v -0.002711 -0.300000 -0.102289
v -0.002711 -0.100000 -0.102289
v -0.027711 -0.100000 -0.102289
v -0.002711 -0.100000 -0.087289
v -0.027711 -0.100000 -0.087289
v -0.042711 -0.100000 -0.072289
v -0.057711 -0.100000 -0.072289
v -0.057711 -0.100000 0.027711
v -0.042711 -0.100000 0.027711
v -0.027711 -0.100000 0.042711
v -0.027711 -0.100000 0.057711
v 0.072289 -0.100000 0.042711
v 0.072289 -0.100000 0.057711
v 0.087289 -0.100000 0.027711
v 0.102289 -0.100000 0.027711
v 0.087289 -0.100000 0.002711
v 0.102289 -0.100000 0.002711
v -0.042711 -0.300000 -0.072289
v -0.042711 -0.100000 -0.072289
v -0.042711 -0.300000 0.027711
v -0.042711 -0.100000 0.027711
v -0.002711 0.100000 -0.102289
v -0.002711 0.100000 -0.087289
v -0.027711 0.100000 -0.102289
v -0.027711 0.100000 -0.087289
v -0.057711 0.100000 -0.072289
v -0.042711 0.100000 -0.072289
v -0.042711 0.100000 0.027711
v -0.057711 0.100000 0.027711
v -0.027711 0.100000 0.057711
v -0.027711 0.100000 0.042711
v 0.072289 0.100000 0.057711
v 0.072289 0.100000 0.042711
v 0.087289 0.100000 0.027711
v 0.102289 0.100000 0.027711
v 0.087289 0.100000 0.002711
v 0.102289 0.100000 0.002711
v -0.002711 0.300000 -0.102289
v -0.027711 0.300000 -0.102289
v -0.002711 0.300000 -0.087289
v -0.027711 0.300000 -0.087289
v -0.042711 0.300000 -0.072289
v -0.057711 0.300000 -0.072289
v -0.057711 0.300000 0.027711
v -0.042711 0.300000 0.027711
v -0.027711 0.300000 0.042711
v -0.027711 0.300000 0.057711
v 0.072289 0.300000 0.042711
v 0.072289 0.300000 0.057711
v 0.087289 0.300000 0.027711
v 0.102289 0.300000 0.027711
v 0.087289 0.300000 0.002711
v 0.102289 0.300000 0.002711
v -0.057711 -0.100000 -0.072289
v -0.057711 0.100000 -0.072289
v -0.057711 -0.100000 0.027711
v -0.057711 0.100000 0.027711
v 0.087289 -0.300000 0.027711
v 0.072289 -0.300000 0.042711
v 0.087289 -0.100000 0.027711
v 0.072289 -0.100000 0.042711
v 0.087289 -0.100000 0.002711
v 0.087289 -0.300000 0.002711
v 0.087289 -0.100000 0.027711
v 0.087289 -0.300000 0.027711
v 0.072289 -0.100000 0.057711
v -0.027711 -0.100000 0.057711
v 0.072289 0.100000 0.057711
v -0.027711 0.100000 0.057711
v -0.057711 -0.500000 -0.072289
v -0.027711 -0.500000 -0.102289
v -0.057711 -0.300000 -0.072289
v -0.027711 -0.300000 -0.102289
v 0.102289 0.300000 0.002711
v 0.102289 0.500000 0.002711
v 0.087289 0.300000 0.002711
v 0.072289 0.500000 0.002711
v 0.087289 0.100000 0.002711
v 0.087289 -0.100000 0.002711
v 0.102289 0.100000 0.002711
v 0.102289 -0.100000 0.002711
v 0.087289 -0.300000 0.002711
v 0.072289 -0.500000 0.002711
v 0.102289 -0.500000 0.002711
v 0.102289 -0.300000 0.002711
v 0.072289 -0.500000 0.057711
v -0.027711 -0.500000 0.057711
v 0.072289 -0.300000 0.057711
v -0.027711 -0.300000 0.057711
v 0.072289 -0.500000 0.002711
v 0.072289 0.500000 0.002711
v 0.072289 -0.500000 0.027711
v 0.072289 0.500000 0.027711
v -0.027711 -0.300000 -0.087289
v -0.002711 -0.300000 -0.087289
v -0.027711 -0.100000 -0.087289
v -0.002711 -0.100000 -0.087289
v -0.042711 -0.300000 -0.072289
v -0.027711 -0.300000 -0.087289
v -0.042711 -0.100000 -0.072289
v -0.027711 -0.100000 -0.087289
v 0.102289 -0.500000 0.027711
v 0.072289 -0.500000 0.057711
v 0.102289 -0.300000 0.027711
v 0.072289 -0.300000 0.057711
v -0.027711 -0.100000 -0.102289
v -0.002711 -0.100000 -0.102289
v -0.027711 0.100000 -0.102289
v -0.002711 0.100000 -0.102289
v -0.057711 -0.100000 -0.072289
v -0.027711 -0.100000 -0.102289
v -0.057711 0.100000 -0.072289
v -0.027711 0.100000 -0.102289
v -0.042711 0.100000 -0.072289
v -0.042711 0.300000 -0.072289
v -0.042711 0.100000 0.027711
v -0.042711 0.300000 0.027711
v -0.042711 -0.300000 0.027711
v -0.042711 -0.100000 0.027711
v -0.027711 -0.300000 0.042711
v -0.027711 -0.100000 0.042711
v 0.087289 0.300000 0.002711
v 0.087289 0.100000 0.002711
v 0.087289 0.300000 0.027711
v 0.087289 0.100000 0.027711
v 0.102289 0.500000 0.002711
v 0.102289 0.300000 0.002711
v 0.102289 0.500000 0.027711
v 0.102289 0.300000 0.027711
vn -0.9239 -0.0000 0.3827
vn -0.9239 -0.0000 -0.3827
vn -0.0000 -1.0000 -0.0000
vn 1.0000 -0.0000 -0.0000
vn 0.9239 -0.0000 0.3827
vn 0.3827 -0.0000 0.9239
vn -0.3827 -0.0000 0.9239
vn -0.0000 -0.0000 1.0000
vn -0.0000 1.0000 -0.0000
vn -0.0000 -0.0000 -1.0000
vn 0.9239 -0.0001 0.3827
vn -0.3827 -0.0000 -0.9239
vn -0.9239 0.0001 0.3827
vn 0.3827 0.0002 0.9239
vn -1.0000 -0.0000 -0.0000
vt 0.968750 0.185000
vt 0.968750 0.225000
vt 0.968750 0.025000
vt 0.968750 0.145000
vt 0.968750 0.105000
vt 0.968750 0.065000
s 1
usemtl colormap.106
f 3/1/1 2/2/2 1/1/2
f 2/2/2 3/1/1 4/2/1
s 0
f 7/3/3 6/3/3 5/3/3
f 6/3/3 7/3/3 8/3/3
s 1
f 6/3/4 8/3/4 9/3/4
s 0
f 9/3/3 8/3/3 10/3/3
f 9/3/3 10/3/3 11/3/3
f 11/3/3 10/3/3 12/3/3
f 13/3/3 11/3/3 12/3/3
f 13/3/3 14/3/3 11/3/3
f 15/3/3 14/3/3 13/3/3
f 15/3/3 16/3/3 14/3/3
f 16/3/3 15/3/3 17/3/3
s 1
f 20/1/5 19/4/6 18/4/5
f 19/4/6 20/1/5 21/1/6
f 24/1/6 23/4/7 22/4/6
f 23/4/7 24/1/6 25/1/7
s 0
f 28/2/4 27/1/4 26/2/4
f 27/1/4 28/2/4 29/1/4
f 29/1/4 28/2/4 30/4/4
f 30/4/4 28/2/4 31/5/4
f 32/5/4 30/4/4 31/5/4
f 30/4/4 32/5/4 33/4/4
f 31/5/4 28/2/4 34/6/4
f 35/3/4 34/6/4 28/2/4
f 36/3/4 34/6/4 35/3/4
f 34/6/4 36/3/4 37/6/4
s 1
f 40/5/7 39/4/1 38/5/1
f 39/4/1 40/5/7 41/4/7
s 0
f 44/2/8 43/3/8 42/3/8
f 43/3/8 44/2/8 45/2/8
s 1
f 48/4/5 47/5/6 46/5/5
f 47/5/6 48/4/5 49/4/6
s 0
f 52/2/9 51/2/9 50/2/9
f 51/2/9 52/2/9 53/2/9
f 53/2/9 52/2/9 54/2/9
f 53/2/9 54/2/9 55/2/9
f 56/2/9 55/2/9 54/2/9
f 57/2/9 55/2/9 56/2/9
f 58/2/9 55/2/9 57/2/9
f 58/2/9 59/2/9 55/2/9
f 58/2/9 60/2/9 59/2/9
f 61/2/9 60/2/9 58/2/9
f 60/2/9 61/2/9 62/2/9
s 1
f 65/2/6 64/1/7 63/1/6
f 64/1/7 65/2/6 66/2/7
f 69/6/5 68/3/4 67/6/4
f 68/3/4 69/6/5 70/3/5
f 73/4/5 72/5/4 71/4/4
f 72/5/4 73/4/5 74/5/5
f 77/3/7 76/6/1 75/3/1
f 76/6/1 77/3/7 78/6/7
s 0
f 81/3/10 80/2/10 79/3/10
f 80/2/10 81/3/10 82/2/10
f 85/6/9 84/6/9 83/6/9
f 84/6/9 85/6/9 86/6/9
f 86/6/9 85/6/9 87/6/9
f 86/6/9 87/6/9 88/6/9
f 88/6/9 87/6/9 89/6/9
f 90/6/9 89/6/9 87/6/9
f 91/6/9 89/6/9 90/6/9
f 91/6/9 92/6/9 89/6/9
f 93/6/9 92/6/9 91/6/9
f 93/6/9 94/6/9 92/6/9
f 93/6/9 95/6/9 94/6/9
f 96/6/9 95/6/9 93/6/9
f 96/6/9 97/6/9 95/6/9
f 97/6/9 96/6/9 98/6/9
s 1
f 101/3/1 100/6/2 99/3/2
f 100/6/2 101/3/1 102/6/1
f 105/2/11 104/1/6 103/1/5
f 104/1/6 105/2/11 106/2/6
f 109/2/12 108/1/10 107/1/12
f 108/1/10 109/2/12 110/2/10
f 113/1/2 112/4/12 111/4/2
f 112/4/12 113/1/2 114/1/12
s 0
f 117/2/4 116/3/4 115/2/4
f 116/3/4 117/2/4 118/3/4
s 1
f 121/1/12 120/4/10 119/4/12
f 120/4/10 121/1/12 122/1/10
f 125/2/2 124/1/12 123/1/2
f 124/1/12 125/2/2 126/2/12
f 129/4/7 128/1/1 127/4/1
f 128/1/1 129/4/7 130/1/7
f 133/1/7 132/2/1 131/1/13
f 132/2/1 133/1/7 134/2/7
f 137/5/6 136/6/7 135/6/6
f 136/6/7 137/5/6 138/5/7
f 141/6/12 140/3/10 139/3/12
f 140/3/10 141/6/12 142/6/10
s 0
f 145/5/3 144/5/3 143/5/3
f 144/5/3 145/5/3 146/5/3
f 144/5/3 146/5/3 147/5/3
f 144/5/3 147/5/3 148/5/3
f 147/5/3 149/5/3 148/5/3
f 150/5/3 149/5/3 147/5/3
f 151/5/3 149/5/3 150/5/3
f 151/5/3 152/5/3 149/5/3
f 153/5/3 152/5/3 151/5/3
f 153/5/3 154/5/3 152/5/3
f 155/5/3 154/5/3 153/5/3
f 155/5/3 156/5/3 154/5/3
f 157/5/3 156/5/3 155/5/3
f 156/5/3 157/5/3 158/5/3
s 1
f 161/6/1 160/5/2 159/6/2
f 160/5/2 161/6/1 162/5/1
s 0
f 165/4/9 164/4/9 163/4/9
f 164/4/9 165/4/9 166/4/9
f 166/4/9 165/4/9 167/4/9
f 166/4/9 167/4/9 168/4/9
f 168/4/9 167/4/9 169/4/9
f 170/4/9 169/4/9 167/4/9
f 171/4/9 169/4/9 170/4/9
f 171/4/9 172/4/9 169/4/9
f 173/4/9 172/4/9 171/4/9
f 173/4/9 174/4/9 172/4/9
f 173/4/9 175/4/9 174/4/9
f 176/4/9 175/4/9 173/4/9
f 176/4/9 177/4/9 175/4/9
f 177/4/9 176/4/9 178/4/9
f 181/1/3 180/1/3 179/1/3
f 180/1/3 181/1/3 182/1/3
f 180/1/3 182/1/3 183/1/3
f 180/1/3 183/1/3 184/1/3
f 183/1/3 185/1/3 184/1/3
f 186/1/3 185/1/3 183/1/3
f 187/1/3 185/1/3 186/1/3
f 187/1/3 188/1/3 185/1/3
f 189/1/3 188/1/3 187/1/3
f 189/1/3 190/1/3 188/1/3
f 191/1/3 190/1/3 189/1/3
f 191/1/3 192/1/3 190/1/3
f 193/1/3 192/1/3 191/1/3
f 192/1/3 193/1/3 194/1/3
s 1
f 197/5/1 196/4/2 195/5/2
f 196/4/2 197/5/1 198/4/1
f 201/5/5 200/6/14 199/6/5
f 200/6/14 201/5/5 202/5/6
f 205/5/5 204/6/4 203/5/4
f 204/6/4 205/5/5 206/6/5
f 209/4/6 208/5/7 207/5/6
f 208/5/7 209/4/6 210/4/7
f 213/6/2 212/3/12 211/3/2
f 212/3/12 213/6/2 214/6/12
s 0
f 217/1/10 216/2/10 215/1/10
f 216/2/10 217/1/10 218/2/10
f 219/4/10 218/2/10 217/1/10
f 220/5/10 218/2/10 219/4/10
f 220/5/10 219/4/10 221/4/10
f 221/4/10 222/5/10 220/5/10
f 223/6/10 218/2/10 220/5/10
f 223/6/10 224/3/10 218/2/10
f 224/3/10 223/6/10 225/3/10
f 226/6/10 225/3/10 223/6/10
s 1
f 229/6/6 228/3/7 227/3/6
f 228/3/7 229/6/6 230/6/7
s 0
f 233/3/15 232/2/15 231/3/15
f 232/2/15 233/3/15 234/2/15
s 1
f 237/5/12 236/6/10 235/6/12
f 236/6/10 237/5/12 238/5/10
f 241/5/2 240/6/12 239/6/2
f 240/6/12 241/5/2 242/5/12
f 245/6/11 244/3/6 243/3/5
f 244/3/6 245/6/11 246/6/6
f 249/4/12 248/5/10 247/5/12
f 248/5/10 249/4/12 250/4/10
f 253/4/2 252/5/12 251/5/2
f 252/5/12 253/4/2 254/4/12
f 257/4/1 256/1/2 255/4/2
f 256/1/2 257/4/1 258/1/1
f 261/6/7 260/5/1 259/6/1
f 260/5/1 261/6/7 262/5/7
f 265/1/5 264/4/4 263/1/4
f 264/4/4 265/1/5 266/4/5
f 269/2/5 268/1/4 267/2/4
f 268/1/4 269/2/5 270/1/5
