# Blender 5.1.0
# www.blender.org
mtllib wall_wood_window_stone.mtl
o wall-wood-window-stone-col
v 0.049977 0.500644 -0.500155
v 0.049977 0.500644 -0.400155
v -0.050023 0.500644 -0.500155
v -0.050023 0.500644 -0.400155
v 0.049977 -0.499356 -0.400155
v 0.049977 -0.499356 -0.500155
v -0.050023 -0.499356 -0.400155
v -0.050023 -0.499356 -0.500155
v -0.050023 -0.499356 -0.500155
v 0.049977 -0.499356 -0.500155
v -0.050023 0.500644 -0.500155
v 0.049977 0.500644 -0.500155
v -0.050023 -0.499356 -0.500155
v -0.050023 0.500644 -0.500155
v -0.050023 -0.499356 -0.400155
v -0.050023 0.500644 -0.400155
v 0.049977 -0.499356 -0.400155
v -0.050023 -0.499356 -0.400155
v 0.049977 0.500644 -0.400155
v -0.050023 0.500644 -0.400155
v 0.049977 0.500644 -0.500155
v 0.049977 -0.499356 -0.500155
v 0.049977 0.500644 -0.400155
v 0.049977 -0.499356 -0.400155
v 0.049977 0.500644 0.399845
v 0.049977 0.500644 0.499845
v -0.050023 0.500644 0.399845
v -0.050023 0.500644 0.499845
v 0.049977 -0.499356 0.499845
v 0.049977 -0.499356 0.399845
v -0.050023 -0.499356 0.499845
v -0.050023 -0.499356 0.399845
v -0.050023 -0.499356 0.399845
v 0.049977 -0.499356 0.399845
v -0.050023 0.500644 0.399845
v 0.049977 0.500644 0.399845
v -0.050023 -0.499356 0.399845
v -0.050023 0.500644 0.399845
v -0.050023 -0.499356 0.499845
v -0.050023 0.500644 0.499845
v 0.049977 -0.499356 0.499845
v -0.050023 -0.499356 0.499845
v 0.049977 0.500644 0.499845
v -0.050023 0.500644 0.499845
v 0.049977 0.500644 0.399845
v 0.049977 -0.499356 0.399845
v 0.049977 0.500644 0.499845
v 0.049977 -0.499356 0.499845
v 0.014977 -0.109356 -0.060155
v 0.014977 -0.139356 -0.060155
v 0.014977 -0.109356 0.059845
v 0.014977 -0.139356 0.059845
v -0.015023 -0.139356 -0.060155
v -0.015023 -0.109356 -0.060155
v -0.015023 -0.139356 0.059845
v -0.015023 -0.109356 0.059845
v 0.014977 0.015644 0.059845
v -0.015023 0.015644 0.059845
v 0.014977 0.015644 -0.060155
v -0.015023 0.015644 -0.060155
v 0.014977 0.110644 0.059845
v 0.014977 0.110644 -0.060155
v -0.015023 0.110644 0.059845
v -0.015023 0.110644 -0.060155
v 0.014977 -0.139356 0.059845
v 0.014977 -0.139356 -0.060155
v -0.015023 -0.139356 0.059845
v -0.015023 -0.139356 -0.060155
v 0.014977 -0.109356 0.059845
v -0.015023 -0.109356 0.059845
v 0.014977 -0.109356 -0.060155
v -0.015023 -0.109356 -0.060155
v 0.014977 0.140644 0.059845
v -0.015023 0.140644 0.059845
v 0.014977 0.140644 -0.060155
v -0.015023 0.140644 -0.060155
v -0.015023 0.110644 -0.060155
v -0.015023 0.140644 -0.060155
v -0.015023 0.110644 0.059845
v -0.015023 0.140644 0.059845
v 0.014977 0.140644 -0.060155
v 0.014977 0.110644 -0.060155
v 0.014977 0.140644 0.059845
v 0.014977 0.110644 0.059845
v 0.014977 0.015644 -0.060155
v 0.014977 -0.014356 -0.060155
v 0.014977 0.015644 0.059845
v 0.014977 -0.014356 0.059845
v 0.014977 -0.014356 0.059845
v 0.014977 -0.014356 -0.060155
v -0.015023 -0.014356 0.059845
v -0.015023 -0.014356 -0.060155
v -0.015023 -0.014356 -0.060155
v -0.015023 0.015644 -0.060155
v -0.015023 -0.014356 0.059845
v -0.015023 0.015644 0.059845
v 0.024977 -0.499356 0.399845
v 0.024977 -0.499356 -0.400155
v -0.025023 -0.499356 0.399845
v -0.025023 -0.499356 -0.400155
v 0.024977 0.500644 -0.400155
v 0.024977 0.500644 0.399845
v -0.025023 0.500644 -0.400155
v -0.025023 0.500644 0.399845
v 0.024977 0.250644 0.109845
v 0.024977 0.500644 0.399845
v 0.024977 0.250644 -0.110155
v 0.024977 -0.249356 0.109845
v 0.024977 0.500644 -0.400155
v 0.024977 -0.499356 0.399845
v 0.024977 -0.499356 -0.400155
v 0.024977 -0.249356 -0.110155
v -0.025023 -0.249356 0.109845
v -0.025023 -0.499356 0.399845
v -0.025023 -0.249356 -0.110155
v -0.025023 0.250644 0.109845
v -0.025023 -0.499356 -0.400155
v -0.025023 0.500644 0.399845
v -0.025023 0.500644 -0.400155
v -0.025023 0.250644 -0.110155
v 0.049977 0.075644 0.159845
v -0.050023 0.075644 0.159845
v 0.049977 0.075644 0.109845
v -0.050023 0.075644 0.109845
v -0.050023 -0.074356 -0.160155
v -0.050023 0.075644 -0.160155
v -0.050023 -0.074356 -0.110155
v -0.050023 0.075644 -0.110155
v 0.049977 -0.299356 0.054845
v 0.049977 -0.299356 -0.055155
v -0.050023 -0.299356 0.054845
v -0.050023 -0.299356 -0.055155
v 0.049977 -0.074356 -0.110155
v 0.049977 -0.074356 -0.160155
v -0.050023 -0.074356 -0.110155
v -0.050023 -0.074356 -0.160155
v 0.049977 0.250644 0.054845
v -0.050023 0.250644 0.054845
v 0.049977 0.300644 0.054845
v -0.050023 0.300644 0.054845
v -0.050023 -0.074356 0.109845
v -0.050023 0.075644 0.109845
v -0.050023 -0.074356 0.159845
v -0.050023 0.075644 0.159845
v 0.049977 0.075644 -0.160155
v 0.049977 -0.074356 -0.160155
v 0.049977 0.075644 -0.110155
v 0.049977 -0.074356 -0.110155
v -0.050023 -0.299356 -0.055155
v 0.049977 -0.299356 -0.055155
v -0.050023 -0.249356 -0.055155
v 0.049977 -0.249356 -0.055155
v 0.049977 0.300644 -0.055155
v 0.049977 0.250644 -0.055155
v 0.049977 0.300644 0.054845
v 0.049977 0.250644 0.054845
v -0.050023 -0.074356 -0.160155
v 0.049977 -0.074356 -0.160155
v -0.050023 0.075644 -0.160155
v 0.049977 0.075644 -0.160155
v 0.049977 0.300644 0.054845
v -0.050023 0.300644 0.054845
v 0.049977 0.300644 -0.055155
v -0.050023 0.300644 -0.055155
v 0.049977 -0.074356 0.159845
v 0.049977 -0.074356 0.109845
v -0.050023 -0.074356 0.159845
v -0.050023 -0.074356 0.109845
v 0.049977 0.075644 0.109845
v 0.049977 -0.074356 0.109845
v 0.049977 0.075644 0.159845
v 0.049977 -0.074356 0.159845
v -0.050023 -0.299356 -0.055155
v -0.050023 -0.249356 -0.055155
v -0.050023 -0.299356 0.054845
v -0.050023 -0.249356 0.054845
v -0.050023 0.250644 -0.055155
v -0.050023 0.300644 -0.055155
v -0.050023 0.250644 0.054845
v -0.050023 0.300644 0.054845
v 0.049977 -0.074356 0.159845
v -0.050023 -0.074356 0.159845
v 0.049977 0.075644 0.159845
v -0.050023 0.075644 0.159845
v 0.074977 -0.199356 0.059845
v -0.075023 -0.199356 0.059845
v 0.074977 -0.199356 -0.060155
v -0.075023 -0.199356 -0.060155
v 0.074977 0.200644 0.059845
v 0.074977 0.200644 -0.060155
v -0.075023 0.200644 0.059845
v -0.075023 0.200644 -0.060155
v 0.049977 -0.299356 0.054845
v -0.050023 -0.299356 0.054845
v 0.049977 -0.249356 0.054845
v -0.050023 -0.249356 0.054845
v 0.049977 0.075644 -0.110155
v -0.050023 0.075644 -0.110155
v 0.049977 0.075644 -0.160155
v -0.050023 0.075644 -0.160155
v 0.049977 -0.249356 -0.055155
v 0.049977 -0.299356 -0.055155
v 0.049977 -0.249356 0.054845
v 0.049977 -0.299356 0.054845
v -0.050023 0.250644 -0.055155
v -0.025023 0.250644 -0.055155
v -0.050023 0.300644 -0.055155
v 0.049977 0.250644 -0.055155
v 0.049977 0.300644 -0.055155
v -0.075023 0.250644 0.109845
v 0.049977 0.250644 0.054845
v 0.074977 0.250644 0.109845
v 0.074977 0.250644 -0.110155
v -0.050023 0.250644 0.054845
v 0.049977 0.250644 -0.055155
v -0.075023 0.250644 -0.110155
v -0.050023 0.250644 -0.055155
v -0.025023 0.250644 -0.055155
v -0.075023 -0.199356 0.059845
v -0.075023 -0.249356 0.109845
v -0.075023 -0.199356 -0.060155
v -0.075023 0.200644 0.059845
v -0.075023 -0.249356 -0.110155
v -0.075023 0.250644 0.109845
v -0.075023 0.250644 -0.110155
v -0.075023 0.200644 -0.060155
v 0.074977 0.200644 0.059845
v 0.074977 0.250644 0.109845
v 0.074977 0.200644 -0.060155
v 0.074977 -0.199356 0.059845
v 0.074977 0.250644 -0.110155
v 0.074977 -0.249356 0.109845
v 0.074977 -0.249356 -0.110155
v 0.074977 -0.199356 -0.060155
v -0.050023 0.075644 -0.110155
v -0.075023 0.250644 -0.110155
v -0.050023 -0.074356 -0.110155
v 0.049977 0.075644 -0.110155
v -0.075023 -0.249356 -0.110155
v 0.074977 0.250644 -0.110155
v 0.074977 -0.249356 -0.110155
v 0.049977 -0.074356 -0.110155
v 0.049977 0.075644 0.109845
v 0.074977 0.250644 0.109845
v 0.049977 -0.074356 0.109845
v -0.050023 0.075644 0.109845
v 0.074977 -0.249356 0.109845
v -0.075023 0.250644 0.109845
v -0.075023 -0.249356 0.109845
v -0.050023 -0.074356 0.109845
v 0.014977 0.140644 -0.060155
v 0.074977 0.200644 -0.060155
v 0.014977 0.110644 -0.060155
v -0.015023 0.140644 -0.060155
v -0.015023 0.015644 -0.060155
v -0.015023 0.110644 -0.060155
v -0.075023 0.200644 -0.060155
v 0.014977 0.015644 -0.060155
v -0.015023 -0.014356 -0.060155
v 0.014977 -0.014356 -0.060155
v -0.015023 -0.109356 -0.060155
v -0.015023 -0.139356 -0.060155
v 0.014977 -0.109356 -0.060155
v -0.075023 -0.199356 -0.060155
v 0.014977 -0.139356 -0.060155
v 0.074977 -0.199356 -0.060155
v -0.015023 0.140644 0.059845
v -0.075023 0.200644 0.059845
v -0.015023 0.110644 0.059845
v 0.014977 0.140644 0.059845
v 0.014977 0.015644 0.059845
v 0.014977 0.110644 0.059845
v 0.074977 0.200644 0.059845
v -0.015023 0.015644 0.059845
v 0.014977 -0.014356 0.059845
v -0.015023 -0.014356 0.059845
v 0.014977 -0.109356 0.059845
v 0.014977 -0.139356 0.059845
v -0.015023 -0.109356 0.059845
v 0.074977 -0.199356 0.059845
v -0.015023 -0.139356 0.059845
v -0.075023 -0.199356 0.059845
v -0.050023 -0.249356 0.054845
v -0.075023 -0.249356 0.109845
v 0.049977 -0.249356 0.054845
v -0.050023 -0.249356 -0.055155
v 0.074977 -0.249356 0.109845
v -0.075023 -0.249356 -0.110155
v 0.074977 -0.249356 -0.110155
v 0.049977 -0.249356 -0.055155
vn -0.0000 1.0000 -0.0000
vn -0.0000 -1.0000 -0.0000
vn -0.0000 -0.0000 -1.0000
vn -1.0000 -0.0000 -0.0000
vn -0.0000 -0.0000 1.0000
vn 1.0000 -0.0000 -0.0000
vn -0.7071 -0.0000 -0.7071
vn -0.7071 -0.7071 -0.0000
vn 0.7071 -0.7071 -0.0000
vn -0.7071 -0.0000 0.7071
vn 0.7071 -0.0000 -0.7071
vn 0.7071 0.7071 -0.0000
vn -0.7071 0.7071 -0.0000
vn 0.7071 -0.0000 0.7071
vt 0.593750 0.175000
vt 0.593750 0.075000
vt 0.718750 0.115000
vt 0.718750 0.135000
vt 0.718750 0.075000
vt 0.718750 0.175000
vt 0.718750 0.150000
vt 0.718750 0.100000
vt 0.968750 0.091667
vt 0.968750 0.158333
vt 0.968750 0.075000
vt 0.968750 0.175000
vt 0.968750 0.141667
vt 0.968750 0.115000
vt 0.968750 0.135000
s 0
usemtl colormap.160
f 3/1/1 2/1/1 1/1/1
f 2/1/1 3/1/1 4/1/1
f 7/2/2 6/2/2 5/2/2
f 6/2/2 7/2/2 8/2/2
f 11/1/3 10/2/3 9/2/3
f 10/2/3 11/1/3 12/1/3
f 15/2/4 14/1/4 13/2/4
f 14/1/4 15/2/4 16/1/4
f 19/1/5 18/2/5 17/2/5
f 18/2/5 19/1/5 20/1/5
f 23/1/6 22/2/6 21/1/6
f 22/2/6 23/1/6 24/2/6
f 27/1/1 26/1/1 25/1/1
f 26/1/1 27/1/1 28/1/1
f 31/2/2 30/2/2 29/2/2
f 30/2/2 31/2/2 32/2/2
f 35/1/3 34/2/3 33/2/3
f 34/2/3 35/1/3 36/1/3
f 39/2/4 38/1/4 37/2/4
f 38/1/4 39/2/4 40/1/4
f 43/1/5 42/2/5 41/2/5
f 42/2/5 43/1/5 44/1/5
f 47/1/6 46/2/6 45/1/6
f 46/2/6 47/1/6 48/2/6
f 51/3/6 50/3/6 49/3/6
f 50/3/6 51/3/6 52/3/6
f 55/4/4 54/4/4 53/4/4
f 54/4/4 55/4/4 56/4/4
f 59/3/1 58/4/1 57/3/1
f 58/4/1 59/3/1 60/4/1
f 63/4/2 62/3/2 61/3/2
f 62/3/2 63/4/2 64/4/2
f 67/4/2 66/3/2 65/3/2
f 66/3/2 67/4/2 68/4/2
f 71/3/1 70/4/1 69/3/1
f 70/4/1 71/3/1 72/4/1
f 75/3/1 74/4/1 73/3/1
f 74/4/1 75/3/1 76/4/1
f 79/4/4 78/4/4 77/4/4
f 78/4/4 79/4/4 80/4/4
f 83/3/6 82/3/6 81/3/6
f 82/3/6 83/3/6 84/3/6
f 87/3/6 86/3/6 85/3/6
f 86/3/6 87/3/6 88/3/6
f 91/4/2 90/3/2 89/3/2
f 90/3/2 91/4/2 92/4/2
f 95/4/4 94/4/4 93/4/4
f 94/4/4 95/4/4 96/4/4
f 99/5/2 98/5/2 97/5/2
f 98/5/2 99/5/2 100/5/2
f 103/6/1 102/6/1 101/6/1
f 102/6/1 103/6/1 104/6/1
f 107/7/6 106/6/6 105/7/6
f 105/7/6 106/6/6 108/8/6
f 107/7/6 109/6/6 106/6/6
f 110/5/6 108/8/6 106/6/6
f 109/6/6 107/7/6 111/5/6
f 110/5/6 112/8/6 108/8/6
f 111/5/6 112/8/6 110/5/6
f 112/8/6 111/5/6 107/7/6
f 115/8/4 114/5/4 113/8/4
f 113/8/4 114/5/4 116/7/4
f 115/8/4 117/5/4 114/5/4
f 118/6/4 116/7/4 114/5/4
f 117/5/4 115/8/4 119/6/4
f 118/6/4 120/7/4 116/7/4
f 119/6/4 120/7/4 118/6/4
f 120/7/4 119/6/4 115/8/4
f 123/9/1 122/10/1 121/9/1
f 122/10/1 123/9/1 124/10/1
s 1
f 127/10/4 126/10/7 125/10/7
f 126/10/7 127/10/4 128/10/4
f 131/10/8 130/9/9 129/9/9
f 130/9/9 131/10/8 132/10/8
s 0
f 135/10/2 134/9/2 133/9/2
f 134/9/2 135/10/2 136/10/2
f 139/9/5 138/10/5 137/9/5
f 138/10/5 139/9/5 140/10/5
s 1
f 143/10/10 142/10/4 141/10/4
f 142/10/4 143/10/10 144/10/10
f 147/9/6 146/9/11 145/9/11
f 146/9/11 147/9/6 148/9/6
s 0
f 151/10/3 150/9/3 149/10/3
f 150/9/3 151/10/3 152/9/3
s 1
f 155/9/12 154/9/6 153/9/12
f 154/9/6 155/9/12 156/9/6
f 159/10/7 158/9/11 157/10/7
f 158/9/11 159/10/7 160/9/11
f 163/9/12 162/10/13 161/9/12
f 162/10/13 163/9/12 164/10/13
s 0
f 167/10/2 166/9/2 165/9/2
f 166/9/2 167/10/2 168/10/2
s 1
f 171/9/14 170/9/6 169/9/6
f 170/9/6 171/9/14 172/9/14
f 175/10/8 174/10/4 173/10/8
f 174/10/4 175/10/8 176/10/4
f 179/10/4 178/10/13 177/10/4
f 178/10/13 179/10/4 180/10/13
f 183/9/14 182/10/10 181/9/14
f 182/10/10 183/9/14 184/10/10
s 0
f 187/11/1 186/12/1 185/11/1
f 186/12/1 187/11/1 188/12/1
f 191/12/2 190/11/2 189/11/2
f 190/11/2 191/12/2 192/12/2
f 195/9/5 194/10/5 193/9/5
f 194/10/5 195/9/5 196/10/5
f 199/9/1 198/10/1 197/9/1
f 198/10/1 199/9/1 200/10/1
s 1
f 203/9/6 202/9/9 201/9/6
f 202/9/9 203/9/6 204/9/9
s 0
f 207/10/3 206/13/3 205/10/3
f 206/13/3 207/10/3 208/9/3
f 208/9/3 207/10/3 209/9/3
f 212/11/1 211/9/1 210/12/1
f 211/9/1 212/11/1 213/11/1
f 210/12/1 211/9/1 214/10/1
f 213/11/1 215/9/1 211/9/1
f 210/12/1 214/10/1 216/12/1
f 215/9/1 213/11/1 216/12/1
f 217/10/1 216/12/1 214/10/1
f 215/9/1 216/12/1 218/13/1
f 218/13/1 216/12/1 217/10/1
f 221/12/4 220/12/4 219/12/4
f 219/12/4 220/12/4 222/12/4
f 221/12/4 223/12/4 220/12/4
f 224/12/4 222/12/4 220/12/4
f 223/12/4 221/12/4 225/12/4
f 224/12/4 226/12/4 222/12/4
f 225/12/4 226/12/4 224/12/4
f 226/12/4 225/12/4 221/12/4
f 229/11/6 228/11/6 227/11/6
f 227/11/6 228/11/6 230/11/6
f 229/11/6 231/11/6 228/11/6
f 232/11/6 230/11/6 228/11/6
f 231/11/6 229/11/6 233/11/6
f 232/11/6 234/11/6 230/11/6
f 233/11/6 234/11/6 232/11/6
f 234/11/6 233/11/6 229/11/6
f 237/10/3 236/12/3 235/10/3
f 235/10/3 236/12/3 238/9/3
f 237/10/3 239/12/3 236/12/3
f 240/11/3 238/9/3 236/12/3
f 239/12/3 237/10/3 241/11/3
f 240/11/3 242/9/3 238/9/3
f 241/11/3 242/9/3 240/11/3
f 242/9/3 241/11/3 237/10/3
f 245/9/5 244/11/5 243/9/5
f 243/9/5 244/11/5 246/10/5
f 245/9/5 247/11/5 244/11/5
f 248/12/5 246/10/5 244/11/5
f 247/11/5 245/9/5 249/12/5
f 248/12/5 250/10/5 246/10/5
f 249/12/5 250/10/5 248/12/5
f 250/10/5 249/12/5 245/9/5
f 253/14/5 252/11/5 251/14/5
f 251/14/5 252/11/5 254/15/5
f 255/15/5 252/11/5 253/14/5
f 256/15/5 255/15/5 253/14/5
f 257/12/5 256/15/5 254/15/5
f 257/12/5 255/15/5 256/15/5
f 257/12/5 254/15/5 252/11/5
f 258/14/5 252/11/5 255/15/5
f 257/12/5 259/15/5 255/15/5
f 260/14/5 252/11/5 258/14/5
f 257/12/5 261/15/5 259/15/5
f 259/15/5 261/15/5 260/14/5
f 257/12/5 262/15/5 261/15/5
f 263/14/5 260/14/5 261/15/5
f 263/14/5 252/11/5 260/14/5
f 264/12/5 262/15/5 257/12/5
f 265/14/5 252/11/5 263/14/5
f 262/15/5 264/12/5 265/14/5
f 265/14/5 266/11/5 252/11/5
f 266/11/5 265/14/5 264/12/5
f 269/15/3 268/12/3 267/15/3
f 267/15/3 268/12/3 270/14/3
f 271/14/3 268/12/3 269/15/3
f 272/14/3 271/14/3 269/15/3
f 273/11/3 272/14/3 270/14/3
f 273/11/3 271/14/3 272/14/3
f 273/11/3 270/14/3 268/12/3
f 274/15/3 268/12/3 271/14/3
f 273/11/3 275/14/3 271/14/3
f 276/15/3 268/12/3 274/15/3
f 273/11/3 277/14/3 275/14/3
f 275/14/3 277/14/3 276/15/3
f 273/11/3 278/14/3 277/14/3
f 279/15/3 276/15/3 277/14/3
f 279/15/3 268/12/3 276/15/3
f 280/11/3 278/14/3 273/11/3
f 281/15/3 268/12/3 279/15/3
f 278/14/3 280/11/3 281/15/3
f 281/15/3 282/12/3 268/12/3
f 282/12/3 281/15/3 280/11/3
f 285/9/2 284/12/2 283/10/2
f 283/10/2 284/12/2 286/10/2
f 285/9/2 287/11/2 284/12/2
f 288/12/2 286/10/2 284/12/2
f 287/11/2 285/9/2 289/11/2
f 288/12/2 290/9/2 286/10/2
f 289/11/2 290/9/2 288/12/2
f 290/9/2 289/11/2 285/9/2
