# Blender 5.1.0
# www.blender.org
mtllib wall_wood_doorway_round.mtl
o wall-wood-doorway-round-col
v 0.050165 0.476268 -0.500378
v 0.050165 0.476268 -0.400378
v -0.049835 0.476268 -0.500378
v -0.049835 0.476268 -0.400378
v 0.050165 -0.523732 -0.400378
v 0.050165 -0.523732 -0.500378
v -0.049835 -0.523732 -0.400378
v -0.049835 -0.523732 -0.500378
v -0.049835 -0.523732 -0.500378
v 0.050165 -0.523732 -0.500378
v -0.049835 0.476268 -0.500378
v 0.050165 0.476268 -0.500378
v -0.049835 -0.523732 -0.500378
v -0.049835 0.476268 -0.500378
v -0.049835 -0.523732 -0.400378
v -0.049835 0.476268 -0.400378
v 0.050165 -0.523732 -0.400378
v -0.049835 -0.523732 -0.400378
v 0.050165 0.476268 -0.400378
v -0.049835 0.476268 -0.400378
v 0.050165 0.476268 -0.500378
v 0.050165 -0.523732 -0.500378
v 0.050165 0.476268 -0.400378
v 0.050165 -0.523732 -0.400378
v 0.050165 0.476268 0.399622
v 0.050165 0.476268 0.499622
v -0.049835 0.476268 0.399622
v -0.049835 0.476268 0.499622
v 0.050165 -0.523732 0.499622
v 0.050165 -0.523732 0.399622
v -0.049835 -0.523732 0.499622
v -0.049835 -0.523732 0.399622
v -0.049835 -0.523732 0.399622
v 0.050165 -0.523732 0.399622
v -0.049835 0.476268 0.399622
v 0.050165 0.476268 0.399622
v -0.049835 -0.523732 0.399622
v -0.049835 0.476268 0.399622
v -0.049835 -0.523732 0.499622
v -0.049835 0.476268 0.499622
v 0.050165 -0.523732 0.499622
v -0.049835 -0.523732 0.499622
v 0.050165 0.476268 0.499622
v -0.049835 0.476268 0.499622
v 0.050165 0.476268 0.399622
v 0.050165 -0.523732 0.399622
v 0.050165 0.476268 0.499622
v 0.050165 -0.523732 0.499622
v -0.024835 -0.523732 0.299622
v -0.024835 0.026268 0.299622
v -0.024835 -0.523732 0.399622
v -0.024835 0.476268 0.399622
v -0.024835 0.326268 -0.000378
v -0.024835 0.476268 -0.400378
v -0.024835 0.026268 -0.300378
v -0.024835 -0.523732 -0.300378
v -0.024835 -0.523732 -0.400378
v 0.025165 -0.523732 0.299622
v 0.025165 -0.523732 0.399622
v 0.025165 0.026268 0.299622
v 0.025165 0.476268 0.399622
v 0.025165 0.060187 0.286071
v 0.025165 0.093016 0.270059
v 0.025165 0.124577 0.251673
v 0.025165 0.154699 0.231014
v 0.025165 0.183218 0.208193
v 0.025165 0.209980 0.183334
v 0.025165 0.234839 0.156573
v 0.025165 0.257660 0.128053
v 0.025165 0.278319 0.097932
v 0.025165 0.296705 0.066370
v 0.025165 0.312717 0.033541
v 0.025165 0.326268 -0.000378
v 0.025165 0.476268 -0.400378
v 0.025165 0.312717 -0.034297
v 0.025165 0.296705 -0.067126
v 0.025165 0.278319 -0.098687
v 0.025165 0.257660 -0.128809
v 0.025165 0.234839 -0.157328
v 0.025165 0.209980 -0.184089
v 0.025165 0.183218 -0.208948
v 0.025165 0.154699 -0.231769
v 0.025165 0.124577 -0.252428
v 0.025165 0.093016 -0.270814
v 0.025165 0.060187 -0.286826
v 0.025165 0.026268 -0.300378
v 0.025165 -0.523732 -0.400378
v 0.025165 -0.523732 -0.300378
v 0.025165 -0.523732 0.399622
v 0.025165 -0.523732 0.299622
v -0.024835 -0.523732 0.399622
v -0.024835 -0.523732 0.299622
v 0.025165 0.476268 -0.400378
v 0.025165 0.476268 0.399622
v -0.024835 0.476268 -0.400378
v -0.024835 0.476268 0.399622
v 0.025165 -0.523732 -0.300378
v 0.025165 -0.523732 -0.400378
v -0.024835 -0.523732 -0.300378
v -0.024835 -0.523732 -0.400378
v 0.025165 0.060187 0.286071
v 0.025165 0.093016 0.270059
v 0.025165 0.026268 0.299622
v 0.025165 0.124577 0.251673
v 0.025165 0.154699 0.231014
v 0.025165 0.183218 0.208193
v 0.025165 0.209980 0.183334
v 0.025165 0.234839 0.156573
v 0.025165 0.257660 0.128053
v 0.025165 0.278319 0.097932
v 0.025165 0.296705 0.066370
v 0.025165 0.312717 0.033541
v 0.025165 0.326268 -0.000378
v 0.025165 0.026268 -0.300378
v 0.025165 0.060187 -0.286826
v 0.025165 0.093016 -0.270814
v 0.025165 0.124577 -0.252428
v 0.025165 0.154699 -0.231769
v 0.025165 0.183218 -0.208948
v 0.025165 0.209980 -0.184089
v 0.025165 0.234839 -0.157328
v 0.025165 0.257660 -0.128809
v 0.025165 0.278319 -0.098687
v 0.025165 0.296705 -0.067126
v 0.025165 0.312717 -0.034297
v 0.050165 -0.523732 0.199622
v 0.050165 -0.523732 0.299622
v 0.050165 0.003181 0.199622
v 0.050165 0.124577 0.251673
v 0.050165 0.026268 0.299622
v 0.050165 0.209980 0.183334
v 0.050165 0.070764 0.166659
v 0.050165 0.138835 0.112189
v 0.050165 0.278319 0.097932
v 0.050165 0.193305 0.044118
v 0.050165 0.326268 -0.000378
v 0.050165 0.215008 -0.000378
v 0.050165 0.193305 -0.044874
v 0.050165 0.278319 -0.098687
v 0.050165 0.138835 -0.112944
v 0.050165 0.070764 -0.167415
v 0.050165 0.209980 -0.184089
v 0.050165 0.003181 -0.200378
v 0.050165 0.124577 -0.252428
v 0.050165 -0.523732 -0.200378
v 0.050165 -0.523732 -0.300378
v 0.050165 0.026268 -0.300378
v -0.049835 -0.523732 0.199622
v -0.049835 0.003181 0.199622
v -0.049835 -0.523732 0.299622
v -0.049835 0.124577 0.251673
v -0.049835 0.026268 0.299622
v -0.049835 0.209980 0.183334
v -0.049835 0.070764 0.166659
v -0.049835 0.138835 0.112189
v -0.049835 0.278319 0.097932
v -0.049835 0.193305 0.044118
v -0.049835 0.326268 -0.000378
v -0.049835 0.215008 -0.000378
v -0.049835 0.193305 -0.044874
v -0.049835 0.278319 -0.098687
v -0.049835 0.138835 -0.112944
v -0.049835 0.070764 -0.167415
v -0.049835 0.209980 -0.184089
v -0.049835 0.003181 -0.200378
v -0.049835 0.124577 -0.252428
v -0.049835 -0.523732 -0.200378
v -0.049835 0.026268 -0.300378
v -0.049835 -0.523732 -0.300378
v 0.050165 -0.523732 0.299622
v -0.049835 -0.523732 0.299622
v 0.050165 0.026268 0.299622
v -0.049835 0.026268 0.299622
v 0.050165 0.026268 0.299622
v -0.049835 0.026268 0.299622
v 0.050165 0.124577 0.251673
v -0.049835 0.124577 0.251673
v 0.050165 0.124577 0.251673
v -0.049835 0.124577 0.251673
v 0.050165 0.209980 0.183334
v -0.049835 0.209980 0.183334
v 0.050165 0.278319 0.097932
v 0.050165 0.209980 0.183334
v -0.049835 0.278319 0.097932
v -0.049835 0.209980 0.183334
v 0.050165 0.326268 -0.000378
v 0.050165 0.278319 0.097932
v -0.049835 0.326268 -0.000378
v -0.049835 0.278319 0.097932
v 0.050165 0.278319 -0.098687
v 0.050165 0.326268 -0.000378
v -0.049835 0.278319 -0.098687
v -0.049835 0.326268 -0.000378
v 0.050165 0.209980 -0.184089
v 0.050165 0.278319 -0.098687
v -0.049835 0.209980 -0.184089
v -0.049835 0.278319 -0.098687
v -0.049835 0.124577 -0.252428
v 0.050165 0.124577 -0.252428
v -0.049835 0.209980 -0.184089
v 0.050165 0.209980 -0.184089
v -0.049835 0.026268 -0.300378
v 0.050165 0.026268 -0.300378
v -0.049835 0.124577 -0.252428
v 0.050165 0.124577 -0.252428
v -0.049835 -0.523732 -0.300378
v 0.050165 -0.523732 -0.300378
v -0.049835 0.026268 -0.300378
v 0.050165 0.026268 -0.300378
v 0.050165 -0.523732 -0.200378
v 0.050165 -0.523732 -0.300378
v -0.049835 -0.523732 -0.200378
v -0.049835 -0.523732 -0.300378
v 0.050165 -0.523732 -0.200378
v -0.049835 -0.523732 -0.200378
v 0.050165 0.003181 -0.200378
v -0.049835 0.003181 -0.200378
v 0.050165 0.003181 -0.200378
v -0.049835 0.003181 -0.200378
v 0.050165 0.070764 -0.167415
v -0.049835 0.070764 -0.167415
v 0.050165 0.070764 -0.167415
v -0.049835 0.070764 -0.167415
v 0.050165 0.138835 -0.112944
v -0.049835 0.138835 -0.112944
v 0.050165 0.193305 -0.044874
v 0.050165 0.138835 -0.112944
v -0.049835 0.193305 -0.044874
v -0.049835 0.138835 -0.112944
v 0.050165 0.215008 -0.000378
v 0.050165 0.193305 -0.044874
v -0.049835 0.215008 -0.000378
v -0.049835 0.193305 -0.044874
v 0.050165 0.193305 0.044118
v 0.050165 0.215008 -0.000378
v -0.049835 0.193305 0.044118
v -0.049835 0.215008 -0.000378
v 0.050165 0.138835 0.112189
v 0.050165 0.193305 0.044118
v -0.049835 0.138835 0.112189
v -0.049835 0.193305 0.044118
v -0.049835 0.070764 0.166659
v 0.050165 0.070764 0.166659
v -0.049835 0.138835 0.112189
v 0.050165 0.138835 0.112189
v -0.049835 0.003181 0.199622
v 0.050165 0.003181 0.199622
v -0.049835 0.070764 0.166659
v 0.050165 0.070764 0.166659
v -0.049835 -0.523732 0.199622
v 0.050165 -0.523732 0.199622
v -0.049835 0.003181 0.199622
v 0.050165 0.003181 0.199622
v 0.050165 -0.523732 0.299622
v 0.050165 -0.523732 0.199622
v -0.049835 -0.523732 0.299622
v -0.049835 -0.523732 0.199622
vn -0.0000 1.0000 -0.0000
vn -0.0000 -1.0000 -0.0000
vn -0.0000 -0.0000 -1.0000
vn -1.0000 -0.0000 -0.0000
vn -0.0000 -0.0000 1.0000
vn 1.0000 -0.0000 -0.0000
vn -0.0000 0.2249 0.9744
vn -0.0000 0.5348 0.8450
vn -0.0000 0.2250 0.9744
vn -0.0000 0.7071 0.7071
vn -0.0000 0.5349 0.8449
vn -0.0000 0.8449 0.5349
vn -0.0000 0.8988 0.4384
vn -0.0000 0.8450 0.5348
vn -0.0000 0.8450 -0.5348
vn -0.0000 0.8988 -0.4384
vn -0.0000 0.7071 -0.7071
vn -0.0000 0.8449 -0.5349
vn -0.0000 0.5349 -0.8449
vn -0.0000 0.5348 -0.8450
vn -0.0000 0.2250 -0.9744
vn -0.0000 0.2249 -0.9744
vn -0.0000 -0.2249 0.9744
vn -0.0000 -0.5348 0.8450
vn -0.0000 -0.2250 0.9744
vn -0.0000 -0.7071 0.7071
vn -0.0000 -0.5349 0.8449
vn -0.0000 -0.8449 0.5349
vn -0.0000 -0.8988 0.4384
vn -0.0000 -0.8450 0.5348
vn -0.0000 -0.8450 -0.5348
vn -0.0000 -0.8988 -0.4384
vn -0.0000 -0.7071 -0.7071
vn -0.0000 -0.8449 -0.5349
vn -0.0000 -0.5349 -0.8449
vn -0.0000 -0.5348 -0.8450
vn -0.0000 -0.2250 -0.9744
vn -0.0000 -0.2249 -0.9744
vt 0.593750 0.175000
vt 0.593750 0.075000
vt 0.718750 0.075000
vt 0.718750 0.130000
vt 0.718750 0.175000
vt 0.718750 0.160000
vt 0.718750 0.133392
vt 0.718750 0.136675
vt 0.718750 0.139831
vt 0.718750 0.142843
vt 0.718750 0.145695
vt 0.718750 0.148371
vt 0.718750 0.150857
vt 0.718750 0.153139
vt 0.718750 0.155205
vt 0.718750 0.157044
vt 0.718750 0.158645
vt 0.343750 0.380000
vt 0.343750 0.386675
vt 0.343750 0.383392
vt 0.343750 0.389831
vt 0.343750 0.392843
vt 0.343750 0.395695
vt 0.343750 0.398371
vt 0.343750 0.400857
vt 0.343750 0.403139
vt 0.343750 0.405205
vt 0.343750 0.407044
vt 0.343750 0.408645
vt 0.343750 0.410000
vt 0.968750 0.136990
vt 0.968750 0.075000
vt 0.968750 0.151272
vt 0.968750 0.139706
vt 0.968750 0.161319
vt 0.968750 0.144941
vt 0.968750 0.152949
vt 0.968750 0.169359
vt 0.968750 0.159357
vt 0.968750 0.175000
vt 0.968750 0.161911
s 0
usemtl colormap.148
f 3/1/1 2/1/1 1/1/1
f 2/1/1 3/1/1 4/1/1
f 7/2/2 6/2/2 5/2/2
f 6/2/2 7/2/2 8/2/2
f 11/1/3 10/2/3 9/2/3
f 10/2/3 11/1/3 12/1/3
f 15/2/4 14/1/4 13/2/4
f 14/1/4 15/2/4 16/1/4
f 19/1/5 18/2/5 17/2/5
f 18/2/5 19/1/5 20/1/5
f 23/1/6 22/2/6 21/1/6
f 22/2/6 23/1/6 24/2/6
f 27/1/1 26/1/1 25/1/1
f 26/1/1 27/1/1 28/1/1
f 31/2/2 30/2/2 29/2/2
f 30/2/2 31/2/2 32/2/2
f 35/1/3 34/2/3 33/2/3
f 34/2/3 35/1/3 36/1/3
f 39/2/4 38/1/4 37/2/4
f 38/1/4 39/2/4 40/1/4
f 43/1/5 42/2/5 41/2/5
f 42/2/5 43/1/5 44/1/5
f 47/1/6 46/2/6 45/1/6
f 46/2/6 47/1/6 48/2/6
f 51/3/4 50/4/4 49/3/4
f 52/5/4 50/4/4 51/3/4
f 52/5/4 53/6/4 50/4/4
f 54/5/4 53/6/4 52/5/4
f 54/5/4 55/4/4 53/6/4
f 54/5/4 56/3/4 55/4/4
f 56/3/4 54/5/4 57/3/4
f 60/4/6 59/3/6 58/3/6
f 59/3/6 60/4/6 61/5/6
f 62/7/6 61/5/6 60/4/6
f 63/8/6 61/5/6 62/7/6
f 64/9/6 61/5/6 63/8/6
f 65/10/6 61/5/6 64/9/6
f 66/11/6 61/5/6 65/10/6
f 67/12/6 61/5/6 66/11/6
f 68/13/6 61/5/6 67/12/6
f 69/14/6 61/5/6 68/13/6
f 70/15/6 61/5/6 69/14/6
f 71/16/6 61/5/6 70/15/6
f 72/17/6 61/5/6 71/16/6
f 73/6/6 61/5/6 72/17/6
f 73/6/6 74/5/6 61/5/6
f 75/17/6 74/5/6 73/6/6
f 76/16/6 74/5/6 75/17/6
f 77/15/6 74/5/6 76/16/6
f 78/14/6 74/5/6 77/15/6
f 79/13/6 74/5/6 78/14/6
f 80/12/6 74/5/6 79/13/6
f 81/11/6 74/5/6 80/12/6
f 82/10/6 74/5/6 81/11/6
f 83/9/6 74/5/6 82/10/6
f 84/8/6 74/5/6 83/9/6
f 85/7/6 74/5/6 84/8/6
f 86/4/6 74/5/6 85/7/6
f 74/5/6 86/4/6 87/3/6
f 88/3/6 87/3/6 86/4/6
f 91/3/2 90/3/2 89/3/2
f 90/3/2 91/3/2 92/3/2
f 95/5/1 94/5/1 93/5/1
f 94/5/1 95/5/1 96/5/1
f 99/3/2 98/3/2 97/3/2
f 98/3/2 99/3/2 100/3/2
f 103/18/6 102/19/6 101/20/6
f 103/18/6 104/21/6 102/19/6
f 103/18/6 105/22/6 104/21/6
f 103/18/6 106/23/6 105/22/6
f 103/18/6 107/24/6 106/23/6
f 103/18/6 108/25/6 107/24/6
f 103/18/6 109/26/6 108/25/6
f 103/18/6 110/27/6 109/26/6
f 103/18/6 111/28/6 110/27/6
f 103/18/6 112/29/6 111/28/6
f 112/29/6 103/18/6 113/30/6
f 115/20/6 113/30/6 114/18/6
f 113/30/6 115/20/6 116/19/6
f 113/30/6 116/19/6 117/21/6
f 113/30/6 117/21/6 118/22/6
f 113/30/6 118/22/6 119/23/6
f 113/30/6 119/23/6 120/24/6
f 113/30/6 120/24/6 121/25/6
f 113/30/6 121/25/6 122/26/6
f 113/30/6 122/26/6 123/27/6
f 113/30/6 123/27/6 124/28/6
f 113/30/6 124/28/6 125/29/6
f 128/31/6 127/32/6 126/32/6
f 127/32/6 128/31/6 129/33/6
f 127/32/6 129/33/6 130/34/6
f 128/31/6 131/35/6 129/33/6
f 132/36/6 131/35/6 128/31/6
f 133/37/6 131/35/6 132/36/6
f 133/37/6 134/38/6 131/35/6
f 135/39/6 134/38/6 133/37/6
f 135/39/6 136/40/6 134/38/6
f 137/41/6 136/40/6 135/39/6
f 138/39/6 136/40/6 137/41/6
f 138/39/6 139/38/6 136/40/6
f 140/37/6 139/38/6 138/39/6
f 141/36/6 139/38/6 140/37/6
f 141/36/6 142/35/6 139/38/6
f 143/31/6 142/35/6 141/36/6
f 142/35/6 143/31/6 144/33/6
f 145/32/6 144/33/6 143/31/6
f 146/32/6 144/33/6 145/32/6
f 144/33/6 146/32/6 147/34/6
f 150/32/4 149/31/4 148/32/4
f 149/31/4 150/32/4 151/33/4
f 151/33/4 150/32/4 152/34/4
f 153/35/4 149/31/4 151/33/4
f 153/35/4 154/36/4 149/31/4
f 153/35/4 155/37/4 154/36/4
f 156/38/4 155/37/4 153/35/4
f 156/38/4 157/39/4 155/37/4
f 158/40/4 157/39/4 156/38/4
f 158/40/4 159/41/4 157/39/4
f 158/40/4 160/39/4 159/41/4
f 161/38/4 160/39/4 158/40/4
f 161/38/4 162/37/4 160/39/4
f 161/38/4 163/36/4 162/37/4
f 164/35/4 163/36/4 161/38/4
f 164/35/4 165/31/4 163/36/4
f 166/33/4 165/31/4 164/35/4
f 166/33/4 167/32/4 165/31/4
f 168/34/4 167/32/4 166/33/4
f 167/32/4 168/34/4 169/32/4
s 1
f 172/34/7 171/32/5 170/32/5
f 171/32/5 172/34/7 173/34/7
f 176/33/8 175/34/9 174/34/9
f 175/34/9 176/33/8 177/33/8
f 180/35/10 179/33/11 178/33/11
f 179/33/11 180/35/10 181/35/10
f 184/38/12 183/35/10 182/38/12
f 183/35/10 184/38/12 185/35/10
f 188/40/13 187/38/14 186/40/13
f 187/38/14 188/40/13 189/38/14
f 192/38/15 191/40/16 190/38/15
f 191/40/16 192/38/15 193/40/16
f 196/35/17 195/38/18 194/35/17
f 195/38/18 196/35/17 197/38/18
f 200/35/17 199/33/19 198/33/19
f 199/33/19 200/35/17 201/35/17
f 204/33/20 203/34/21 202/34/21
f 203/34/21 204/33/20 205/33/20
f 208/34/22 207/32/3 206/32/3
f 207/32/3 208/34/22 209/34/22
s 0
f 212/32/2 211/32/2 210/32/2
f 211/32/2 212/32/2 213/32/2
s 1
f 216/31/23 215/32/5 214/32/5
f 215/32/5 216/31/23 217/31/23
f 220/36/24 219/31/25 218/31/25
f 219/31/25 220/36/24 221/36/24
f 224/37/26 223/36/27 222/36/27
f 223/36/27 224/37/26 225/37/26
f 228/39/28 227/37/26 226/39/28
f 227/37/26 228/39/28 229/37/26
f 232/41/29 231/39/30 230/41/29
f 231/39/30 232/41/29 233/39/30
f 236/39/31 235/41/32 234/39/31
f 235/41/32 236/39/31 237/41/32
f 240/37/33 239/39/34 238/37/33
f 239/39/34 240/37/33 241/39/34
f 244/37/33 243/36/35 242/36/35
f 243/36/35 244/37/33 245/37/33
f 248/36/36 247/31/37 246/31/37
f 247/31/37 248/36/36 249/36/36
f 252/31/38 251/32/3 250/32/3
f 251/32/3 252/31/38 253/31/38
s 0
f 256/32/2 255/32/2 254/32/2
f 255/32/2 256/32/2 257/32/2
