# Blender 5.1.0
# www.blender.org
mtllib wall_wood_diagonal.mtl
o wall-wood-diagonal-col
v 0.500000 0.410427 -0.500000
v 0.500000 -0.589573 -0.500000
v 0.500000 0.410427 -0.400000
v 0.500000 -0.589573 -0.400000
v 0.500000 -0.589573 -0.400000
v 0.450000 -0.589573 -0.400000
v 0.500000 0.410427 -0.400000
v 0.450000 0.410427 -0.400000
v 0.400000 -0.589573 -0.500000
v 0.500000 -0.589573 -0.500000
v 0.400000 0.410427 -0.500000
v 0.500000 0.410427 -0.500000
v 0.500000 0.410427 -0.500000
v 0.500000 0.410427 -0.400000
v 0.400000 0.410427 -0.500000
v 0.450000 0.410427 -0.400000
v 0.400000 0.410427 -0.450000
v 0.400000 -0.589573 -0.500000
v 0.400000 0.410427 -0.500000
v 0.400000 -0.589573 -0.450000
v 0.400000 0.410427 -0.450000
v 0.500000 -0.589573 -0.400000
v 0.500000 -0.589573 -0.500000
v 0.450000 -0.589573 -0.400000
v 0.400000 -0.589573 -0.500000
v 0.400000 -0.589573 -0.450000
v 0.400000 -0.589573 -0.450000
v 0.400000 0.410427 -0.450000
v 0.450000 -0.589573 -0.400000
v 0.450000 0.410427 -0.400000
v -0.500000 0.410427 0.500000
v -0.500000 -0.589573 0.500000
v -0.500000 0.410427 0.400000
v -0.500000 -0.589573 0.400000
v -0.500000 -0.589573 0.400000
v -0.450000 -0.589573 0.400000
v -0.500000 0.410427 0.400000
v -0.450000 0.410427 0.400000
v -0.400000 -0.589573 0.500000
v -0.500000 -0.589573 0.500000
v -0.400000 0.410427 0.500000
v -0.500000 0.410427 0.500000
v -0.500000 0.410427 0.500000
v -0.500000 0.410427 0.400000
v -0.400000 0.410427 0.500000
v -0.450000 0.410427 0.400000
v -0.400000 0.410427 0.450000
v -0.400000 -0.589573 0.500000
v -0.400000 0.410427 0.500000
v -0.400000 -0.589573 0.450000
v -0.400000 0.410427 0.450000
v -0.500000 -0.589573 0.400000
v -0.500000 -0.589573 0.500000
v -0.450000 -0.589573 0.400000
v -0.400000 -0.589573 0.500000
v -0.400000 -0.589573 0.450000
v -0.400000 -0.589573 0.450000
v -0.400000 0.410427 0.450000
v -0.450000 -0.589573 0.400000
v -0.450000 0.410427 0.400000
v 0.450000 0.410427 -0.400000
v 0.450000 -0.589573 -0.400000
v -0.400000 0.410427 0.450000
v -0.400000 -0.589573 0.450000
v 0.400000 -0.589573 -0.450000
v 0.400000 0.410427 -0.450000
v -0.450000 -0.589573 0.400000
v -0.450000 0.410427 0.400000
v 0.450000 0.410427 -0.400000
v -0.400000 0.410427 0.450000
v 0.400000 0.410427 -0.450000
v -0.450000 0.410427 0.400000
vn 1.0000 -0.0000 -0.0000
vn -0.0000 -0.0000 1.0000
vn -0.0000 -0.0000 -1.0000
vn -0.0000 1.0000 -0.0000
vn -1.0000 -0.0000 -0.0000
vn -0.0000 -1.0000 -0.0000
vn -0.7071 -0.0000 0.7071
vn 0.7071 -0.0000 -0.7071
vn 0.7071 -0.0000 0.7071
vn -0.7071 -0.0000 -0.7071
vt 0.593750 0.175000
vt 0.593750 0.075000
vt 0.718750 0.175000
vt 0.718750 0.075000
s 0
usemtl colormap.145
f 3/1/1 2/2/1 1/1/1
f 2/2/1 3/1/1 4/2/1
f 7/1/2 6/2/2 5/2/2
f 6/2/2 7/1/2 8/1/2
f 11/1/3 10/2/3 9/2/3
f 10/2/3 11/1/3 12/1/3
f 15/1/4 14/1/4 13/1/4
f 14/1/4 15/1/4 16/1/4
f 16/1/4 15/1/4 17/1/4
f 20/2/5 19/1/5 18/2/5
f 19/1/5 20/2/5 21/1/5
f 24/2/6 23/2/6 22/2/6
f 23/2/6 24/2/6 25/2/6
f 25/2/6 24/2/6 26/2/6
f 29/2/7 28/1/7 27/2/7
f 28/1/7 29/2/7 30/1/7
f 33/1/5 32/2/5 31/1/5
f 32/2/5 33/1/5 34/2/5
f 37/1/3 36/2/3 35/2/3
f 36/2/3 37/1/3 38/1/3
f 41/1/2 40/2/2 39/2/2
f 40/2/2 41/1/2 42/1/2
f 45/1/4 44/1/4 43/1/4
f 44/1/4 45/1/4 46/1/4
f 46/1/4 45/1/4 47/1/4
f 50/2/1 49/1/1 48/2/1
f 49/1/1 50/2/1 51/1/1
f 54/2/6 53/2/6 52/2/6
f 53/2/6 54/2/6 55/2/6
f 55/2/6 54/2/6 56/2/6
f 59/2/8 58/1/8 57/2/8
f 58/1/8 59/2/8 60/1/8
f 63/3/9 62/4/9 61/3/9
f 62/4/9 63/3/9 64/4/9
f 67/4/10 66/3/10 65/4/10
f 66/3/10 67/4/10 68/3/10
f 71/3/4 70/3/4 69/3/4
f 70/3/4 71/3/4 72/3/4
