# Blender 5.1.0
# www.blender.org
mtllib wall_doorway_square_wide.mtl
o wall-doorway-square-wide-col
v 0.050000 0.372095 -0.349655
v 0.050000 0.372095 -0.249655
v -0.050000 0.372095 -0.349655
v -0.050000 0.372095 -0.249655
v 0.050000 -0.627905 -0.249655
v 0.050000 -0.627905 -0.349655
v -0.050000 -0.627905 -0.249655
v -0.050000 -0.627905 -0.349655
v -0.050000 -0.627905 -0.349655
v 0.050000 -0.627905 -0.349655
v -0.050000 0.372095 -0.349655
v 0.050000 0.372095 -0.349655
v -0.050000 -0.627905 -0.349655
v -0.050000 0.372095 -0.349655
v -0.050000 -0.627905 -0.249655
v -0.050000 0.372095 -0.249655
v 0.050000 -0.627905 -0.249655
v -0.050000 -0.627905 -0.249655
v 0.050000 0.372095 -0.249655
v -0.050000 0.372095 -0.249655
v 0.050000 0.372095 -0.349655
v 0.050000 -0.627905 -0.349655
v 0.050000 0.372095 -0.249655
v 0.050000 -0.627905 -0.249655
v -0.050000 -0.627905 -0.149655
v -0.050000 0.222095 -0.149655
v -0.050000 -0.627905 -0.049655
v -0.050000 0.122095 -0.049655
v -0.050000 0.222095 0.650345
v -0.050000 0.122095 0.650345
v 0.050000 0.122095 0.650345
v 0.050000 0.222095 0.650345
v 0.050000 0.122095 -0.049655
v 0.050000 0.222095 -0.149655
v 0.050000 -0.627905 -0.149655
v 0.050000 -0.627905 -0.049655
v 0.050000 0.122095 0.650345
v 0.050000 0.122095 -0.049655
v -0.050000 0.122095 0.650345
v -0.050000 0.122095 -0.049655
v 0.050000 0.122095 0.650345
v -0.050000 0.122095 0.650345
v 0.050000 0.222095 0.650345
v -0.050000 0.222095 0.650345
v 0.050000 0.222095 -0.149655
v 0.050000 0.222095 0.650345
v -0.050000 0.222095 -0.149655
v -0.050000 0.222095 0.650345
v -0.050000 -0.627905 -0.149655
v 0.050000 -0.627905 -0.149655
v -0.050000 0.222095 -0.149655
v 0.050000 0.222095 -0.149655
v 0.050000 -0.627905 -0.049655
v 0.050000 -0.627905 -0.149655
v -0.050000 -0.627905 -0.049655
v -0.050000 -0.627905 -0.149655
v 0.050000 -0.627905 -0.049655
v -0.050000 -0.627905 -0.049655
v 0.050000 0.122095 -0.049655
v -0.050000 0.122095 -0.049655
v -0.025000 -0.627905 -0.249655
v -0.025000 0.372095 -0.249655
v -0.025000 -0.627905 -0.149655
v -0.025000 0.222095 -0.149655
v -0.025000 0.372095 0.650345
v -0.025000 0.222095 0.650345
v 0.025000 0.222095 0.650345
v 0.025000 0.372095 0.650345
v 0.025000 0.222095 -0.149655
v 0.025000 0.372095 -0.249655
v 0.025000 -0.627905 -0.249655
v 0.025000 -0.627905 -0.149655
v 0.025000 0.222095 0.650345
v -0.025000 0.222095 0.650345
v 0.025000 0.372095 0.650345
v -0.025000 0.372095 0.650345
v 0.025000 0.372095 -0.249655
v 0.025000 0.372095 0.650345
v -0.025000 0.372095 -0.249655
v -0.025000 0.372095 0.650345
v 0.025000 -0.627905 -0.149655
v 0.025000 -0.627905 -0.249655
v -0.025000 -0.627905 -0.149655
v -0.025000 -0.627905 -0.249655
vn -0.0000 1.0000 -0.0000
vn -0.0000 -1.0000 -0.0000
vn -0.0000 -0.0000 -1.0000
vn -1.0000 -0.0000 -0.0000
vn -0.0000 -0.0000 1.0000
vn 1.0000 -0.0000 -0.0000
vt 0.593750 0.175000
vt 0.593750 0.075000
vt 0.968750 0.075000
vt 0.968750 0.175000
vt 0.968750 0.163235
vt 0.218750 0.325000
vt 0.218750 0.425000
vt 0.218750 0.410000
s 0
usemtl colormap.120
f 3/1/1 2/1/1 1/1/1
f 2/1/1 3/1/1 4/1/1
f 7/2/2 6/2/2 5/2/2
f 6/2/2 7/2/2 8/2/2
f 11/1/3 10/2/3 9/2/3
f 10/2/3 11/1/3 12/1/3
f 15/2/4 14/1/4 13/2/4
f 14/1/4 15/2/4 16/1/4
f 19/1/5 18/2/5 17/2/5
f 18/2/5 19/1/5 20/1/5
f 23/1/6 22/2/6 21/1/6
f 22/2/6 23/1/6 24/2/6
f 27/3/4 26/4/4 25/3/4
f 26/4/4 27/3/4 28/5/4
f 26/4/4 28/5/4 29/4/4
f 29/4/4 28/5/4 30/5/4
f 33/5/6 32/4/6 31/5/6
f 33/5/6 34/4/6 32/4/6
f 34/4/6 33/5/6 35/3/6
f 36/3/6 35/3/6 33/5/6
f 39/5/2 38/5/2 37/5/2
f 38/5/2 39/5/2 40/5/2
f 43/4/5 42/5/5 41/5/5
f 42/5/5 43/4/5 44/4/5
f 47/4/1 46/4/1 45/4/1
f 46/4/1 47/4/1 48/4/1
f 51/4/3 50/3/3 49/3/3
f 50/3/3 51/4/3 52/4/3
f 55/3/2 54/3/2 53/3/2
f 54/3/2 55/3/2 56/3/2
f 59/5/5 58/3/5 57/3/5
f 58/3/5 59/5/5 60/5/5
f 63/6/4 62/7/4 61/6/4
f 62/7/4 63/6/4 64/8/4
f 62/7/4 64/8/4 65/7/4
f 65/7/4 64/8/4 66/8/4
f 69/8/6 68/7/6 67/8/6
f 69/8/6 70/7/6 68/7/6
f 70/7/6 69/8/6 71/6/6
f 72/6/6 71/6/6 69/8/6
f 75/7/5 74/8/5 73/8/5
f 74/8/5 75/7/5 76/7/5
f 79/7/1 78/7/1 77/7/1
f 78/7/1 79/7/1 80/7/1
f 83/6/2 82/6/2 81/6/2
f 82/6/2 83/6/2 84/6/2
