# Blender 5.1.0
# www.blender.org
mtllib wall_window_small.mtl
o wall-window-small-col
v 0.050000 0.499885 -0.501067
v 0.050000 0.499885 -0.401067
v -0.050000 0.499885 -0.501067
v -0.050000 0.499885 -0.401067
v 0.050000 -0.500115 -0.401067
v 0.050000 -0.500115 -0.501067
v -0.050000 -0.500115 -0.401067
v -0.050000 -0.500115 -0.501067
v -0.050000 -0.500115 -0.501067
v 0.050000 -0.500115 -0.501067
v -0.050000 0.499885 -0.501067
v 0.050000 0.499885 -0.501067
v -0.050000 -0.500115 -0.501067
v -0.050000 0.499885 -0.501067
v -0.050000 -0.500115 -0.401067
v -0.050000 0.499885 -0.401067
v 0.050000 -0.500115 -0.401067
v -0.050000 -0.500115 -0.401067
v 0.050000 0.499885 -0.401067
v -0.050000 0.499885 -0.401067
v 0.050000 0.499885 -0.501067
v 0.050000 -0.500115 -0.501067
v 0.050000 0.499885 -0.401067
v 0.050000 -0.500115 -0.401067
v 0.050000 0.499885 0.398933
v 0.050000 0.499885 0.498933
v -0.050000 0.499885 0.398933
v -0.050000 0.499885 0.498933
v 0.050000 -0.500115 0.498933
v 0.050000 -0.500115 0.398933
v -0.050000 -0.500115 0.498933
v -0.050000 -0.500115 0.398933
v -0.050000 -0.500115 0.398933
v 0.050000 -0.500115 0.398933
v -0.050000 0.499885 0.398933
v 0.050000 0.499885 0.398933
v -0.050000 -0.500115 0.398933
v -0.050000 0.499885 0.398933
v -0.050000 -0.500115 0.498933
v -0.050000 0.499885 0.498933
v 0.050000 -0.500115 0.498933
v -0.050000 -0.500115 0.498933
v 0.050000 0.499885 0.498933
v -0.050000 0.499885 0.498933
v 0.050000 0.499885 0.398933
v 0.050000 -0.500115 0.398933
v 0.050000 0.499885 0.498933
v 0.050000 -0.500115 0.498933
v -0.050000 -0.200115 -0.061067
v -0.050000 0.199885 -0.061067
v 0.050000 -0.200115 -0.061067
v 0.050000 0.199885 -0.061067
v 0.050000 0.249885 -0.111067
v 0.050000 0.249885 0.108933
v 0.025000 0.249885 -0.111067
v 0.025000 0.249885 0.108933
v -0.025000 -0.250115 0.108933
v -0.025000 -0.250115 -0.111067
v -0.050000 -0.250115 0.108933
v -0.050000 -0.250115 -0.111067
v -0.025000 0.249885 -0.111067
v -0.025000 0.249885 0.108933
v -0.050000 0.249885 -0.111067
v -0.050000 0.249885 0.108933
v -0.025000 -0.250115 -0.111067
v -0.025000 0.249885 -0.111067
v -0.050000 -0.250115 -0.111067
v -0.050000 0.249885 -0.111067
v 0.025000 -0.250115 0.158933
v 0.025000 0.299885 0.158933
v 0.025000 -0.300115 0.158933
v 0.025000 -0.250115 0.108933
v 0.025000 0.249885 0.108933
v 0.025000 -0.250115 -0.111067
v 0.025000 -0.300115 -0.161067
v 0.025000 0.249885 -0.111067
v 0.025000 0.299885 -0.161067
v -0.025000 -0.250115 0.158933
v -0.025000 -0.300115 0.158933
v -0.025000 0.299885 0.158933
v -0.025000 0.249885 0.108933
v -0.025000 -0.250115 0.108933
v -0.025000 0.249885 -0.111067
v -0.025000 0.299885 -0.161067
v -0.025000 -0.250115 -0.111067
v -0.025000 -0.300115 -0.161067
v -0.050000 -0.200115 0.058933
v 0.050000 -0.200115 0.058933
v -0.050000 0.199885 0.058933
v 0.050000 0.199885 0.058933
v 0.050000 0.199885 0.058933
v 0.050000 0.199885 -0.061067
v -0.050000 0.199885 0.058933
v -0.050000 0.199885 -0.061067
v 0.025000 -0.250115 0.108933
v 0.025000 0.249885 0.108933
v 0.050000 -0.250115 0.108933
v 0.050000 0.249885 0.108933
v 0.025000 -0.250115 -0.111067
v 0.050000 -0.250115 -0.111067
v 0.025000 0.249885 -0.111067
v 0.050000 0.249885 -0.111067
v -0.025000 -0.250115 0.108933
v -0.050000 -0.250115 0.108933
v -0.025000 0.249885 0.108933
v -0.050000 0.249885 0.108933
v 0.050000 -0.250115 0.108933
v 0.050000 -0.250115 -0.111067
v 0.025000 -0.250115 0.108933
v 0.025000 -0.250115 -0.111067
v 0.050000 -0.200115 -0.061067
v 0.050000 -0.200115 0.058933
v -0.050000 -0.200115 -0.061067
v -0.050000 -0.200115 0.058933
v 0.050000 0.199885 0.058933
v 0.050000 0.249885 0.108933
v 0.050000 0.199885 -0.061067
v 0.050000 -0.200115 0.058933
v 0.050000 0.249885 -0.111067
v 0.050000 -0.250115 0.108933
v 0.050000 -0.250115 -0.111067
v 0.050000 -0.200115 -0.061067
v -0.050000 0.249885 -0.111067
v -0.050000 -0.200115 -0.061067
v -0.050000 -0.250115 -0.111067
v -0.050000 -0.250115 0.108933
v -0.050000 0.199885 -0.061067
v -0.050000 -0.200115 0.058933
v -0.050000 0.249885 0.108933
v -0.050000 0.199885 0.058933
v 0.025000 -0.500115 0.398933
v 0.025000 -0.500115 -0.401067
v -0.025000 -0.500115 0.398933
v -0.025000 -0.500115 -0.401067
v 0.025000 0.499885 -0.401067
v 0.025000 0.499885 0.398933
v -0.025000 0.499885 -0.401067
v -0.025000 0.499885 0.398933
v 0.025000 -0.500115 -0.401067
v 0.025000 0.299885 -0.161067
v 0.025000 0.499885 -0.401067
v 0.025000 0.499885 0.398933
v 0.025000 -0.300115 -0.161067
v 0.025000 0.299885 0.158933
v 0.025000 -0.500115 0.398933
v 0.025000 -0.300115 0.158933
v -0.025000 -0.300115 0.158933
v -0.025000 -0.500115 0.398933
v -0.025000 -0.300115 -0.161067
v -0.025000 0.299885 0.158933
v -0.025000 -0.500115 -0.401067
v -0.025000 0.499885 0.398933
v -0.025000 0.499885 -0.401067
v -0.025000 0.299885 -0.161067
vn -0.0000 1.0000 -0.0000
vn -0.0000 -1.0000 -0.0000
vn -0.0000 -0.0000 -1.0000
vn -1.0000 -0.0000 -0.0000
vn -0.0000 -0.0000 1.0000
vn 1.0000 -0.0000 -0.0000
vn -0.0000 -0.0000 -0.0000
vt 0.593750 0.175000
vt 0.593750 0.075000
vt 0.593750 0.100000
vt 0.593750 0.150000
vt 0.218750 0.325000
vt 0.218750 0.425000
vt 0.218750 0.405000
vt 0.218750 0.345000
s 0
usemtl colormap.129
f 3/1/1 2/1/1 1/1/1
f 2/1/1 3/1/1 4/1/1
f 7/2/2 6/2/2 5/2/2
f 6/2/2 7/2/2 8/2/2
f 11/1/3 10/2/3 9/2/3
f 10/2/3 11/1/3 12/1/3
f 15/2/4 14/1/4 13/2/4
f 14/1/4 15/2/4 16/1/4
f 19/1/5 18/2/5 17/2/5
f 18/2/5 19/1/5 20/1/5
f 23/1/6 22/2/6 21/1/6
f 22/2/6 23/1/6 24/2/6
f 27/1/1 26/1/1 25/1/1
f 26/1/1 27/1/1 28/1/1
f 31/2/2 30/2/2 29/2/2
f 30/2/2 31/2/2 32/2/2
f 35/1/3 34/2/3 33/2/3
f 34/2/3 35/1/3 36/1/3
f 39/2/4 38/1/4 37/2/4
f 38/1/4 39/2/4 40/1/4
f 43/1/5 42/2/5 41/2/5
f 42/2/5 43/1/5 44/1/5
f 47/1/6 46/2/6 45/1/6
f 46/2/6 47/1/6 48/2/6
f 51/2/5 50/1/5 49/1/5
f 50/1/5 51/2/5 52/2/5
f 55/3/1 54/2/1 53/2/1
f 54/2/1 55/3/1 56/3/1
f 59/1/2 58/4/2 57/4/2
f 58/4/2 59/1/2 60/1/2
f 63/1/1 62/4/1 61/4/1
f 62/4/1 63/1/1 64/1/1
f 67/1/3 66/4/3 65/4/3
f 66/4/3 67/1/3 68/1/3
s 1
f 71/3/7 70/3/7 69/3/7
s 0
f 71/3/6 72/3/6 70/3/6
f 73/3/6 70/3/6 72/3/6
f 71/3/6 74/3/6 72/3/6
f 75/3/6 74/3/6 71/3/6
f 76/3/6 70/3/6 73/3/6
f 74/3/6 75/3/6 76/3/6
f 76/3/6 77/3/6 70/3/6
f 77/3/6 76/3/6 75/3/6
s 1
f 80/4/4 79/4/4 78/4/4
s 0
f 80/4/4 81/4/4 79/4/4
f 82/4/4 79/4/4 81/4/4
f 80/4/4 83/4/4 81/4/4
f 84/4/4 83/4/4 80/4/4
f 85/4/4 79/4/4 82/4/4
f 83/4/4 84/4/4 85/4/4
f 85/4/4 86/4/4 79/4/4
f 86/4/4 85/4/4 84/4/4
f 89/1/3 88/2/3 87/1/3
f 88/2/3 89/1/3 90/2/3
f 93/1/2 92/2/2 91/2/2
f 92/2/2 93/1/2 94/1/2
f 97/2/5 96/3/5 95/3/5
f 96/3/5 97/2/5 98/2/5
f 101/3/3 100/2/3 99/3/3
f 100/2/3 101/3/3 102/2/3
f 105/4/5 104/1/5 103/4/5
f 104/1/5 105/4/5 106/1/5
f 109/3/2 108/2/2 107/2/2
f 108/2/2 109/3/2 110/3/2
f 113/1/1 112/2/1 111/2/1
f 112/2/1 113/1/1 114/1/1
f 117/2/6 116/2/6 115/2/6
f 115/2/6 116/2/6 118/2/6
f 117/2/6 119/2/6 116/2/6
f 120/2/6 118/2/6 116/2/6
f 119/2/6 117/2/6 121/2/6
f 120/2/6 122/2/6 118/2/6
f 121/2/6 122/2/6 120/2/6
f 122/2/6 121/2/6 117/2/6
f 125/1/4 124/1/4 123/1/4
f 124/1/4 125/1/4 126/1/4
f 127/1/4 123/1/4 124/1/4
f 124/1/4 126/1/4 128/1/4
f 123/1/4 127/1/4 129/1/4
f 128/1/4 126/1/4 130/1/4
f 129/1/4 127/1/4 130/1/4
f 129/1/4 130/1/4 126/1/4
f 133/5/2 132/5/2 131/5/2
f 132/5/2 133/5/2 134/5/2
f 137/6/1 136/6/1 135/6/1
f 136/6/1 137/6/1 138/6/1
f 141/6/6 140/7/6 139/5/6
f 140/7/6 141/6/6 142/6/6
f 143/8/6 139/5/6 140/7/6
f 140/7/6 142/6/6 144/7/6
f 139/5/6 143/8/6 145/5/6
f 144/7/6 142/6/6 146/8/6
f 145/5/6 143/8/6 146/8/6
f 145/5/6 146/8/6 142/6/6
f 149/8/4 148/5/4 147/8/4
f 147/8/4 148/5/4 150/7/4
f 149/8/4 151/5/4 148/5/4
f 152/6/4 150/7/4 148/5/4
f 151/5/4 149/8/4 153/6/4
f 152/6/4 154/7/4 150/7/4
f 153/6/4 154/7/4 152/6/4
f 154/7/4 153/6/4 149/8/4
