# Blender 5.1.0
# www.blender.org
mtllib wall_wood_curved.mtl
o wall-wood-curved-col
v 0.376937 0.500000 -0.623132
v 0.376937 0.500000 -0.523132
v 0.276937 0.500000 -0.623132
v 0.276937 0.500000 -0.523132
v 0.376937 -0.500000 -0.523132
v 0.376937 -0.500000 -0.623132
v 0.276937 -0.500000 -0.523132
v 0.276937 -0.500000 -0.623132
v 0.276937 -0.500000 -0.623132
v 0.376937 -0.500000 -0.623132
v 0.276937 0.500000 -0.623132
v 0.376937 0.500000 -0.623132
v 0.276937 -0.500000 -0.623132
v 0.276937 0.500000 -0.623132
v 0.276937 -0.500000 -0.523132
v 0.276937 0.500000 -0.523132
v 0.376937 -0.500000 -0.523132
v 0.276937 -0.500000 -0.523132
v 0.376937 0.500000 -0.523132
v 0.276937 0.500000 -0.523132
v 0.376937 0.500000 -0.623132
v 0.376937 -0.500000 -0.623132
v 0.376937 0.500000 -0.523132
v 0.376937 -0.500000 -0.523132
v -0.523063 0.500000 0.276868
v -0.523063 0.500000 0.376868
v -0.623063 0.500000 0.276868
v -0.623063 0.500000 0.376868
v -0.523063 -0.500000 0.376868
v -0.523063 -0.500000 0.276868
v -0.623063 -0.500000 0.376868
v -0.623063 -0.500000 0.276868
v -0.623063 -0.500000 0.276868
v -0.523063 -0.500000 0.276868
v -0.623063 0.500000 0.276868
v -0.523063 0.500000 0.276868
v -0.623063 -0.500000 0.276868
v -0.623063 0.500000 0.276868
v -0.623063 -0.500000 0.376868
v -0.623063 0.500000 0.376868
v -0.523063 -0.500000 0.376868
v -0.623063 -0.500000 0.376868
v -0.523063 0.500000 0.376868
v -0.623063 0.500000 0.376868
v -0.523063 0.500000 0.276868
v -0.523063 -0.500000 0.276868
v -0.523063 0.500000 0.376868
v -0.523063 -0.500000 0.376868
v 0.351937 0.500000 -0.523132
v 0.344451 0.500000 -0.408921
v 0.301937 0.500000 -0.523132
v 0.322122 0.500000 -0.296665
v 0.285332 0.500000 -0.188284
v 0.294879 0.500000 -0.415448
v 0.273826 0.500000 -0.309606
v 0.234709 0.500000 -0.085632
v 0.239138 0.500000 -0.207418
v 0.191408 0.500000 -0.110632
v 0.171121 0.500000 0.009535
v 0.131453 0.500000 -0.020903
v 0.095655 0.500000 0.095587
v 0.060300 0.500000 0.060231
v 0.009603 0.500000 0.171052
v -0.020835 0.500000 0.131385
v -0.085563 0.500000 0.234641
v -0.110563 0.500000 0.191339
v -0.188215 0.500000 0.285263
v -0.207349 0.500000 0.239069
v -0.296596 0.500000 0.322053
v -0.309537 0.500000 0.273757
v -0.408853 0.500000 0.344383
v -0.415379 0.500000 0.294810
v -0.523063 0.500000 0.351868
v -0.523063 0.500000 0.301868
v 0.351937 -0.500000 -0.523132
v 0.301937 -0.500000 -0.523132
v 0.344451 -0.500000 -0.408921
v 0.322122 -0.500000 -0.296665
v 0.285332 -0.500000 -0.188284
v 0.294879 -0.500000 -0.415448
v 0.273826 -0.500000 -0.309606
v 0.234709 -0.500000 -0.085632
v 0.239138 -0.500000 -0.207418
v 0.191408 -0.500000 -0.110632
v 0.171121 -0.500000 0.009535
v 0.131453 -0.500000 -0.020903
v 0.095655 -0.500000 0.095587
v 0.060300 -0.500000 0.060231
v 0.009603 -0.500000 0.171052
v -0.020835 -0.500000 0.131385
v -0.085563 -0.500000 0.234641
v -0.110563 -0.500000 0.191339
v -0.188215 -0.500000 0.285263
v -0.207349 -0.500000 0.239069
v -0.296596 -0.500000 0.322053
v -0.309537 -0.500000 0.273757
v -0.408853 -0.500000 0.344383
v -0.415379 -0.500000 0.294810
v -0.523063 -0.500000 0.351868
v -0.523063 -0.500000 0.301868
v -0.408853 -0.500000 0.344383
v -0.523063 -0.500000 0.351868
v -0.408853 0.500000 0.344383
v -0.523063 0.500000 0.351868
v -0.296596 -0.500000 0.322053
v -0.408853 -0.500000 0.344383
v -0.296596 0.500000 0.322053
v -0.408853 0.500000 0.344383
v -0.188215 -0.500000 0.285263
v -0.296596 -0.500000 0.322053
v -0.188215 0.500000 0.285263
v -0.296596 0.500000 0.322053
v -0.085563 -0.500000 0.234641
v -0.188215 -0.500000 0.285263
v -0.085563 0.500000 0.234641
v -0.188215 0.500000 0.285263
v 0.009603 -0.500000 0.171052
v -0.085563 -0.500000 0.234641
v 0.009603 0.500000 0.171052
v -0.085563 0.500000 0.234641
v 0.095655 -0.500000 0.095587
v 0.009603 -0.500000 0.171052
v 0.095655 0.500000 0.095587
v 0.009603 0.500000 0.171052
v 0.171121 0.500000 0.009535
v 0.171121 -0.500000 0.009535
v 0.095655 0.500000 0.095587
v 0.095655 -0.500000 0.095587
v 0.234709 0.500000 -0.085632
v 0.234709 -0.500000 -0.085632
v 0.171121 0.500000 0.009535
v 0.171121 -0.500000 0.009535
v 0.285332 0.500000 -0.188284
v 0.285332 -0.500000 -0.188284
v 0.234709 0.500000 -0.085632
v 0.234709 -0.500000 -0.085632
v 0.322122 0.500000 -0.296665
v 0.322122 -0.500000 -0.296665
v 0.285332 0.500000 -0.188284
v 0.285332 -0.500000 -0.188284
v 0.344451 0.500000 -0.408921
v 0.344451 -0.500000 -0.408921
v 0.322122 0.500000 -0.296665
v 0.322122 -0.500000 -0.296665
v 0.351937 0.500000 -0.523132
v 0.351937 -0.500000 -0.523132
v 0.344451 0.500000 -0.408921
v 0.344451 -0.500000 -0.408921
v 0.301937 -0.500000 -0.523132
v 0.301937 0.500000 -0.523132
v 0.294879 -0.500000 -0.415448
v 0.294879 0.500000 -0.415448
v 0.294879 -0.500000 -0.415448
v 0.294879 0.500000 -0.415448
v 0.273826 -0.500000 -0.309606
v 0.273826 0.500000 -0.309606
v 0.273826 -0.500000 -0.309606
v 0.273826 0.500000 -0.309606
v 0.239138 -0.500000 -0.207418
v 0.239138 0.500000 -0.207418
v 0.239138 -0.500000 -0.207418
v 0.239138 0.500000 -0.207418
v 0.191408 -0.500000 -0.110632
v 0.191408 0.500000 -0.110632
v 0.191408 -0.500000 -0.110632
v 0.191408 0.500000 -0.110632
v 0.131453 -0.500000 -0.020903
v 0.131453 0.500000 -0.020903
v 0.131453 -0.500000 -0.020903
v 0.131453 0.500000 -0.020903
v 0.060300 -0.500000 0.060231
v 0.060300 0.500000 0.060231
v -0.020835 -0.500000 0.131385
v 0.060300 -0.500000 0.060231
v -0.020835 0.500000 0.131385
v 0.060300 0.500000 0.060231
v -0.110563 -0.500000 0.191339
v -0.020835 -0.500000 0.131385
v -0.110563 0.500000 0.191339
v -0.020835 0.500000 0.131385
v -0.207349 -0.500000 0.239069
v -0.110563 -0.500000 0.191339
v -0.207349 0.500000 0.239069
v -0.110563 0.500000 0.191339
v -0.309537 -0.500000 0.273757
v -0.207349 -0.500000 0.239069
v -0.309537 0.500000 0.273757
v -0.207349 0.500000 0.239069
v -0.415379 -0.500000 0.294810
v -0.309537 -0.500000 0.273757
v -0.415379 0.500000 0.294810
v -0.309537 0.500000 0.273757
v -0.415379 -0.500000 0.294810
v -0.415379 0.500000 0.294810
v -0.523063 -0.500000 0.301868
v -0.523063 0.500000 0.301868
vn -0.0000 1.0000 -0.0000
vn -0.0000 -1.0000 -0.0000
vn -0.0000 -0.0000 -1.0000
vn -1.0000 -0.0000 -0.0000
vn -0.0000 -0.0000 1.0000
vn 1.0000 -0.0000 -0.0000
vn 0.1305 -0.0000 0.9914
vn 0.0654 -0.0000 0.9979
vn 0.2588 -0.0000 0.9659
vn 0.3827 -0.0000 0.9239
vn 0.5000 -0.0000 0.8660
vn 0.6088 -0.0000 0.7934
vn 0.7071 -0.0000 0.7071
vn 0.6088 -0.0000 0.7933
vn 0.7933 -0.0000 0.6088
vn 0.7934 -0.0000 0.6088
vn 0.8660 -0.0000 0.5000
vn 0.9239 -0.0000 0.3827
vn 0.9659 -0.0000 0.2588
vn 0.9914 -0.0000 0.1305
vn 0.9979 -0.0000 0.0654
vn -0.9914 -0.0000 -0.1305
vn -0.9979 -0.0000 -0.0654
vn -0.9659 -0.0000 -0.2588
vn -0.9239 -0.0000 -0.3827
vn -0.8660 -0.0000 -0.5000
vn -0.7934 -0.0000 -0.6088
vn -0.7071 -0.0000 -0.7071
vn -0.7933 -0.0000 -0.6088
vn -0.6088 -0.0000 -0.7933
vn -0.5000 -0.0000 -0.8660
vn -0.6088 -0.0000 -0.7934
vn -0.3827 -0.0000 -0.9239
vn -0.2588 -0.0000 -0.9659
vn -0.1305 -0.0000 -0.9914
vn -0.0654 -0.0000 -0.9979
vt 0.593750 0.175000
vt 0.593750 0.075000
vt 0.718750 0.175000
vt 0.718750 0.075000
s 0
usemtl colormap.141
f 3/1/1 2/1/1 1/1/1
f 2/1/1 3/1/1 4/1/1
f 7/2/2 6/2/2 5/2/2
f 6/2/2 7/2/2 8/2/2
f 11/1/3 10/2/3 9/2/3
f 10/2/3 11/1/3 12/1/3
f 15/2/4 14/1/4 13/2/4
f 14/1/4 15/2/4 16/1/4
f 19/1/5 18/2/5 17/2/5
f 18/2/5 19/1/5 20/1/5
f 23/1/6 22/2/6 21/1/6
f 22/2/6 23/1/6 24/2/6
f 27/1/1 26/1/1 25/1/1
f 26/1/1 27/1/1 28/1/1
f 31/2/2 30/2/2 29/2/2
f 30/2/2 31/2/2 32/2/2
f 35/1/3 34/2/3 33/2/3
f 34/2/3 35/1/3 36/1/3
f 39/2/4 38/1/4 37/2/4
f 38/1/4 39/2/4 40/1/4
f 43/1/5 42/2/5 41/2/5
f 42/2/5 43/1/5 44/1/5
f 47/1/6 46/2/6 45/1/6
f 46/2/6 47/1/6 48/2/6
f 51/3/1 50/3/1 49/3/1
f 50/3/1 51/3/1 52/3/1
f 52/3/1 51/3/1 53/3/1
f 53/3/1 51/3/1 54/3/1
f 53/3/1 54/3/1 55/3/1
f 53/3/1 55/3/1 56/3/1
f 56/3/1 55/3/1 57/3/1
f 56/3/1 57/3/1 58/3/1
f 56/3/1 58/3/1 59/3/1
f 59/3/1 58/3/1 60/3/1
f 59/3/1 60/3/1 61/3/1
f 61/3/1 60/3/1 62/3/1
f 61/3/1 62/3/1 63/3/1
f 63/3/1 62/3/1 64/3/1
f 63/3/1 64/3/1 65/3/1
f 65/3/1 64/3/1 66/3/1
f 65/3/1 66/3/1 67/3/1
f 67/3/1 66/3/1 68/3/1
f 67/3/1 68/3/1 69/3/1
f 69/3/1 68/3/1 70/3/1
f 69/3/1 70/3/1 71/3/1
f 71/3/1 70/3/1 72/3/1
f 71/3/1 72/3/1 73/3/1
f 73/3/1 72/3/1 74/3/1
f 77/4/2 76/4/2 75/4/2
f 76/4/2 77/4/2 78/4/2
f 76/4/2 78/4/2 79/4/2
f 76/4/2 79/4/2 80/4/2
f 80/4/2 79/4/2 81/4/2
f 81/4/2 79/4/2 82/4/2
f 81/4/2 82/4/2 83/4/2
f 83/4/2 82/4/2 84/4/2
f 84/4/2 82/4/2 85/4/2
f 84/4/2 85/4/2 86/4/2
f 86/4/2 85/4/2 87/4/2
f 86/4/2 87/4/2 88/4/2
f 88/4/2 87/4/2 89/4/2
f 88/4/2 89/4/2 90/4/2
f 90/4/2 89/4/2 91/4/2
f 90/4/2 91/4/2 92/4/2
f 92/4/2 91/4/2 93/4/2
f 92/4/2 93/4/2 94/4/2
f 94/4/2 93/4/2 95/4/2
f 94/4/2 95/4/2 96/4/2
f 96/4/2 95/4/2 97/4/2
f 96/4/2 97/4/2 98/4/2
f 98/4/2 97/4/2 99/4/2
f 98/4/2 99/4/2 100/4/2
s 1
f 103/3/7 102/4/8 101/4/7
f 102/4/8 103/3/7 104/3/8
f 107/3/9 106/4/7 105/4/9
f 106/4/7 107/3/9 108/3/7
f 111/3/10 110/4/9 109/4/10
f 110/4/9 111/3/10 112/3/9
f 115/3/11 114/4/10 113/4/11
f 114/4/10 115/3/11 116/3/10
f 119/3/12 118/4/11 117/4/12
f 118/4/11 119/3/12 120/3/11
f 123/3/13 122/4/14 121/4/13
f 122/4/14 123/3/13 124/3/14
f 127/3/13 126/4/15 125/3/15
f 126/4/15 127/3/13 128/4/13
f 131/3/16 130/4/17 129/3/17
f 130/4/17 131/3/16 132/4/16
f 135/3/17 134/4/18 133/3/18
f 134/4/18 135/3/17 136/4/17
f 139/3/18 138/4/19 137/3/19
f 138/4/19 139/3/18 140/4/18
f 143/3/19 142/4/20 141/3/20
f 142/4/20 143/3/19 144/4/19
f 147/3/20 146/4/21 145/3/21
f 146/4/21 147/3/20 148/4/20
f 151/4/22 150/3/23 149/4/23
f 150/3/23 151/4/22 152/3/22
f 155/4/24 154/3/22 153/4/22
f 154/3/22 155/4/24 156/3/24
f 159/4/25 158/3/24 157/4/24
f 158/3/24 159/4/25 160/3/25
f 163/4/26 162/3/25 161/4/25
f 162/3/25 163/4/26 164/3/26
f 167/4/27 166/3/26 165/4/26
f 166/3/26 167/4/27 168/3/27
f 171/4/28 170/3/29 169/4/29
f 170/3/29 171/4/28 172/3/28
f 175/3/30 174/4/28 173/4/30
f 174/4/28 175/3/30 176/3/28
f 179/3/31 178/4/32 177/4/31
f 178/4/32 179/3/31 180/3/32
f 183/3/33 182/4/31 181/4/33
f 182/4/31 183/3/33 184/3/31
f 187/3/34 186/4/33 185/4/34
f 186/4/33 187/3/34 188/3/33
f 191/3/35 190/4/34 189/4/35
f 190/4/34 191/3/35 192/3/34
f 195/4/36 194/3/35 193/4/35
f 194/3/35 195/4/36 196/3/36
