# Blender 5.1.0
# www.blender.org
mtllib wall_wood_rounded.mtl
o wall-wood-rounded-col
v 0.317801 0.500000 -0.681916
v 0.317801 0.500000 -0.581916
v 0.217801 0.500000 -0.681916
v 0.217801 0.500000 -0.581916
v 0.317801 -0.500000 -0.581916
v 0.317801 -0.500000 -0.681916
v 0.217801 -0.500000 -0.581916
v 0.217801 -0.500000 -0.681916
v 0.217801 -0.500000 -0.681916
v 0.317801 -0.500000 -0.681916
v 0.217801 0.500000 -0.681916
v 0.317801 0.500000 -0.681916
v 0.217801 -0.500000 -0.681916
v 0.217801 0.500000 -0.681916
v 0.217801 -0.500000 -0.581916
v 0.217801 0.500000 -0.581916
v 0.317801 -0.500000 -0.581916
v 0.217801 -0.500000 -0.581916
v 0.317801 0.500000 -0.581916
v 0.217801 0.500000 -0.581916
v 0.317801 0.500000 -0.681916
v 0.317801 -0.500000 -0.681916
v 0.317801 0.500000 -0.581916
v 0.317801 -0.500000 -0.581916
v -0.582199 0.500000 0.218084
v -0.582199 0.500000 0.318084
v -0.682199 0.500000 0.218084
v -0.682199 0.500000 0.318084
v -0.582199 -0.500000 0.318084
v -0.582199 -0.500000 0.218084
v -0.682199 -0.500000 0.318084
v -0.682199 -0.500000 0.218084
v -0.682199 -0.500000 0.218084
v -0.582199 -0.500000 0.218084
v -0.682199 0.500000 0.218084
v -0.582199 0.500000 0.218084
v -0.682199 -0.500000 0.218084
v -0.682199 0.500000 0.218084
v -0.682199 -0.500000 0.318084
v -0.682199 0.500000 0.318084
v -0.582199 -0.500000 0.318084
v -0.682199 -0.500000 0.318084
v -0.582199 0.500000 0.318084
v -0.682199 0.500000 0.318084
v -0.582199 0.500000 0.218084
v -0.582199 -0.500000 0.218084
v -0.582199 0.500000 0.318084
v -0.582199 -0.500000 0.318084
v 0.292801 0.500000 -0.581916
v 0.292801 0.500000 -0.181916
v 0.242801 0.500000 -0.581916
v 0.288737 0.500000 -0.119916
v 0.276615 0.500000 -0.058977
v 0.256643 0.500000 -0.000141
v 0.242801 0.500000 -0.181916
v 0.229163 0.500000 0.055584
v 0.239165 0.500000 -0.126442
v 0.228319 0.500000 -0.071918
v 0.194643 0.500000 0.107246
v 0.210449 0.500000 -0.019276
v 0.185861 0.500000 0.030584
v 0.153676 0.500000 0.153960
v 0.154976 0.500000 0.076808
v 0.118321 0.500000 0.118604
v 0.106962 0.500000 0.194927
v 0.076524 0.500000 0.155259
v 0.055301 0.500000 0.229446
v 0.030301 0.500000 0.186145
v -0.000425 0.500000 0.256927
v -0.019559 0.500000 0.210733
v -0.059260 0.500000 0.276899
v -0.072201 0.500000 0.228602
v -0.120199 0.500000 0.289020
v -0.126726 0.500000 0.239448
v -0.182199 0.500000 0.293084
v -0.182199 0.500000 0.243084
v -0.582199 0.500000 0.293084
v -0.582199 0.500000 0.243084
v -0.582199 -0.500000 0.243084
v -0.582199 -0.500000 0.293084
v -0.182199 -0.500000 0.243084
v -0.182199 -0.500000 0.293084
v -0.126726 -0.500000 0.239448
v -0.120199 -0.500000 0.289020
v -0.072201 -0.500000 0.228602
v -0.059260 -0.500000 0.276899
v -0.019559 -0.500000 0.210733
v -0.000425 -0.500000 0.256927
v 0.030301 -0.500000 0.186145
v 0.055301 -0.500000 0.229446
v 0.076524 -0.500000 0.155259
v 0.106962 -0.500000 0.194927
v 0.118321 -0.500000 0.118604
v 0.153676 -0.500000 0.153960
v 0.154976 -0.500000 0.076808
v 0.185861 -0.500000 0.030584
v 0.194643 -0.500000 0.107246
v 0.210449 -0.500000 -0.019276
v 0.228319 -0.500000 -0.071918
v 0.229163 -0.500000 0.055584
v 0.239165 -0.500000 -0.126442
v 0.242801 -0.500000 -0.181916
v 0.256643 -0.500000 -0.000141
v 0.242801 -0.500000 -0.581916
v 0.276615 -0.500000 -0.058977
v 0.288737 -0.500000 -0.119916
v 0.292801 -0.500000 -0.581916
v 0.292801 -0.500000 -0.181916
v 0.242801 -0.500000 -0.581916
v 0.242801 0.500000 -0.581916
v 0.242801 -0.500000 -0.181916
v 0.242801 0.500000 -0.181916
v 0.242801 -0.500000 -0.181916
v 0.242801 0.500000 -0.181916
v 0.239165 -0.500000 -0.126442
v 0.239165 0.500000 -0.126442
v 0.239165 -0.500000 -0.126442
v 0.239165 0.500000 -0.126442
v 0.228319 -0.500000 -0.071918
v 0.228319 0.500000 -0.071918
v 0.228319 -0.500000 -0.071918
v 0.228319 0.500000 -0.071918
v 0.210449 -0.500000 -0.019276
v 0.210449 0.500000 -0.019276
v 0.210449 -0.500000 -0.019276
v 0.210449 0.500000 -0.019276
v 0.185861 -0.500000 0.030584
v 0.185861 0.500000 0.030584
v 0.185861 -0.500000 0.030584
v 0.185861 0.500000 0.030584
v 0.154976 -0.500000 0.076808
v 0.154976 0.500000 0.076808
v 0.154976 -0.500000 0.076808
v 0.154976 0.500000 0.076808
v 0.118321 -0.500000 0.118604
v 0.118321 0.500000 0.118604
v 0.076524 -0.500000 0.155259
v 0.118321 -0.500000 0.118604
v 0.076524 0.500000 0.155259
v 0.118321 0.500000 0.118604
v 0.030301 -0.500000 0.186145
v 0.076524 -0.500000 0.155259
v 0.030301 0.500000 0.186145
v 0.076524 0.500000 0.155259
v -0.019559 -0.500000 0.210733
v 0.030301 -0.500000 0.186145
v -0.019559 0.500000 0.210733
v 0.030301 0.500000 0.186145
v -0.072201 -0.500000 0.228602
v -0.019559 -0.500000 0.210733
v -0.072201 0.500000 0.228602
v -0.019559 0.500000 0.210733
v -0.126726 -0.500000 0.239448
v -0.072201 -0.500000 0.228602
v -0.126726 0.500000 0.239448
v -0.072201 0.500000 0.228602
v -0.182199 -0.500000 0.243084
v -0.126726 -0.500000 0.239448
v -0.182199 0.500000 0.243084
v -0.126726 0.500000 0.239448
v -0.582199 -0.500000 0.243084
v -0.182199 -0.500000 0.243084
v -0.582199 0.500000 0.243084
v -0.182199 0.500000 0.243084
v -0.182199 -0.500000 0.293084
v -0.582199 -0.500000 0.293084
v -0.182199 0.500000 0.293084
v -0.582199 0.500000 0.293084
v -0.120199 -0.500000 0.289020
v -0.182199 -0.500000 0.293084
v -0.120199 0.500000 0.289020
v -0.182199 0.500000 0.293084
v -0.059260 -0.500000 0.276899
v -0.120199 -0.500000 0.289020
v -0.059260 0.500000 0.276899
v -0.120199 0.500000 0.289020
v -0.000425 -0.500000 0.256927
v -0.059260 -0.500000 0.276899
v -0.000425 0.500000 0.256927
v -0.059260 0.500000 0.276899
v 0.055301 -0.500000 0.229446
v -0.000425 -0.500000 0.256927
v 0.055301 0.500000 0.229446
v -0.000425 0.500000 0.256927
v 0.106962 -0.500000 0.194927
v 0.055301 -0.500000 0.229446
v 0.106962 0.500000 0.194927
v 0.055301 0.500000 0.229446
v 0.153676 -0.500000 0.153960
v 0.106962 -0.500000 0.194927
v 0.153676 0.500000 0.153960
v 0.106962 0.500000 0.194927
v 0.194643 0.500000 0.107246
v 0.194643 -0.500000 0.107246
v 0.153676 0.500000 0.153960
v 0.153676 -0.500000 0.153960
v 0.229163 0.500000 0.055584
v 0.229163 -0.500000 0.055584
v 0.194643 0.500000 0.107246
v 0.194643 -0.500000 0.107246
v 0.256643 0.500000 -0.000141
v 0.256643 -0.500000 -0.000141
v 0.229163 0.500000 0.055584
v 0.229163 -0.500000 0.055584
v 0.276615 0.500000 -0.058977
v 0.276615 -0.500000 -0.058977
v 0.256643 0.500000 -0.000141
v 0.256643 -0.500000 -0.000141
v 0.288737 0.500000 -0.119916
v 0.288737 -0.500000 -0.119916
v 0.276615 0.500000 -0.058977
v 0.276615 -0.500000 -0.058977
v 0.292801 0.500000 -0.181916
v 0.292801 -0.500000 -0.181916
v 0.288737 0.500000 -0.119916
v 0.288737 -0.500000 -0.119916
v 0.292801 0.500000 -0.581916
v 0.292801 -0.500000 -0.581916
v 0.292801 0.500000 -0.181916
v 0.292801 -0.500000 -0.181916
vn -0.0000 1.0000 -0.0000
vn -0.0000 -1.0000 -0.0000
vn -0.0000 -0.0000 -1.0000
vn -1.0000 -0.0000 -0.0000
vn -0.0000 -0.0000 1.0000
vn 1.0000 -0.0000 -0.0000
vn -0.9995 -0.0000 -0.0327
vn -0.9914 -0.0000 -0.1305
vn -0.9659 -0.0000 -0.2588
vn -0.9239 -0.0000 -0.3827
vn -0.8660 -0.0000 -0.5000
vn -0.7934 -0.0000 -0.6088
vn -0.7071 -0.0000 -0.7071
vn -0.7933 -0.0000 -0.6088
vn -0.6088 -0.0000 -0.7933
vn -0.5000 -0.0000 -0.8660
vn -0.6088 -0.0000 -0.7934
vn -0.3827 -0.0000 -0.9239
vn -0.2588 -0.0000 -0.9659
vn -0.1305 -0.0000 -0.9914
vn -0.0327 -0.0000 -0.9995
vn 0.0327 -0.0000 0.9995
vn 0.1305 -0.0000 0.9914
vn 0.2588 -0.0000 0.9659
vn 0.3827 -0.0000 0.9239
vn 0.5000 -0.0000 0.8660
vn 0.6088 -0.0000 0.7934
vn 0.7071 -0.0000 0.7071
vn 0.6088 -0.0000 0.7933
vn 0.7933 -0.0000 0.6088
vn 0.7934 -0.0000 0.6088
vn 0.8660 -0.0000 0.5000
vn 0.9239 -0.0000 0.3827
vn 0.9659 -0.0000 0.2588
vn 0.9914 -0.0000 0.1305
vn 0.9995 -0.0000 0.0327
vt 0.593750 0.175000
vt 0.593750 0.075000
vt 0.718750 0.175000
vt 0.718750 0.075000
s 0
usemtl colormap.153
f 3/1/1 2/1/1 1/1/1
f 2/1/1 3/1/1 4/1/1
f 7/2/2 6/2/2 5/2/2
f 6/2/2 7/2/2 8/2/2
f 11/1/3 10/2/3 9/2/3
f 10/2/3 11/1/3 12/1/3
f 15/2/4 14/1/4 13/2/4
f 14/1/4 15/2/4 16/1/4
f 19/1/5 18/2/5 17/2/5
f 18/2/5 19/1/5 20/1/5
f 23/1/6 22/2/6 21/1/6
f 22/2/6 23/1/6 24/2/6
f 27/1/1 26/1/1 25/1/1
f 26/1/1 27/1/1 28/1/1
f 31/2/2 30/2/2 29/2/2
f 30/2/2 31/2/2 32/2/2
f 35/1/3 34/2/3 33/2/3
f 34/2/3 35/1/3 36/1/3
f 39/2/4 38/1/4 37/2/4
f 38/1/4 39/2/4 40/1/4
f 43/1/5 42/2/5 41/2/5
f 42/2/5 43/1/5 44/1/5
f 47/1/6 46/2/6 45/1/6
f 46/2/6 47/1/6 48/2/6
f 51/3/1 50/3/1 49/3/1
f 50/3/1 51/3/1 52/3/1
f 52/3/1 51/3/1 53/3/1
f 53/3/1 51/3/1 54/3/1
f 54/3/1 51/3/1 55/3/1
f 54/3/1 55/3/1 56/3/1
f 56/3/1 55/3/1 57/3/1
f 56/3/1 57/3/1 58/3/1
f 56/3/1 58/3/1 59/3/1
f 59/3/1 58/3/1 60/3/1
f 59/3/1 60/3/1 61/3/1
f 59/3/1 61/3/1 62/3/1
f 62/3/1 61/3/1 63/3/1
f 62/3/1 63/3/1 64/3/1
f 62/3/1 64/3/1 65/3/1
f 65/3/1 64/3/1 66/3/1
f 65/3/1 66/3/1 67/3/1
f 67/3/1 66/3/1 68/3/1
f 67/3/1 68/3/1 69/3/1
f 69/3/1 68/3/1 70/3/1
f 69/3/1 70/3/1 71/3/1
f 71/3/1 70/3/1 72/3/1
f 71/3/1 72/3/1 73/3/1
f 73/3/1 72/3/1 74/3/1
f 73/3/1 74/3/1 75/3/1
f 75/3/1 74/3/1 76/3/1
f 75/3/1 76/3/1 77/3/1
f 77/3/1 76/3/1 78/3/1
f 81/4/2 80/4/2 79/4/2
f 81/4/2 82/4/2 80/4/2
f 83/4/2 82/4/2 81/4/2
f 83/4/2 84/4/2 82/4/2
f 85/4/2 84/4/2 83/4/2
f 85/4/2 86/4/2 84/4/2
f 87/4/2 86/4/2 85/4/2
f 87/4/2 88/4/2 86/4/2
f 89/4/2 88/4/2 87/4/2
f 89/4/2 90/4/2 88/4/2
f 91/4/2 90/4/2 89/4/2
f 91/4/2 92/4/2 90/4/2
f 93/4/2 92/4/2 91/4/2
f 93/4/2 94/4/2 92/4/2
f 95/4/2 94/4/2 93/4/2
f 96/4/2 94/4/2 95/4/2
f 96/4/2 97/4/2 94/4/2
f 98/4/2 97/4/2 96/4/2
f 99/4/2 97/4/2 98/4/2
f 99/4/2 100/4/2 97/4/2
f 101/4/2 100/4/2 99/4/2
f 102/4/2 100/4/2 101/4/2
f 100/4/2 102/4/2 103/4/2
f 104/4/2 103/4/2 102/4/2
f 104/4/2 105/4/2 103/4/2
f 104/4/2 106/4/2 105/4/2
f 107/4/2 106/4/2 104/4/2
f 106/4/2 107/4/2 108/4/2
s 1
f 111/4/7 110/3/4 109/4/4
f 110/3/4 111/4/7 112/3/7
f 115/4/8 114/3/7 113/4/7
f 114/3/7 115/4/8 116/3/8
f 119/4/9 118/3/8 117/4/8
f 118/3/8 119/4/9 120/3/9
f 123/4/10 122/3/9 121/4/9
f 122/3/9 123/4/10 124/3/10
f 127/4/11 126/3/10 125/4/10
f 126/3/10 127/4/11 128/3/11
f 131/4/12 130/3/11 129/4/11
f 130/3/11 131/4/12 132/3/12
f 135/4/13 134/3/14 133/4/14
f 134/3/14 135/4/13 136/3/13
f 139/3/15 138/4/13 137/4/15
f 138/4/13 139/3/15 140/3/13
f 143/3/16 142/4/17 141/4/16
f 142/4/17 143/3/16 144/3/17
f 147/3/18 146/4/16 145/4/18
f 146/4/16 147/3/18 148/3/16
f 151/3/19 150/4/18 149/4/19
f 150/4/18 151/3/19 152/3/18
f 155/3/20 154/4/19 153/4/20
f 154/4/19 155/3/20 156/3/19
f 159/3/21 158/4/20 157/4/21
f 158/4/20 159/3/21 160/3/20
f 163/3/3 162/4/21 161/4/3
f 162/4/21 163/3/3 164/3/21
f 167/3/22 166/4/5 165/4/22
f 166/4/5 167/3/22 168/3/5
f 171/3/23 170/4/22 169/4/23
f 170/4/22 171/3/23 172/3/22
f 175/3/24 174/4/23 173/4/24
f 174/4/23 175/3/24 176/3/23
f 179/3/25 178/4/24 177/4/25
f 178/4/24 179/3/25 180/3/24
f 183/3/26 182/4/25 181/4/26
f 182/4/25 183/3/26 184/3/25
f 187/3/27 186/4/26 185/4/27
f 186/4/26 187/3/27 188/3/26
f 191/3/28 190/4/29 189/4/28
f 190/4/29 191/3/28 192/3/29
f 195/3/28 194/4/30 193/3/30
f 194/4/30 195/3/28 196/4/28
f 199/3/31 198/4/32 197/3/32
f 198/4/32 199/3/31 200/4/31
f 203/3/32 202/4/33 201/3/33
f 202/4/33 203/3/32 204/4/32
f 207/3/33 206/4/34 205/3/34
f 206/4/34 207/3/33 208/4/33
f 211/3/34 210/4/35 209/3/35
f 210/4/35 211/3/34 212/4/34
f 215/3/35 214/4/36 213/3/36
f 214/4/36 215/3/35 216/4/35
f 219/3/36 218/4/6 217/3/6
f 218/4/6 219/3/36 220/4/36
