<svg width="263" height="218" viewBox="0 0 263 218" fill="none" xmlns="http://www.w3.org/2000/svg">
<path d="M131.372 0.895355C130.208 -0.285349 128.309 -0.300233 127.129 0.862112L107.903 19.8036C106.723 20.9659 106.71 22.8654 107.873 24.0461C109.037 25.2268 110.936 25.2417 112.116 24.0793L129.206 7.24243L146.057 24.3453C147.22 25.526 149.119 25.5408 150.299 24.3785C151.479 23.2162 151.492 21.3167 150.329 20.136L131.372 0.895355ZM127.75 213.961L130.75 213.984L132.236 3.02347L129.236 2.99996L126.236 2.97646L124.75 213.937L127.75 213.961Z" fill="#82F879"/>
<path d="M3.82883 143.055C1.75574 143.067 0.0814169 143.963 0.0891237 145.055L0.214714 162.849C0.222421 163.941 1.90924 164.816 3.98233 164.804C6.05542 164.792 7.72975 163.896 7.72204 162.804L7.6104 146.987L37.6397 146.806C39.7128 146.794 41.3871 145.898 41.3794 144.806C41.3717 143.714 39.6849 142.839 37.6118 142.852L3.82883 143.055ZM127.767 209.324L130.412 207.91L6.48716 143.618L3.84279 145.032L1.19841 146.446L125.123 210.738L127.767 209.324Z" fill="#5BB3F7"/>
<path d="M262.754 139.313C262.746 138.221 261.059 137.346 258.986 137.358L225.203 137.561C223.13 137.574 221.456 138.469 221.463 139.561C221.471 140.653 223.158 141.528 225.231 141.516L255.26 141.335L255.372 157.153C255.38 158.245 257.066 159.12 259.14 159.107C261.213 159.095 262.887 158.2 262.879 157.108L262.754 139.313ZM128.12 209.322L130.784 210.704L261.664 140.718L259 139.335L256.336 137.953L125.456 207.94L128.12 209.322Z" fill="#FF5656"/>
<path d="M131.342 128.129V217.164L57.6491 177.711V88.6761L131.342 128.129Z" fill="#F86868" stroke="black"/>
<path d="M131.834 127.256L58.2886 87.8835L128.518 55.8559L205.357 87.8948L131.834 127.256Z" fill="#F86868" stroke="black"/>
<path d="M206.036 177.713V88.6777L132.342 128.131V217.166L206.036 177.713Z" fill="#F86868" stroke="black"/>
<path d="M102.364 132.443L102.383 134.849C121.899 151.882 141.281 151.714 160.529 134.345L160.511 131.939L102.364 132.443Z" fill="white"/>
<path d="M102.365 132.443L113.23 133.37C113.802 133.413 114.162 133.75 114.31 134.381L114.634 139.262L124.068 139.909L124.605 135.458C124.696 134.922 125.051 134.555 125.668 134.355L137.24 134.255C137.861 134.444 138.221 134.805 138.32 135.339L138.926 139.78L148.35 138.969L148.598 134.084C148.736 133.451 149.09 133.107 149.661 133.054L160.511 131.939L160.371 114.01C161.785 112.102 163.103 110.123 164.326 108.071C162.637 105.219 160.64 102.612 158.335 100.251C156.295 101.24 154.352 102.399 152.505 103.727C150.586 101.946 148.478 100.409 146.182 99.1171C146.496 96.6361 146.667 94.1564 146.696 91.6779C143.875 90.3417 140.939 89.3467 137.886 88.6928C136.664 90.7929 135.585 92.9647 134.65 95.2081C132.314 94.8882 129.981 94.9084 127.65 95.2688C126.68 93.0419 125.568 90.8891 124.313 88.8105C121.271 89.5172 118.35 90.5629 115.551 91.9478C115.618 94.4255 115.828 96.902 116.18 99.3772C113.905 100.709 111.821 102.282 109.931 104.096C108.063 102.8 106.102 101.676 104.046 100.721C101.779 103.122 99.8233 105.763 98.1788 108.645C99.4329 110.675 100.782 112.631 102.225 114.514L102.365 132.443ZM102.383 134.849L102.406 137.691C102.562 157.807 160.637 157.304 160.48 137.188L160.458 134.345L150.893 135.303L150.575 140.335C150.484 140.822 150.153 141.14 149.582 141.291L138.017 142.193C137.445 142.198 137.062 141.934 136.867 141.401L136.116 136.67L126.83 136.75L126.152 141.494C125.966 142.03 125.587 142.301 125.016 142.306L113.437 141.604C112.865 141.464 112.529 141.151 112.43 140.666L112.034 135.64L102.383 134.849Z" fill="#478CBF"/>
<path d="M129.324 126.889C129.558 129.365 133.273 129.333 133.468 126.853L133.419 120.585C133.185 118.108 129.471 118.141 129.276 120.621L129.324 126.889Z" fill="white"/>
<path d="M146.62 127.905C150.171 127.874 153.027 124.912 152.998 121.29C152.97 117.667 150.069 114.755 146.518 114.786C142.968 114.816 140.112 117.778 140.14 121.401C140.169 125.024 143.07 127.936 146.62 127.905Z" fill="white"/>
<path d="M116.19 128.169C119.741 128.138 122.596 125.176 122.568 121.553C122.54 117.93 119.638 115.018 116.088 115.049C112.537 115.08 109.682 118.042 109.71 121.665C109.738 125.287 112.639 128.199 116.19 128.169Z" fill="white"/>
<path d="M116.748 126.415C119.115 126.394 121.019 124.419 121 122.004C120.981 119.589 119.047 117.648 116.68 117.668C114.313 117.689 112.409 119.663 112.428 122.079C112.447 124.494 114.381 126.435 116.748 126.415Z" fill="#414042"/>
<path d="M146.035 126.161C148.402 126.14 150.306 124.166 150.287 121.75C150.268 119.335 148.334 117.394 145.967 117.415C143.6 117.435 141.696 119.41 141.715 121.825C141.734 124.24 143.668 126.181 146.035 126.161Z" fill="#414042"/>
</svg>
